<?xml version="1.0" encoding="utf-8"?>
<!-- Generator: Adobe Illustrator 27.5.0, SVG Export Plug-In . SVG Version: 6.00 Build 0)  -->
<svg version="1.1" xmlns="http://www.w3.org/2000/svg" xmlns:xlink="http://www.w3.org/1999/xlink" x="0px" y="0px"
	 viewBox="0 0 664.96 555.94" style="enable-background:new 0 0 664.96 555.94;" xml:space="preserve">
<style type="text/css">
	.st0{display:none;}
	.st1{display:inline;fill:#504099;}
	.st2{fill:#E99669;}
	.st3{opacity:0.55;fill:#F7DD8C;}
	.st4{display:none;opacity:0.1;}
	.st5{display:inline;}
	.st6{fill:none;}
	.st7{fill:#B5C1C6;}
	.st8{fill:#C7D2D7;}
	.st9{fill:#DFE7EA;}
	.st10{fill:#FFFFFF;}
	.st11{fill:#F5D7E3;}
	.st12{fill:#495375;}
	.st13{enable-background:new    ;}
	.st14{fill:#A8577E;}
	.st15{fill:#F4A5AE;}
	.st16{fill:#F4D071;}
	.st17{fill:#F7DD8C;}
	.st18{fill:#454F6B;}
	.st19{fill:#CC6164;}
	.st20{fill:#7DD3E9;}
</style>
<g id="BACKGROUND" class="st0">
	<rect x="80.6" y="55.94" class="st1" width="500" height="500"/>
</g>
<g id="OBJECTS">
	<path class="st2" d="M296.53,67.24c-29.39,8.75-142.24,42.33-166.58,130.44c-18.41,66.62,28.66,110.55,0.7,168.58
		c-28.38,58.9-97.02,55.5-97.58,88.49c-0.54,31.54,61.67,65.78,119.19,74.76c71.2,11.11,100.24-21.94,172.85-18.31
		c76.91,3.85,87.94,50.01,129.64,44.24c101.26-14,229.43-286.58,128.25-427.18C498.02,10.2,307.92,63.85,296.53,67.24z"/>
	<path class="st3" d="M568.55,255.8c-7.81-22.72-37.8-109.94-116.46-128.75c-59.48-14.23-98.7,22.15-150.52,0.54
		c-52.59-21.93-49.55-74.99-79-75.42c-28.16-0.41-58.73,47.67-66.75,92.12c-9.92,55.03,19.59,77.47,16.35,133.6
		c-3.44,59.44-44.65,67.97-39.5,100.2c12.5,78.26,255.87,177.33,381.4,99.12C619.48,411.53,571.57,264.6,568.55,255.8z"/>
	<g>
		<g class="st4">
			
				<ellipse transform="matrix(2.835249e-03 -1 1 2.835249e-03 -81.3844 740.4843)" class="st5" cx="330.6" cy="411.05" rx="112.35" ry="193.97"/>
		</g>
		<g>
			<g>
				<path class="st6" d="M487.92,201.86c0.03,0.15,0.07,0.29,0.11,0.44C487.99,202.15,487.95,202,487.92,201.86z"/>
				<polygon class="st6" points="514.46,209.55 514.46,209.54 514.46,209.55 				"/>
				<path class="st6" d="M514.87,213.02C514.87,213.02,514.87,213.02,514.87,213.02c-0.01-0.14-0.02-0.29-0.03-0.44l0,0
					C514.85,212.73,514.86,212.87,514.87,213.02z"/>
				<path class="st6" d="M491.21,209.03c0.08,0.11,0.16,0.22,0.24,0.32C491.37,209.24,491.29,209.13,491.21,209.03z"/>
				<path class="st6" d="M487.8,196.75c-0.02,0.1-0.05,0.2-0.07,0.31C487.75,196.95,487.78,196.85,487.8,196.75z"/>
				<path class="st6" d="M488.02,195.97c-0.03,0.1-0.07,0.19-0.1,0.29C487.96,196.17,487.99,196.07,488.02,195.97z"/>
				<path class="st6" d="M488.66,194.68c-0.05,0.07-0.09,0.14-0.13,0.22C488.57,194.82,488.61,194.75,488.66,194.68z"/>
				<path class="st6" d="M488.31,195.29c-0.04,0.08-0.08,0.17-0.12,0.26C488.23,195.46,488.27,195.37,488.31,195.29z"/>
				<path class="st6" d="M502.19,214.26C502.19,214.26,502.19,214.25,502.19,214.26C502.19,214.25,502.19,214.26,502.19,214.26z"/>
				<path class="st6" d="M489.79,193.53c-0.08,0.06-0.17,0.11-0.25,0.18C489.61,193.64,489.7,193.59,489.79,193.53z"/>
				<path class="st6" d="M489.07,194.15c-0.04,0.04-0.08,0.1-0.12,0.14C488.99,194.25,489.03,194.2,489.07,194.15z"/>
				<path class="st6" d="M514.8,217c0.08-0.76,0.13-1.55,0.13-2.38c0,0,0,0,0,0c0,0,0,0,0,0C514.92,215.46,514.88,216.25,514.8,217z
					"/>
				<path class="st6" d="M488.44,179.66C488.44,179.66,488.44,179.66,488.44,179.66c-0.12-0.01-0.23-0.01-0.35-0.01l0,0
					C488.21,179.65,488.33,179.65,488.44,179.66z"/>
				<path class="st6" d="M487.29,179.66C487.29,179.66,487.29,179.66,487.29,179.66c-0.11,0-0.22,0.01-0.33,0.02c0,0,0,0,0,0
					C487.06,179.66,487.17,179.66,487.29,179.66z"/>
				<path class="st6" d="M486.08,179.77C486.08,179.77,486.08,179.77,486.08,179.77c-0.05,0.01-0.11,0.01-0.16,0.02c0,0,0,0,0,0
					C485.97,179.79,486.03,179.78,486.08,179.77z"/>
				<path class="st6" d="M484.04,180.33c-0.21,0.08-0.42,0.17-0.62,0.27C483.62,180.5,483.83,180.42,484.04,180.33
					C484.04,180.33,484.04,180.33,484.04,180.33z"/>
				<path class="st6" d="M488.92,179.7c0.2,0.02,0.4,0.04,0.6,0.07C489.32,179.73,489.12,179.71,488.92,179.7z"/>
				<path class="st6" d="M508.96,195.35c-0.22-0.36-0.44-0.72-0.67-1.07c0,0,0,0,0,0C508.52,194.64,508.74,194.99,508.96,195.35z"/>
				<path class="st6" d="M502.62,187.21C502.62,187.21,502.62,187.21,502.62,187.21c-0.29-0.29-0.59-0.58-0.89-0.86l7.47-4.34
					l-7.47,4.34C502.03,186.63,502.33,186.92,502.62,187.21z"/>
				<path class="st6" d="M504.59,189.33L504.59,189.33c-0.14-0.16-0.27-0.31-0.41-0.46c0,0,0,0,0,0.01
					C504.32,189.03,504.46,189.18,504.59,189.33z"/>
				<path class="st6" d="M503.63,188.26C503.63,188.26,503.63,188.26,503.63,188.26c-0.15-0.16-0.3-0.31-0.45-0.47c0,0,0,0,0,0
					C503.33,187.95,503.48,188.1,503.63,188.26z"/>
				<path class="st6" d="M507.32,192.83C507.32,192.83,507.32,192.83,507.32,192.83c-0.04-0.06-0.09-0.13-0.14-0.19c0,0,0,0,0,0
					C507.23,192.71,507.27,192.77,507.32,192.83z"/>
				<path class="st6" d="M506.14,191.23c-0.08-0.1-0.15-0.2-0.23-0.3c0,0,0,0,0,0C505.99,191.03,506.06,191.13,506.14,191.23z"/>
				<path class="st6" d="M484.96,180.02c-0.06,0.02-0.11,0.04-0.16,0.05C484.85,180.05,484.9,180.03,484.96,180.02
					C484.96,180.02,484.96,180.02,484.96,180.02z"/>
				<path class="st6" d="M490.79,208.41c-0.06-0.08-0.11-0.16-0.17-0.25c0,0,0,0,0,0C490.68,208.25,490.73,208.33,490.79,208.41z"/>
				<path class="st6" d="M490.08,207.29c-0.03-0.05-0.06-0.1-0.09-0.15c0,0,0,0,0,0C490.03,207.19,490.05,207.24,490.08,207.29z"/>
				<path class="st6" d="M489.58,206.37C489.58,206.37,489.58,206.37,489.58,206.37c-0.04-0.09-0.09-0.17-0.13-0.26c0,0,0,0,0,0
					C489.49,206.2,489.54,206.28,489.58,206.37z"/>
				<path class="st6" d="M492.17,210.25C492.17,210.25,492.17,210.25,492.17,210.25c-0.11-0.13-0.22-0.27-0.33-0.41c0,0,0,0,0,0
					C491.95,209.98,492.06,210.12,492.17,210.25z"/>
				<path class="st6" d="M489.06,205.28c-0.02-0.04-0.03-0.07-0.05-0.1C489.03,205.21,489.04,205.24,489.06,205.28
					C489.06,205.28,489.06,205.28,489.06,205.28z"/>
				<path class="st6" d="M493.07,211.23C493.07,211.23,493.07,211.23,493.07,211.23c-0.19-0.2-0.38-0.4-0.57-0.61c0,0,0,0,0,0
					C492.68,210.83,492.87,211.03,493.07,211.23z"/>
				<path class="st6" d="M487.64,200.09C487.64,200.09,487.64,200.09,487.64,200.09c-0.04-0.42-0.07-0.84-0.07-1.25
					c0,0.31,0.01,0.63,0.04,0.95C487.62,199.88,487.63,199.99,487.64,200.09z"/>
				<path class="st6" d="M488.63,204.23C488.63,204.23,488.63,204.23,488.63,204.23c-0.04-0.09-0.07-0.19-0.1-0.28c0,0,0,0,0,0
					C488.56,204.04,488.6,204.14,488.63,204.23z"/>
				<path class="st6" d="M487.83,201.39c-0.04-0.23-0.09-0.46-0.12-0.68C487.74,200.93,487.79,201.16,487.83,201.39
					C487.83,201.39,487.83,201.39,487.83,201.39z"/>
				<path class="st6" d="M493.72,211.86c-0.1-0.09-0.19-0.18-0.29-0.27h0C493.53,211.68,493.62,211.77,493.72,211.86z"/>
				<path class="st6" d="M487.65,197.63c-0.01,0.09-0.03,0.19-0.04,0.28C487.62,197.81,487.64,197.72,487.65,197.63z"/>
				<path class="st6" d="M488.3,203.26C488.3,203.26,488.3,203.26,488.3,203.26c-0.04-0.12-0.07-0.23-0.11-0.35c0,0,0,0,0,0
					C488.23,203.03,488.26,203.14,488.3,203.26z"/>
				<path class="st6" d="M497.87,214.44c-0.02-0.01-0.03-0.01-0.05-0.02c0.01,0,0.02,0.01,0.03,0.01
					C497.85,214.44,497.86,214.44,497.87,214.44z"/>
				<path class="st6" d="M501.01,214.7c-0.05,0.01-0.09,0.02-0.14,0.03c0.01,0,0.01,0,0.02,0
					C500.93,214.72,500.97,214.71,501.01,214.7z"/>
				<path class="st6" d="M500.24,214.81c-0.05,0-0.1,0-0.15,0c0.01,0,0.03,0,0.04,0C500.16,214.81,500.2,214.81,500.24,214.81z"/>
				<path class="st6" d="M498.86,214.7c-0.12-0.02-0.23-0.05-0.35-0.08c0,0,0.01,0,0.01,0C498.63,214.65,498.74,214.68,498.86,214.7
					z"/>
				<path class="st6" d="M499.57,214.8c-0.09-0.01-0.17-0.02-0.26-0.03c0.01,0,0.01,0,0.02,0
					C499.4,214.78,499.48,214.79,499.57,214.8z"/>
				<path class="st6" d="M501.64,214.51c-0.05,0.02-0.1,0.04-0.15,0.05c0.01,0,0.02-0.01,0.03-0.01
					C501.55,214.54,501.59,214.53,501.64,214.51z"/>
				<path class="st6" d="M504.37,209.71c-0.26-0.12-0.52-0.25-0.79-0.41c-0.28-0.16-0.55-0.33-0.82-0.52
					c-0.09-0.06-0.17-0.12-0.26-0.19c-0.18-0.13-0.36-0.27-0.54-0.41c-0.1-0.08-0.2-0.16-0.29-0.24c-0.16-0.14-0.33-0.28-0.48-0.42
					c-0.1-0.09-0.19-0.18-0.29-0.27c-0.12-0.12-0.24-0.24-0.36-0.36c-0.19-0.2-0.38-0.4-0.57-0.61c-0.11-0.12-0.22-0.24-0.33-0.37
					c-0.11-0.13-0.22-0.27-0.33-0.41c-0.13-0.16-0.26-0.33-0.39-0.5c-0.08-0.11-0.16-0.21-0.24-0.32c-0.15-0.2-0.29-0.41-0.43-0.61
					c-0.06-0.08-0.11-0.16-0.17-0.25c-0.19-0.29-0.37-0.58-0.54-0.88c-0.03-0.05-0.06-0.1-0.08-0.15c-0.14-0.25-0.28-0.51-0.42-0.77
					c-0.04-0.09-0.09-0.17-0.13-0.26c-0.14-0.28-0.27-0.55-0.39-0.83c-0.02-0.03-0.03-0.07-0.05-0.1c-0.14-0.31-0.26-0.63-0.38-0.94
					c-0.04-0.09-0.07-0.19-0.1-0.28c-0.08-0.23-0.16-0.46-0.23-0.69c-0.04-0.12-0.07-0.24-0.11-0.35c-0.06-0.2-0.11-0.41-0.16-0.61
					c-0.04-0.15-0.07-0.29-0.11-0.44c-0.04-0.16-0.06-0.31-0.09-0.47c-0.04-0.23-0.08-0.46-0.12-0.68
					c-0.03-0.21-0.05-0.41-0.07-0.62c-0.01-0.1-0.02-0.2-0.03-0.3c-0.02-0.32-0.04-0.64-0.04-0.95c0-0.38,0.03-0.75,0.06-1.1
					c0.35,0.15,0.7,0.32,1.07,0.53c4.74,2.74,8.56,9.36,8.55,14.81c0,0.38-0.03,0.75-0.06,1.1c-0.03-0.01-0.05-0.02-0.08-0.03
					C504.51,209.77,504.44,209.74,504.37,209.71z"/>
				<path class="st6" d="M494.5,212.53c0.18,0.14,0.36,0.28,0.54,0.41c0.09,0.06,0.17,0.13,0.26,0.19c0.27,0.18,0.54,0.36,0.82,0.52
					c-0.76-0.44-1.48-0.98-2.18-1.59c0.09,0.08,0.18,0.16,0.27,0.24C494.3,212.37,494.4,212.45,494.5,212.53z"/>
				<path class="st6" d="M497.1,214.14c-0.32-0.14-0.65-0.31-0.99-0.5c0.27,0.15,0.53,0.29,0.79,0.41
					C496.97,214.08,497.03,214.11,497.1,214.14z"/>
				<path class="st7" d="M473.13,199.78l4.56-2.65c0.04,0.3,0.09,0.6,0.14,0.9L473.13,199.78z"/>
				<path class="st7" d="M508.44,227.16l-0.4,2.4l-7.47,4.34l1.03-6.3C504.16,228.17,506.48,228,508.44,227.16z"/>
				<path class="st7" d="M487.65,197.63c0.02-0.2,0.05-0.39,0.08-0.57c0.02-0.11,0.04-0.21,0.07-0.31c0.04-0.16,0.08-0.33,0.12-0.48
					c0.03-0.1,0.06-0.2,0.1-0.29c0.05-0.15,0.11-0.29,0.17-0.43c0.04-0.09,0.08-0.18,0.12-0.26c0.07-0.14,0.14-0.26,0.22-0.39
					c0.04-0.07,0.09-0.15,0.13-0.22c0.09-0.14,0.19-0.26,0.29-0.38c0.04-0.05,0.07-0.1,0.12-0.14c0.15-0.16,0.3-0.31,0.47-0.44
					c0.08-0.07,0.17-0.12,0.25-0.18c1.35-0.95,3.21-1.05,5.32-0.13c-0.04,0.35-0.06,0.71-0.06,1.1c0,0.31,0.01,0.63,0.04,0.95
					c0.01,0.1,0.02,0.2,0.03,0.3c0.02,0.21,0.04,0.41,0.07,0.62c0.03,0.23,0.07,0.45,0.12,0.68c0.03,0.16,0.06,0.31,0.09,0.47
					c0.03,0.15,0.07,0.29,0.11,0.44c0.05,0.2,0.1,0.41,0.16,0.61c0.03,0.12,0.07,0.24,0.11,0.35c0.07,0.23,0.15,0.46,0.23,0.69
					c0.03,0.09,0.07,0.19,0.1,0.28c0.12,0.32,0.24,0.63,0.38,0.94c0.02,0.04,0.03,0.07,0.05,0.1c0.12,0.28,0.26,0.56,0.39,0.83
					c0.04,0.09,0.09,0.17,0.13,0.26c0.13,0.26,0.27,0.52,0.42,0.77c0.03,0.05,0.06,0.1,0.08,0.15c0.17,0.3,0.35,0.59,0.54,0.88
					c0.05,0.08,0.11,0.16,0.17,0.25c0.14,0.21,0.28,0.41,0.43,0.61c0.08,0.11,0.16,0.22,0.24,0.32c0.13,0.17,0.26,0.33,0.39,0.5
					c0.11,0.14,0.22,0.27,0.33,0.41c0.11,0.13,0.22,0.25,0.33,0.37c0.19,0.21,0.38,0.41,0.57,0.61c0.12,0.12,0.24,0.25,0.36,0.36
					c0.1,0.09,0.19,0.18,0.29,0.27c0.16,0.15,0.32,0.29,0.48,0.42c0.1,0.08,0.19,0.16,0.29,0.24c0.18,0.14,0.36,0.28,0.54,0.41
					c0.09,0.06,0.17,0.13,0.26,0.19c0.27,0.18,0.54,0.36,0.82,0.52c0.27,0.15,0.53,0.29,0.79,0.41c0.07,0.03,0.14,0.06,0.2,0.09
					c0.03,0.01,0.05,0.02,0.08,0.03c-0.23,2.14-1.13,3.66-2.47,4.42c0,0,0,0,0,0c-0.18,0.1-0.36,0.18-0.55,0.26
					c-0.04,0.02-0.08,0.03-0.13,0.04c-0.01,0-0.02,0.01-0.03,0.01c-0.15,0.05-0.31,0.1-0.47,0.13c-0.04,0.01-0.08,0.02-0.12,0.03
					c-0.01,0-0.01,0-0.02,0c-0.2,0.04-0.41,0.06-0.63,0.08c-0.04,0-0.07,0-0.11,0c-0.01,0-0.03,0-0.04,0c-0.17,0-0.34,0-0.52-0.01
					c-0.08-0.01-0.16-0.02-0.25-0.02c-0.01,0-0.01,0-0.02,0c-0.15-0.02-0.3-0.04-0.45-0.07c-0.11-0.02-0.23-0.05-0.34-0.07
					c0,0-0.01,0-0.01,0c-0.21-0.05-0.42-0.11-0.64-0.18c-0.01,0-0.02,0-0.02-0.01c-0.01,0-0.02-0.01-0.03-0.01
					c-0.24-0.08-0.47-0.18-0.72-0.29c-0.07-0.03-0.13-0.06-0.2-0.09c-0.26-0.12-0.52-0.25-0.79-0.41c-0.28-0.16-0.55-0.33-0.82-0.52
					c-0.09-0.06-0.17-0.12-0.26-0.19c-0.18-0.13-0.36-0.26-0.54-0.41c-0.1-0.08-0.2-0.16-0.29-0.24c-0.09-0.08-0.18-0.16-0.27-0.24
					c-0.07-0.06-0.14-0.12-0.21-0.18c-0.1-0.09-0.19-0.18-0.29-0.27h0c-0.12-0.12-0.24-0.24-0.36-0.36c0,0,0,0,0,0
					c-0.19-0.2-0.38-0.4-0.57-0.61c0,0,0,0,0,0c-0.11-0.12-0.22-0.24-0.33-0.37c0,0,0,0,0,0c-0.11-0.13-0.22-0.27-0.33-0.4
					c0,0,0,0,0,0c-0.13-0.16-0.26-0.33-0.39-0.49c-0.08-0.11-0.16-0.21-0.24-0.32c-0.15-0.2-0.29-0.41-0.43-0.61
					c-0.06-0.08-0.11-0.16-0.16-0.25c0,0,0,0,0,0c-0.19-0.29-0.37-0.58-0.54-0.88c-0.03-0.05-0.06-0.1-0.09-0.15c0,0,0,0,0,0
					c-0.14-0.25-0.28-0.51-0.41-0.77c0,0,0,0,0,0c-0.04-0.09-0.09-0.17-0.13-0.26c0,0,0,0,0,0c-0.14-0.28-0.27-0.55-0.39-0.83
					c0,0,0,0,0,0c-0.02-0.04-0.03-0.07-0.05-0.1c-0.14-0.31-0.26-0.63-0.38-0.94c0,0,0,0,0,0c-0.04-0.09-0.07-0.19-0.1-0.28
					c0,0,0,0,0,0c-0.08-0.23-0.16-0.46-0.23-0.69c0,0,0,0,0,0c-0.04-0.12-0.07-0.23-0.11-0.35c0,0,0,0,0,0
					c-0.06-0.2-0.11-0.41-0.16-0.61c-0.04-0.15-0.07-0.29-0.11-0.44c-0.04-0.16-0.06-0.31-0.09-0.47c0,0,0,0,0,0
					c-0.04-0.23-0.08-0.46-0.12-0.68c-0.03-0.21-0.05-0.41-0.07-0.61c0,0,0,0,0,0c-0.01-0.1-0.02-0.2-0.03-0.3
					c-0.02-0.32-0.04-0.64-0.04-0.95c0-0.32,0.02-0.63,0.04-0.92C487.62,197.81,487.64,197.72,487.65,197.63z"/>
				<polygon class="st8" points="477.71,174.87 485.18,170.53 490.88,176.26 483.41,180.6 				"/>
				<path class="st7" d="M489.53,179.76c-0.2-0.03-0.4-0.05-0.6-0.07c-0.16-0.01-0.32-0.03-0.48-0.04c0,0,0,0,0,0
					c-0.12-0.01-0.23-0.01-0.35-0.01l0,0c-0.27-0.01-0.54,0-0.81,0.01c0,0,0,0,0,0c-0.11,0-0.22,0.01-0.33,0.02c0,0,0,0,0,0
					c-0.3,0.02-0.59,0.06-0.87,0.1c0,0,0,0,0,0c-0.05,0.01-0.11,0.01-0.16,0.02c0,0,0,0,0,0c-0.33,0.06-0.65,0.13-0.96,0.22
					c0,0,0,0,0,0c-0.06,0.02-0.11,0.04-0.16,0.05c-0.26,0.08-0.51,0.16-0.75,0.26c0,0,0,0,0,0c-0.21,0.08-0.42,0.17-0.62,0.27
					l7.47-4.34c0.14-0.07,0.29-0.13,0.43-0.2l-0.64,3.9C490.29,179.88,489.9,179.82,489.53,179.76z"/>
				<polygon class="st7" points="514.44,219.17 521.91,214.82 526.58,221.99 519.11,226.33 				"/>
				<polygon class="st8" points="526.58,221.99 522.04,228.36 514.57,232.7 519.11,226.33 				"/>
				<path class="st8" d="M514.8,217c0.08-0.76,0.13-1.55,0.13-2.38c0,0,0,0,0,0c0-0.53-0.02-1.07-0.05-1.61c0,0,0,0,0,0
					c-0.01-0.14-0.02-0.29-0.03-0.44l0,0c-0.07-1-0.2-2.01-0.38-3.03c0,0,0,0,0,0c0,0,0,0,0,0l4.7-1.75l-4.48-11.58l7.47-4.34
					l4.48,11.58l-4.56,2.65c0.02,0.16,0.05,0.32,0.07,0.47c0,0.02,0.01,0.05,0.01,0.07c0.01,0.06,0.01,0.13,0.02,0.19
					c0.06,0.47,0.1,0.94,0.14,1.4c0.01,0.15,0.02,0.29,0.03,0.44c0.03,0.54,0.05,1.08,0.05,1.61c0,1.65-0.18,3.17-0.49,4.54
					l-7.47,4.34C514.59,218.48,514.71,217.76,514.8,217z"/>
				<path class="st8" d="M508.29,194.28C508.29,194.28,508.29,194.28,508.29,194.28c-0.32-0.49-0.64-0.97-0.97-1.45c0,0,0,0,0,0
					c-0.04-0.06-0.09-0.13-0.14-0.19c0,0,0,0,0,0c-0.34-0.48-0.69-0.95-1.04-1.41c-0.08-0.1-0.15-0.2-0.23-0.3c0,0,0,0,0,0
					c-0.43-0.55-0.86-1.08-1.31-1.6l0,0c-0.13-0.15-0.27-0.3-0.41-0.46c0,0,0,0,0-0.01c-0.18-0.21-0.37-0.41-0.55-0.61c0,0,0,0,0,0
					c-0.15-0.16-0.3-0.31-0.45-0.47c0,0,0,0,0,0c-0.19-0.19-0.37-0.39-0.56-0.58c0,0,0,0,0,0c-0.29-0.29-0.59-0.58-0.89-0.86
					l7.47-4.34c0.26,0.24,0.52,0.49,0.78,0.75c0.04,0.04,0.07,0.08,0.11,0.12c0.19,0.19,0.38,0.38,0.56,0.58
					c0.15,0.16,0.3,0.31,0.45,0.47c0.19,0.2,0.37,0.41,0.56,0.62c0.12,0.13,0.24,0.26,0.36,0.39c0.02,0.02,0.03,0.04,0.05,0.06
					c0.45,0.52,0.89,1.06,1.32,1.6c0.04,0.06,0.09,0.11,0.14,0.17c0.05,0.07,0.1,0.14,0.15,0.21c0.33,0.44,0.66,0.88,0.98,1.33
					c0.04,0.05,0.07,0.1,0.11,0.15c0.01,0.01,0.02,0.03,0.03,0.04c0.33,0.48,0.66,0.96,0.97,1.45c0.03,0.04,0.06,0.08,0.08,0.12
					c0.2,0.31,0.4,0.63,0.59,0.95l-7.47,4.34C508.74,194.99,508.52,194.64,508.29,194.28z"/>
				<polygon class="st7" points="500.73,178.88 508.2,174.54 509.2,182.01 501.73,186.35 				"/>
				<polygon class="st8" points="491.71,173.67 499.18,169.33 508.2,174.54 500.73,178.88 				"/>
				<polygon class="st7" points="508.96,195.35 516.43,191.01 522.15,191.87 514.68,196.21 				"/>
				<path class="st9" d="M473.13,199.78l4.48,11.58l5.71,0.86c2.04,3.37,4.5,6.46,7.24,9.01l1,7.47l9.02,5.21l1.03-6.3
					c2.55,0.57,4.87,0.39,6.83-0.45c0.14-0.06,0.29-0.12,0.43-0.19l5.7,5.73l4.53-6.37l-4.67-7.16c0.16-0.68,0.28-1.4,0.36-2.16
					c0.08-0.76,0.13-1.55,0.13-2.38c0,0,0,0,0,0c0-0.53-0.02-1.07-0.05-1.61c-0.01-0.15-0.02-0.29-0.03-0.44
					c-0.07-1-0.2-2.01-0.38-3.03c0,0,0,0,0-0.01l4.7-1.75l-4.48-11.58l-5.71-0.86c-0.22-0.36-0.44-0.72-0.67-1.07
					c-0.32-0.49-0.64-0.97-0.97-1.45c-0.05-0.06-0.09-0.13-0.14-0.19c-0.34-0.48-0.69-0.95-1.04-1.41c-0.08-0.1-0.15-0.2-0.23-0.3
					c-0.43-0.55-0.86-1.08-1.31-1.6c-0.14-0.16-0.27-0.31-0.41-0.46c-0.18-0.21-0.37-0.41-0.55-0.61c-0.15-0.16-0.3-0.31-0.45-0.47
					c-0.19-0.19-0.37-0.39-0.56-0.58c-0.29-0.29-0.59-0.58-0.89-0.86l-1-7.47l-9.02-5.21l-0.39,2.4l-0.64,3.9
					c-0.39-0.09-0.77-0.15-1.15-0.21c-0.2-0.03-0.4-0.05-0.6-0.07c-0.16-0.01-0.32-0.03-0.48-0.04c-0.12-0.01-0.23-0.01-0.35-0.01
					c-0.27-0.01-0.54,0-0.81,0.01c-0.11,0-0.22,0.01-0.34,0.02c-0.3,0.02-0.59,0.06-0.87,0.1c-0.05,0.01-0.11,0.01-0.16,0.02
					c-0.33,0.06-0.65,0.13-0.96,0.22c-0.06,0.02-0.11,0.04-0.16,0.05c-0.26,0.08-0.51,0.16-0.75,0.26
					c-0.21,0.08-0.42,0.17-0.62,0.27l-5.7-5.73l-4.53,6.37l4.68,7.16c-0.32,1.37-0.49,2.88-0.49,4.54c0,1.37,0.11,2.77,0.32,4.19
					c0.04,0.3,0.09,0.6,0.14,0.9L473.13,199.78z M487.57,198.84c0-0.32,0.02-0.63,0.04-0.92c0.01-0.1,0.02-0.19,0.04-0.28
					c0.02-0.2,0.05-0.39,0.08-0.57c0.02-0.11,0.04-0.21,0.07-0.31c0.04-0.16,0.08-0.33,0.12-0.48c0.03-0.1,0.06-0.2,0.1-0.29
					c0.05-0.15,0.11-0.29,0.17-0.43c0.04-0.09,0.08-0.18,0.12-0.26c0.07-0.14,0.14-0.26,0.22-0.39c0.04-0.07,0.09-0.15,0.13-0.22
					c0.09-0.14,0.19-0.26,0.29-0.38c0.04-0.05,0.07-0.1,0.12-0.14c0.15-0.16,0.3-0.31,0.47-0.44c0.08-0.07,0.17-0.12,0.25-0.18
					c1.35-0.95,3.21-1.05,5.32-0.13c0.35,0.15,0.7,0.32,1.07,0.53c4.74,2.74,8.56,9.36,8.55,14.81c0,0.38-0.03,0.75-0.06,1.1
					c-0.23,2.14-1.13,3.66-2.47,4.42c0,0,0,0,0,0c-0.18,0.1-0.36,0.18-0.55,0.26c-0.05,0.02-0.1,0.04-0.15,0.05
					c-0.15,0.05-0.31,0.1-0.47,0.13c-0.05,0.01-0.09,0.02-0.14,0.03c-0.2,0.04-0.41,0.06-0.63,0.08c-0.05,0-0.1,0-0.15,0
					c-0.17,0-0.34,0-0.52-0.01c-0.09-0.01-0.17-0.02-0.26-0.03c-0.15-0.02-0.3-0.04-0.45-0.07c-0.12-0.02-0.23-0.05-0.35-0.08
					c-0.21-0.05-0.42-0.11-0.64-0.18c-0.02-0.01-0.03-0.01-0.05-0.02c-0.24-0.08-0.47-0.18-0.72-0.29c-0.32-0.14-0.65-0.31-0.99-0.5
					c-0.76-0.44-1.48-0.98-2.18-1.59c-0.07-0.06-0.14-0.12-0.21-0.18c-0.1-0.09-0.19-0.18-0.29-0.27c-0.12-0.12-0.24-0.24-0.36-0.36
					c-0.19-0.2-0.38-0.4-0.57-0.61c-0.11-0.12-0.22-0.24-0.33-0.37c-0.11-0.13-0.22-0.27-0.33-0.41c-0.13-0.16-0.26-0.33-0.39-0.49
					c-0.08-0.11-0.16-0.21-0.24-0.32c-0.15-0.2-0.29-0.41-0.43-0.61c-0.06-0.08-0.11-0.16-0.17-0.25c-0.19-0.29-0.37-0.58-0.54-0.88
					c-0.03-0.05-0.06-0.1-0.09-0.15c-0.14-0.25-0.28-0.51-0.41-0.77c-0.04-0.09-0.09-0.17-0.13-0.26c-0.14-0.28-0.27-0.55-0.39-0.83
					c-0.02-0.04-0.03-0.07-0.05-0.1c-0.14-0.31-0.26-0.63-0.38-0.94c-0.04-0.09-0.07-0.19-0.1-0.28c-0.08-0.23-0.16-0.46-0.23-0.69
					c-0.04-0.12-0.07-0.24-0.11-0.35c-0.06-0.2-0.11-0.41-0.16-0.61c-0.04-0.15-0.07-0.29-0.11-0.44c-0.04-0.16-0.06-0.31-0.09-0.47
					c-0.04-0.23-0.09-0.46-0.12-0.68c-0.03-0.21-0.05-0.41-0.07-0.61C487.6,199.67,487.57,199.25,487.57,198.84z"/>
			</g>
			<g>
				<path class="st6" d="M249.25,110.81c0.02,0.11,0.05,0.21,0.08,0.32C249.3,111.02,249.27,110.91,249.25,110.81z"/>
				<polygon class="st6" points="268.61,116.42 268.61,116.42 268.61,116.42 				"/>
				<path class="st6" d="M268.91,118.95C268.91,118.95,268.91,118.95,268.91,118.95c-0.01-0.11-0.01-0.21-0.02-0.32v0
					C268.89,118.74,268.9,118.84,268.91,118.95z"/>
				<path class="st6" d="M251.65,116.04c0.06,0.08,0.11,0.16,0.17,0.24C251.76,116.2,251.7,116.12,251.65,116.04z"/>
				<path class="st6" d="M249.16,107.08c-0.02,0.07-0.04,0.15-0.05,0.22C249.12,107.23,249.14,107.15,249.16,107.08z"/>
				<path class="st6" d="M249.32,106.52c-0.02,0.07-0.05,0.14-0.07,0.21C249.27,106.66,249.3,106.59,249.32,106.52z"/>
				<path class="st6" d="M249.79,105.57c-0.03,0.05-0.06,0.11-0.1,0.16C249.72,105.68,249.75,105.62,249.79,105.57z"/>
				<path class="st6" d="M249.53,106.01c-0.03,0.06-0.06,0.13-0.09,0.19C249.47,106.14,249.5,106.08,249.53,106.01z"/>
				<path class="st6" d="M259.65,119.85C259.65,119.85,259.65,119.85,259.65,119.85C259.65,119.85,259.65,119.85,259.65,119.85z"/>
				<path class="st6" d="M250.61,104.73c-0.06,0.04-0.13,0.08-0.18,0.13C250.48,104.81,250.55,104.78,250.61,104.73z"/>
				<path class="st6" d="M250.08,105.19c-0.03,0.03-0.06,0.07-0.08,0.1C250.03,105.26,250.05,105.22,250.08,105.19z"/>
				<path class="st6" d="M268.85,121.86c0.06-0.55,0.09-1.13,0.09-1.73c0,0,0,0,0,0c0,0,0,0,0,0
					C268.94,120.73,268.91,121.31,268.85,121.86z"/>
				<path class="st6" d="M249.63,94.61C249.63,94.61,249.63,94.61,249.63,94.61c-0.09,0-0.17-0.01-0.25-0.01l0,0
					C249.46,94.61,249.54,94.61,249.63,94.61z"/>
				<path class="st6" d="M248.78,94.61C248.78,94.61,248.78,94.61,248.78,94.61c-0.08,0-0.16,0.01-0.24,0.01c0,0,0,0,0,0
					C248.62,94.62,248.7,94.61,248.78,94.61z"/>
				<path class="st6" d="M247.9,94.7C247.9,94.7,247.9,94.7,247.9,94.7c-0.04,0.01-0.08,0.01-0.12,0.02c0,0,0,0,0,0
					C247.82,94.7,247.86,94.7,247.9,94.7z"/>
				<path class="st6" d="M246.41,95.1c-0.15,0.06-0.31,0.12-0.46,0.2C246.11,95.23,246.26,95.17,246.41,95.1
					C246.41,95.1,246.41,95.1,246.41,95.1z"/>
				<path class="st6" d="M249.98,94.64c0.15,0.01,0.29,0.03,0.44,0.05C250.27,94.67,250.12,94.65,249.98,94.64z"/>
				<path class="st6" d="M264.6,106.06c-0.16-0.26-0.32-0.52-0.49-0.78c0,0,0,0,0,0C264.27,105.54,264.44,105.8,264.6,106.06z"/>
				<path class="st6" d="M259.97,100.12C259.97,100.12,259.97,100.12,259.97,100.12c-0.21-0.21-0.43-0.43-0.65-0.63l5.45-3.17
					l-5.45,3.17C259.54,99.7,259.75,99.91,259.97,100.12z"/>
				<path class="st6" d="M261.41,101.67L261.41,101.67c-0.1-0.11-0.2-0.22-0.3-0.34c0,0,0,0,0,0
					C261.21,101.45,261.31,101.56,261.41,101.67z"/>
				<path class="st6" d="M260.71,100.89C260.71,100.89,260.71,100.89,260.71,100.89c-0.11-0.12-0.22-0.23-0.33-0.34c0,0,0,0,0,0
					C260.49,100.66,260.6,100.77,260.71,100.89z"/>
				<path class="st6" d="M263.4,104.22C263.4,104.22,263.4,104.22,263.4,104.22c-0.03-0.05-0.07-0.09-0.1-0.14c0,0,0,0,0,0
					C263.33,104.13,263.37,104.18,263.4,104.22z"/>
				<path class="st6" d="M262.54,103.06c-0.06-0.07-0.11-0.15-0.17-0.22c0,0,0,0,0,0C262.43,102.91,262.48,102.98,262.54,103.06z"/>
				<path class="st6" d="M247.08,94.87c-0.04,0.01-0.08,0.03-0.12,0.04C247,94.9,247.04,94.89,247.08,94.87
					C247.08,94.87,247.08,94.87,247.08,94.87z"/>
				<path class="st6" d="M251.34,115.59c-0.04-0.06-0.08-0.12-0.12-0.18c0,0,0,0,0,0C251.26,115.47,251.3,115.53,251.34,115.59z"/>
				<path class="st6" d="M250.82,114.77c-0.02-0.04-0.04-0.08-0.06-0.11c0,0,0,0,0,0C250.78,114.7,250.8,114.73,250.82,114.77z"/>
				<path class="st6" d="M250.46,114.1C250.46,114.1,250.46,114.1,250.46,114.1c-0.03-0.06-0.06-0.12-0.1-0.19c0,0,0,0,0,0
					C250.39,113.97,250.42,114.04,250.46,114.1z"/>
				<path class="st6" d="M252.35,116.93C252.35,116.93,252.35,116.93,252.35,116.93c-0.08-0.1-0.16-0.2-0.24-0.3c0,0,0,0,0,0
					C252.18,116.73,252.26,116.83,252.35,116.93z"/>
				<path class="st6" d="M250.08,113.3c-0.01-0.03-0.02-0.05-0.04-0.08C250.05,113.25,250.06,113.28,250.08,113.3
					C250.08,113.3,250.08,113.3,250.08,113.3z"/>
				<path class="st6" d="M253,117.64C253,117.64,253,117.64,253,117.64c-0.14-0.14-0.28-0.29-0.42-0.44c0,0,0,0,0,0
					C252.72,117.35,252.86,117.5,253,117.64z"/>
				<path class="st6" d="M249.04,109.52C249.04,109.52,249.04,109.52,249.04,109.52c-0.03-0.31-0.05-0.61-0.05-0.91
					c0,0.23,0.01,0.46,0.03,0.69C249.02,109.37,249.03,109.44,249.04,109.52z"/>
				<path class="st6" d="M249.76,112.54C249.76,112.54,249.76,112.54,249.76,112.54c-0.03-0.07-0.05-0.14-0.07-0.21c0,0,0,0,0,0
					C249.71,112.4,249.74,112.47,249.76,112.54z"/>
				<path class="st6" d="M249.18,110.47c-0.03-0.17-0.06-0.33-0.09-0.5C249.12,110.13,249.15,110.3,249.18,110.47L249.18,110.47z"/>
				<path class="st6" d="M253.48,118.11c-0.07-0.06-0.14-0.13-0.21-0.2h0C253.34,117.98,253.41,118.04,253.48,118.11z"/>
				<path class="st6" d="M249.05,107.72c-0.01,0.07-0.02,0.14-0.03,0.21C249.03,107.86,249.04,107.79,249.05,107.72z"/>
				<path class="st6" d="M249.52,111.83C249.52,111.83,249.52,111.83,249.52,111.83c-0.03-0.09-0.05-0.17-0.08-0.26c0,0,0,0,0,0
					C249.47,111.66,249.49,111.75,249.52,111.83z"/>
				<path class="st6" d="M256.5,119.99c-0.01,0-0.02-0.01-0.04-0.01c0.01,0,0.01,0.01,0.02,0.01
					C256.49,119.99,256.5,119.99,256.5,119.99z"/>
				<path class="st6" d="M258.8,120.18c-0.03,0.01-0.07,0.02-0.1,0.02c0,0,0.01,0,0.01,0C258.74,120.19,258.77,120.18,258.8,120.18z
					"/>
				<path class="st6" d="M258.23,120.26c-0.04,0-0.07,0-0.11,0c0.01,0,0.02,0,0.03,0C258.18,120.26,258.21,120.26,258.23,120.26z"/>
				<path class="st6" d="M257.22,120.18c-0.09-0.02-0.17-0.03-0.26-0.06c0,0,0,0,0.01,0C257.06,120.14,257.14,120.16,257.22,120.18z
					"/>
				<path class="st6" d="M257.74,120.25c-0.06,0-0.13-0.01-0.19-0.02c0,0,0.01,0,0.01,0C257.62,120.24,257.68,120.24,257.74,120.25z
					"/>
				<path class="st6" d="M259.25,120.04c-0.04,0.01-0.07,0.03-0.11,0.04c0.01,0,0.01,0,0.02-0.01
					C259.19,120.06,259.22,120.05,259.25,120.04z"/>
				<path class="st6" d="M261.25,116.53c-0.19-0.09-0.38-0.19-0.57-0.3c-0.2-0.12-0.4-0.24-0.6-0.38c-0.06-0.04-0.12-0.09-0.19-0.14
					c-0.13-0.1-0.26-0.19-0.39-0.3c-0.07-0.06-0.14-0.12-0.21-0.18c-0.12-0.1-0.24-0.2-0.35-0.31c-0.07-0.06-0.14-0.13-0.21-0.2
					c-0.09-0.09-0.18-0.18-0.27-0.27c-0.14-0.14-0.28-0.29-0.42-0.44c-0.08-0.09-0.16-0.18-0.24-0.27c-0.08-0.1-0.16-0.2-0.24-0.3
					c-0.1-0.12-0.19-0.24-0.28-0.36c-0.06-0.08-0.12-0.16-0.17-0.23c-0.11-0.15-0.21-0.3-0.31-0.45c-0.04-0.06-0.08-0.12-0.12-0.18
					c-0.14-0.21-0.27-0.42-0.39-0.64c-0.02-0.04-0.04-0.07-0.06-0.11c-0.11-0.19-0.21-0.37-0.3-0.56c-0.03-0.06-0.06-0.12-0.09-0.19
					c-0.1-0.2-0.2-0.4-0.29-0.61c-0.01-0.03-0.02-0.05-0.04-0.08c-0.1-0.23-0.19-0.46-0.28-0.69c-0.03-0.07-0.05-0.14-0.07-0.2
					c-0.06-0.17-0.12-0.33-0.17-0.5c-0.03-0.09-0.05-0.17-0.08-0.26c-0.04-0.15-0.08-0.3-0.12-0.45c-0.03-0.11-0.05-0.21-0.08-0.32
					c-0.03-0.11-0.05-0.23-0.07-0.34c-0.03-0.17-0.06-0.33-0.09-0.5c-0.02-0.15-0.04-0.3-0.05-0.45c-0.01-0.07-0.02-0.15-0.02-0.22
					c-0.02-0.23-0.03-0.46-0.03-0.69c0-0.28,0.02-0.54,0.05-0.8c0.26,0.11,0.51,0.24,0.78,0.39c3.46,2,6.25,6.83,6.24,10.8
					c0,0.28-0.02,0.54-0.05,0.8c-0.02-0.01-0.04-0.01-0.06-0.02C261.35,116.58,261.3,116.56,261.25,116.53z"/>
				<path class="st6" d="M254.04,118.59c0.13,0.1,0.26,0.2,0.39,0.3c0.06,0.05,0.12,0.09,0.19,0.14c0.2,0.13,0.4,0.26,0.6,0.38
					c-0.55-0.32-1.08-0.72-1.59-1.16c0.07,0.06,0.13,0.12,0.2,0.17C253.9,118.47,253.97,118.53,254.04,118.59z"/>
				<path class="st6" d="M255.94,119.77c-0.24-0.11-0.48-0.22-0.72-0.36c0.19,0.11,0.38,0.21,0.57,0.3
					C255.85,119.73,255.89,119.75,255.94,119.77z"/>
				<path class="st7" d="M238.45,109.29l3.33-1.93c0.03,0.22,0.06,0.44,0.1,0.65L238.45,109.29z"/>
				<path class="st7" d="M264.22,129.27l-0.29,1.75l-5.45,3.17l0.75-4.6C261.1,130.01,262.78,129.88,264.22,129.27z"/>
				<path class="st7" d="M249.05,107.72c0.02-0.14,0.04-0.28,0.06-0.42c0.01-0.08,0.03-0.15,0.05-0.22
					c0.03-0.12,0.06-0.24,0.09-0.35c0.02-0.07,0.05-0.14,0.07-0.21c0.04-0.11,0.08-0.21,0.12-0.31c0.03-0.06,0.06-0.13,0.09-0.19
					c0.05-0.1,0.1-0.19,0.16-0.28c0.03-0.05,0.06-0.11,0.1-0.16c0.07-0.1,0.14-0.19,0.21-0.28c0.03-0.03,0.05-0.07,0.08-0.1
					c0.11-0.12,0.22-0.23,0.34-0.32c0.06-0.05,0.12-0.09,0.18-0.13c0.99-0.69,2.35-0.76,3.88-0.1c-0.03,0.26-0.05,0.52-0.05,0.8
					c0,0.23,0.01,0.46,0.03,0.69c0.01,0.07,0.01,0.15,0.02,0.22c0.01,0.15,0.03,0.3,0.05,0.45c0.02,0.17,0.05,0.33,0.09,0.5
					c0.02,0.11,0.04,0.23,0.07,0.34c0.02,0.11,0.05,0.21,0.08,0.32c0.04,0.15,0.08,0.3,0.12,0.45c0.02,0.09,0.05,0.17,0.08,0.26
					c0.05,0.17,0.11,0.34,0.17,0.5c0.02,0.07,0.05,0.14,0.07,0.2c0.09,0.23,0.18,0.46,0.28,0.69c0.01,0.03,0.02,0.05,0.04,0.08
					c0.09,0.2,0.19,0.41,0.29,0.61c0.03,0.06,0.06,0.13,0.09,0.19c0.1,0.19,0.2,0.38,0.3,0.56c0.02,0.04,0.04,0.07,0.06,0.11
					c0.13,0.22,0.26,0.43,0.39,0.64c0.04,0.06,0.08,0.12,0.12,0.18c0.1,0.15,0.2,0.3,0.31,0.45c0.06,0.08,0.11,0.16,0.17,0.23
					c0.09,0.12,0.19,0.24,0.28,0.36c0.08,0.1,0.16,0.2,0.24,0.3c0.08,0.09,0.16,0.18,0.24,0.27c0.14,0.15,0.27,0.3,0.42,0.44
					c0.09,0.09,0.18,0.18,0.27,0.27c0.07,0.07,0.14,0.13,0.21,0.2c0.12,0.11,0.23,0.21,0.35,0.31c0.07,0.06,0.14,0.12,0.21,0.18
					c0.13,0.1,0.26,0.2,0.39,0.3c0.06,0.05,0.12,0.09,0.19,0.14c0.2,0.13,0.4,0.26,0.6,0.38c0.19,0.11,0.38,0.21,0.57,0.3
					c0.05,0.02,0.1,0.05,0.15,0.07c0.02,0.01,0.04,0.02,0.06,0.02c-0.17,1.56-0.82,2.67-1.8,3.23c0,0,0,0,0,0
					c-0.13,0.07-0.26,0.13-0.4,0.19c-0.03,0.01-0.06,0.02-0.09,0.03c-0.01,0-0.01,0-0.02,0.01c-0.11,0.04-0.23,0.07-0.34,0.1
					c-0.03,0.01-0.06,0.01-0.09,0.02c0,0-0.01,0-0.01,0c-0.15,0.03-0.3,0.05-0.46,0.06c-0.03,0-0.05,0-0.08,0c-0.01,0-0.02,0-0.03,0
					c-0.12,0-0.25,0-0.38-0.01c-0.06,0-0.12-0.01-0.18-0.02c0,0-0.01,0-0.01,0c-0.11-0.01-0.22-0.03-0.33-0.05
					c-0.08-0.02-0.17-0.03-0.25-0.05c0,0,0,0-0.01,0c-0.15-0.04-0.31-0.08-0.47-0.13c-0.01,0-0.01,0-0.02-0.01
					c-0.01,0-0.01-0.01-0.02-0.01c-0.17-0.06-0.35-0.13-0.52-0.21c-0.05-0.02-0.1-0.04-0.15-0.07c-0.19-0.09-0.38-0.19-0.57-0.3
					c-0.2-0.12-0.4-0.24-0.6-0.38c-0.06-0.04-0.12-0.09-0.19-0.14c-0.13-0.1-0.26-0.19-0.39-0.3c-0.07-0.06-0.14-0.12-0.21-0.18
					c-0.07-0.06-0.13-0.12-0.2-0.17c-0.05-0.05-0.1-0.09-0.15-0.13c-0.07-0.06-0.14-0.13-0.21-0.2h0c-0.09-0.09-0.18-0.18-0.27-0.27
					c0,0,0,0,0,0c-0.14-0.14-0.28-0.29-0.42-0.44c0,0,0,0,0,0c-0.08-0.09-0.16-0.18-0.24-0.27c0,0,0,0,0,0
					c-0.08-0.1-0.16-0.2-0.24-0.3c0,0,0,0,0,0c-0.1-0.12-0.19-0.24-0.28-0.36c-0.06-0.08-0.12-0.16-0.17-0.24
					c-0.11-0.15-0.21-0.3-0.31-0.45c-0.04-0.06-0.08-0.12-0.12-0.18c0,0,0,0,0,0c-0.14-0.21-0.27-0.42-0.39-0.64
					c-0.02-0.04-0.04-0.07-0.06-0.11c0,0,0,0,0,0c-0.1-0.18-0.21-0.37-0.3-0.56c0,0,0,0,0,0c-0.03-0.06-0.06-0.12-0.1-0.19
					c0,0,0,0,0,0c-0.1-0.2-0.2-0.4-0.29-0.61c0,0,0,0,0,0c-0.01-0.03-0.02-0.05-0.03-0.08c-0.1-0.23-0.19-0.46-0.28-0.69
					c0,0,0,0,0,0c-0.03-0.07-0.05-0.14-0.07-0.21c0,0,0,0,0,0c-0.06-0.17-0.12-0.33-0.17-0.5c0,0,0,0,0,0
					c-0.03-0.09-0.05-0.17-0.08-0.26c0,0,0,0,0,0c-0.04-0.15-0.08-0.3-0.12-0.45c-0.03-0.11-0.05-0.21-0.08-0.32
					c-0.03-0.11-0.05-0.23-0.07-0.34l0,0c-0.03-0.17-0.06-0.33-0.09-0.5c-0.02-0.15-0.04-0.3-0.05-0.45c0,0,0,0,0,0
					c-0.01-0.07-0.02-0.15-0.02-0.22c-0.02-0.23-0.03-0.46-0.03-0.69c0-0.23,0.01-0.46,0.03-0.67
					C249.03,107.86,249.04,107.79,249.05,107.72z"/>
				<polygon class="st8" points="241.8,91.12 247.25,87.95 251.41,92.13 245.96,95.3 				"/>
				<path class="st7" d="M250.42,94.69c-0.15-0.02-0.3-0.04-0.44-0.05c-0.12-0.01-0.23-0.02-0.35-0.03c0,0,0,0,0,0
					c-0.09,0-0.17-0.01-0.25-0.01l0,0c-0.2-0.01-0.4,0-0.59,0.01c0,0,0,0,0,0c-0.08,0-0.16,0.01-0.24,0.01c0,0,0,0,0,0
					c-0.22,0.02-0.43,0.04-0.63,0.07c0,0,0,0,0,0c-0.04,0.01-0.08,0.01-0.12,0.02c0,0,0,0,0,0c-0.24,0.04-0.47,0.1-0.7,0.16
					c0,0,0,0,0,0c-0.04,0.01-0.08,0.03-0.12,0.04c-0.19,0.06-0.37,0.12-0.55,0.19c0,0,0,0,0,0c-0.15,0.06-0.31,0.12-0.45,0.2
					l5.45-3.17c0.1-0.05,0.21-0.1,0.32-0.14l-0.47,2.85C250.97,94.77,250.69,94.73,250.42,94.69z"/>
				<polygon class="st7" points="268.59,123.44 274.04,120.27 277.45,125.49 272,128.66 				"/>
				<polygon class="st8" points="277.45,125.49 274.14,130.14 268.69,133.31 272,128.66 				"/>
				<path class="st8" d="M268.85,121.86c0.06-0.55,0.09-1.13,0.09-1.73c0,0,0,0,0,0c0-0.39-0.01-0.78-0.04-1.17c0,0,0,0,0,0
					c-0.01-0.11-0.01-0.21-0.02-0.32v0c-0.05-0.73-0.14-1.47-0.27-2.21c0,0,0,0,0,0c0,0,0,0,0,0l3.43-1.28l-3.27-8.45l5.45-3.17
					l3.27,8.45l-3.33,1.93c0.02,0.11,0.04,0.23,0.05,0.34c0,0.02,0.01,0.03,0.01,0.05c0.01,0.05,0.01,0.09,0.01,0.14
					c0.04,0.34,0.08,0.68,0.1,1.02c0.01,0.11,0.02,0.21,0.02,0.32c0.02,0.4,0.04,0.79,0.04,1.18c0,1.21-0.13,2.31-0.36,3.31
					l-5.45,3.17C268.7,122.94,268.79,122.41,268.85,121.86z"/>
				<path class="st8" d="M264.11,105.28C264.11,105.28,264.11,105.28,264.11,105.28c-0.23-0.36-0.47-0.71-0.71-1.06c0,0,0,0,0,0
					c-0.03-0.05-0.07-0.09-0.1-0.14c0,0,0,0,0,0c-0.25-0.35-0.5-0.69-0.76-1.03c-0.06-0.07-0.11-0.15-0.17-0.22c0,0,0,0,0,0
					c-0.31-0.4-0.63-0.79-0.96-1.17l0,0c-0.1-0.11-0.2-0.22-0.3-0.33c0,0,0,0,0,0c-0.13-0.15-0.27-0.3-0.4-0.45c0,0,0,0,0,0
					c-0.11-0.12-0.22-0.23-0.33-0.34c0,0,0,0,0,0c-0.14-0.14-0.27-0.28-0.41-0.42c0,0,0,0,0,0c-0.21-0.21-0.43-0.43-0.65-0.63
					l5.45-3.17c0.19,0.18,0.38,0.36,0.57,0.55c0.03,0.03,0.05,0.06,0.08,0.08c0.14,0.14,0.27,0.28,0.41,0.42
					c0.11,0.11,0.22,0.23,0.33,0.34c0.14,0.15,0.27,0.3,0.41,0.45c0.09,0.1,0.17,0.19,0.26,0.29c0.01,0.01,0.02,0.03,0.04,0.04
					c0.33,0.38,0.65,0.77,0.96,1.17c0.03,0.04,0.07,0.08,0.1,0.12c0.04,0.05,0.07,0.1,0.11,0.15c0.24,0.32,0.48,0.64,0.72,0.97
					c0.03,0.04,0.05,0.07,0.08,0.11c0.01,0.01,0.01,0.02,0.02,0.03c0.24,0.35,0.48,0.7,0.71,1.06c0.02,0.03,0.04,0.06,0.06,0.09
					c0.15,0.23,0.29,0.46,0.43,0.69l-5.45,3.17C264.44,105.8,264.27,105.54,264.11,105.28z"/>
				<polygon class="st7" points="258.59,94.04 264.04,90.87 264.77,96.33 259.32,99.49 				"/>
				<polygon class="st8" points="252.01,90.24 257.46,87.08 264.04,90.87 258.59,94.04 				"/>
				<polygon class="st7" points="264.6,106.06 270.05,102.9 274.22,103.52 268.77,106.69 				"/>
				<path class="st9" d="M238.45,109.29l3.27,8.45l4.17,0.63c1.49,2.46,3.28,4.71,5.28,6.57l0.73,5.45l6.58,3.8l0.75-4.6
					c1.86,0.42,3.55,0.29,4.98-0.33c0.11-0.05,0.21-0.09,0.32-0.14l4.16,4.18l3.31-4.65l-3.41-5.23c0.11-0.5,0.2-1.02,0.26-1.58
					c0.06-0.55,0.09-1.13,0.09-1.73c0,0,0,0,0,0c0-0.39-0.01-0.78-0.04-1.17c-0.01-0.11-0.01-0.21-0.02-0.32
					c-0.05-0.73-0.14-1.47-0.27-2.21c0,0,0,0,0,0l3.43-1.28l-3.27-8.45l-4.17-0.63c-0.16-0.26-0.32-0.52-0.49-0.78
					c-0.23-0.36-0.47-0.71-0.71-1.06c-0.03-0.05-0.07-0.09-0.1-0.14c-0.25-0.35-0.5-0.69-0.76-1.03c-0.06-0.07-0.11-0.15-0.17-0.22
					c-0.31-0.4-0.63-0.79-0.96-1.17c-0.1-0.11-0.2-0.22-0.3-0.34c-0.13-0.15-0.27-0.3-0.4-0.45c-0.11-0.12-0.22-0.23-0.33-0.34
					c-0.14-0.14-0.27-0.28-0.41-0.42c-0.21-0.21-0.43-0.43-0.65-0.63l-0.73-5.45l-6.58-3.8l-0.29,1.75l-0.47,2.85
					c-0.28-0.06-0.56-0.11-0.84-0.15c-0.15-0.02-0.29-0.04-0.44-0.05c-0.12-0.01-0.23-0.02-0.35-0.03c-0.09,0-0.17-0.01-0.25-0.01
					c-0.2-0.01-0.4,0-0.59,0.01c-0.08,0-0.16,0.01-0.24,0.01c-0.22,0.02-0.43,0.04-0.63,0.07c-0.04,0.01-0.08,0.01-0.12,0.02
					c-0.24,0.04-0.47,0.1-0.7,0.16c-0.04,0.01-0.08,0.03-0.12,0.04c-0.19,0.06-0.37,0.12-0.55,0.19c-0.15,0.06-0.31,0.12-0.46,0.2
					l-4.16-4.18l-3.31,4.65l3.41,5.23c-0.23,1-0.36,2.1-0.36,3.31c0,1,0.08,2.02,0.24,3.06c0.03,0.22,0.06,0.44,0.1,0.65
					L238.45,109.29z M248.99,108.6c0-0.23,0.01-0.46,0.03-0.67c0.01-0.07,0.02-0.14,0.03-0.21c0.02-0.14,0.04-0.28,0.06-0.42
					c0.01-0.08,0.03-0.15,0.05-0.22c0.03-0.12,0.06-0.24,0.09-0.35c0.02-0.07,0.05-0.14,0.07-0.21c0.04-0.11,0.08-0.21,0.12-0.31
					c0.03-0.06,0.06-0.13,0.09-0.19c0.05-0.1,0.1-0.19,0.16-0.28c0.03-0.05,0.06-0.11,0.1-0.16c0.07-0.1,0.14-0.19,0.21-0.28
					c0.03-0.03,0.05-0.07,0.08-0.1c0.11-0.12,0.22-0.23,0.34-0.32c0.06-0.05,0.12-0.09,0.18-0.13c0.99-0.69,2.35-0.76,3.88-0.1
					c0.26,0.11,0.51,0.24,0.78,0.39c3.46,2,6.25,6.83,6.24,10.8c0,0.28-0.02,0.54-0.05,0.8c-0.17,1.56-0.82,2.67-1.8,3.23
					c0,0,0,0,0,0c-0.13,0.07-0.26,0.13-0.4,0.19c-0.04,0.01-0.07,0.03-0.11,0.04c-0.11,0.04-0.23,0.07-0.34,0.1
					c-0.03,0.01-0.07,0.02-0.1,0.02c-0.15,0.03-0.3,0.05-0.46,0.06c-0.04,0-0.07,0-0.11,0c-0.12,0-0.25,0-0.38-0.01
					c-0.06,0-0.13-0.01-0.19-0.02c-0.11-0.01-0.22-0.03-0.33-0.05c-0.09-0.02-0.17-0.03-0.26-0.06c-0.15-0.04-0.31-0.08-0.47-0.13
					c-0.01,0-0.02-0.01-0.04-0.01c-0.17-0.06-0.35-0.13-0.52-0.21c-0.24-0.11-0.48-0.22-0.72-0.36c-0.55-0.32-1.08-0.72-1.59-1.16
					c-0.05-0.05-0.1-0.09-0.15-0.13c-0.07-0.06-0.14-0.13-0.21-0.2c-0.09-0.09-0.18-0.18-0.27-0.27c-0.14-0.14-0.28-0.29-0.42-0.44
					c-0.08-0.09-0.16-0.18-0.24-0.27c-0.08-0.1-0.16-0.2-0.24-0.3c-0.1-0.12-0.19-0.24-0.28-0.36c-0.06-0.08-0.12-0.16-0.17-0.24
					c-0.11-0.15-0.21-0.3-0.31-0.45c-0.04-0.06-0.08-0.12-0.12-0.18c-0.14-0.21-0.27-0.42-0.39-0.64c-0.02-0.04-0.04-0.08-0.06-0.11
					c-0.1-0.18-0.21-0.37-0.3-0.56c-0.03-0.06-0.06-0.13-0.1-0.19c-0.1-0.2-0.2-0.4-0.29-0.61c-0.01-0.03-0.02-0.05-0.04-0.08
					c-0.1-0.23-0.19-0.46-0.28-0.69c-0.03-0.07-0.05-0.14-0.07-0.21c-0.06-0.17-0.12-0.33-0.17-0.5c-0.03-0.09-0.05-0.17-0.08-0.26
					c-0.04-0.15-0.08-0.3-0.12-0.45c-0.03-0.11-0.05-0.21-0.08-0.32c-0.03-0.11-0.05-0.23-0.07-0.34c-0.03-0.17-0.06-0.33-0.09-0.5
					c-0.02-0.15-0.04-0.3-0.05-0.45C249.01,109.21,248.99,108.9,248.99,108.6z"/>
			</g>
			<g>
				<path class="st6" d="M225.37,133.25c0.02,0.07,0.04,0.15,0.05,0.22C225.41,133.39,225.39,133.32,225.37,133.25z"/>
				<polygon class="st6" points="238.77,137.13 238.77,137.13 238.77,137.13 				"/>
				<path class="st6" d="M238.97,138.88C238.97,138.88,238.97,138.88,238.97,138.88c0-0.07-0.01-0.15-0.02-0.22v0
					C238.96,138.73,238.97,138.81,238.97,138.88z"/>
				<path class="st6" d="M227.03,136.87c0.04,0.05,0.08,0.11,0.12,0.16C227.11,136.97,227.07,136.92,227.03,136.87z"/>
				<path class="st6" d="M225.31,130.67c-0.01,0.05-0.02,0.1-0.03,0.16C225.29,130.77,225.3,130.72,225.31,130.67z"/>
				<path class="st6" d="M225.43,130.28c-0.02,0.05-0.03,0.1-0.05,0.15C225.39,130.38,225.41,130.33,225.43,130.28z"/>
				<path class="st6" d="M225.75,129.63c-0.02,0.04-0.04,0.07-0.07,0.11C225.7,129.7,225.72,129.66,225.75,129.63z"/>
				<path class="st6" d="M225.57,129.93c-0.02,0.04-0.04,0.09-0.06,0.13C225.53,130.02,225.55,129.98,225.57,129.93z"/>
				<path class="st6" d="M232.57,139.51C232.57,139.5,232.57,139.5,232.57,139.51C232.57,139.5,232.57,139.5,232.57,139.51z"/>
				<path class="st6" d="M226.32,129.05c-0.04,0.03-0.09,0.06-0.13,0.09C226.23,129.1,226.27,129.08,226.32,129.05z"/>
				<path class="st6" d="M225.95,129.36c-0.02,0.02-0.04,0.05-0.06,0.07C225.91,129.41,225.93,129.38,225.95,129.36z"/>
				<path class="st6" d="M238.94,140.89c0.04-0.38,0.06-0.78,0.07-1.2c0,0,0,0,0,0c0,0,0,0,0,0
					C239,140.11,238.98,140.51,238.94,140.89z"/>
				<path class="st6" d="M225.64,122.05L225.64,122.05c-0.06,0-0.12,0-0.18-0.01l0,0C225.52,122.04,225.58,122.04,225.64,122.05z"/>
				<path class="st6" d="M225.05,122.04C225.05,122.04,225.05,122.04,225.05,122.04c-0.06,0-0.11,0-0.17,0.01c0,0,0,0,0,0
					C224.94,122.05,225,122.05,225.05,122.04z"/>
				<path class="st6" d="M224.44,122.1C224.44,122.1,224.44,122.1,224.44,122.1c-0.03,0-0.05,0.01-0.08,0.01c0,0,0,0,0,0
					C224.39,122.11,224.42,122.11,224.44,122.1z"/>
				<path class="st6" d="M223.41,122.39c-0.11,0.04-0.21,0.09-0.31,0.14C223.2,122.47,223.31,122.43,223.41,122.39
					C223.41,122.39,223.41,122.39,223.41,122.39z"/>
				<path class="st6" d="M225.88,122.06c0.1,0.01,0.2,0.02,0.3,0.03C226.08,122.08,225.98,122.07,225.88,122.06z"/>
				<path class="st6" d="M235.99,129.97c-0.11-0.18-0.22-0.36-0.34-0.54c0,0,0,0,0,0C235.77,129.6,235.88,129.78,235.99,129.97z"/>
				<path class="st6" d="M232.79,125.86C232.79,125.86,232.79,125.86,232.79,125.86c-0.15-0.15-0.3-0.29-0.45-0.44l3.77-2.19
					l-3.77,2.19C232.49,125.56,232.64,125.71,232.79,125.86z"/>
				<path class="st6" d="M233.79,126.93L233.79,126.93c-0.07-0.08-0.14-0.16-0.21-0.23c0,0,0,0,0,0
					C233.65,126.77,233.72,126.85,233.79,126.93z"/>
				<path class="st6" d="M233.3,126.38C233.3,126.38,233.3,126.39,233.3,126.38c-0.07-0.08-0.15-0.16-0.23-0.24c0,0,0,0,0,0
					C233.15,126.23,233.23,126.31,233.3,126.38z"/>
				<path class="st6" d="M235.16,128.69C235.16,128.69,235.16,128.69,235.16,128.69c-0.02-0.03-0.05-0.06-0.07-0.1c0,0,0,0,0,0
					C235.12,128.63,235.14,128.66,235.16,128.69z"/>
				<path class="st6" d="M234.57,127.89c-0.04-0.05-0.08-0.1-0.12-0.15c0,0,0,0,0,0C234.49,127.79,234.53,127.84,234.57,127.89z"/>
				<path class="st6" d="M223.88,122.23c-0.03,0.01-0.06,0.02-0.08,0.03C223.82,122.24,223.85,122.23,223.88,122.23L223.88,122.23z"
					/>
				<path class="st6" d="M226.82,136.56c-0.03-0.04-0.06-0.08-0.08-0.12c0,0,0,0,0,0C226.76,136.47,226.79,136.51,226.82,136.56z"/>
				<path class="st6" d="M226.46,135.99c-0.01-0.03-0.03-0.05-0.04-0.08c0,0,0,0,0,0C226.44,135.94,226.45,135.96,226.46,135.99z"/>
				<path class="st6" d="M226.21,135.52C226.21,135.52,226.21,135.52,226.21,135.52c-0.02-0.04-0.04-0.09-0.07-0.13c0,0,0,0,0,0
					C226.17,135.44,226.19,135.48,226.21,135.52z"/>
				<path class="st6" d="M227.52,137.48C227.52,137.48,227.52,137.48,227.52,137.48c-0.06-0.07-0.11-0.14-0.17-0.2c0,0,0,0,0,0
					C227.41,137.35,227.46,137.42,227.52,137.48z"/>
				<path class="st6" d="M225.95,134.97c-0.01-0.02-0.02-0.04-0.02-0.05C225.93,134.94,225.94,134.96,225.95,134.97
					C225.95,134.97,225.95,134.97,225.95,134.97z"/>
				<path class="st6" d="M227.97,137.98C227.97,137.98,227.97,137.98,227.97,137.98c-0.1-0.1-0.19-0.2-0.29-0.31c0,0,0,0,0,0
					C227.78,137.78,227.87,137.88,227.97,137.98z"/>
				<path class="st6" d="M225.23,132.36C225.23,132.36,225.23,132.36,225.23,132.36c-0.02-0.21-0.03-0.42-0.03-0.63
					c0,0.16,0.01,0.32,0.02,0.48C225.22,132.25,225.23,132.3,225.23,132.36z"/>
				<path class="st6" d="M225.73,134.45C225.73,134.45,225.73,134.45,225.73,134.45c-0.02-0.05-0.03-0.1-0.05-0.14l0,0
					C225.7,134.35,225.71,134.4,225.73,134.45z"/>
				<path class="st6" d="M225.33,133.01c-0.02-0.12-0.04-0.23-0.06-0.35C225.28,132.78,225.31,132.9,225.33,133.01L225.33,133.01z"
					/>
				<path class="st6" d="M228.3,138.3c-0.05-0.04-0.1-0.09-0.15-0.14h0C228.2,138.21,228.25,138.25,228.3,138.3z"/>
				<path class="st6" d="M225.24,131.11c-0.01,0.05-0.01,0.09-0.02,0.14C225.22,131.21,225.23,131.16,225.24,131.11z"/>
				<path class="st6" d="M225.56,133.96C225.56,133.96,225.56,133.96,225.56,133.96c-0.02-0.06-0.04-0.12-0.05-0.18c0,0,0,0,0,0
					C225.53,133.84,225.55,133.9,225.56,133.96z"/>
				<path class="st6" d="M230.39,139.6c-0.01,0-0.02-0.01-0.03-0.01c0,0,0.01,0,0.01,0.01C230.39,139.6,230.39,139.6,230.39,139.6z"
					/>
				<path class="st6" d="M231.98,139.73c-0.02,0.01-0.05,0.01-0.07,0.02c0,0,0.01,0,0.01,0
					C231.94,139.74,231.96,139.73,231.98,139.73z"/>
				<path class="st6" d="M231.59,139.78c-0.03,0-0.05,0-0.08,0c0.01,0,0.01,0,0.02,0C231.55,139.78,231.57,139.78,231.59,139.78z"/>
				<path class="st6" d="M230.89,139.73c-0.06-0.01-0.12-0.02-0.18-0.04c0,0,0,0,0,0C230.78,139.71,230.84,139.72,230.89,139.73z"/>
				<path class="st6" d="M231.25,139.78c-0.04,0-0.09-0.01-0.13-0.01c0,0,0.01,0,0.01,0C231.17,139.77,231.21,139.77,231.25,139.78z
					"/>
				<path class="st6" d="M232.29,139.63c-0.03,0.01-0.05,0.02-0.08,0.03c0,0,0.01,0,0.01-0.01
					C232.25,139.65,232.27,139.64,232.29,139.63z"/>
				<path class="st6" d="M233.68,137.21c-0.13-0.06-0.26-0.13-0.4-0.21c-0.14-0.08-0.28-0.17-0.41-0.26
					c-0.04-0.03-0.09-0.06-0.13-0.09c-0.09-0.07-0.18-0.13-0.27-0.21c-0.05-0.04-0.1-0.08-0.15-0.12c-0.08-0.07-0.16-0.14-0.24-0.21
					c-0.05-0.04-0.1-0.09-0.15-0.14c-0.06-0.06-0.12-0.12-0.18-0.18c-0.1-0.1-0.19-0.2-0.29-0.31c-0.06-0.06-0.11-0.12-0.17-0.19
					c-0.06-0.07-0.11-0.14-0.17-0.2c-0.07-0.08-0.13-0.17-0.2-0.25c-0.04-0.05-0.08-0.11-0.12-0.16c-0.07-0.1-0.15-0.21-0.22-0.31
					c-0.03-0.04-0.06-0.08-0.08-0.12c-0.09-0.15-0.19-0.29-0.27-0.44c-0.01-0.03-0.03-0.05-0.04-0.08
					c-0.07-0.13-0.14-0.26-0.21-0.39c-0.02-0.04-0.04-0.09-0.07-0.13c-0.07-0.14-0.14-0.28-0.2-0.42c-0.01-0.02-0.02-0.04-0.02-0.05
					c-0.07-0.16-0.13-0.32-0.19-0.48c-0.02-0.05-0.03-0.09-0.05-0.14c-0.04-0.12-0.08-0.23-0.12-0.35
					c-0.02-0.06-0.04-0.12-0.05-0.18c-0.03-0.1-0.06-0.21-0.08-0.31c-0.02-0.07-0.04-0.15-0.05-0.22c-0.02-0.08-0.03-0.16-0.05-0.24
					c-0.02-0.12-0.04-0.23-0.06-0.34c-0.01-0.1-0.03-0.21-0.04-0.31c-0.01-0.05-0.01-0.1-0.01-0.15c-0.01-0.16-0.02-0.32-0.02-0.48
					c0-0.19,0.01-0.38,0.03-0.55c0.18,0.08,0.36,0.16,0.54,0.27c2.39,1.38,4.32,4.73,4.31,7.47c0,0.19-0.01,0.38-0.03,0.55
					c-0.01-0.01-0.03-0.01-0.04-0.02C233.74,137.24,233.71,137.23,233.68,137.21z"/>
				<path class="st6" d="M228.69,138.63c0.09,0.07,0.18,0.14,0.27,0.21c0.04,0.03,0.09,0.06,0.13,0.09
					c0.14,0.09,0.27,0.18,0.41,0.26c-0.38-0.22-0.75-0.49-1.1-0.8c0.05,0.04,0.09,0.08,0.14,0.12
					C228.59,138.55,228.64,138.59,228.69,138.63z"/>
				<path class="st6" d="M230.01,139.45c-0.16-0.07-0.33-0.15-0.5-0.25c0.13,0.08,0.27,0.14,0.4,0.21
					C229.94,139.42,229.97,139.43,230.01,139.45z"/>
				<path class="st7" d="M217.91,132.2l2.3-1.34c0.02,0.15,0.04,0.3,0.07,0.45L217.91,132.2z"/>
				<path class="st7" d="M235.73,146.02l-0.2,1.21l-3.77,2.19l0.52-3.18C233.57,146.53,234.74,146.44,235.73,146.02z"/>
				<path class="st7" d="M225.24,131.11c0.01-0.1,0.02-0.2,0.04-0.29c0.01-0.05,0.02-0.1,0.03-0.16c0.02-0.08,0.04-0.16,0.06-0.24
					c0.02-0.05,0.03-0.1,0.05-0.15c0.03-0.07,0.05-0.15,0.08-0.21c0.02-0.04,0.04-0.09,0.06-0.13c0.03-0.07,0.07-0.13,0.11-0.2
					c0.02-0.04,0.04-0.07,0.07-0.11c0.05-0.07,0.1-0.13,0.15-0.19c0.02-0.02,0.04-0.05,0.06-0.07c0.07-0.08,0.15-0.16,0.23-0.22
					c0.04-0.03,0.09-0.06,0.13-0.09c0.68-0.48,1.62-0.53,2.68-0.07c-0.02,0.18-0.03,0.36-0.03,0.55c0,0.16,0.01,0.32,0.02,0.48
					c0,0.05,0.01,0.1,0.01,0.15c0.01,0.1,0.02,0.21,0.04,0.31c0.02,0.11,0.04,0.23,0.06,0.34c0.02,0.08,0.03,0.16,0.05,0.24
					c0.02,0.07,0.04,0.15,0.05,0.22c0.03,0.1,0.05,0.21,0.08,0.31c0.02,0.06,0.04,0.12,0.05,0.18c0.04,0.12,0.08,0.23,0.12,0.35
					c0.02,0.05,0.03,0.09,0.05,0.14c0.06,0.16,0.12,0.32,0.19,0.48c0.01,0.02,0.02,0.04,0.02,0.05c0.06,0.14,0.13,0.28,0.2,0.42
					c0.02,0.04,0.04,0.09,0.07,0.13c0.07,0.13,0.14,0.26,0.21,0.39c0.01,0.03,0.03,0.05,0.04,0.08c0.09,0.15,0.18,0.3,0.27,0.44
					c0.03,0.04,0.06,0.08,0.08,0.12c0.07,0.1,0.14,0.21,0.22,0.31c0.04,0.05,0.08,0.11,0.12,0.16c0.06,0.08,0.13,0.17,0.2,0.25
					c0.06,0.07,0.11,0.14,0.17,0.2c0.05,0.06,0.11,0.13,0.17,0.19c0.09,0.1,0.19,0.21,0.29,0.31c0.06,0.06,0.12,0.12,0.18,0.18
					c0.05,0.05,0.1,0.09,0.15,0.14c0.08,0.07,0.16,0.14,0.24,0.21c0.05,0.04,0.1,0.08,0.15,0.12c0.09,0.07,0.18,0.14,0.27,0.21
					c0.04,0.03,0.09,0.06,0.13,0.09c0.14,0.09,0.27,0.18,0.41,0.26c0.13,0.08,0.27,0.14,0.4,0.21c0.03,0.02,0.07,0.03,0.1,0.05
					c0.01,0.01,0.03,0.01,0.04,0.02c-0.12,1.08-0.57,1.85-1.24,2.23c0,0,0,0,0,0c-0.09,0.05-0.18,0.09-0.28,0.13
					c-0.02,0.01-0.04,0.01-0.06,0.02c0,0-0.01,0-0.01,0.01c-0.08,0.03-0.16,0.05-0.24,0.07c-0.02,0.01-0.04,0.01-0.06,0.01
					c0,0-0.01,0-0.01,0c-0.1,0.02-0.21,0.03-0.32,0.04c-0.02,0-0.04,0-0.06,0c-0.01,0-0.01,0-0.02,0c-0.09,0-0.17,0-0.26-0.01
					c-0.04,0-0.08-0.01-0.12-0.01c0,0-0.01,0-0.01,0c-0.07-0.01-0.15-0.02-0.23-0.04c-0.06-0.01-0.12-0.02-0.17-0.04c0,0,0,0,0,0
					c-0.11-0.03-0.21-0.05-0.32-0.09c0,0-0.01,0-0.01,0c0,0-0.01,0-0.01-0.01c-0.12-0.04-0.24-0.09-0.36-0.15
					c-0.03-0.01-0.07-0.03-0.1-0.05c-0.13-0.06-0.26-0.13-0.4-0.21c-0.14-0.08-0.28-0.17-0.41-0.26c-0.04-0.03-0.09-0.06-0.13-0.09
					c-0.09-0.07-0.18-0.13-0.27-0.21c-0.05-0.04-0.1-0.08-0.15-0.12c-0.05-0.04-0.09-0.08-0.14-0.12c-0.04-0.03-0.07-0.06-0.11-0.09
					c-0.05-0.04-0.1-0.09-0.15-0.14h0c-0.06-0.06-0.12-0.12-0.18-0.18c0,0,0,0,0,0c-0.1-0.1-0.19-0.2-0.29-0.31c0,0,0,0,0,0
					c-0.06-0.06-0.11-0.12-0.17-0.19c0,0,0,0,0,0c-0.06-0.07-0.11-0.14-0.17-0.2c0,0,0,0,0,0c-0.07-0.08-0.13-0.17-0.2-0.25
					c-0.04-0.05-0.08-0.11-0.12-0.16c-0.07-0.1-0.15-0.2-0.21-0.31c-0.03-0.04-0.06-0.08-0.08-0.12c0,0,0,0,0,0
					c-0.09-0.15-0.19-0.29-0.27-0.44c-0.01-0.03-0.03-0.05-0.04-0.08c0,0,0,0,0,0c-0.07-0.13-0.14-0.26-0.21-0.39c0,0,0,0,0,0
					c-0.02-0.04-0.04-0.09-0.07-0.13c0,0,0,0,0,0c-0.07-0.14-0.14-0.28-0.2-0.42c0,0,0,0,0,0c-0.01-0.02-0.02-0.04-0.02-0.05
					c-0.07-0.16-0.13-0.32-0.19-0.48c0,0,0,0,0,0c-0.02-0.05-0.03-0.09-0.05-0.14l0,0c-0.04-0.12-0.08-0.23-0.12-0.35c0,0,0,0,0,0
					c-0.02-0.06-0.04-0.12-0.05-0.18c0,0,0,0,0,0c-0.03-0.1-0.06-0.21-0.08-0.31c-0.02-0.07-0.04-0.15-0.05-0.22
					c-0.02-0.08-0.03-0.16-0.05-0.24l0,0c-0.02-0.12-0.04-0.23-0.06-0.35c-0.01-0.1-0.03-0.21-0.04-0.31c0,0,0,0,0,0
					c0-0.05-0.01-0.1-0.02-0.15c-0.01-0.16-0.02-0.32-0.02-0.48c0-0.16,0.01-0.32,0.02-0.47
					C225.22,131.21,225.23,131.16,225.24,131.11z"/>
				<polygon class="st8" points="220.22,119.63 223.99,117.44 226.87,120.33 223.1,122.52 				"/>
				<path class="st7" d="M226.18,122.1c-0.1-0.01-0.2-0.03-0.3-0.03c-0.08-0.01-0.16-0.01-0.24-0.02l0,0c-0.06,0-0.12,0-0.18-0.01
					l0,0c-0.14,0-0.27,0-0.41,0c0,0,0,0,0,0c-0.06,0-0.11,0-0.17,0.01c0,0,0,0,0,0c-0.15,0.01-0.3,0.03-0.44,0.05c0,0,0,0,0,0
					c-0.03,0-0.05,0.01-0.08,0.01c0,0,0,0,0,0c-0.17,0.03-0.33,0.07-0.49,0.11l0,0c-0.03,0.01-0.06,0.02-0.08,0.03
					c-0.13,0.04-0.26,0.08-0.38,0.13c0,0,0,0,0,0c-0.11,0.04-0.21,0.09-0.31,0.14l3.77-2.19c0.07-0.04,0.15-0.07,0.22-0.1
					l-0.32,1.97C226.57,122.16,226.37,122.12,226.18,122.1z"/>
				<polygon class="st7" points="238.75,141.98 242.52,139.79 244.88,143.41 241.11,145.6 				"/>
				<polygon class="st8" points="244.88,143.41 242.59,146.62 238.82,148.81 241.11,145.6 				"/>
				<path class="st8" d="M238.94,140.89c0.04-0.38,0.06-0.78,0.07-1.2c0,0,0,0,0,0c0-0.27-0.01-0.54-0.03-0.81c0,0,0,0,0,0
					c0-0.07-0.01-0.15-0.02-0.22v0c-0.04-0.5-0.1-1.02-0.19-1.53c0,0,0,0,0,0c0,0,0,0,0,0l2.37-0.89l-2.26-5.84l3.77-2.19l2.26,5.84
					l-2.3,1.34c0.01,0.08,0.03,0.16,0.04,0.24c0,0.01,0,0.02,0.01,0.04c0,0.03,0.01,0.06,0.01,0.1c0.03,0.24,0.05,0.47,0.07,0.71
					c0.01,0.07,0.01,0.15,0.02,0.22c0.02,0.27,0.03,0.55,0.03,0.81c0,0.83-0.09,1.6-0.25,2.29l-3.77,2.19
					C238.83,141.64,238.89,141.27,238.94,140.89z"/>
				<path class="st8" d="M235.65,129.43C235.65,129.43,235.65,129.43,235.65,129.43c-0.16-0.25-0.32-0.49-0.49-0.73c0,0,0,0,0,0
					c-0.02-0.03-0.05-0.06-0.07-0.1c0,0,0,0,0,0c-0.17-0.24-0.35-0.48-0.52-0.71c-0.04-0.05-0.08-0.1-0.12-0.15c0,0,0,0,0,0
					c-0.22-0.28-0.44-0.55-0.66-0.81l0,0c-0.07-0.08-0.14-0.15-0.21-0.23c0,0,0,0,0,0c-0.09-0.1-0.18-0.21-0.28-0.31c0,0,0,0,0,0
					c-0.07-0.08-0.15-0.16-0.23-0.23c0,0,0,0,0,0c-0.09-0.1-0.19-0.2-0.28-0.29c0,0,0,0,0,0c-0.15-0.15-0.3-0.29-0.45-0.44
					l3.77-2.19c0.13,0.12,0.26,0.25,0.39,0.38c0.02,0.02,0.04,0.04,0.06,0.06c0.1,0.1,0.19,0.19,0.28,0.29
					c0.08,0.08,0.15,0.16,0.23,0.24c0.1,0.1,0.19,0.21,0.28,0.31c0.06,0.07,0.12,0.13,0.18,0.2c0.01,0.01,0.02,0.02,0.02,0.03
					c0.23,0.26,0.45,0.53,0.66,0.81c0.02,0.03,0.05,0.06,0.07,0.08c0.03,0.03,0.05,0.07,0.08,0.11c0.17,0.22,0.33,0.44,0.5,0.67
					c0.02,0.03,0.04,0.05,0.05,0.07c0,0.01,0.01,0.01,0.01,0.02c0.17,0.24,0.33,0.49,0.49,0.73c0.01,0.02,0.03,0.04,0.04,0.06
					c0.1,0.16,0.2,0.32,0.3,0.48l-3.77,2.19C235.88,129.78,235.77,129.6,235.65,129.43z"/>
				<polygon class="st7" points="231.84,121.65 235.61,119.46 236.11,123.23 232.34,125.42 				"/>
				<polygon class="st8" points="227.29,119.02 231.06,116.83 235.61,119.46 231.84,121.65 				"/>
				<polygon class="st7" points="235.99,129.97 239.76,127.78 242.65,128.21 238.88,130.4 				"/>
				<path class="st9" d="M217.91,132.2l2.26,5.84l2.88,0.43c1.03,1.7,2.27,3.26,3.65,4.55l0.5,3.77l4.55,2.63l0.52-3.18
					c1.29,0.29,2.46,0.2,3.45-0.23c0.07-0.03,0.15-0.06,0.22-0.09l2.88,2.89l2.29-3.22l-2.36-3.61c0.08-0.35,0.14-0.71,0.18-1.09
					c0.04-0.38,0.06-0.78,0.07-1.2c0,0,0,0,0,0c0-0.27-0.01-0.54-0.03-0.81c0-0.07-0.01-0.15-0.02-0.22
					c-0.04-0.5-0.1-1.02-0.19-1.53c0,0,0,0,0,0l2.37-0.89l-2.26-5.84l-2.88-0.43c-0.11-0.18-0.22-0.36-0.34-0.54
					c-0.16-0.25-0.32-0.49-0.49-0.73c-0.02-0.03-0.05-0.06-0.07-0.1c-0.17-0.24-0.35-0.48-0.52-0.71c-0.04-0.05-0.08-0.1-0.12-0.15
					c-0.22-0.28-0.44-0.55-0.66-0.81c-0.07-0.08-0.14-0.16-0.21-0.23c-0.09-0.1-0.18-0.21-0.28-0.31c-0.07-0.08-0.15-0.16-0.23-0.24
					c-0.09-0.1-0.19-0.2-0.28-0.29c-0.15-0.15-0.3-0.29-0.45-0.44l-0.5-3.77l-4.55-2.63l-0.2,1.21l-0.32,1.97
					c-0.2-0.04-0.39-0.08-0.58-0.1c-0.1-0.01-0.2-0.02-0.3-0.03c-0.08-0.01-0.16-0.01-0.24-0.02c-0.06,0-0.12,0-0.18-0.01
					c-0.14,0-0.27,0-0.41,0c-0.06,0-0.11,0-0.17,0.01c-0.15,0.01-0.3,0.03-0.44,0.05c-0.03,0-0.05,0.01-0.08,0.01
					c-0.17,0.03-0.33,0.07-0.49,0.11c-0.03,0.01-0.06,0.02-0.08,0.03c-0.13,0.04-0.26,0.08-0.38,0.13
					c-0.11,0.04-0.21,0.09-0.31,0.14l-2.88-2.89l-2.29,3.22l2.36,3.62c-0.16,0.69-0.25,1.45-0.25,2.29c0,0.69,0.06,1.4,0.16,2.11
					c0.02,0.15,0.04,0.3,0.07,0.45L217.91,132.2z M225.2,131.72c0-0.16,0.01-0.32,0.02-0.47c0-0.05,0.01-0.1,0.02-0.14
					c0.01-0.1,0.02-0.2,0.04-0.29c0.01-0.05,0.02-0.1,0.03-0.16c0.02-0.08,0.04-0.16,0.06-0.24c0.02-0.05,0.03-0.1,0.05-0.15
					c0.03-0.07,0.05-0.15,0.08-0.21c0.02-0.04,0.04-0.09,0.06-0.13c0.03-0.07,0.07-0.13,0.11-0.2c0.02-0.04,0.04-0.07,0.07-0.11
					c0.05-0.07,0.1-0.13,0.15-0.19c0.02-0.02,0.04-0.05,0.06-0.07c0.07-0.08,0.15-0.16,0.23-0.22c0.04-0.03,0.09-0.06,0.13-0.09
					c0.68-0.48,1.62-0.53,2.68-0.07c0.18,0.08,0.36,0.16,0.54,0.27c2.39,1.38,4.32,4.73,4.31,7.47c0,0.19-0.01,0.38-0.03,0.55
					c-0.12,1.08-0.57,1.85-1.24,2.23c0,0,0,0,0,0c-0.09,0.05-0.18,0.09-0.28,0.13c-0.03,0.01-0.05,0.02-0.08,0.03
					c-0.08,0.03-0.16,0.05-0.24,0.07c-0.02,0.01-0.05,0.01-0.07,0.02c-0.1,0.02-0.21,0.03-0.32,0.04c-0.03,0-0.05,0-0.08,0
					c-0.09,0-0.17,0-0.26-0.01c-0.04,0-0.09-0.01-0.13-0.01c-0.07-0.01-0.15-0.02-0.23-0.04c-0.06-0.01-0.12-0.02-0.18-0.04
					c-0.11-0.03-0.21-0.05-0.32-0.09c-0.01,0-0.02-0.01-0.03-0.01c-0.12-0.04-0.24-0.09-0.36-0.15c-0.16-0.07-0.33-0.15-0.5-0.25
					c-0.38-0.22-0.75-0.49-1.1-0.8c-0.04-0.03-0.07-0.06-0.11-0.09c-0.05-0.04-0.1-0.09-0.15-0.14c-0.06-0.06-0.12-0.12-0.18-0.18
					c-0.1-0.1-0.19-0.2-0.29-0.31c-0.06-0.06-0.11-0.12-0.17-0.19c-0.06-0.07-0.11-0.14-0.17-0.2c-0.07-0.08-0.13-0.17-0.2-0.25
					c-0.04-0.05-0.08-0.11-0.12-0.16c-0.07-0.1-0.15-0.2-0.21-0.31c-0.03-0.04-0.06-0.08-0.08-0.12c-0.09-0.15-0.19-0.29-0.27-0.44
					c-0.01-0.03-0.03-0.05-0.04-0.08c-0.07-0.13-0.14-0.26-0.21-0.39c-0.02-0.04-0.04-0.09-0.07-0.13c-0.07-0.14-0.14-0.28-0.2-0.42
					c-0.01-0.02-0.02-0.04-0.02-0.05c-0.07-0.16-0.13-0.32-0.19-0.48c-0.02-0.05-0.03-0.1-0.05-0.14c-0.04-0.12-0.08-0.23-0.12-0.35
					c-0.02-0.06-0.04-0.12-0.05-0.18c-0.03-0.1-0.06-0.21-0.08-0.31c-0.02-0.07-0.04-0.15-0.05-0.22c-0.02-0.08-0.03-0.16-0.05-0.24
					c-0.02-0.12-0.04-0.23-0.06-0.35c-0.01-0.1-0.03-0.21-0.04-0.31C225.21,132.14,225.2,131.93,225.2,131.72z"/>
			</g>
			<path class="st6" d="M407.77,410.15c0.03-0.02,0.05-0.05,0.08-0.07c-0.05,0.04-0.09,0.07-0.14,0.11
				C407.73,410.17,407.75,410.16,407.77,410.15z"/>
			<path class="st6" d="M406.62,410.76c0.01,0,0.03-0.01,0.04-0.02c-0.05,0.02-0.1,0.03-0.15,0.04
				C406.55,410.78,406.59,410.78,406.62,410.76z"/>
			<path class="st6" d="M407.21,410.51c0.02-0.01,0.04-0.02,0.06-0.04c-0.02,0.01-0.05,0.03-0.07,0.04
				C407.21,410.51,407.21,410.51,407.21,410.51z"/>
			<path class="st6" d="M408.29,409.69c0.02-0.02,0.03-0.04,0.05-0.05c-0.04,0.04-0.09,0.08-0.13,0.13
				C408.24,409.74,408.27,409.72,408.29,409.69z"/>
			<path class="st6" d="M409.16,408.52c0.01-0.02,0.02-0.04,0.03-0.06c0.02-0.03,0.03-0.06,0.04-0.09c-0.03,0.06-0.07,0.13-0.1,0.19
				C409.14,408.54,409.15,408.53,409.16,408.52z"/>
			<path class="st6" d="M408.8,409.08C408.8,409.08,408.8,409.08,408.8,409.08C408.8,409.08,408.8,409.08,408.8,409.08
				C408.8,409.09,408.8,409.08,408.8,409.08z"/>
			<path class="st6" d="M409.51,407.77c0-0.01,0.01-0.02,0.01-0.04c0.01-0.02,0.01-0.04,0.02-0.06c-0.03,0.07-0.06,0.14-0.09,0.21
				C409.47,407.85,409.5,407.81,409.51,407.77z"/>
			<g>
				<g>
					<path class="st10" d="M483.68,239.33L290.65,127.89c-1.87-1.08-3.55-1.11-4.72-0.3l0,0l-3.5,2.15l1.86,2.56l-0.43,150.85
						c-0.01,4.03,2.81,8.92,6.32,10.94l192.16,110.94l2.13,2.93l3.23-1.97c0,0,0,0,0,0l0.01-0.01l0,0c1.14-0.66,1.85-2.07,1.85-4.07
						L490,250.28C490.01,246.26,487.19,241.36,483.68,239.33z"/>
					<g>
						<path class="st11" d="M480.17,241.49c3.5,2.02,6.33,6.93,6.32,10.94l-0.43,151.63c-0.01,4.03-2.86,5.65-6.36,3.62
							L286.67,296.24c-3.5-2.02-6.33-6.92-6.32-10.94l0.43-151.63c0.01-4.02,2.86-5.65,6.36-3.62L480.17,241.49z"/>
					</g>
					<g>
						<g>
							<path class="st12" d="M480.17,243.57c2.49,1.44,4.52,4.96,4.51,7.82l-0.43,151.64c-0.01,2.86-2.05,4.03-4.54,2.59
								L286.68,294.16c-2.5-1.44-4.52-4.96-4.51-7.82l0.43-151.64c0.01-2.86,2.04-4.03,4.54-2.59L480.17,243.57z M475.21,392.58
								l0.4-141.23L291.63,145.14l-0.4,141.23L475.21,392.58"/>
						</g>
						<g>
							<polygon class="st11" points="475.61,251.36 475.21,392.59 291.23,286.36 291.63,145.14 							"/>
						</g>
					</g>
				</g>
				<path class="st10" d="M484.26,410.82c-0.12,1.27-1.01,2.51-2.68,3.48l-123.5,71.77c-3.62,2.1-9.5,2.1-13.15,0L150.4,373.76
					c-1.78-1.03-2.69-2.37-2.74-3.72v11.54l0,0c-0.06,1.43,0.85,2.87,2.73,3.96l194.54,112.32c3.64,2.1,9.52,2.1,13.15,0
					l123.5-71.77c1.74-1.01,2.63-2.32,2.69-3.64l0.01,0v-11.62L484.26,410.82z"/>
				<path class="st11" d="M150.4,373.76l194.54,112.32c3.64,2.1,9.52,2.1,13.15,0l123.5-71.77c1.67-0.97,2.55-2.22,2.68-3.48
					c0.15-1.48-0.76-3-2.72-4.13L287,294.37c-3.64-2.1-9.52-2.1-13.15,0l-123.5,71.77c-1.74,1.01-2.63,2.32-2.69,3.64
					c0,0.02,0,0.04,0,0.06c0,0.07,0,0.13,0,0.2C147.71,371.39,148.62,372.73,150.4,373.76z"/>
				<g>
					<g>
						<g>
							<path class="st12" d="M275.34,329.43c0.81,0.47,0.82,1.23,0.01,1.7l-8.5,4.94c-0.81,0.47-2.12,0.47-2.93,0l-25.68-14.83
								c-0.81-0.47-0.82-1.22-0.01-1.69l8.5-4.94c0.81-0.47,2.12-0.47,2.93,0L275.34,329.43z"/>
						</g>
						<g>
							<path class="st12" d="M272.08,312.25c0.81,0.47,0.82,1.22,0.01,1.69l-8.5,4.94c-0.81,0.47-2.11,0.47-2.92,0l-9.22-5.32
								c-0.81-0.47-0.82-1.22-0.01-1.69l8.5-4.94c0.81-0.47,2.12-0.47,2.92,0L272.08,312.25z"/>
						</g>
						<g class="st13">
							<g>
								<path class="st12" d="M310.33,323.18c0.81,0.47,0.82,1.22,0.01,1.69l-4.92,2.86c-0.81,0.47-2.12,0.47-2.92,0l-9.22-5.32
									c-0.81-0.47-0.82-1.22-0.01-1.69l4.92-2.86c0.81-0.47,2.11-0.47,2.92,0L310.33,323.18z"/>
							</g>
							<g>
								<path class="st12" d="M300.7,328.77c0.81,0.47,0.82,1.22,0.01,1.69l-8.5,4.94c-0.81,0.47-2.12,0.47-2.92,0l-9.22-5.32
									c-0.81-0.47-0.82-1.22-0.01-1.69l8.5-4.94c0.81-0.47,2.11-0.47,2.92,0L300.7,328.77z"/>
							</g>
							<g>
								<path class="st12" d="M324.63,331.43c0.81,0.47,0.82,1.22,0.01,1.69l-4.92,2.86c-0.81,0.47-2.11,0.47-2.92,0l-9.22-5.32
									c-0.81-0.47-0.82-1.22-0.01-1.69l4.92-2.86c0.81-0.47,2.12-0.47,2.92,0L324.63,331.43z"/>
							</g>
							<g>
								<path class="st12" d="M315,337.03c0.81,0.47,0.82,1.22,0.01,1.69l-8.5,4.94c-0.81,0.47-2.11,0.47-2.92,0l-9.22-5.32
									c-0.81-0.47-0.82-1.22-0.01-1.69l8.5-4.94c0.81-0.47,2.12-0.47,2.92,0L315,337.03z"/>
							</g>
						</g>
						<g>
							<path class="st12" d="M286.39,320.51c0.81,0.47,0.82,1.22,0.01,1.69l-8.5,4.94c-0.81,0.47-2.11,0.47-2.92,0l-9.22-5.32
								c-0.81-0.47-0.82-1.22-0.01-1.69l8.5-4.94c0.81-0.47,2.11-0.47,2.92,0L286.39,320.51z"/>
						</g>
						<g class="st13">
							<g>
								<path class="st12" d="M281.71,306.65c0.81,0.47,0.82,1.22,0.01,1.69l-4.92,2.86c-0.81,0.47-2.11,0.47-2.92,0l-9.22-5.32
									c-0.81-0.47-0.82-1.22-0.01-1.69l4.92-2.86c0.81-0.47,2.12-0.47,2.92,0L281.71,306.65z"/>
							</g>
							<g>
								<path class="st12" d="M296.02,314.91c0.81,0.47,0.82,1.22,0.01,1.69l-4.92,2.86c-0.81,0.47-2.11,0.47-2.92,0l-9.22-5.32
									c-0.81-0.47-0.82-1.22-0.01-1.69l4.92-2.86c0.81-0.47,2.11-0.47,2.92,0L296.02,314.91z"/>
							</g>
						</g>
						<g>
							<path class="st12" d="M343.62,353.55c0.81,0.47,0.82,1.22,0.01,1.69l-8.5,4.94c-0.81,0.47-2.12,0.47-2.92,0l-9.22-5.32
								c-0.81-0.47-0.82-1.22-0.01-1.69l8.5-4.94c0.81-0.47,2.11-0.47,2.92,0L343.62,353.55z"/>
						</g>
						<g>
							<path class="st12" d="M357.93,361.81c0.81,0.47,0.82,1.22,0.01,1.69l-8.5,4.94c-0.81,0.47-2.11,0.47-2.92,0l-9.22-5.32
								c-0.81-0.46-0.82-1.22-0.01-1.69l8.5-4.94c0.81-0.47,2.12-0.47,2.92,0L357.93,361.81z"/>
						</g>
						<g>
							<path class="st12" d="M367.56,356.22c0.81,0.47,0.82,1.22,0.01,1.69l-4.92,2.86c-0.81,0.47-2.11,0.47-2.92,0l-9.22-5.32
								c-0.81-0.47-0.82-1.22-0.01-1.69l4.92-2.86c0.81-0.47,2.12-0.47,2.92,0L367.56,356.22z"/>
						</g>
						<g>
							<path class="st12" d="M353.26,347.96c0.81,0.46,0.82,1.22,0.01,1.69l-4.92,2.86c-0.81,0.47-2.12,0.47-2.92,0l-9.22-5.32
								c-0.81-0.47-0.82-1.22-0.01-1.69l4.92-2.86c0.81-0.47,2.11-0.47,2.92,0L353.26,347.96z"/>
						</g>
						<g>
							<path class="st12" d="M338.94,339.7c0.81,0.47,0.82,1.22,0.01,1.69l-4.92,2.86c-0.81,0.47-2.11,0.47-2.92,0l-9.22-5.32
								c-0.81-0.47-0.82-1.22-0.01-1.69l4.92-2.86c0.81-0.47,2.11-0.47,2.92,0L338.94,339.7z"/>
						</g>
						<g>
							<path class="st12" d="M311.83,365.81c0.81,0.47,0.81,1.23,0,1.7l-8.5,4.94c-0.81,0.47-2.11,0.47-2.92,0l-9.22-5.32
								c-0.81-0.46-0.82-1.22-0.01-1.69l8.5-4.94c0.81-0.47,2.12-0.47,2.93,0L311.83,365.81z"/>
						</g>
						<g>
							<path class="st12" d="M331.88,362.08c0.81,0.47,0.81,1.23,0,1.7l-8.5,4.94c-0.81,0.47-2.11,0.47-2.92,0l-9.22-5.32
								c-0.81-0.47-0.82-1.22-0.01-1.69l8.5-4.94c0.81-0.47,2.12-0.47,2.93,0L331.88,362.08z"/>
						</g>
						<g>
							<path class="st12" d="M467.72,414.04c0.81,0.47,0.82,1.22,0.01,1.69l-4.92,2.86c-0.81,0.47-2.11,0.47-2.92,0l-9.22-5.32
								c-0.81-0.47-0.82-1.22-0.01-1.69l4.92-2.86c0.81-0.47,2.11-0.47,2.92,0L467.72,414.04z"/>
						</g>
						<g>
							<path class="st12" d="M260.88,368.49c0.81,0.47,0.82,1.22,0.01,1.69l-8.5,4.94c-0.81,0.47-2.11,0.47-2.92,0l-9.22-5.32
								c-0.81-0.46-0.82-1.22-0.01-1.69l8.5-4.94c0.81-0.47,2.12-0.47,2.92,0L260.88,368.49z"/>
						</g>
						<g>
							<path class="st12" d="M346.73,418.05c0.81,0.47,0.82,1.22,0.01,1.69l-8.5,4.94c-0.81,0.47-2.11,0.47-2.92,0l-9.22-5.32
								c-0.81-0.47-0.82-1.22-0.01-1.69l8.5-4.94c0.81-0.47,2.12-0.47,2.92,0L346.73,418.05z"/>
						</g>
						<g class="st13">
							<g>
								<path class="st12" d="M372.24,370.08c0.81,0.47,0.82,1.22,0.01,1.69l-8.5,4.94c-0.81,0.47-2.11,0.47-2.92,0l-9.22-5.32
									c-0.81-0.47-0.82-1.22-0.01-1.69l8.5-4.94c0.81-0.47,2.11-0.47,2.92,0L372.24,370.08z"/>
							</g>
							<g>
								<path class="st12" d="M346.01,370.23c0.81,0.46,0.81,1.23,0,1.7l-8.5,4.94c-0.81,0.47-2.12,0.47-2.92,0l-9.22-5.32
									c-0.81-0.47-0.82-1.22-0.01-1.69l8.5-4.94c0.81-0.47,2.12-0.47,2.93,0L346.01,370.23z"/>
							</g>
							<g>
								<path class="st12" d="M396.18,372.74c0.81,0.47,0.82,1.22,0.01,1.69l-4.92,2.86c-0.81,0.47-2.12,0.47-2.92,0l-9.22-5.32
									c-0.81-0.47-0.82-1.22-0.01-1.69l4.92-2.86c0.81-0.47,2.11-0.47,2.92,0L396.18,372.74z"/>
							</g>
							<g>
								<path class="st12" d="M325.71,373.82c0.81,0.47,0.81,1.23,0,1.7l-8.5,4.94c-0.81,0.47-2.12,0.47-2.92,0l-9.22-5.32
									c-0.81-0.47-0.82-1.22-0.01-1.69l8.5-4.94c0.81-0.47,2.12-0.47,2.93,0L325.71,373.82z"/>
							</g>
							<g>
								<path class="st12" d="M304.87,377.83c0.81,0.47,0.81,1.23,0,1.7l-8.5,4.94c-0.81,0.47-2.12,0.47-2.92,0l-9.22-5.32
									c-0.81-0.47-0.82-1.22-0.01-1.69l8.5-4.94c0.81-0.47,2.12-0.47,2.93,0L304.87,377.83z"/>
							</g>
							<g>
								<path class="st12" d="M386.55,378.34c0.81,0.47,0.82,1.22,0.01,1.69l-8.5,4.94c-0.81,0.47-2.12,0.46-2.92,0l-9.22-5.32
									c-0.81-0.47-0.82-1.22-0.01-1.69l8.5-4.94c0.81-0.47,2.11-0.47,2.92,0L386.55,378.34z"/>
							</g>
							<g>
								<path class="st12" d="M360.13,378.39c0.81,0.46,0.81,1.23,0,1.7l-8.5,4.94c-0.81,0.47-2.12,0.47-2.92,0l-9.22-5.32
									c-0.81-0.47-0.82-1.22-0.01-1.69l8.5-4.94c0.81-0.47,2.12-0.47,2.93,0L360.13,378.39z"/>
							</g>
							<g>
								<path class="st12" d="M410.48,381c0.81,0.47,0.82,1.22,0.01,1.69l-4.92,2.86c-0.81,0.47-2.11,0.47-2.92,0l-9.22-5.32
									c-0.81-0.47-0.82-1.22-0.01-1.69l4.92-2.86c0.81-0.47,2.12-0.47,2.92,0L410.48,381z"/>
							</g>
							<g>
								<path class="st12" d="M339.58,381.83c0.81,0.47,0.82,1.23,0.01,1.7l-8.5,4.94c-0.81,0.47-2.12,0.47-2.93,0l-9.21-5.32
									c-0.81-0.47-0.82-1.23-0.02-1.7l8.5-4.94c0.81-0.47,2.12-0.47,2.94,0L339.58,381.83z"/>
							</g>
							<g>
								<path class="st12" d="M318.73,385.84c0.81,0.47,0.82,1.23,0.01,1.7l-8.5,4.94c-0.81,0.47-2.12,0.47-2.93,0l-9.21-5.32
									c-0.81-0.47-0.82-1.23-0.02-1.7l8.5-4.94c0.81-0.47,2.12-0.47,2.94,0L318.73,385.84z"/>
							</g>
							<g>
								<path class="st12" d="M400.85,386.6c0.81,0.47,0.82,1.22,0.01,1.69l-8.5,4.94c-0.81,0.47-2.11,0.47-2.92,0l-9.22-5.32
									c-0.81-0.47-0.82-1.22-0.01-1.69l8.5-4.94c0.81-0.47,2.12-0.47,2.92,0L400.85,386.6z"/>
							</g>
							<g>
								<path class="st12" d="M374.25,386.54c0.81,0.47,0.82,1.23,0.01,1.7l-8.5,4.94c-0.81,0.47-2.12,0.47-2.93,0l-9.21-5.32
									c-0.81-0.47-0.82-1.23-0.02-1.7l8.5-4.94c0.81-0.47,2.12-0.47,2.94,0L374.25,386.54z"/>
							</g>
							<g>
								<path class="st12" d="M353.45,389.84c0.81,0.47,0.81,1.23,0,1.7l-8.5,4.94c-0.81,0.47-2.11,0.47-2.92,0l-9.22-5.32
									c-0.81-0.47-0.82-1.22-0.01-1.69l8.5-4.94c0.81-0.47,2.12-0.47,2.93,0L353.45,389.84z"/>
							</g>
							<g>
								<path class="st12" d="M332.61,393.85c0.81,0.47,0.81,1.23,0,1.7l-8.5,4.94c-0.81,0.47-2.11,0.47-2.92,0l-9.22-5.32
									c-0.81-0.47-0.82-1.22-0.01-1.69l8.5-4.94c0.81-0.47,2.12-0.47,2.93,0L332.61,393.85z"/>
							</g>
							<g>
								<path class="st12" d="M388.38,394.69c0.81,0.47,0.82,1.23,0.01,1.7l-8.5,4.94c-0.81,0.47-2.12,0.47-2.93,0l-9.21-5.32
									c-0.81-0.47-0.82-1.23-0.02-1.7l8.5-4.94c0.81-0.47,2.12-0.47,2.94,0L388.38,394.69z"/>
							</g>
							<g>
								<path class="st12" d="M415.16,394.86c0.81,0.47,0.82,1.22,0.01,1.69l-8.5,4.94c-0.81,0.47-2.11,0.47-2.92,0l-9.22-5.32
									c-0.81-0.47-0.82-1.22-0.01-1.69l8.5-4.94c0.81-0.47,2.11-0.47,2.92,0L415.16,394.86z"/>
							</g>
							<g>
								<path class="st12" d="M367.33,397.85c0.81,0.47,0.81,1.23,0,1.7l-8.5,4.94c-0.81,0.47-2.11,0.47-2.92,0l-9.22-5.32
									c-0.81-0.47-0.82-1.22-0.01-1.69l8.5-4.94c0.81-0.47,2.12-0.47,2.93,0L367.33,397.85z"/>
							</g>
							<g>
								<path class="st12" d="M346.48,401.86c0.81,0.47,0.81,1.23,0,1.7l-8.5,4.94c-0.81,0.47-2.11,0.47-2.92,0l-9.22-5.32
									c-0.81-0.47-0.82-1.22-0.01-1.69l8.5-4.94c0.81-0.47,2.12-0.47,2.93,0L346.48,401.86z"/>
							</g>
							<g>
								<path class="st12" d="M402.5,402.85c0.81,0.47,0.81,1.23,0,1.7l-8.5,4.94c-0.81,0.47-2.11,0.47-2.92,0l-9.22-5.32
									c-0.81-0.47-0.82-1.22-0.01-1.69l8.5-4.94c0.81-0.47,2.12-0.47,2.93,0L402.5,402.85z"/>
							</g>
							<g>
								<path class="st12" d="M429.47,403.12c0.81,0.47,0.82,1.22,0.01,1.69l-8.5,4.94c-0.81,0.47-2.12,0.47-2.92,0l-9.22-5.32
									c-0.81-0.47-0.82-1.22-0.01-1.69l8.5-4.94c0.81-0.47,2.11-0.47,2.92,0L429.47,403.12z"/>
							</g>
							<g>
								<path class="st12" d="M332.42,409.79c0.81,0.47,0.82,1.22,0.01,1.69l-8.5,4.94c-0.81,0.47-2.12,0.47-2.92,0l-66.45-38.37
									c-0.81-0.47-0.82-1.22-0.01-1.69l8.5-4.94c0.81-0.47,2.11-0.47,2.92,0L332.42,409.79z"/>
							</g>
							<g>
								<path class="st12" d="M416.63,411c0.81,0.47,0.81,1.23,0,1.7l-8.5,4.94c-0.81,0.47-2.11,0.47-2.92,0l-9.22-5.32
									c-0.81-0.47-0.82-1.22-0.01-1.69l8.5-4.94c0.81-0.47,2.12-0.47,2.93,0L416.63,411z"/>
							</g>
							<g>
								<path class="st12" d="M430.75,419.16c0.81,0.47,0.81,1.23,0,1.7l-8.5,4.94c-0.81,0.47-2.11,0.47-2.92,0l-9.22-5.32
									c-0.81-0.47-0.82-1.22-0.01-1.69l8.5-4.94c0.81-0.47,2.12-0.47,2.93,0L430.75,419.16z"/>
							</g>
							<g>
								<path class="st12" d="M458.09,419.64c0.81,0.47,0.82,1.22,0.01,1.69l-8.5,4.94c-0.81,0.47-2.11,0.47-2.92,0l-23.53-13.58
									c-0.81-0.47-0.82-1.22-0.01-1.69l8.5-4.94c0.81-0.47,2.12-0.47,2.92,0L458.09,419.64z"/>
							</g>
							<g>
								<path class="st12" d="M444.88,427.31c0.81,0.47,0.81,1.23,0,1.7l-8.5,4.94c-0.81,0.47-2.11,0.47-2.92,0l-9.22-5.32
									c-0.81-0.47-0.82-1.22-0.01-1.69l8.5-4.94c0.81-0.47,2.12-0.47,2.93,0L444.88,427.31z"/>
							</g>
						</g>
						<g>
							<path class="st12" d="M381.87,364.48c0.81,0.47,0.82,1.22,0.01,1.69l-4.92,2.86c-0.81,0.47-2.11,0.47-2.92,0l-9.22-5.32
								c-0.81-0.47-0.82-1.22-0.01-1.69l4.92-2.86c0.81-0.47,2.11-0.47,2.92,0L381.87,364.48z"/>
						</g>
						<g class="st13">
							<g>
								<path class="st12" d="M424.79,389.26c0.81,0.47,0.82,1.22,0.01,1.69l-4.92,2.86c-0.81,0.47-2.11,0.47-2.92,0l-9.22-5.32
									c-0.81-0.47-0.82-1.22-0.01-1.69l4.92-2.86c0.81-0.47,2.11-0.47,2.92,0L424.79,389.26z"/>
							</g>
							<g>
								<path class="st12" d="M439.1,397.52c0.81,0.46,0.82,1.22,0.01,1.69l-4.92,2.86c-0.81,0.47-2.12,0.47-2.92,0l-9.22-5.32
									c-0.81-0.47-0.82-1.22-0.01-1.69l4.92-2.86c0.81-0.47,2.11-0.47,2.92,0L439.1,397.52z"/>
							</g>
						</g>
						<g>
							<path class="st12" d="M453.41,405.78c0.81,0.47,0.82,1.22,0.01,1.69l-4.92,2.86c-0.81,0.47-2.11,0.47-2.92,0l-9.22-5.32
								c-0.81-0.47-0.82-1.22-0.01-1.69l4.92-2.86c0.81-0.47,2.12-0.47,2.92,0L453.41,405.78z"/>
						</g>
						<g>
							<path class="st12" d="M303.63,345.77c0.81,0.47,0.81,1.23,0,1.7l-8.5,4.94c-0.81,0.47-2.11,0.47-2.92,0l-9.22-5.32
								c-0.81-0.47-0.82-1.22-0.01-1.69l8.5-4.94c0.81-0.47,2.12-0.47,2.93,0L303.63,345.77z"/>
						</g>
						<g>
							<path class="st12" d="M317.76,353.92c0.81,0.47,0.81,1.23,0,1.7l-8.5,4.94c-0.81,0.47-2.11,0.47-2.92,0l-9.22-5.32
								c-0.81-0.47-0.82-1.22-0.01-1.69l8.5-4.94c0.81-0.47,2.12-0.47,2.93,0L317.76,353.92z"/>
						</g>
						<g>
							<path class="st12" d="M297.96,357.8c0.81,0.47,0.82,1.23,0.01,1.7l-8.5,4.94c-0.81,0.47-2.12,0.47-2.93,0l-9.21-5.32
								c-0.81-0.47-0.82-1.23-0.02-1.7l8.5-4.94c0.81-0.47,2.12-0.47,2.94,0L297.96,357.8z"/>
						</g>
						<g>
							<path class="st12" d="M217.95,343.7c0.81,0.47,0.82,1.22,0.01,1.69l-8.5,4.94c-0.81,0.47-2.11,0.47-2.92,0l-9.22-5.32
								c-0.81-0.47-0.82-1.22-0.01-1.69l8.5-4.94c0.81-0.47,2.12-0.46,2.92,0L217.95,343.7z"/>
						</g>
						<g>
							<path class="st12" d="M232.26,351.97c0.81,0.47,0.82,1.22,0.01,1.69l-8.5,4.94c-0.81,0.47-2.11,0.47-2.92,0l-9.22-5.32
								c-0.81-0.47-0.82-1.22-0.01-1.69l8.5-4.94c0.81-0.47,2.11-0.47,2.92,0L232.26,351.97z"/>
						</g>
						<g class="st13">
							<g>
								<path class="st12" d="M270.22,341.78c0.81,0.47,0.81,1.23,0,1.7l-8.5,4.94c-0.81,0.47-2.11,0.47-2.92,0l-9.22-5.32
									c-0.81-0.47-0.82-1.22-0.01-1.69l8.5-4.94c0.81-0.47,2.12-0.47,2.93,0L270.22,341.78z"/>
							</g>
							<g>
								<path class="st12" d="M249.01,345.58c0.81,0.47,0.82,1.23,0.01,1.7l-8.5,4.94c-0.81,0.47-2.12,0.47-2.93,0l-26.41-15.25
									c-0.81-0.47-0.82-1.22-0.01-1.69l8.5-4.94c0.81-0.47,2.12-0.47,2.93,0L249.01,345.58z"/>
							</g>
							<g>
								<path class="st12" d="M284.09,349.79c0.81,0.47,0.81,1.23,0,1.7l-8.5,4.94c-0.81,0.47-2.12,0.47-2.92,0l-9.22-5.32
									c-0.81-0.47-0.82-1.22-0.01-1.69l8.5-4.94c0.81-0.47,2.12-0.47,2.93,0L284.09,349.79z"/>
							</g>
							<g>
								<path class="st12" d="M263.25,353.8c0.81,0.47,0.81,1.23,0,1.7l-8.5,4.94c-0.81,0.47-2.12,0.46-2.92,0l-9.22-5.32
									c-0.81-0.47-0.82-1.22-0.01-1.69l8.5-4.94c0.81-0.47,2.12-0.47,2.93,0L263.25,353.8z"/>
							</g>
							<g>
								<path class="st12" d="M277.12,361.81c0.81,0.47,0.82,1.23,0.01,1.7l-8.5,4.94c-0.81,0.47-2.12,0.47-2.93,0l-9.21-5.32
									c-0.81-0.47-0.82-1.23-0.02-1.7l8.5-4.94c0.81-0.47,2.12-0.47,2.94,0L277.12,361.81z"/>
							</g>
						</g>
						<g>
							<path class="st12" d="M255.89,333.51c0.81,0.47,0.81,1.23,0,1.7l-8.5,4.94c-0.81,0.47-2.11,0.47-2.92,0l-19.45-11.23
								c-0.81-0.47-0.82-1.22-0.01-1.69l8.5-4.94c0.81-0.47,2.12-0.47,2.93,0L255.89,333.51z"/>
						</g>
						<g>
							<path class="st12" d="M289.51,337.61c0.81,0.47,0.81,1.23,0,1.7l-8.5,4.94c-0.81,0.47-2.11,0.47-2.92,0l-9.22-5.32
								c-0.81-0.47-0.82-1.22-0.01-1.69l8.5-4.94c0.81-0.47,2.12-0.47,2.93,0L289.51,337.61z"/>
						</g>
						<g>
							<path class="st12" d="M361.04,426.31c0.81,0.47,0.82,1.22,0.01,1.69l-8.5,4.94c-0.81,0.47-2.11,0.47-2.92,0l-9.22-5.32
								c-0.81-0.47-0.82-1.22-0.01-1.69l8.5-4.94c0.81-0.47,2.11-0.47,2.92,0L361.04,426.31z"/>
						</g>
						<g>
							<path class="st12" d="M388.1,425.88c0.81,0.47,0.81,1.23,0,1.7l-8.5,4.94c-0.81,0.47-2.11,0.47-2.92,0l-9.22-5.32
								c-0.81-0.47-0.82-1.22-0.01-1.69l8.5-4.94c0.81-0.47,2.12-0.47,2.93,0L388.1,425.88z"/>
						</g>
						<g>
							<path class="st12" d="M431.67,434.99c0.81,0.47,0.81,1.23,0,1.7l-8.5,4.94c-0.81,0.47-2.11,0.47-2.92,0l-18.07-10.43
								c-0.81-0.47-0.82-1.22-0.01-1.69l8.5-4.94c0.81-0.47,2.12-0.47,2.93,0L431.67,434.99z"/>
						</g>
						<g>
							<path class="st12" d="M417.82,443.04c0.81,0.47,0.81,1.23,0,1.7l-8.5,4.94c-0.81,0.47-2.11,0.47-2.92,0l-25.06-14.47
								c-0.81-0.47-0.82-1.22-0.01-1.69l8.5-4.94c0.81-0.47,2.12-0.47,2.93,0L417.82,443.04z"/>
						</g>
						<g>
							<path class="st12" d="M408.94,421.87c0.81,0.47,0.81,1.23,0,1.7l-8.5,4.94c-0.81,0.47-2.11,0.47-2.92,0l-9.22-5.32
								c-0.81-0.47-0.82-1.22-0.01-1.69l8.5-4.94c0.81-0.47,2.12-0.47,2.93,0L408.94,421.87z"/>
						</g>
						<g>
							<path class="st12" d="M374.22,417.87c0.81,0.47,0.81,1.23,0,1.7l-8.5,4.94c-0.81,0.47-2.11,0.47-2.92,0l-9.22-5.32
								c-0.81-0.47-0.82-1.22-0.01-1.69l8.5-4.94c0.81-0.47,2.12-0.47,2.93,0L374.22,417.87z"/>
						</g>
						<g>
							<path class="st12" d="M395.07,413.86c0.81,0.47,0.81,1.23,0,1.7l-8.5,4.94c-0.81,0.47-2.11,0.47-2.92,0l-9.22-5.32
								c-0.81-0.47-0.82-1.22-0.01-1.69l8.5-4.94c0.81-0.47,2.12-0.47,2.93,0L395.07,413.86z"/>
						</g>
						<g>
							<path class="st12" d="M360.36,409.87c0.81,0.47,0.81,1.23,0,1.7l-8.5,4.94c-0.81,0.47-2.12,0.47-2.92,0l-9.22-5.32
								c-0.81-0.47-0.82-1.23-0.02-1.7l8.5-4.94c0.81-0.47,2.12-0.47,2.94,0L360.36,409.87z"/>
						</g>
						<g>
							<path class="st12" d="M381.2,405.86c0.81,0.47,0.81,1.23,0,1.7l-8.5,4.94c-0.81,0.47-2.12,0.47-2.92,0l-9.22-5.32
								c-0.81-0.47-0.82-1.23-0.02-1.7l8.5-4.94c0.81-0.47,2.12-0.47,2.94,0L381.2,405.86z"/>
						</g>
						<g>
							<path class="st12" d="M290.99,369.82c0.81,0.47,0.81,1.23,0,1.7l-8.5,4.94c-0.81,0.47-2.11,0.47-2.92,0l-9.22-5.32
								c-0.81-0.47-0.82-1.22-0.01-1.69l8.5-4.94c0.81-0.47,2.12-0.47,2.93,0L290.99,369.82z"/>
						</g>
						<g>
							<path class="st12" d="M329.31,345.29c0.81,0.47,0.82,1.22,0.01,1.69l-8.5,4.94c-0.81,0.47-2.11,0.47-2.92,0l-9.22-5.32
								c-0.81-0.47-0.82-1.22-0.01-1.69l8.5-4.94c0.81-0.47,2.11-0.47,2.92,0L329.31,345.29z"/>
						</g>
						<g>
							<path class="st12" d="M246.57,360.23c0.81,0.47,0.82,1.22,0.01,1.69l-8.5,4.94c-0.81,0.47-2.12,0.47-2.92,0l-9.22-5.32
								c-0.81-0.47-0.82-1.22-0.01-1.69l8.5-4.94c0.81-0.47,2.11-0.47,2.92,0L246.57,360.23z"/>
						</g>
						<g>
							<path class="st12" d="M383.73,446.63c0.81,0.47,0.82,1.22,0.01,1.69l-2.28,1.32c-0.81,0.47-2.11,0.47-2.92,0l-10.02-5.78
								c-0.81-0.47-0.82-1.22-0.01-1.69l2.28-1.32c0.81-0.47,2.11-0.47,2.92,0L383.73,446.63z"/>
						</g>
						<g>
							<path class="st12" d="M389.96,443.01c0.81,0.47,0.82,1.22,0.01,1.69l-2.28,1.32c-0.81,0.47-2.11,0.47-2.92,0l-10.02-5.78
								c-0.81-0.47-0.82-1.22-0.01-1.69l2.28-1.32c0.81-0.47,2.11-0.47,2.92,0L389.96,443.01z"/>
						</g>
						<g>
							<path class="st12" d="M375.31,435c0.81,0.47,0.82,1.22,0.01,1.69l-8.5,4.94c-0.81,0.47-2.11,0.47-2.92,0l-9.22-5.32
								c-0.81-0.47-0.82-1.22-0.01-1.69l8.5-4.94c0.81-0.47,2.11-0.47,2.92,0L375.31,435z"/>
						</g>
						<g>
							<path class="st12" d="M404.23,450.92c0.81,0.47,0.82,1.22,0.01,1.69l-8.5,4.94c-0.81,0.47-2.11,0.47-2.92,0l-9.22-5.32
								c-0.81-0.47-0.82-1.22-0.01-1.69l8.5-4.94c0.81-0.47,2.11-0.47,2.92,0L404.23,450.92z"/>
						</g>
					</g>
					<path class="st12" d="M249.98,382.54l-34.52,20.06c-1.16,0.67-1.16,2.35,0,3.02l57.88,33.42c1.35,0.78,3.02,0.78,4.38-0.01
						l34.52-20.06c1.16-0.67,1.16-2.35,0-3.02l-57.88-33.42C253.01,381.75,251.34,381.76,249.98,382.54z"/>
				</g>
			</g>
			<g>
				<g>
					<path class="st2" d="M268.69,275.04c1.21,0.7,2.19,2.39,2.18,3.78l-0.06,21.68c0,1.39-0.99,1.95-2.2,1.25l-8.88-5.13
						l-4.36,6.13l-4.31-11.14l-18.53-10.7c-1.21-0.7-2.19-2.39-2.18-3.78l0.06-21.68c0-1.39,0.99-1.95,2.2-1.25L268.69,275.04z"/>
				</g>
				<g>
					<g>
						<path class="st10" d="M257.32,279.72c0.92,0.53,1.66,1.81,1.65,2.86c0,1.05-0.75,1.48-1.66,0.95
							c-0.91-0.53-1.65-1.81-1.65-2.86C255.67,279.62,256.41,279.2,257.32,279.72z"/>
					</g>
					<g>
						<path class="st10" d="M251.36,276.28c0.91,0.53,1.65,1.81,1.65,2.86c0,1.05-0.75,1.48-1.66,0.95
							c-0.92-0.53-1.66-1.81-1.65-2.86S250.45,275.75,251.36,276.28z"/>
					</g>
					<g>
						<path class="st10" d="M245.4,272.84c0.91,0.53,1.66,1.81,1.65,2.86s-0.75,1.48-1.66,0.95c-0.91-0.53-1.66-1.81-1.65-2.86
							C243.74,272.74,244.49,272.31,245.4,272.84z"/>
					</g>
				</g>
				<g>
					<g>
						<path class="st2" d="M475.91,211.16c1.92,1.11,3.48,3.8,3.47,6.02l-0.1,34.5c-0.01,2.21-1.57,3.1-3.5,1.99l-14.14-8.16
							l-6.94,9.76l-6.86-17.72l-29.49-17.02c-1.92-1.11-3.48-3.8-3.47-6.01l0.1-34.5c0.01-2.21,1.57-3.1,3.5-1.99L475.91,211.16z"/>
					</g>
					<g>
						<g>
							<path class="st10" d="M457.82,218.62c1.46,0.84,2.63,2.88,2.63,4.56c0,1.67-1.19,2.35-2.65,1.51
								c-1.45-0.84-2.63-2.88-2.62-4.55C455.18,218.46,456.37,217.78,457.82,218.62z"/>
						</g>
						<g>
							<path class="st10" d="M448.34,213.15c1.45,0.84,2.63,2.88,2.62,4.55c0,1.67-1.19,2.35-2.64,1.51
								c-1.46-0.84-2.63-2.88-2.63-4.56C445.7,212.99,446.88,212.31,448.34,213.15z"/>
						</g>
						<g>
							<path class="st10" d="M438.85,207.67c1.45,0.84,2.63,2.88,2.63,4.56c0,1.67-1.19,2.35-2.65,1.51
								c-1.45-0.84-2.63-2.88-2.63-4.56C436.21,207.51,437.4,206.83,438.85,207.67z"/>
						</g>
					</g>
				</g>
			</g>
			<g>
				<g>
					<polygon class="st14" points="452.17,256.51 451.76,402.36 261.76,292.67 262.17,146.81 					"/>
				</g>
				<g>
					<g>
						<path class="st10" d="M423.34,250.42c1.62,0.93,2.92,3.2,2.92,5.05c-0.01,1.87-1.32,2.62-2.94,1.68
							c-1.62-0.94-2.93-3.2-2.93-5.07C420.39,250.24,421.71,249.48,423.34,250.42z"/>
					</g>
					<g class="st13">
						<g>
							<polygon class="st15" points="366.57,312.25 366.55,318.08 328.58,296.15 328.59,290.32 							"/>
						</g>
						<g>
							<polygon class="st15" points="412.99,371.24 412.98,374.6 328.49,325.82 328.5,322.46 							"/>
						</g>
						<g>
							<polygon class="st15" points="390.88,326.28 390.86,332.11 372.75,321.65 372.76,315.82 							"/>
						</g>
						<g>
							<path class="st10" d="M354.73,252.49c5.96,3.44,10.64,8.64,13.63,14.87l-6.5,2.9c-1.78-3.62-3.9-6.35-6.64-7.93
								c-4.26-2.46-7.14-0.72-7.15,4.63c-0.02,5.35,2.84,10.4,7.1,12.85c2.73,1.58,4.87,1.31,6.66-0.26l6.46,10.38
								c-3.01,2.77-7.71,2.56-13.67-0.88c-9.78-5.65-16.93-17.33-16.9-28.07C337.76,250.24,344.95,246.84,354.73,252.49z"/>
						</g>
						<g>
							<polygon class="st15" points="447.14,383.5 447.13,386.87 328.51,318.39 328.52,315.02 							"/>
						</g>
						<g>
							<polygon class="st15" points="447.16,376.08 447.15,379.44 328.53,310.96 328.54,307.6 							"/>
						</g>
						<g>
							<path class="st10" d="M357.14,212.34c5.45,3.15,9.85,10.77,9.83,17.02c-0.02,6.26-4.44,8.79-9.89,5.64
								c-5.44-3.14-9.84-10.76-9.82-17.02C347.27,211.73,351.69,209.2,357.14,212.34z M353.98,227.34l8.27-0.71l-8.24-10.25
								L353.98,227.34"/>
						</g>
						<g>
							<polygon class="st16" points="354.01,216.39 362.25,226.64 353.98,227.34 							"/>
						</g>
						<g>
							<polygon class="st15" points="447.18,368.64 447.17,372.01 328.56,303.53 328.57,300.16 							"/>
						</g>
						<g>
							<path class="st10" d="M425.54,293.37c4.08,2.36,8.29,5.79,11.46,9.67l-3.1,6.77c-3-3.48-5.82-5.97-8.47-7.5
								c-3-1.73-3.96-1.29-3.96-0.09c-0.01,4.2,16.82,10.42,16.78,23.29c-0.02,6.4-4.77,9.06-14.2,3.61
								c-5.08-2.93-10.21-7.35-13.24-11.25l3.32-6.69c2.86,3.61,6.69,7.07,10.04,9c2.91,1.68,3.96,1.58,3.96,0.38
								c0.01-4.39-16.82-10.55-16.78-23.59C411.36,290.49,416.11,287.93,425.54,293.37z"/>
						</g>
						<g>
							<path class="st15" d="M390.41,265.4l56.97,32.89l-0.15,54.67l-118.61-68.48l0.15-54.67l56.56,32.66L390.41,265.4z
								 M398.4,313.52l9.35,5.4l0.01-35.01l-8.44-4.87l-9.69,13.06l-9.86-24.35l-8.43-4.87l-0.1,34.96l9.34,5.39l0.04-15.38
								l6.57,16.04l4.53,2.61l6.64-8.97L398.4,313.52 M355.18,279.81c-4.26-2.46-7.12-7.51-7.1-12.85c0.02-5.35,2.89-7.08,7.15-4.63
								c2.73,1.58,4.86,4.31,6.64,7.93l6.5-2.9c-2.98-6.22-7.67-11.43-13.63-14.87c-9.78-5.65-16.97-2.25-17,8.49
								c-0.03,10.74,7.12,22.42,16.9,28.07c5.96,3.44,10.66,3.65,13.67,0.88l-6.46-10.38C360.04,281.12,357.91,281.39,355.18,279.81
								 M424.04,329.13c9.43,5.45,14.18,2.79,14.2-3.61c0.04-12.88-16.79-19.1-16.78-23.29c0-1.2,0.97-1.64,3.96,0.09
								c2.65,1.53,5.47,4.01,8.47,7.5l3.1-6.77c-3.17-3.88-7.38-7.31-11.46-9.67c-9.43-5.45-14.18-2.88-14.2,3.6
								c-0.04,13.04,16.79,19.2,16.78,23.59c0,1.2-1.05,1.3-3.96-0.38c-3.35-1.93-7.17-5.39-10.04-9l-3.32,6.69
								C413.83,321.78,418.96,326.2,424.04,329.13"/>
						</g>
						<g>
							<polygon class="st10" points="407.76,283.91 407.74,318.92 398.4,313.52 398.36,297.54 391.72,306.51 387.19,303.89 
								380.62,287.85 380.58,303.23 371.24,297.84 371.34,262.88 379.77,267.75 389.63,292.1 399.32,279.04 							"/>
						</g>
						<g>
							<path class="st11" d="M390.52,226.3l56.97,32.89l-0.09,33.28l-56.97-32.89L390.52,226.3z M427.35,274.48l15.52,8.96
								l-11.23-20.8l-7.79,5.37l-12.63-23.41l-16.24,11.19l25.35,14.64L427.35,274.48 M423.34,250.42
								c-1.62-0.94-2.94-0.19-2.95,1.67c-0.01,1.87,1.3,4.13,2.93,5.07c1.62,0.93,2.93,0.18,2.94-1.68
								C426.26,253.62,424.95,251.35,423.34,250.42"/>
						</g>
					</g>
					<g>
						<path class="st11" d="M328.88,190.71l56.56,32.66l-0.09,33.28l-56.56-32.66L328.88,190.71z M357.07,235
							c5.45,3.15,9.87,0.62,9.89-5.64c0.02-6.25-4.38-13.88-9.83-17.02c-5.44-3.14-9.87-0.61-9.88,5.64
							C347.24,224.24,351.63,231.86,357.07,235"/>
					</g>
					<g>
						<path class="st10" d="M299.89,179.15c1.62,0.93,2.92,3.2,2.92,5.05c-0.01,1.87-1.32,2.62-2.94,1.68
							c-1.62-0.94-2.93-3.2-2.93-5.07C296.94,178.96,298.26,178.21,299.89,179.15z"/>
					</g>
					<g>
						<g>
							<polygon class="st16" points="289.23,265.89 299.07,284.12 305.13,279.93 313.87,296.12 301.78,289.14 296.33,286 
								276.58,274.6 							"/>
						</g>
						<g>
							<path class="st11" d="M266.72,193.99l56.97,32.89l-0.27,96.01L266.44,290L266.72,193.99z M318.76,314.82l0.13-45.5
								l-47.62-27.49l-0.13,45.5L318.76,314.82 M319.69,257.51l0.01-3.36l-48.39-27.94l-0.01,3.36L319.69,257.51 M319.71,250.09
								l0.01-3.36l-48.39-27.94l-0.01,3.36L319.71,250.09 M319.73,242.65l0.01-3.36l-48.39-27.94l-0.01,3.36L319.73,242.65
								 M271.38,201.5l-0.02,5.84l23.08,13.32l0.02-5.84L271.38,201.5 M271.29,233.65l-0.01,3.36l26.17,15.11l0.01-3.36
								L271.29,233.65 M300.65,218.4l-0.02,5.84l14.37,8.3l0.02-5.84L300.65,218.4"/>
						</g>
						<g>
							<path class="st16" d="M298.66,270.41c1.26,0.73,2.29,2.5,2.28,3.95c0,1.45-1.03,2.03-2.3,1.3c-1.25-0.72-2.28-2.49-2.27-3.94
								S297.4,269.69,298.66,270.41z"/>
						</g>
						<g>
							<polygon class="st15" points="297.46,248.76 297.45,252.12 271.28,237.01 271.29,233.65 							"/>
						</g>
						<g>
							<path class="st10" d="M271.27,241.83l47.62,27.49l-0.13,45.5l-47.62-27.49L271.27,241.83z M301.78,289.14l12.09,6.98
								l-8.74-16.19l-6.06,4.19l-9.83-18.23l-12.65,8.7l19.75,11.4L301.78,289.14 M298.66,270.41c-1.25-0.72-2.28-0.14-2.29,1.31
								s1.02,3.21,2.27,3.94c1.26,0.73,2.29,0.15,2.3-1.3C300.94,272.91,299.92,271.14,298.66,270.41"/>
						</g>
						<g>
							<polygon class="st15" points="294.46,214.83 294.44,220.67 271.36,207.34 271.38,201.5 							"/>
						</g>
						<g>
							<polygon class="st15" points="319.7,254.15 319.69,257.51 271.3,229.58 271.31,226.21 							"/>
						</g>
						<g>
							<polygon class="st15" points="319.72,246.72 319.71,250.09 271.32,222.15 271.33,218.79 							"/>
						</g>
						<g>
							<polygon class="st15" points="319.74,239.29 319.73,242.65 271.34,214.72 271.35,211.35 							"/>
						</g>
						<g>
							<polygon class="st15" points="315.02,226.7 315,232.54 300.63,224.24 300.65,218.4 							"/>
						</g>
						<g>
							<path class="st11" d="M266.83,154.88l56.97,32.89l-0.09,33.28l-56.97-32.89L266.83,154.88z M303.9,203.2l15.52,8.96
								l-11.23-20.8l-7.79,5.37l-12.62-23.4l-16.25,11.19l25.36,14.64L303.9,203.2 M299.89,179.15c-1.62-0.94-2.94-0.19-2.95,1.67
								c-0.01,1.87,1.3,4.13,2.93,5.07c1.62,0.93,2.93,0.18,2.94-1.68C302.81,182.35,301.5,180.08,299.89,179.15"/>
						</g>
						<g>
							<polygon class="st11" points="287.77,173.33 300.4,196.73 308.19,191.36 319.42,212.17 303.9,203.2 296.89,199.16 
								271.53,184.52 							"/>
						</g>
					</g>
					<g>
						<polygon class="st10" points="411.23,244.6 423.86,268.01 431.64,262.64 442.87,283.44 427.35,274.48 420.34,270.43 
							394.99,255.8 						"/>
					</g>
				</g>
			</g>
			<g>
				<g>
					<path class="st17" d="M511.28,308.33c1.59,0.92,2.88,3.15,2.88,4.98l-0.27,94.69c-0.01,1.82-1.3,2.56-2.9,1.64l-47.29-27.3
						c-1.59-0.92-2.88-3.15-2.88-4.98l0.1-34.94l-16.66-20.71l16.72-1.44l0.11-37.6c0.01-1.83,1.3-2.57,2.9-1.65L511.28,308.33z"/>
				</g>
			</g>
			<g>
				<g>
					<path class="st2" d="M225.28,278.26c0.93-0.54,1.68-0.1,1.68,0.97l0.16,56.14c0,1.07-0.74,2.36-1.67,2.9l-70.06,40.45
						c-0.93,0.54-1.68,0.1-1.68-0.97l-0.16-56.14c0-1.07,0.74-2.36,1.67-2.9L225.28,278.26z"/>
				</g>
				<g>
					<path class="st18" d="M222.78,287.74c0.93-0.54,1.68-0.1,1.69,0.96l0.13,45.76c0,1.07-0.75,2.36-1.68,2.89l-65.03,37.55
						c-0.93,0.54-1.68,0.11-1.68-0.96l-0.13-45.76c0-1.07,0.74-2.36,1.67-2.9L222.78,287.74z"/>
				</g>
				<g>
					<g>
						<path class="st19" d="M157.48,319.71c0.72-0.42,1.31-0.09,1.31,0.75c0,0.82-0.58,1.83-1.3,2.25c-0.72,0.41-1.3,0.07-1.3-0.75
							C156.18,321.13,156.76,320.12,157.48,319.71z"/>
					</g>
					<g>
						<path class="st17" d="M161.73,317.26c0.72-0.41,1.31-0.09,1.31,0.75c0,0.82-0.58,1.84-1.3,2.25
							c-0.72,0.42-1.31,0.08-1.31-0.75C160.42,318.68,161,317.67,161.73,317.26z"/>
					</g>
					<g>
						<path class="st20" d="M165.97,314.81c0.72-0.42,1.31-0.09,1.31,0.75c0,0.82-0.58,1.83-1.3,2.25
							c-0.72,0.41-1.31,0.08-1.31-0.75C164.67,316.23,165.25,315.22,165.97,314.81z"/>
					</g>
				</g>
				<g>
					<g>
						<polygon class="st10" points="185.19,319.77 185.21,328.77 171.28,342.32 185.24,339.77 185.27,348.76 161.76,352.53 
							161.73,343.11 						"/>
					</g>
					<g>
						<polygon class="st10" points="195.39,313.88 218.9,310.11 218.92,319.52 195.47,342.87 195.45,333.87 209.38,320.32 
							195.42,322.87 						"/>
					</g>
				</g>
			</g>
		</g>
	</g>
	<g>
		<g>
			<polygon class="st2" points="506.99,316.6 506.98,319.31 467.44,296.88 467.45,294.17 			"/>
		</g>
		<g>
			<polygon class="st2" points="506.99,324.83 506.98,327.53 467.44,305.1 467.45,302.4 			"/>
		</g>
		<g>
			<polygon class="st2" points="506.53,332.97 506.52,335.68 466.98,313.25 466.99,310.54 			"/>
		</g>
		<g>
			<path class="st2" d="M467.14,320.99l37.6,21.71l-0.06,21.96l-37.6-21.71L467.14,320.99z M491.45,352.79l10.25,5.92l-7.41-13.73
				l-5.14,3.55l-8.34-15.45l-10.72,7.39l16.73,9.66L491.45,352.79 M488.8,336.91c-1.07-0.62-1.94-0.12-1.94,1.1
				c0,1.23,0.86,2.73,1.93,3.35c1.07,0.62,1.94,0.12,1.94-1.11C490.73,339.02,489.87,337.53,488.8,336.91"/>
		</g>
		<g>
			<polygon class="st2" points="505.89,373.43 505.89,376.13 466.35,353.7 466.35,351 			"/>
		</g>
		<g>
			<polygon class="st2" points="505.89,381.65 505.89,384.35 466.35,361.93 466.35,359.22 			"/>
		</g>
		<g>
			<polygon class="st2" points="505.44,389.8 505.43,392.5 465.89,370.07 465.89,367.37 			"/>
		</g>
	</g>
</g>
</svg>
