<?xml version="1.0" encoding="UTF-8"?><svg id="LAPTOP" xmlns="http://www.w3.org/2000/svg" viewBox="0 0 250 195.31"><defs><style>.cls-1{fill:#fff;}.cls-2{fill:#600000;}.cls-2,.cls-3,.cls-4,.cls-5,.cls-6,.cls-7,.cls-8{stroke:#000;stroke-miterlimit:10;}.cls-3{fill:#a50000;}.cls-4{fill:#ffa300;}.cls-5{fill:#ffce00;}.cls-6{fill:#5b5b5b;}.cls-7{fill:#383838;}.cls-8{fill:#bcbcbc;}</style></defs><path class="cls-8" d="m96.05,44.03v64.39l88.75,6.31c.87-23.92,1.74-47.84,2.61-71.77-30.45.36-60.91.71-91.36,1.07Z"/><path class="cls-7" d="m100.98,50.27l-.4,52.5c26.52,1.64,53.05,3.28,79.57,4.93.44-19.29.88-38.58,1.32-57.87l-80.5.44Z"/><path class="cls-2" d="m187.41,42.96c.58.94,1.16,1.87,1.74,2.81-.09,7.45-.26,14.95-.49,22.51-.06,2.07-.06,1.85-.11,3.37-.44,14.38-.28,18.06-.71,25.67-.05.96-.17,2.88-.31,5.73-.15,3.08-.26,5.56-.31,7.1-.11.79-.4,2.02-1.28,3.18-.23.31-.47.57-.71.79.72-23.72,1.45-47.45,2.17-71.17Z"/><polygon class="cls-8" points="97.12 108.71 184.07 115.52 133.74 162.36 43.15 148.33 97.12 108.71"/><path class="cls-2" d="m43.15,148.92c1.46,1.35,2.91,2.7,4.37,4.04,27.74,4.48,55.48,8.97,83.22,13.45l3-4.05c-30.2-4.48-60.39-8.96-90.59-13.44Z"/><path class="cls-2" d="m131.45,165.93c2.11-.82,4.23-1.63,6.34-2.45,13.44-12.76,26.89-25.52,40.33-38.28.77-.46,6.09-6.07,6.92-7.02.11-1.27.22-2.54.33-3.82l-51.62,48c-.77,1.19-1.53,2.38-2.3,3.56Z"/><polygon class="cls-6" points="119.23 120.73 123.87 116.91 118.28 116.34 113.64 120.1 119.23 120.73"/><polygon class="cls-6" points="113.64 120.1 118.28 116.34 112.44 115.77 107.81 119.46 113.64 120.1"/><polygon class="cls-6" points="135.34 122.64 139.98 118.63 134.71 118.05 130.08 122 135.34 122.64"/><polygon class="cls-6" points="130.08 122 134.71 118.05 129.45 117.49 124.82 121.37 130.08 122"/><polygon class="cls-6" points="124.82 121.37 129.45 117.49 123.87 116.91 119.23 120.73 124.82 121.37"/><polygon class="cls-6" points="107.81 119.46 112.44 115.77 107.51 115.3 102.87 118.93 107.81 119.46"/><polygon class="cls-6" points="122.53 130.51 122.71 130.35 120.56 130.04 115.84 134 121.1 134.82 125.82 130.81 122.71 130.35 122.53 130.51"/><polygon class="cls-6" points="116.49 124.93 111.77 128.8 117.52 129.61 122.13 125.77 117.52 129.61 120.56 130.04 120.56 130.04 120.56 130.04 122.71 130.35 127.31 126.45 122.71 130.35 125.82 130.81 125.82 130.8 125.82 130.81 127.89 131.11 132.61 127.05 116.49 124.93"/><polygon class="cls-6" points="117.52 129.61 117.35 129.76 117.52 129.61 111.77 128.8 111.74 128.83 111.77 128.8 106.25 128.05 106.22 128.07 106.25 128.05 100.64 127.29 100.47 127.43 100.64 127.29 98.28 126.98 93.56 130.68 99.4 131.52 103.95 127.89 99.4 131.52 104.99 132.35 109.54 128.65 104.99 132.35 110.58 133.19 115.13 129.43 110.58 133.19 115.84 134 120.56 130.04 117.52 129.61"/><polygon class="cls-6" points="105.25 123.64 100.64 127.29 106.25 128.05 110.97 124.24 108.83 123.97 108.72 124.07 108.83 123.97 103 123.27 102.93 123.32 103 123.27 98.07 122.68 98 122.74 98.07 122.68 94.88 122.31 90.16 125.93 95.16 126.57 99.76 122.98 95.16 126.57 98.28 126.98 98.31 126.96 98.28 126.98 100.64 127.29 105.25 123.64"/><polygon class="cls-6" points="107.51 115.3 101.76 114.77 97.12 118.34 102.87 118.93 107.51 115.3"/><polygon class="cls-6" points="102.78 119.01 102.87 118.93 97.12 118.34 97.02 118.41 92.31 122.02 94.88 122.31 94.91 122.29 94.88 122.31 98.07 122.68 102.78 119.01"/><polygon class="cls-6" points="119.13 120.81 119.23 120.73 113.64 120.1 113.5 120.21 108.83 123.97 110.97 124.24 111 124.22 110.97 124.24 114.42 124.67 119.13 120.81"/><polygon class="cls-6" points="107.81 119.46 102.87 118.93 102.78 119.01 98.07 122.68 103 123.27 107.71 119.54 107.81 119.46"/><polygon class="cls-6" points="140.68 123.3 145.32 119.24 139.98 118.63 135.34 122.64 140.68 123.3"/><polygon class="cls-6" points="114.35 124.73 114.42 124.67 110.97 124.24 106.25 128.05 111.77 128.8 116.49 124.93 114.42 124.67 114.35 124.73"/><polygon class="cls-6" points="145.99 128.92 145.92 128.98 145.99 128.92 141.22 128.24 141.1 128.34 141.22 128.24 135.88 127.5 135.81 127.56 135.88 127.5 132.61 127.05 127.89 131.11 133.07 131.88 137.67 127.86 133.07 131.88 137.88 132.61 142.48 128.54 137.88 132.61 142.69 133.35 147.29 129.22 142.69 133.35 147.68 134.13 152.4 129.84 145.99 128.92"/><polygon class="cls-6" points="160.16 125.85 164.27 122.05 164.8 121.56 160.19 120.99 155.56 125.23 160.16 125.85"/><polygon class="cls-6" points="155.56 125.23 160.19 120.99 155.43 120.42 150.79 124.6 155.56 125.23"/><polygon class="cls-6" points="113.64 120.1 107.81 119.46 107.71 119.54 103 123.27 108.83 123.97 113.5 120.21 113.64 120.1"/><polygon class="cls-6" points="150.79 124.6 155.43 120.42 150.66 119.85 146.03 123.98 150.79 124.6"/><polygon class="cls-6" points="140.59 123.39 140.68 123.3 135.34 122.64 134.29 123.54 130.56 126.75 134.29 123.54 135.34 122.64 130.08 122 129.65 122.36 125.3 126.05 129.65 122.36 130.08 122 124.82 121.37 120.04 125.36 124.82 121.37 119.23 120.73 119.13 120.81 114.42 124.67 116.49 124.93 116.52 124.91 116.49 124.93 132.61 127.05 132.64 127.03 132.61 127.05 135.88 127.5 140.54 123.43 140.59 123.39"/><polygon class="cls-6" points="146.03 123.98 150.66 119.85 145.32 119.24 140.68 123.3 146.03 123.98"/><polygon class="cls-6" points="145.88 124.11 146.03 123.98 140.68 123.3 140.59 123.39 140.54 123.43 135.88 127.5 141.22 128.24 145.59 124.36 145.88 124.11"/><polygon class="cls-6" points="145.88 124.11 145.59 124.36 141.22 128.24 145.99 128.92 149.98 125.33 150.7 124.69 150.79 124.6 146.03 123.98 145.88 124.11"/><polygon class="cls-6" points="104.35 112.76 99.34 112.35 96.74 114.32 101.76 114.77 104.35 112.76"/><polygon class="cls-6" points="101.76 114.77 96.74 114.32 92.11 117.83 97.12 118.34 101.76 114.77"/><polygon class="cls-6" points="97.02 118.41 97.12 118.34 92.11 117.83 87.3 121.45 92.31 122.02 97.02 118.41"/><polygon class="cls-6" points="82.88 129.18 78.1 132.78 82.88 129.18 77.86 128.5 72.93 132.15 83.28 133.7 88.22 129.92 82.88 129.18"/><polygon class="cls-6" points="88.22 129.92 92.78 126.41 88.22 129.92 93.56 130.68 98.28 126.98 95.16 126.57 94.98 126.71 95.16 126.57 90.16 125.93 90.13 125.96 90.16 125.93 82.83 125.01 90.16 125.93 94.88 122.31 92.31 122.02 92.24 122.07 92.31 122.02 87.3 121.45 77.86 128.5 82.88 129.18 88.22 129.92"/><polygon class="cls-6" points="107.51 115.3 110.11 113.26 104.35 112.76 101.76 114.77 107.51 115.3"/><polygon class="cls-6" points="112.44 115.77 115.04 113.7 110.11 113.26 107.51 115.3 112.44 115.77"/><polygon class="cls-6" points="126.44 135.67 121.64 139.81 126.44 135.67 121.1 134.82 121.04 134.87 121.1 134.82 115.84 134 115.78 134.05 115.84 134 110.58 133.19 110.35 133.38 110.58 133.19 104.99 132.35 104.76 132.53 104.99 132.35 99.4 131.52 94.46 135.44 126.84 140.86 131.78 136.54 126.44 135.67"/><path class="cls-6" d="m155.32,135.36l-7.64-1.22-.03.03.03-.03-4.99-.78-.18.16.18-.16-4.81-.74-.18.16.18-.16-4.81-.73-.18.16.18-.16-5.18-.77-.03.03.03-.03-2.08-.3-4.72,4.02,5.34.85,4.69-4.06-4.69,4.06,5.34.87,4.52-3.97-4.52,3.97,4.77.79,4.52-4.02-4.52,4.02,4.77.8,4.52-4.08-4.52,4.08,9.04,1.55-9.04-1.55-4.94,4.43,9.29,1.71,9.66-8.91Zm-14.18,7.89l4.59-4.17-4.59,4.17Z"/><polygon class="cls-6" points="136.55 137.33 131.61 141.7 136.38 142.56 141.32 138.13 136.55 137.33"/><polygon class="cls-6" points="131.78 136.54 126.84 140.86 131.61 141.7 136.55 137.33 131.78 136.54"/><polygon class="cls-6" points="93.56 130.68 88.82 134.38 93.56 130.68 88.22 129.92 83.28 133.7 94.46 135.44 99.4 131.52 93.56 130.68"/><polygon class="cls-6" points="118.28 116.34 120.87 114.23 115.04 113.7 112.44 115.77 118.28 116.34"/><polygon class="cls-6" points="155.56 125.23 155.13 125.62 150.78 129.58 155.13 125.62 155.56 125.23 150.79 124.6 150.7 124.69 149.98 125.33 145.99 128.92 152.4 129.84 152.42 129.82 152.4 129.84 155.36 130.28 160.07 125.94 155.36 130.28 159.79 130.94 155.36 130.28 155.29 130.34 155.36 130.28 152.4 129.84 147.68 134.13 155.32 135.36 164.85 126.5 160.16 125.85 155.56 125.23"/><polygon class="cls-6" points="155.43 120.42 158.02 118.07 153.26 117.53 150.66 119.85 155.43 120.42"/><polygon class="cls-6" points="123.87 116.91 126.46 114.76 120.87 114.23 118.28 116.34 123.87 116.91"/><polygon class="cls-6" points="160.19 120.99 162.79 118.61 158.02 118.07 155.43 120.42 160.19 120.99"/><polygon class="cls-6" points="164.27 122.05 160.16 125.85 164.85 126.5 169.48 122.15 164.8 121.56 164.27 122.05"/><polygon class="cls-6" points="169.48 122.15 172.08 119.71 167.39 119.15 164.8 121.56 169.48 122.15"/><polygon class="cls-6" points="164.8 121.56 167.39 119.15 162.79 118.61 160.19 120.99 164.8 121.56"/><polygon class="cls-6" points="134.71 118.05 137.31 115.84 134.76 115.58 132.05 115.31 129.45 117.49 134.71 118.05"/><polygon class="cls-6" points="150.66 119.85 153.26 117.53 147.91 116.95 145.32 119.24 150.66 119.85"/><polygon class="cls-6" points="129.45 117.49 132.05 115.31 126.46 114.76 123.87 116.91 129.45 117.49"/><polygon class="cls-6" points="139.98 118.63 142.57 116.38 137.31 115.84 134.71 118.05 139.98 118.63"/><polygon class="cls-6" points="145.32 119.24 147.91 116.95 142.57 116.38 139.98 118.63 145.32 119.24"/><polygon class="cls-6" points="90.91 139.16 80.33 148.25 110.02 153.09 118.68 143.79 90.91 139.16"/><circle class="cls-5" cx="207.47" cy="82.34" r="5.44"/><circle class="cls-3" cx="197.58" cy="70.16" r="2.94"/><circle class="cls-3" cx="70.87" cy="95.49" r="2.56"/><polygon class="cls-5" points="82.18 82.32 77.21 83.97 73.29 80.49 74.35 75.36 79.32 73.71 83.24 77.19 82.18 82.32"/><polygon class="cls-4" points="206.24 100.36 205.76 104.94 201.56 106.82 197.83 104.11 198.31 99.53 202.52 97.66 206.24 100.36"/><polygon class="cls-4" points="162.66 170.06 157.69 171.71 153.77 168.23 154.83 163.1 159.8 161.45 163.72 164.93 162.66 170.06"/><polygon class="cls-5" points="143.69 36.54 139.8 37.8 136.72 35.11 137.54 31.15 141.43 29.88 144.5 32.58 143.69 36.54"/><circle class="cls-4" cx="83.27" cy="96.34" r="3.41"/><circle class="cls-5" cx="165.47" cy="153.86" r="3.66"/><polygon class="cls-3" points="175.98 165.17 171.97 166.51 168.81 163.7 169.66 159.55 173.67 158.22 176.83 161.03 175.98 165.17"/><polygon class="cls-3" points="31.5 151.2 26.53 152.85 22.61 149.37 23.67 144.24 28.64 142.59 32.55 146.07 31.5 151.2"/><circle class="cls-4" cx="35.12" cy="158.09" r="2.56"/><ellipse class="cls-1" cx="175.14" cy="75.38" rx="2.39" ry="15.77"/><circle class="cls-1" cx="175.14" cy="55.13" r="1.71"/></svg>