<?xml version="1.0" encoding="UTF-8"?><svg xmlns="http://www.w3.org/2000/svg" viewBox="0 0 166.5 164.01"><defs><style>.cls-1{fill:#939393;}.cls-2{fill:#8e5400;}.cls-2,.cls-3,.cls-4,.cls-5,.cls-6,.cls-7,.cls-8,.cls-9,.cls-10{stroke:#000;stroke-miterlimit:10;}.cls-11{fill:#af0000;}.cls-3{fill:#a50000;}.cls-4{fill:#ffa300;}.cls-5{fill:#ffce00;}.cls-6{fill:#feffd7;}.cls-7{fill:#ffeac5;}.cls-8{fill:#603700;stroke-width:.5px;}.cls-12{fill:#cc7e00;}.cls-9{fill:#fff;}.cls-10{fill:#ffebcc;}</style></defs><g id="table"><rect class="cls-8" x=".25" y="117.36" width="163.82" height="46.4"/></g><g id="background"><path class="cls-3" d="m111.82,71.49c-.61.12-4.65.99-6.2,4.46-.26.58-1.33,2.98-.11,4.79,1.05,1.54,3.12,1.68,4.02,1.74.98.06,2.27.14,3.37-.76,1.07-.87.43-2.2,1.41-3.15.72-.7,1.78-.79,2.5-.76l14.25-.36c.42-.12,1.07-.23,1.74,0,.71.25.9.74,1.96,1.78.64.63,1.07,1.05,1.68,1.42,1.24.75,2.47.84,2.89.86,1.55.06,2.67-.5,3.55-.94,1.29-.65,2.04-1.02,2.4-1.8.98-2.12-1.96-5.17-2.25-5.47-2.25-2.29-5.13-2.76-6.42-2.88-8.27.36-16.53.73-24.8,1.09Z"/><path class="cls-3" d="m121.14,84.54c-.05-.23-.3-1.28-1.16-1.89-.75-.53-1.61-.47-2.76-.4-.81.05-1.21.08-1.56.29-1.03.61-1.3,2.48-.85,4.61-2.24,1.48-4.1,2.58-5.38,3.3-2.99,1.69-3.92,1.98-4.89,3.28-1.23,1.63-1.47,3.39-1.67,5.09-.24,1.98.09,3.16,0,6.82-.03,1.23-.09,2.24-.15,2.9l41.13-.34c.01-.48.02-1.18,0-2.01-.11-4.61-.19-7.76-1.79-10.66-.94-1.69-2.6-3.15-5.93-6.09-1.16-1.03-2.17-1.84-2.88-2.39.09-.46.18-1.14.11-1.96-.09-.98-.17-1.94-.87-2.61-.64-.61-1.45-.66-2.79-.73-1-.05-1.65-.07-2.13.37-.44.4-.52.99-.65,1.93-.18,1.26.09,1.48-.19,1.9-.42.65-1.4.67-2.81.74-1.19.06-2.18.1-2.59-.48-.31-.43.03-.75-.18-1.67Z"/><ellipse class="cls-4" cx="124.11" cy="98.46" rx="7.98" ry="6.38"/><ellipse class="cls-5" cx="124.11" cy="98.46" rx="5.27" ry="3.64"/><path class="cls-6" d="m33.7,62.1h-13.78c-.4.14-1.63.61-2.47,1.92-1.08,1.69-.66,3.47-.58,3.77l-.15,39.73c-.06.29-.04.53,0,.73.24,1.06,1.56,1.86,3.3,2.07h25.94c.22.07.64.15,1.09,0,.73-.25,1.25-1.02,1.31-1.96l.49-43.61c-.08-.34-.37-1.33-1.31-2.12-.88-.74-1.82-.89-2.18-.92l-11.67.4Z"/><path class="cls-10" d="m16.73,107.13c-.02.2-.09,1.3.73,2.22.99,1.12,2.43.99,2.57.97h26.39c.11,0,.91,0,1.48-.64.47-.54.47-1.18.46-1.32.02-2.01.05-4.01.07-6.02-10.56.01-21.12.02-31.68.04,0,1.58-.01,3.17-.02,4.75Z"/><circle class="cls-3" cx="32.77" cy="106.8" r="1.74"/><ellipse class="cls-3" cx="32.77" cy="64.42" rx="2.31" ry=".83"/><path class="cls-5" d="m16.69,71.64s-6.17.36-7.14,1.51c-.27.32-.74,2.45-.74,2.45,0,0-.76,3.42.19,4.74.28.4,11.62.51,12.33.37.05.6.22.93.38,1.22.77,1.34,2.59,2.01,4.63,1.8-.38-.21-1.01-.62-1.55-1.35-.74-.99-.85-1.76-.85-1.76,0,0,2.6.11,2.85-.71.16-.54.58-4.28.37-5.34,0-.3-.31-1.11-.69-1.6-1.31-1.72-9.78-1.31-9.78-1.31Z"/><path class="cls-4" d="m45.61,81.77s6.17.36,7.14,1.51c.27.32.74,2.45.74,2.45,0,0,.76,3.42-.19,4.74-.28.4-11.62.51-12.33.37-.05.6-.22.93-.38,1.22-.77,1.34-2.59,2.01-4.63,1.8.38-.21,1.01-.62,1.55-1.35.74-.99.85-1.76.85-1.76,0,0-2.6.11-2.85-.71-.16-.54-.58-4.28-.37-5.34,0-.3.31-1.11.69-1.6,1.31-1.72,9.78-1.31,9.78-1.31Z"/><rect class="cls-3" x="21.88" y="20.37" width="38.07" height="22.4"/><polygon class="cls-4" points="41.03 29.13 59.16 42.78 22.91 42.78 41.03 29.13"/><polygon class="cls-5" points="41.03 34.02 59.16 20.37 22.91 20.37 41.03 34.02"/><ellipse class="cls-5" cx="104.94" cy="22.93" rx="1.96" ry="1.69"/><path class="cls-5" d="m118.54,8.38c-.17.63-.74,1.19-1.36,1.33-1.29.3-2.41-1.28-3.91-2.52-2.84-2.35-6.25-2.81-7.6-2.9-.72-.05-5.73-.28-9.19,2.85-1.2,1.09-2.22,2.58-3.6,2.39-.61-.08-1.32-.5-1.53-1.12-.57-1.7,2.77-4.46,5.17-5.82,3.27-1.85,6.39-2.01,7.83-2.07,1.65-.06,5.55-.17,9.41,2.12,1.93,1.14,5.33,3.76,4.79,5.74Z"/><path class="cls-5" d="m114.95,14.99c-.13.63-.54,1.19-1,1.33-.95.3-1.77-1.28-2.88-2.52-2.09-2.35-4.6-2.81-5.6-2.9-.53-.05-4.22-.28-6.76,2.85-.88,1.09-1.63,2.58-2.65,2.39-.45-.08-.97-.5-1.13-1.12-.42-1.7,2.04-4.46,3.8-5.82,2.41-1.85,4.7-2.01,5.76-2.07,1.21-.06,4.08-.17,6.93,2.12,1.42,1.14,3.92,3.76,3.52,5.74Z"/><path class="cls-5" d="m111.39,18.89c-.09.71-.66,1.45-1.27,1.48-.6.03-.83-.68-1.8-1.62-.62-.6-1.96-1.91-3.49-1.86-1.02.03-1.8.65-2.54,1.24-1.43,1.14-1.66,2.19-2.47,2.17-.57-.02-1.09-.56-1.27-1.09-.39-1.18.89-2.49,1.75-3.36.46-.47,1.12-1.13,2.23-1.58.29-.12,1.14-.43,2.29-.43.28,0,1.36.02,2.61.6,1.19.55,1.89,1.28,2.46,1.9.98,1.04,1.59,1.7,1.49,2.55Z"/><circle class="cls-5" cx="70.96" cy="5.67" r="3.08"/><circle class="cls-3" cx="64.93" cy="12.19" r="1.66"/><polygon class="cls-4" points="81.15 4.91 83.75 4.81 85.14 7.02 83.93 9.32 81.32 9.42 79.94 7.21 81.15 4.91"/><polygon class="cls-3" points="111.44 62.43 108.49 63.41 106.15 61.34 106.78 58.29 109.74 57.31 112.07 59.38 111.44 62.43"/><circle class="cls-4" cx="113.59" cy="66.53" r="1.52"/></g><g id="person"><path class="cls-7" d="m70.51,116.86l16.93.5,6-.95-2.76-15.7-19.27-20.74h-7.45s-2.85,2.91-2.94,3.64-3.37,3.37-3.37,3.37l-4.84,22.02,4.3,7.02,13.4.83Z"/><path class="cls-7" d="m58.35,89.91l-2.7,19.54-5.35,3.66c1.31-.66,3.48-1.77,6.09-3.26,7.54-4.29,7.62-5.31,13.56-8.48,4.05-2.17,5.21-2.33,6.82-4.21,2.09-2.43,1.75-4.04,3.99-5.8.37-.29,3.88-2.97,7.25-1.52,2.41,1.03,3.25,3.53,3.48,4.21.77,2.28.43,4.82-.8,6.67-.93,1.4-1.96,1.8-4.13,3.12-2.4,1.45-4.61,3.2-6.82,4.93-12.04,9.44-15.15,16.01-25.45,20.74-7.35,3.37-10.08,2.01-11.02,1.38-1.39-.93-2.19-2.49-2.9-5.87-1.12-5.32-.98-10.14.22-18.92.85-6.27.63-2.7,2.83-15.55.74-4.35,1.75-10.51,4.57-12.29.18-.11,2.09-1.34,4.79-2.61.63-.3,3.05-1.52,6.74-2.61,2.4-.71,4.38-1.06,7.4-2.39,2.58-1.14,3.41-1.89,3.92-2.83.85-1.59.54-3.3.33-4.13l5.55.65,7.07-.65,1.38-.58h.69c-.12.76-.22,2.03.22,3.48.67,2.2,2.17,3.47,2.9,4.06,2.05,1.67,3.42,1.51,7.11,2.97,3.28,1.3,4.21,1.61,5.15,2.54,1.26,1.24,1.81,2.64,2.14,3.63,2.84,8.53,3.26,24.47,3.26,24.47.31,11.83.65,15.92-2.18,20.12-.66.98-2.12,3.09-4.79,4.46-1.84.95-3.11.95-9.14,1.2-8.25.34-9.93.5-12.07,1.63-2.04,1.08-3.68,2.61-4.24,3.15-2.5,2.43-2.21,3.44-4.13,5.11-1.78,1.55-5.5,3.69-8.48,2.28-2.26-1.07-2.99-3.65-3.15-4.24-1.41-4.97,2.81-9.49,3.59-10.33.91-.97,3.05-3.21,6.53-3.81.67-.11,1.94-.4,3.48,0,.61.16,1.09.37,1.41.54.62-.48,1.28-.95,1.96-1.41,5.65-3.83,11.53-5.72,16.64-6.63l1.41.11-2.76-15.7"/><ellipse class="cls-7" cx="77.11" cy="41.74" rx="24.92" ry="24.2"/><path class="cls-9" d="m137.36,16.24c-15.82,0-28.64,8.67-28.64,19.36,0,3.11,1.08,6.05,3.01,8.65,1.33,1.8,3.08,3.43,5.14,4.86-.84-.52-1.51-1-2.1-1.55-1.1-1.01-1.63-1.37-1.63-1.37,0,0-1.67,3.33-4.21,5.87-1.42,1.42-3.05,2.09-4.15,2.44,1.01.07,2.44.13,4.16.1,1.86-.04,4.98-.24,8.75-1.09,1.27-.29,2.91-.72,4.79-1.37-.02-.01-.05-.03-.08-.04,4.36,1.81,9.48,2.86,14.97,2.86,15.82,0,28.64-8.67,28.64-19.36s-12.82-19.36-28.64-19.36Z"/><path d="m118.74,30.57c4.45-2.81,9.92-.09,14.72-.34s9.41-2.74,14.29-2.27c2.62.25,5.29,1.92,7.93.86.59-.24.33-1.21-.27-.96-2.36.96-4.88-.54-7.24-.84s-4.85.15-7.19.72-4.82,1.32-7.31,1.49c-2.66.18-5.26-.47-7.89-.77s-5.31-.16-7.55,1.25c-.54.34-.04,1.21.5.86h0Z"/><path d="m118.85,35.99c2.29-1.24,4.98-.64,7.38-.07,2.55.61,5.18,1.17,7.72.18,1.11-.43,2.13-1.04,3.25-1.45,1.29-.47,2.59-.48,3.94-.22,1.23.24,2.42.64,3.65.89s2.49.33,3.76.22c2.91-.26,5.85-1.29,8.78-.64.63.14.89-.82.27-.96-2.59-.57-5.17.06-7.74.44-1.37.21-2.77.32-4.15.1s-2.58-.64-3.87-.93c-1.22-.27-2.46-.42-3.7-.2s-2.32.8-3.42,1.32c-1.27.6-2.53,1.01-3.95.98s-2.86-.38-4.26-.71c-2.68-.64-5.6-1.21-8.15.17-.57.31-.06,1.17.5.86h0Z"/><path d="m119.28,42.39c1.03-.47,2.21-.61,3.32-.35.98.23,1.82.79,2.72,1.22.82.39,1.67.65,2.58.58s1.82-.42,2.69-.76,1.78-.7,2.73-.66c1.07.04,2.05.59,3.09.81s2.08.25,3.12.11c.51-.07,1.02-.17,1.52-.31.55-.16,1.09-.43,1.67-.47.61-.05,1.2.22,1.81.25.48.02.98-.08,1.43-.23s.93-.37,1.39-.57c.29-.13.58-.25.89-.34.09-.03.19-.06.28-.08.15-.04.43-.01.33-.14.38.51,1.24.02.86-.5-.57-.78-1.65-.3-2.38,0-.93.38-1.89.95-2.93.86-.51-.05-1-.24-1.52-.25-.58,0-1.12.21-1.67.39-1.15.38-2.36.56-3.57.47s-2.21-.59-3.34-.85c-.97-.23-1.92-.13-2.87.16s-1.91.78-2.91,1.01c-1.1.26-2.05,0-3.04-.51-1.05-.54-2.04-1.1-3.23-1.26s-2.37.06-3.47.56c-.58.27-.08,1.13.5.86h0Z"/></g><g id="coffee"><path class="cls-2" d="m93.35,91.46c-.12-.18-.24-.35-.37-.5-1.92-2.21-5.7-1.74-6.9-1.55.42-.05,1.52-.11,2.69.51,1.42.76,1.97,2.03,2.12,2.39.04.03.09.05.13.08,1.28.74,2.13,1.71,2.66,2.48-.11-1.14-.22-2.27-.33-3.41Z"/><path class="cls-2" d="m94.01,100.87c-.36.02-1.36.04-2.12-.65-.15-.13-.27-.27-.36-.41-.21.41-.46.85-.76,1.31-.13.2-.27.39-.4.57,1.16.8,2.07,1.31,2.33,1.36.12.02.25.05.25.05.13.02.29.05.47.07.34.04.62.05.82.05l-.22-2.34Z"/><path class="cls-12" d="m92.91,87.91c.54,6.05,1.08,12.09,1.61,18.14.23.23.57.54,1.02.87,2.45,1.82,5.1,1.97,5.66,1.99.84.03,3.87.1,6.53-2.07,1.36-1.12,2.1-2.39,2.47-3.15l-.81-17.02v-.19c-.49.18-1.17.42-2,.64-1.41.38-2.47.51-4.01.69-2.38.28-4.11.3-4.6.31-.74,0-1.39-.03-2.68-.09-.94-.05-1.62-.1-2.47-.36-.36-.11-.66-.24-.85-.33l.15.57Z"/><path d="m92.41,87.91c.29,3.31.59,6.62.88,9.94.15,1.66.29,3.31.44,4.97.07.75.13,1.49.2,2.24.03.35,0,.79.11,1.13.09.28.42.5.63.68,3,2.56,7.38,3.29,11.03,1.77,1.26-.53,2.4-1.32,3.32-2.32.36-.39.69-.82.98-1.27.25-.37.63-.89.68-1.34.06-.51-.05-1.1-.08-1.61-.14-2.98-.28-5.96-.43-8.93-.11-2.22-.21-4.44-.32-6.66-.01-.3-.31-.6-.63-.48-2.89,1.08-5.97,1.43-9.04,1.58-.88.04-1.76.05-2.65.02-1.54-.06-3.1-.05-4.54-.69-.38-.17-.85.11-.73.56l.15.57c.16.62,1.13.36.96-.27l-.15-.57-.73.56c1.49.66,3.01.74,4.62.81.97.04,1.94.05,2.92,0,3.19-.14,6.44-.5,9.45-1.62l-.63-.48c.17,3.6.34,7.2.51,10.8l.27,5.77c0,.18.03.37.03.55,0,.03,0,.06,0,.09.02-.25-.02-.05-.09.07-.11.19-.21.38-.32.56-1.11,1.8-2.86,3.12-4.88,3.71-3.31.97-7.03.07-9.51-2.34l.15.35c-.54-6.05-1.08-12.09-1.61-18.14-.06-.64-1.06-.64-1,0Z"/><ellipse class="cls-2" cx="101.1" cy="86.27" rx="8.26" ry="1.86" transform="translate(-7.09 9.08) rotate(-4.97)"/><path class="cls-9" d="m93.16,90.75c.92.27,2.15.57,3.62.79,1.05.16,2.52.37,4.46.28,2.67-.11,4.64-.71,5.33-.93,1.24-.4,2.23-.86,2.94-1.23l-.14-2.99c-1.05.35-2.19.68-3.42.96-1.52.35-3.57.83-6.1.89-1.63.04-4.01-.07-6.84-.84l.14,3.07Z"/><path d="m96.52,94.05c.03,1.12.08,2.23.17,3.35.02.26.22.51.5.5.25-.01.52-.22.5-.5-.08-1.11-.14-2.23-.17-3.35,0-.26-.23-.51-.5-.5s-.51.22-.5.5h0Z"/><path class="cls-11" d="m103.88,96.97c-.61-.38-1.13-.9-1.51-1.51-.22-.36-.39-.79-.25-1.19.15-.43.67-.67,1.12-.59s.82.44,1.01.85c.26-.57.72-1.05,1.27-1.35.18-.1.38-.17.58-.13.31.06.5.39.5.71s-.13.61-.27.89c-.23.48-.47.95-.81,1.36s-.79.74-1.3.85"/><path d="m104.13,96.54c-.39-.24-.72-.54-1.02-.89-.23-.28-.56-.71-.54-1.09.01-.27.27-.4.52-.39.31.02.58.32.73.62.16.33.71.33.86,0,.22-.46.54-.84.97-1.1.09-.05.19-.13.29-.14.09-.01.07-.02.1.03,0,0,.06.13.06.13.02.12-.01.23-.05.34-.08.26-.22.5-.34.74-.14.27-.29.54-.47.78-.29.39-.67.7-1.15.81-.63.15-.36,1.11.27.96.76-.18,1.36-.71,1.79-1.34.23-.33.41-.68.58-1.04.19-.39.39-.8.37-1.24-.02-.38-.18-.75-.49-.98-.38-.28-.83-.24-1.24-.05-.68.32-1.24.91-1.56,1.58h.86c-.28-.59-.84-1.05-1.5-1.11s-1.29.31-1.52.91c-.26.67.09,1.39.48,1.94s.9,1.02,1.48,1.38c.55.34,1.05-.52.5-.86h0Z"/><path d="m97.99,99.69c-.45-.17-.95,0-1.31.29s-.53.74-.61,1.16c-.09.5-.11,1,.13,1.46.1.19.24.38.4.53.23.21.51.25.81.21.54-.07.98-.36,1.31-.79.16-.21.04-.57-.18-.68-.26-.14-.51-.04-.68.18.07-.09-.03.02-.04.04-.03.03-.07.07-.11.1.07-.06,0,0-.03.02-.04.02-.07.04-.11.06s-.11.05-.03.02c-.05.02-.09.03-.14.04s-.09.02-.14.03c.09-.01.01,0-.03,0-.09,0,0,0,.03.02.05.04.05.04.01,0l-.03-.03s-.1-.13-.07-.08-.05-.08-.06-.09c-.02-.04-.04-.08-.06-.11.05.09,0-.03-.01-.05-.01-.05-.02-.09-.03-.14.01.1,0-.06,0-.08,0-.1,0-.21.02-.31,0,.09,0-.01,0-.05,0-.04.02-.09.03-.13.02-.09.05-.18.08-.28.01-.03,0-.03,0,.02.01-.03.02-.05.04-.08.02-.04.04-.08.07-.11.06-.11-.06.06.03-.04.03-.03.06-.06.08-.08.04-.04.04-.03,0,0,.02-.01.03-.02.05-.03.02-.01.15-.08.04-.03.04-.01.07-.02.11-.04.11-.04-.09,0,.02,0,.03,0,.08-.01.11,0-.07,0-.08,0-.02,0,.02,0,.05.02.07.02.25.09.56-.1.62-.35.06-.28-.09-.52-.35-.62h0Z"/><path d="m100.17,100.56c-.33-.23-.78-.06-.99.26-.14.22-.2.52-.26.78-.07.28-.12.57-.14.86s-.03.6.06.87c.11.31.36.52.67.6.33.08.69.09.97-.14.22-.18.35-.48.44-.74s.12-.52.14-.78c.03-.53-.09-1.15-.52-1.51-.2-.17-.51-.21-.71,0-.17.19-.21.53,0,.71.04.03.07.06.1.1.03.04.03.04-.01-.02.01.02.03.04.04.06.01.02.02.04.03.06.02.05.02.04,0-.02.02.02.04.11.04.14,0,.03.04.11.03.14,0-.07-.01-.08,0-.02,0,.02,0,.05,0,.07,0,.1,0,.2,0,.3,0,.05,0,.11-.01.16.03-.13,0,.05-.01.07-.02.11-.05.21-.09.32-.02.05-.02.05,0,0-.01.02-.02.05-.04.07-.03.05-.06.09-.08.14-.03.05-.03.04,0,0-.06.06-.03.05.09-.04.06,0,.06,0,0,0-.02,0-.04,0-.06,0-.13-.01.08.02-.02,0-.01,0-.13-.02-.13-.03.07.03.08.03.03.01-.05-.03-.04-.02.02.02-.04-.04-.03-.03.02.03.02.06.02.06,0,0-.01-.06-.01-.06,0,0,0-.03,0-.06,0-.1,0-.06,0-.13,0-.19,0-.13.01-.25.02-.38,0-.06,0-.06,0,0,0-.03,0-.06.01-.09.01-.06.02-.13.04-.19.03-.13.06-.25.09-.37.03-.12.07-.23.1-.34.02-.05.02-.04,0,.02.03-.05.02-.04-.02.02-.08.09-.25.12-.35.05.22.15.56.05.68-.18.13-.25.05-.53-.18-.68h0Z"/><path d="m101.04,100.58l.2,2.63c.02.26.22.51.5.5.25-.01.52-.22.5-.5l-.2-2.63c-.02-.26-.22-.51-.5-.5-.25.01-.52.22-.5.5h0Z"/><path d="m101.48,100.97c.39-.03.78-.11,1.14-.24.12-.05.23-.11.3-.23.06-.11.09-.27.05-.39s-.11-.24-.23-.3-.26-.1-.39-.05c-.27.1-.54.17-.82.2l.13-.02c-.06,0-.12.01-.19.02-.13.01-.26.05-.35.15-.09.09-.15.23-.15.35s.05.26.15.35c.09.09.22.16.35.15h0Z"/><path d="m101.39,102.06c.09.07.16.13.27.16.07.02.14.02.21.03s.14,0,.21,0c.15,0,.29,0,.44,0,.13,0,.26-.06.35-.15s.15-.23.15-.35-.05-.26-.15-.35-.22-.15-.35-.15c-.12,0-.24,0-.36,0-.11,0-.23,0-.34,0l.13.02s-.03,0-.04-.01l.12.05s-.02,0-.03-.02l.1.08h0c-.05-.06-.1-.09-.16-.11-.06-.03-.12-.05-.19-.04-.12,0-.27.05-.35.15s-.15.22-.15.35.05.27.15.35h0Z"/><path d="m102.78,100.24c.05.92.07,1.84.08,2.76,0,.26.23.51.5.5s.5-.22.5-.5c0-.92-.03-1.84-.08-2.76-.01-.26-.22-.51-.5-.5-.26.01-.51.22-.5.5h0Z"/><path d="m103.35,100.49c.34-.06.67-.18.98-.32.11-.05.2-.19.23-.3.03-.12.02-.28-.05-.39s-.17-.2-.3-.23l-.13-.02c-.09,0-.17.02-.25.07-.02,0-.04.02-.06.03l.12-.05c-.26.11-.53.19-.81.24-.12.02-.24.13-.3.23-.06.11-.09.27-.05.39s.11.24.23.3l.12.05c.09.02.18.02.27,0h0Z"/><path d="m103.64,102.11c.24-.07.48-.12.72-.17.07-.02.12-.05.17-.09.05-.04.1-.08.13-.14.04-.06.06-.12.06-.19.01-.07.01-.13,0-.2-.04-.12-.11-.24-.23-.3l-.12-.05c-.09-.02-.18-.02-.27,0-.24.04-.48.1-.72.17-.12.03-.23.12-.3.23-.04.06-.06.12-.06.19-.01.07-.01.13,0,.2.04.12.11.24.23.3s.25.09.39.05h0Z"/><path d="m104.75,100.22c.02.64.06,1.29.14,1.93.02.19.02.39.13.56.14.22.4.31.66.3.19,0,.37-.06.55-.1.1-.02-.05,0,.01,0,.03,0,.07,0,.1,0,.08,0,.17,0,.25,0,.39.03.61-.45.43-.75-.09-.15-.23-.26-.4-.3-.25-.06-.55.08-.62.35s.08.55.35.62l-.2-.16.43-.75c-.29-.03-.58.03-.86.09-.03,0-.07.02-.1.02.07,0,.04-.01-.01,0-.03,0-.03,0,.01,0,.07,0,.13.05.16.13.1.15.14.19.12.1v.06c-.02-.14-.03-.28-.04-.42-.06-.55-.09-1.11-.11-1.66,0-.26-.22-.51-.5-.5s-.51.22-.5.5h0Z"/><path d="m106.11,102.05l.48-.39s.08-.1.1-.16c.03-.06.05-.12.04-.19,0-.07-.01-.13-.04-.19-.02-.06-.05-.12-.1-.16l-.1-.08c-.08-.05-.16-.07-.25-.07l-.13.02c-.08.02-.16.07-.22.13l-.48.39s-.08.1-.1.16c-.03.06-.05.12-.04.19,0,.07.01.13.04.19.02.06.05.12.1.16l.1.08c.08.05.16.07.25.07l.13-.02c.08-.02.16-.07.22-.13h0Z"/><path d="m105.45,100.7c.32-.11.64-.26.93-.44.11-.07.2-.17.23-.3s.02-.28-.05-.39-.17-.2-.3-.23-.27-.02-.39.05c-.18.11-.38.21-.58.3l.12-.05c-.08.03-.16.06-.23.09-.12.04-.23.11-.3.23-.06.11-.09.27-.05.39s.11.24.23.3.26.09.39.05h0Z"/><path d="m106.4,99.41c.13.43.24.86.32,1.3.02.11.04.22.05.32,0,0,.02.16,0,.07,0,.06.01.12.02.18.02.23.04.45.05.68.01.29.31.61.63.48.3-.12.59-.23.89-.35.24-.1.44-.34.35-.62-.08-.23-.35-.45-.62-.35-.3.12-.59.23-.89.35l.63.48c-.05-.95-.21-1.9-.49-2.81-.08-.25-.35-.43-.62-.35s-.43.35-.35.62h0Z"/><path d="m107.64,101.3l.67-.35c.06-.03.11-.07.14-.13.04-.05.07-.1.09-.17.02-.07.02-.13,0-.2,0-.07-.02-.13-.06-.19-.07-.11-.17-.2-.3-.23l-.13-.02c-.09,0-.17.02-.25.07l-.67.35c-.06.03-.11.07-.14.13-.04.05-.07.1-.09.17-.02.07-.02.13,0,.2,0,.07.02.13.06.19.07.11.17.2.3.23l.13.02c.09,0,.17-.02.25-.07h0Z"/><path d="m107.2,99.93l.83-.34c.07-.02.12-.05.17-.09.05-.04.1-.08.13-.14.06-.11.09-.27.05-.39s-.11-.24-.23-.3l-.12-.05c-.09-.02-.18-.02-.27,0l-.83.34c-.07.02-.12.05-.17.09-.05.04-.1.08-.13.14-.06.11-.09.27-.05.39s.11.24.23.3l.12.05c.09.02.18.02.27,0h0Z"/><ellipse class="cls-8" cx="101.09" cy="86.23" rx="6.66" ry=".78" transform="translate(-7.09 9.08) rotate(-4.97)"/><path class="cls-1" d="m106.64,81.41c.39-1.16.78-2.45.8-3.68.01-1.33-.85-2.35-1.34-3.53s-1-2.85-.38-4.12,1.46-2.46,2.19-3.67c.33-.55-.53-1.06-.86-.5-.73,1.21-1.57,2.4-2.19,3.67s-.45,2.51-.1,3.77c.17.62.41,1.23.69,1.81.3.61.73,1.19.91,1.86.35,1.28-.26,2.91-.67,4.13-.21.61.76.87.96.27h0Z"/><path class="cls-1" d="m101.32,82.44c.73-1.07,1.12-2.35,1.07-3.65-.05-1.37-.68-2.61-.96-3.94-.57-2.65.13-5.44,1.75-7.59.39-.51-.48-1.01-.86-.5-1.55,2.05-2.29,4.69-2.02,7.25.14,1.36.68,2.57.98,3.89.32,1.42,0,2.85-.82,4.04-.36.53.5,1.03.86.5h0Z"/><path class="cls-1" d="m97.1,80.33c.65-1.7.76-3.5.33-5.27s-1.2-3.45-.25-5.13c1.25-2.2,3.93-3.43,4.19-6.17.06-.64-.94-.64-1,0-.12,1.29-1.08,2.27-1.94,3.16s-1.79,1.77-2.31,2.9c-.7,1.52-.32,3.09.12,4.63.54,1.93.62,3.71-.1,5.6-.23.6.74.86.96.27h0Z"/></g></svg>