<?xml version="1.0" encoding="utf-8"?>
<!-- Generator: Adobe Illustrator 27.5.0, SVG Export Plug-In . SVG Version: 6.00 Build 0)  -->
<svg version="1.1" id="OBJECTS" xmlns="http://www.w3.org/2000/svg" xmlns:xlink="http://www.w3.org/1999/xlink" x="0px" y="0px"
	 viewBox="0 0 291.05 245.37" style="enable-background:new 0 0 291.05 245.37;" xml:space="preserve">
<style type="text/css">
	.st0{clip-path:url(#SVGID_00000050650293793981573620000004991624864151028927_);}
	.st1{opacity:0.74;}
	.st2{fill:#FFFFFF;}
	.st3{fill:#C4C4C4;}
	.st4{fill:#DDDDDD;}
	.st5{fill:#39306C;}
	.st6{fill:#221B4C;}
	.st7{fill:#F5D7E3;}
	.st8{fill:none;stroke:#FFFFFF;stroke-width:1.6653;stroke-linecap:round;stroke-linejoin:round;stroke-miterlimit:10;}
	.st9{fill:#1C0000;}
	.st10{fill:#EF7F8F;}
	.st11{fill:#AD6371;}
	.st12{fill:#F4AE98;}
	.st13{fill:#FFB99F;}
	.st14{fill:#3A0606;}
	.st15{fill:#F7327A;}
	.st16{fill:none;stroke:#F7327A;stroke-width:1.0522;stroke-miterlimit:10;}
	.st17{fill:#E2C9D3;}
	.st18{fill:#5E5896;}
</style>
<g>
	<g>
		<g>
			<defs>
				<path id="SVGID_1_" d="M301.83,307.41h-557.32c-3.48,0-6.29-2.82-6.29-6.29V-42.49c0-3.48,2.82-6.29,6.29-6.29h557.32
					c3.48,0,6.29,2.82,6.29,6.29v343.61C308.12,304.59,305.3,307.41,301.83,307.41z"/>
			</defs>
			<clipPath id="SVGID_00000024718473634475151060000008017845391853229953_">
				<use xlink:href="#SVGID_1_"  style="overflow:visible;"/>
			</clipPath>
			<g style="clip-path:url(#SVGID_00000024718473634475151060000008017845391853229953_);">
				<g>
					<g class="st1">
						<path class="st2" d="M44.48,179.77c1.61-3.99,5.48-5.19,7.37-8.79c3.39-6.44-2.31-8.1-2.99-12.38c-0.9-5.7,3.1-5.19,5.16-8.66
							c2.43-4.08-1.68-8.91,0.84-12.78c6.27-9.63,16.47,0.95,23.11,3.18c4.07,1.36,10.16,1.94,13.37-0.65
							c4.23-3.42,8.45-11.34,3.97-15.91c-6.31-6.44-4-9.75,2.83-11.38c3.02-0.72,4.41-3.03,1.05-5.66c5.1,7.37-11.9,0.66-14.93,5.66
							c-2.1,3.47,0.49,5.52,1.22,8.19c1.87,6.83-2.82,12.7-12.61,5.87c-5.63-3.93-5.15-10.93-11.12-12.72
							c-5.58-1.67-12.06,3.33-14.11,10.03c-2.03,6.63-4.44,10.04-11.59,9.28c-8.49-0.9-15.04,4.37-11.25,11.97
							c3.37,6.74,12.7,2.91,17.43,6.77c5.25,4.29,3.62,10.19-3.18,15.73c-2.11,1.72-5.35,4.29-4.52,7.22c0.54,1.9,3.93,4.92,6.12,5
							L44.48,179.77z"/>
					</g>
					<path class="st3" d="M57.05,182.43h-1.82v-2.45c0-1.05-0.85-1.89-1.89-1.89h-21.5c-1.05,0-1.89,0.85-1.89,1.89v15.03
						c0,5.69,4.61,10.31,10.31,10.31h4.67c4.52,0,8.35-2.92,9.74-6.97h2.38c1.82,0,3.29-1.47,3.29-3.29v-9.33
						C60.35,183.9,58.87,182.43,57.05,182.43z M58.24,195.06c0,0.65-0.53,1.19-1.19,1.19h-1.9c0.05-0.41,0.08-0.82,0.08-1.24v-10.47
						h1.82c0.65,0,1.19,0.53,1.19,1.19V195.06z"/>
					<path class="st4" d="M52.48,183.42c0-1.87-0.39-3.66-1.09-5.34H31.85c-1.05,0-1.89,0.85-1.89,1.89v15.03
						c0,1.82,0.48,3.53,1.3,5.01c0.3,0.01,0.59,0.04,0.89,0.04C43.38,200.05,52.48,192.61,52.48,183.42z"/>
				</g>
				<g>
					<path class="st5" d="M245.19,227.34H17.75c-2.43,0-4.41-2.36-4.41-5.27l0,0c0-2.91,1.97-5.27,4.41-5.27h227.45
						c2.43,0,4.41,2.36,4.41,5.27l0,0C249.6,224.98,247.63,227.34,245.19,227.34z"/>
					<path class="st6" d="M250.77,219.57H12.18c-3.43,0-6.22-3.33-6.22-7.44l0,0c0-4.11,2.78-7.44,6.22-7.44h238.59
						c3.43,0,6.22,3.33,6.22,7.44l0,0C256.98,216.24,254.2,219.57,250.77,219.57z"/>
				</g>
				<g>
					<path class="st7" d="M120.82,74.9c-8.22-8.22-21.6-8.13-29.7,0.27c-7.44,7.71-7.77,20.06-0.71,28.13
						c6.85,7.83,18.03,9.21,26.41,4.16c0.74-0.45,1.64-0.55,2.47-0.3l5.26,1.57c0.4,0.12,0.77-0.25,0.66-0.66l-1.57-5.26
						c-0.25-0.83-0.14-1.73,0.3-2.48C128.75,92.34,127.71,81.8,120.82,74.9z"/>
					<g>
						<line class="st8" x1="94.32" y1="80.52" x2="117.91" y2="80.52"/>
						<line class="st8" x1="112.25" y1="86.59" x2="117.91" y2="86.59"/>
						<line class="st8" x1="94.32" y1="86.59" x2="106.63" y2="86.59"/>
						<line class="st8" x1="105.1" y1="92.66" x2="117.91" y2="92.66"/>
						<line class="st8" x1="94.32" y1="92.66" x2="100.47" y2="92.66"/>
						<line class="st8" x1="112.25" y1="98.73" x2="117.91" y2="98.73"/>
						<line class="st8" x1="94.32" y1="98.73" x2="106.35" y2="98.73"/>
					</g>
				</g>
				<g>
					<g>
						<path class="st9" d="M171.18,76.02c0,0-1.23-8.96,3.99-16.65c5.21-7.69,13.27-6.99,17.69-2.98
							c5.72,5.2,11.35,18.96,6.21,38.61c-5.14,19.66,18.4,11.54,10.5,38.17c-7.9,26.63-21.55,8.24-26.45,19.27
							c-4.91,11.03-21.89-17.89-7.38-38.11C190.25,94.11,172.28,94.2,171.18,76.02z"/>
						<path class="st10" d="M147.07,126.67c-7.53,3.63-13.77,25.22-14.35,71.28h16.23C148.95,197.95,158.81,121.01,147.07,126.67z"
							/>
						<path class="st10" d="M171.39,118.67c10.73-1.03,28.23,0.7,34.52,7.43c1.39,1.48,1.39,4.26,0.65,8.11
							c-2.63,13.59-14.63,40.48-8.25,70.48h-55.88c0,0,5.3-23.45,2.34-30.84c-3.39-8.46-6.32-16.1-2.98-23.17
							c7.59-16.09,0.79-22.75,5.6-25.07C154,122.4,162.31,119.54,171.39,118.67z"/>
						<path class="st11" d="M194.45,158.48c-2.34,13.14-18.04,14.76-25.91,12.19c0,0,11.46,6.72,19.72,2.94c0,0,2.1,6.42-1.04,26.6
							h10.28c0,0,0-0.04-0.01-0.1c-1.63-10.56-1.12-20.65,0.3-29.83c0.27-2.33,0.62-4.43,1.1-6.14c0.01-0.02,0.01-0.04,0.02-0.06
							c1.3-6.43,2.93-12.31,4.39-17.45c0.62-3.48,0.86-6.53,0.86-10.35C204.15,136.29,196.79,145.35,194.45,158.48z"/>
						<path class="st12" d="M196.01,188.61c0,0-9.63,11.84-14.29,8.63c-6.17-4.24-11.25-4.17-15.33-1.73
							c-4.23,2.53-5.85,6.9-5.85,6.9h33.07l9.63-8.33L196.01,188.61z"/>
						<path class="st10" d="M207.11,127.36c0,0,8.5,22.21,15.79,40.36c5.89,14.66-29.61,34.63-29.61,34.63l-5.86-7.86l20.44-22.66
							l-12.5-26.36c0,0-7.25-14.38,3.76-19.47C205.25,123.17,207.11,127.36,207.11,127.36z"/>
						<path class="st12" d="M182.67,98.74c0,0-1.52,15,3.08,18.92c5.92,5.04-4.47,15.9-20.08,24.13c0,0-8.72-7.58-1.89-19.91
							c6.84-12.34,0.21-19.31,0.21-19.31L182.67,98.74z"/>
						<path class="st13" d="M185.13,88.49c0,13.2-9.8,23.9-18.07,23.9c-8.28,0-18.62-8.78-20.01-25.03
							c-1.13-13.16,6.34-22.78,17.63-22.78C175.98,64.58,185.13,75.29,185.13,88.49z"/>
						<path class="st14" d="M152.52,61.43c-1.1,0.62-3.48,2.13-6.26,3.93c-3.02,1.97-6.25,5.37-7.35,9.1
							c-1.18,3.97,0.23,8.61,3.77,10.86c1.63,1.04,4,0.99,8.74,0.78c17.59-0.78,19.13-0.89,21.45-2.46
							c3.65-2.47,4.51-3.73,6.05-3.31c5.78,1.59,2.93,27.26,3.88,27.34c0.44,0.04,1.44-5.46,3.74-25.99c0,0-1.94-13.44-11.73-19.49
							C169.55,58.96,161.64,56.29,152.52,61.43z"/>
						<g>
							<path class="st15" d="M191.59,83.65c0,4.29-2.54,7.77-5.66,7.77c-3.13,0-5.66-3.48-5.66-7.77c0-4.29,2.54-7.77,5.66-7.77
								C189.05,75.89,191.59,79.36,191.59,83.65z"/>
							<path class="st15" d="M168.1,57.77c-8.71-1.68-17.11,1.61-21.84,7.76c5.22-3.57,12.06-5.12,19.07-3.77
								c11.57,2.23,19.77,11.63,20.04,22.06c0.21-0.68,0.4-1.37,0.53-2.09C188,70.79,180.04,60.06,168.1,57.77z"/>
							<g>
								<path class="st16" d="M184.69,86.19c0,0,1.58,17.55-14.56,19.22"/>
								<path class="st15" d="M169.08,107.16h-2.54c-0.82,0-1.49-0.67-1.49-1.49l0,0c0-0.82,0.67-1.49,1.49-1.49h2.54
									c0.82,0,1.49,0.67,1.49,1.49l0,0C170.57,106.49,169.91,107.16,169.08,107.16z"/>
							</g>
						</g>
					</g>
					<g>
						<g>
							<path class="st7" d="M200.93,204.69h-91.57c-1.28,0-2.32-1.04-2.32-2.32v-0.62c0-1.28,1.04-2.32,2.32-2.32h91.57
								c1.28,0,2.32,1.04,2.32,2.32v0.62C203.25,203.65,202.21,204.69,200.93,204.69z"/>
						</g>
						<path class="st17" d="M158.6,204.69H74.03c-2.3,0-4.35-1.44-5.14-3.6l-19.72-54.18c-1.3-3.57,1.34-7.34,5.14-7.34h84.57
							c2.3,0,4.35,1.44,5.14,3.6l19.72,54.18C165.03,200.92,162.39,204.69,158.6,204.69z"/>
						<path class="st7" d="M52.36,139.93c0.32,32.02,43.2,57.92,96.07,57.92c5.18,0,10.27-0.25,15.23-0.73l-19.64-53.95
							c-0.79-2.16-2.84-3.6-5.14-3.6H54.31C53.61,139.58,52.96,139.71,52.36,139.93z"/>
						<path class="st18" d="M111.59,171.06c0,3.54-2.87,6.4-6.4,6.4c-3.54,0-6.4-2.87-6.4-6.4c0-3.54,2.87-6.4,6.4-6.4
							C108.72,164.65,111.59,167.52,111.59,171.06z"/>
					</g>
				</g>
				<g>
					<path class="st17" d="M179.93,20.28c5.96-5.96,15.67-5.9,21.55,0.2c5.4,5.59,5.63,14.55,0.51,20.4
						c-4.97,5.68-13.08,6.68-19.16,3.02c-0.54-0.32-1.19-0.4-1.79-0.22l-3.82,1.14c-0.29,0.09-0.56-0.18-0.48-0.48l1.14-3.82
						c0.18-0.6,0.1-1.26-0.22-1.8C174.18,32.93,174.93,25.29,179.93,20.28z"/>
					<g>
						<circle class="st2" cx="182.22" cy="30.96" r="2.44"/>
						<circle class="st2" cx="190.6" cy="30.96" r="2.44"/>
						<circle class="st2" cx="198.97" cy="30.96" r="2.44"/>
					</g>
				</g>
				<g>
					<path class="st7" d="M226.71,77.94c11.61-11.61,30.52-11.48,41.97,0.38c10.51,10.89,10.97,28.35,1,39.74
						c-9.68,11.06-25.47,13.02-37.32,5.88c-1.05-0.63-2.32-0.77-3.49-0.42l-7.44,2.21c-0.57,0.17-1.09-0.36-0.93-0.93l2.21-7.44
						c0.35-1.18,0.2-2.45-0.43-3.5C215.49,102.57,216.96,87.69,226.71,77.94z"/>
					<g>
						<circle class="st2" cx="231.17" cy="98.74" r="4.75"/>
						<circle class="st2" cx="247.49" cy="98.74" r="4.75"/>
						<circle class="st2" cx="263.8" cy="98.74" r="4.75"/>
					</g>
				</g>
			</g>
		</g>
		<ellipse class="st9" cx="168.91" cy="93.21" rx="1.69" ry="3.75"/>
		<ellipse class="st9" cx="157.05" cy="93.21" rx="1.69" ry="3.75"/>
	</g>
</g>
</svg>
