<?xml version="1.0" encoding="utf-8"?>
<!-- Generator: Adobe Illustrator 27.5.0, SVG Export Plug-In . SVG Version: 6.00 Build 0)  -->
<svg version="1.1" xmlns="http://www.w3.org/2000/svg" xmlns:xlink="http://www.w3.org/1999/xlink" x="0px" y="0px"
	 viewBox="0 0 470.53 328.27" style="enable-background:new 0 0 470.53 328.27;" xml:space="preserve">
<style type="text/css">
	.st0{display:none;}
	.st1{display:inline;fill:#FCEED1;}
	.st2{fill:#CAEAFF;}
	.st3{fill:#FFFFFF;}
	.st4{fill:#ECA7AC;}
	.st5{fill:#F0B9BD;}
	.st6{fill:#F4CACD;}
	.st7{fill:#F7DCDE;}
	.st8{fill:#DB9196;}
	.st9{fill:#BC8086;}
	.st10{fill:#C1878D;}
	.st11{fill:#75D3D1;}
	.st12{fill:#DDDDDD;}
	.st13{fill:#969696;}
	.st14{filter:url(#Adobe_OpacityMaskFilter);}
	.st15{fill:url(#SVGID_00000044874868369344751640000015118747388167632530_);}
	.st16{mask:url(#SVGID_1_);fill:#CEC4B2;}
	.st17{filter:url(#Adobe_OpacityMaskFilter_00000111186264976876092290000002734553244761192104_);}
	.st18{opacity:0.5;fill:url(#SVGID_00000138567093007121453810000017157144393039136166_);}
	.st19{mask:url(#SVGID_00000065752844306467728790000003121254404776134566_);fill:#FFFFFF;}
	.st20{filter:url(#Adobe_OpacityMaskFilter_00000001645993248251550030000002912111618976480159_);}
	.st21{opacity:0.5;fill:url(#SVGID_00000013913118136515958100000005137568213361469362_);}
	.st22{mask:url(#SVGID_00000072259494013091187110000003359344237300364978_);fill:#FFFFFF;}
	.st23{fill:#F4CB89;}
	.st24{fill:#F1BE6B;}
	.st25{fill:#C18C9B;}
	.st26{fill:#AD6679;}
	.st27{fill:#F7D8A6;}
	.st28{fill:none;stroke:#422F42;stroke-miterlimit:10;}
	.st29{fill:#DFE857;}
	.st30{fill:#EEF477;}
	.st31{fill:#F9E5C4;}
	.st32{fill:#984058;}
	.st33{fill:#D6B3BC;}
	.st34{fill:#60B49C;}
	.st35{fill:#80C3B0;}
	.st36{fill:#A0D2C4;}
	.st37{fill:#BFE1D7;}
	.st38{opacity:0.35;fill:#001356;}
	.st39{fill:#BCBCBC;}
	.st40{fill:#465171;}
	.st41{fill:#FFA4CD;}
	.st42{fill:#D888A5;}
	.st43{fill:#EA96B8;}
	.st44{fill:#C67790;}
	.st45{opacity:0.3;fill:#422C50;}
	.st46{fill:#231730;}
	.st47{fill:#362344;}
	.st48{fill:#8E5567;}
	.st49{fill:#272525;}
	.st50{fill:#043565;}
	.st51{fill:#0E5B9B;}
	.st52{fill:#7A4725;}
	.st53{opacity:0.5;fill:#CECECE;}
	.st54{fill:#606060;}
</style>
<g id="Background" class="st0">
	<rect x="-29.47" y="-171.73" class="st1" width="500" height="500"/>
</g>
<g id="Design">
	<path class="st2" d="M44.18,280.48c-5.96-56.26-62.64-106.77,15.3-131.54C137.42,124.18,176.6,97.4,271.45,97.4
		c94.85,0,53.64,49.62,132.06,52.25c92.23,3.1,68.82,91.16-44.62,132.31S52.83,362.07,44.18,280.48z"/>
	<g>
		<polygon class="st3" points="443.55,184.57 430.31,208.44 354.29,193.31 367.54,169.44 		"/>
		<g>
			<polygon class="st4" points="386.2,173.16 372.96,197.02 357.54,193.95 370.78,170.09 			"/>
			<polygon class="st5" points="404.23,176.75 390.99,200.61 375.58,197.54 388.82,173.68 			"/>
			<polygon class="st6" points="422.27,180.34 409.03,204.2 393.61,201.13 406.85,177.27 			"/>
			<polygon class="st7" points="440.3,183.93 427.06,207.79 411.65,204.72 424.89,180.86 			"/>
		</g>
	</g>
	<g>
		<path class="st8" d="M100.87,123.73l-50.57,91.78h0c1.91,0.63,3.96,0.77,5.94,0.4l82.18-15.34L100.87,123.73z"/>
		<polygon class="st9" points="85.3,149.35 70.3,213.03 138.41,200.32 104.32,130.54 99.03,126.81 		"/>
		<path class="st10" d="M47.7,214.66l2.91,0.96c1.49,0.49,3.12-0.18,3.84-1.58l46.41-90.32l-9.06-2.98l-45.95,89.42
			C44.96,211.91,45.84,214.04,47.7,214.66z"/>
		<path class="st10" d="M359.08,123.79l-6.36-10.43l-66.1-83.48c-1.97-3.26-5.78-4.91-9.48-4.1c0,0-212.63,33.76-215.1,34.27
			c-5.81,1.21-19.68,5.58-10.61,26.05c0.2,0.45,0.4,0.86,0.6,1.25l63.44,144.44c1.93,4.39,6.93,6.47,11.37,4.74l220.27-86.34
			c1.1-0.54,11.32-3.85,13.58-12.14C362.62,130.91,359.78,125.12,359.08,123.79z"/>
		<path class="st11" d="M131.24,219.62l-7.49-3.1c-0.58,0.58-4.2,10.83-6.53,17.51c2.37,3.15,6.62,4.47,10.45,2.98l2.57-1
			L131.24,219.62z"/>
		<path class="st8" d="M54.17,76.46l64.76,146.17c1.95,4.4,7.01,6.49,11.5,4.75l222.7-86.54c5.23-2.03,7.35-8.3,4.43-13.08
			l-65.58-107.5c-2-3.27-5.84-4.92-9.59-4.11L60.72,60.44C52.12,64.2,51.86,71.24,54.17,76.46z"/>
		<path class="st12" d="M55.7,72.5l64.76,146.17c1.95,4.4,7.01,6.49,11.5,4.75l222.7-86.54c5.23-2.03,7.35-8.3,4.43-13.08
			L293.51,16.3c-2-3.27-5.84-4.92-9.59-4.11L62.04,60.05C56.46,61.25,53.39,67.28,55.7,72.5z"/>
		<path class="st13" d="M129.87,215.1c-1.16,0-2.21-0.68-2.68-1.74L64.41,71.64c-0.36-0.81-0.33-1.73,0.07-2.51
			c0.4-0.79,1.13-1.35,1.99-1.53l217.65-46.95c0.2-0.04,0.41-0.07,0.62-0.07c1.01,0,1.97,0.54,2.5,1.4l63.36,103.87
			c0.45,0.74,0.55,1.64,0.27,2.46c-0.28,0.82-0.9,1.48-1.71,1.79l-218.22,84.8C130.59,215.03,130.23,215.1,129.87,215.1z"/>
		<path class="st3" d="M66.89,69.55L284.54,22.6c0.39-0.08,0.78,0.09,0.99,0.42l63.36,103.87c0.3,0.49,0.08,1.14-0.46,1.35
			l-218.23,84.8c-0.46,0.18-0.98-0.04-1.18-0.49L66.24,70.83C66,70.3,66.32,69.68,66.89,69.55z"/>
		<defs>
			<filter id="Adobe_OpacityMaskFilter" filterUnits="userSpaceOnUse" x="67.19" y="23.58" width="280.8" height="188.49">
				<feColorMatrix  type="matrix" values="1 0 0 0 0  0 1 0 0 0  0 0 1 0 0  0 0 0 1 0"/>
			</filter>
		</defs>
		<mask maskUnits="userSpaceOnUse" x="67.19" y="23.58" width="280.8" height="188.49" id="SVGID_1_">
			<g class="st14">
				
					<linearGradient id="SVGID_00000101089008949779600490000008093281500414965909_" gradientUnits="userSpaceOnUse" x1="149.1505" y1="-14.3597" x2="241.5759" y2="175.0869">
					<stop  offset="0" style="stop-color:#FFFFFF"/>
					<stop  offset="1" style="stop-color:#000000"/>
				</linearGradient>
				<polygon style="fill:url(#SVGID_00000101089008949779600490000008093281500414965909_);" points="67.19,70.51 284.7,23.58 
					347.99,127.33 129.91,212.07 				"/>
			</g>
		</mask>
		<polygon class="st16" points="67.19,70.51 284.7,23.58 347.99,127.33 129.91,212.07 		"/>
		<defs>
			
				<filter id="Adobe_OpacityMaskFilter_00000171000570758241314480000008323290661923676550_" filterUnits="userSpaceOnUse" x="215.97" y="28.22" width="47.23" height="150.41">
				<feColorMatrix  type="matrix" values="1 0 0 0 0  0 1 0 0 0  0 0 1 0 0  0 0 0 1 0"/>
			</filter>
		</defs>
		
			<mask maskUnits="userSpaceOnUse" x="215.97" y="28.22" width="47.23" height="150.41" id="SVGID_00000036944004508164635370000002454873641576385203_">
			<g style="filter:url(#Adobe_OpacityMaskFilter_00000171000570758241314480000008323290661923676550_);">
				
					<linearGradient id="SVGID_00000003086578670286542170000012231799007821952954_" gradientUnits="userSpaceOnUse" x1="215.9725" y1="103.4272" x2="263.2072" y2="103.4272">
					<stop  offset="0" style="stop-color:#FFFFFF"/>
					<stop  offset="1" style="stop-color:#000000"/>
				</linearGradient>
				<polygon style="opacity:0.5;fill:url(#SVGID_00000003086578670286542170000012231799007821952954_);" points="215.97,178.63 
					235.85,170.91 263.21,28.22 249.62,31.15 				"/>
			</g>
		</mask>
		<polygon style="mask:url(#SVGID_00000036944004508164635370000002454873641576385203_);fill:#FFFFFF;" points="215.97,178.63 
			235.85,170.91 263.21,28.22 249.62,31.15 		"/>
		<defs>
			
				<filter id="Adobe_OpacityMaskFilter_00000147203783764678274140000016189241814672012180_" filterUnits="userSpaceOnUse" x="165.48" y="33.58" width="72.92" height="164.68">
				<feColorMatrix  type="matrix" values="1 0 0 0 0  0 1 0 0 0  0 0 1 0 0  0 0 0 1 0"/>
			</filter>
		</defs>
		
			<mask maskUnits="userSpaceOnUse" x="165.48" y="33.58" width="72.92" height="164.68" id="SVGID_00000057833674170803711970000012477438286074661550_">
			<g style="filter:url(#Adobe_OpacityMaskFilter_00000147203783764678274140000016189241814672012180_);">
				
					<linearGradient id="SVGID_00000029725159341602538830000009442456335849972114_" gradientUnits="userSpaceOnUse" x1="165.4757" y1="115.9147" x2="238.3928" y2="115.9147">
					<stop  offset="0" style="stop-color:#FFFFFF"/>
					<stop  offset="1" style="stop-color:#000000"/>
				</linearGradient>
				<polygon style="opacity:0.5;fill:url(#SVGID_00000029725159341602538830000009442456335849972114_);" points="165.48,198.25 
					206.07,182.48 238.39,33.58 212.71,39.12 				"/>
			</g>
		</mask>
		<polygon style="mask:url(#SVGID_00000057833674170803711970000012477438286074661550_);fill:#FFFFFF;" points="165.48,198.25 
			206.07,182.48 238.39,33.58 212.71,39.12 		"/>
		<path class="st3" d="M285.38,26.61L285.38,26.61c-0.69-1.13-2.03-1.71-3.33-1.43L72.36,70.42c-1.94,0.42-3,2.51-2.2,4.32l0,0
			c0.6,1.35,2.07,2.1,3.52,1.79l209.69-45.24C285.47,30.84,286.5,28.44,285.38,26.61z"/>
		<g>
			<g>
				<path class="st23" d="M194.93,63.71l11.16,23.15c-5.04,2.43-8.77,6.49-10.86,11.24l-24.3-8.48
					C175.22,78.66,183.49,69.22,194.93,63.71z"/>
				<path class="st24" d="M230.14,61.07l-8.49,24.29c-5.02-1.32-10.5-0.94-15.55,1.5l-11.16-23.15
					C206.37,58.19,218.89,57.59,230.14,61.07z"/>
				<path class="st7" d="M258.26,83.98l-23.23,11.21c-3.13-4.99-7.98-8.4-13.38-9.83l8.49-24.29
					C241.76,64.64,252.02,72.6,258.26,83.98z"/>
				<path class="st6" d="M259.41,86.23c5.52,11.44,6.12,23.96,2.64,35.21l-24.3-8.49c1.32-5.02,0.93-10.51-1.5-15.55
					c-0.37-0.77-0.78-1.51-1.23-2.21l23.23-11.21C258.66,84.71,259.05,85.47,259.41,86.23z"/>
				<path class="st4" d="M262.05,121.43c-3.81,12.38-12.57,23.2-25.16,29.28l-11.17-23.16c6.2-2.99,10.41-8.44,12.03-14.61
					L262.05,121.43z"/>
				<path class="st25" d="M225.72,127.55l11.17,23.16c-12.59,6.07-26.51,6.19-38.59,1.47l8.49-24.3
					C212.63,130.45,219.53,130.54,225.72,127.55z"/>
				<path class="st26" d="M206.8,127.87l-8.49,24.3c-10.95-4.29-20.38-12.55-25.9-23.99c-0.37-0.76-0.71-1.53-1.04-2.3l23.22-11.2
					c0.27,0.78,0.59,1.56,0.97,2.34C197.99,122.06,202.04,125.79,206.8,127.87z"/>
				<path class="st27" d="M195.23,98.1c-2.25,5.12-2.6,11.04-0.64,16.59l-23.22,11.2c-5.02-11.97-4.87-24.94-0.43-36.27L195.23,98.1
					z"/>
			</g>
			<g>
				<polygon class="st28" points="204.96,74.43 192.24,132.65 251.25,102.97 				"/>
				<circle class="st6" cx="251.55" cy="103.32" r="3.16"/>
				<circle class="st28" cx="251.55" cy="103.32" r="3.16"/>
				<path class="st24" d="M207.81,72.81c0.93,1.48,0.48,3.43-1,4.36c-1.48,0.93-3.43,0.48-4.36-1c-0.93-1.48-0.48-3.43,1-4.36
					C204.94,70.89,206.89,71.33,207.81,72.81z"/>
				<path class="st28" d="M207.81,72.81c0.93,1.48,0.48,3.43-1,4.36c-1.48,0.93-3.43,0.48-4.36-1c-0.93-1.48-0.48-3.43,1-4.36
					C204.94,70.89,206.89,71.33,207.81,72.81z"/>
				<path class="st26" d="M195.4,132.55c0,1.75-1.41,3.16-3.16,3.16c-1.74,0-3.16-1.41-3.16-3.16c0-1.74,1.41-3.16,3.16-3.16
					C193.99,129.4,195.4,130.81,195.4,132.55z"/>
				<path class="st28" d="M195.4,132.55c0,1.75-1.41,3.16-3.16,3.16c-1.74,0-3.16-1.41-3.16-3.16c0-1.74,1.41-3.16,3.16-3.16
					C193.99,129.4,195.4,130.81,195.4,132.55z"/>
			</g>
			<g>
				
					<rect x="280.85" y="57.06" transform="matrix(0.8908 -0.4544 0.4544 0.8908 -6.5045 140.897)" class="st3" width="18.04" height="53.84"/>
			</g>
			<g>
				
					<rect x="277.95" y="72.83" transform="matrix(0.8908 -0.4544 0.4544 0.8908 -4.2362 138.9568)" class="st29" width="18.04" height="10.92"/>
				
					<rect x="283.76" y="84.21" transform="matrix(0.8908 -0.4544 0.4544 0.8908 -8.7728 142.8371)" class="st30" width="18.04" height="10.92"/>
				<g>
					
						<rect x="272.15" y="61.45" transform="matrix(0.8908 -0.4544 0.4544 0.8908 0.3003 135.0766)" class="st24" width="18.04" height="10.92"/>
					
						<rect x="277.95" y="72.83" transform="matrix(0.8908 -0.4544 0.4544 0.8908 -4.2362 138.9568)" class="st23" width="18.04" height="10.92"/>
					
						<rect x="283.76" y="84.21" transform="matrix(0.8908 -0.4544 0.4544 0.8908 -8.7728 142.8371)" class="st27" width="18.04" height="10.92"/>
					
						<rect x="289.56" y="95.59" transform="matrix(0.8908 -0.4544 0.4544 0.8908 -13.3093 146.7178)" class="st31" width="18.04" height="10.92"/>
				</g>
			</g>
			<g>
				
					<rect x="131.67" y="106.51" transform="matrix(0.9118 -0.4106 0.4106 0.9118 -42.379 69.5262)" class="st3" width="18.04" height="53.84"/>
			</g>
			<g>
				
					<rect x="129.04" y="122.15" transform="matrix(0.9118 -0.4106 0.4106 0.9118 -40.2193 67.9362)" class="st29" width="18.04" height="10.92"/>
				
					<rect x="134.29" y="133.8" transform="matrix(0.9118 -0.4106 0.4106 0.9118 -44.5387 71.1162)" class="st30" width="18.04" height="10.92"/>
				<g>
					
						<rect x="123.8" y="110.5" transform="matrix(0.9118 -0.4106 0.4106 0.9118 -35.8998 64.7562)" class="st26" width="18.04" height="10.92"/>
					
						<rect x="129.04" y="122.15" transform="matrix(0.9118 -0.4106 0.4106 0.9118 -40.2193 67.9362)" class="st25" width="18.04" height="10.92"/>
					
						<rect x="134.29" y="133.8" transform="matrix(0.9118 -0.4106 0.4106 0.9118 -44.5387 71.1162)" class="st4" width="18.04" height="10.92"/>
					
						<rect x="139.53" y="145.45" transform="matrix(0.9118 -0.4106 0.4106 0.9118 -48.8583 74.2965)" class="st6" width="18.04" height="10.92"/>
				</g>
			</g>
		</g>
	</g>
	<g>
		<polygon class="st3" points="186.32,297.1 159.68,295.94 190.59,216.45 217.23,217.61 		"/>
		<g>
			<polygon class="st32" points="209.64,237.13 183,235.96 189.27,219.84 215.91,221.01 			"/>
			<polygon class="st26" points="202.31,255.99 175.66,254.82 181.93,238.7 208.58,239.87 			"/>
			<polygon class="st25" points="194.97,274.85 168.33,273.68 174.6,257.56 201.24,258.73 			"/>
			<polygon class="st33" points="187.64,293.71 161,292.54 167.27,276.42 193.91,277.58 			"/>
		</g>
	</g>
	<g>
		<polygon class="st3" points="154.09,286.02 139.49,268.79 218.52,224.09 233.12,241.32 		"/>
		<g>
			<polygon class="st34" points="213.71,252.3 199.11,235.07 215.14,226 229.74,243.23 			"/>
			<polygon class="st35" points="194.96,262.9 180.36,245.67 196.39,236.61 210.99,253.84 			"/>
			<polygon class="st36" points="176.21,273.51 161.61,256.28 177.64,247.21 192.24,264.44 			"/>
			<polygon class="st37" points="157.46,284.11 142.86,266.88 158.89,257.82 173.49,275.05 			"/>
		</g>
	</g>
	<g>
		<g>
			<polygon class="st38" points="382.12,212.55 270.77,260.09 222.23,226.27 333.59,178.73 382.12,203.9 			"/>
			<polygon class="st13" points="386,211.08 274.64,258.62 226.11,224.8 226.11,216.15 337.47,177.25 386,202.43 			"/>
			<path class="st39" d="M386,202.43l-24.38-12.64c-33.49,22.78-86.98,60.19-86.98,60.19v8.65L386,211.08V202.43z"/>
			<polygon class="st12" points="386,202.43 274.64,249.97 226.11,216.15 337.47,168.61 			"/>
			<path class="st39" d="M234.19,222.26c-0.18,0-0.36-0.11-0.43-0.29c-0.1-0.24,0.01-0.51,0.25-0.61l111.36-47.54
				c0.24-0.1,0.51,0.01,0.61,0.25c0.1,0.24-0.01,0.51-0.25,0.61l-111.36,47.54C234.32,222.24,234.26,222.26,234.19,222.26z"/>
			<path class="st39" d="M242.28,227.89c-0.18,0-0.36-0.11-0.43-0.29c-0.1-0.24,0.01-0.51,0.25-0.61l111.36-47.54
				c0.23-0.11,0.51,0.01,0.61,0.25c0.1,0.24-0.01,0.51-0.25,0.61l-111.36,47.54C242.41,227.88,242.35,227.89,242.28,227.89z"/>
			<path class="st39" d="M250.37,233.53c-0.18,0-0.36-0.11-0.43-0.29c-0.1-0.24,0.01-0.51,0.25-0.62l105.41-44.92
				c0.23-0.1,0.51,0.01,0.62,0.25c0.1,0.24-0.01,0.51-0.25,0.62l-105.41,44.92C250.5,233.52,250.43,233.53,250.37,233.53z"/>
			<path class="st39" d="M258.46,239.17c-0.18,0-0.36-0.11-0.43-0.29c-0.1-0.24,0.01-0.51,0.25-0.61l111.36-47.54
				c0.24-0.1,0.51,0.01,0.61,0.25c0.1,0.24-0.01,0.51-0.25,0.61l-111.36,47.54C258.59,239.15,258.52,239.17,258.46,239.17z"/>
			<path class="st39" d="M266.55,244.8c-0.18,0-0.36-0.11-0.43-0.29c-0.1-0.24,0.01-0.51,0.25-0.61l111.36-47.54
				c0.23-0.1,0.51,0.01,0.61,0.25c0.1,0.24-0.01,0.51-0.25,0.61l-111.36,47.54C266.67,244.79,266.61,244.8,266.55,244.8z"/>
		</g>
		<g>
			<g>
				<g>
					<path class="st39" d="M243.05,227.58c-0.09,0-0.18-0.02-0.25-0.08l-8.49-5.49c-0.22-0.14-0.28-0.43-0.14-0.65
						c0.14-0.22,0.43-0.28,0.65-0.14l8.49,5.49c0.22,0.14,0.28,0.43,0.14,0.65C243.36,227.51,243.21,227.58,243.05,227.58z"/>
				</g>
				<g>
					<path class="st39" d="M250.21,224.52c-0.09,0-0.18-0.02-0.25-0.08l-8.49-5.49c-0.22-0.14-0.28-0.43-0.14-0.65
						c0.14-0.22,0.43-0.28,0.65-0.14l8.49,5.49c0.22,0.14,0.28,0.43,0.14,0.65C250.51,224.45,250.36,224.52,250.21,224.52z"/>
				</g>
				<g>
					<path class="st39" d="M257.37,221.47c-0.09,0-0.18-0.02-0.25-0.08l-8.49-5.49c-0.22-0.14-0.28-0.43-0.14-0.65
						c0.14-0.22,0.43-0.28,0.65-0.14l8.49,5.49c0.22,0.14,0.28,0.43,0.14,0.65C257.67,221.39,257.52,221.47,257.37,221.47z"/>
				</g>
				<g>
					<path class="st39" d="M264.53,218.41c-0.09,0-0.18-0.02-0.25-0.08l-8.49-5.49c-0.22-0.14-0.28-0.43-0.14-0.65
						c0.14-0.22,0.43-0.28,0.65-0.14l8.49,5.49c0.22,0.14,0.28,0.43,0.14,0.65C264.83,218.33,264.68,218.41,264.53,218.41z"/>
				</g>
				<g>
					<path class="st39" d="M271.68,215.35c-0.09,0-0.18-0.02-0.25-0.08l-8.49-5.49c-0.22-0.14-0.28-0.43-0.14-0.65
						c0.14-0.22,0.43-0.28,0.65-0.14l8.49,5.49c0.22,0.14,0.28,0.43,0.14,0.65C271.99,215.27,271.84,215.35,271.68,215.35z"/>
				</g>
				<g>
					<path class="st39" d="M278.84,212.29c-0.09,0-0.18-0.02-0.25-0.08l-8.49-5.49c-0.22-0.14-0.28-0.43-0.14-0.65
						c0.14-0.22,0.43-0.28,0.65-0.14l8.49,5.49c0.22,0.14,0.28,0.43,0.14,0.65C279.15,212.21,278.99,212.29,278.84,212.29z"/>
				</g>
				<g>
					<path class="st39" d="M286,209.23c-0.09,0-0.18-0.02-0.25-0.08l-8.49-5.49c-0.22-0.14-0.28-0.43-0.14-0.65
						c0.14-0.22,0.43-0.28,0.65-0.14l8.49,5.49c0.22,0.14,0.28,0.43,0.14,0.65C286.3,209.15,286.15,209.23,286,209.23z"/>
				</g>
				<g>
					<path class="st39" d="M293.16,206.17c-0.09,0-0.18-0.02-0.25-0.08l-8.49-5.49c-0.22-0.14-0.28-0.43-0.14-0.65
						c0.14-0.22,0.43-0.28,0.65-0.14l8.49,5.49c0.22,0.14,0.28,0.43,0.14,0.65C293.46,206.09,293.31,206.17,293.16,206.17z"/>
				</g>
				<g>
					<path class="st39" d="M300.32,203.11c-0.09,0-0.18-0.02-0.25-0.08l-8.49-5.49c-0.22-0.14-0.28-0.43-0.14-0.65
						c0.14-0.22,0.43-0.28,0.65-0.14l8.49,5.49c0.22,0.14,0.28,0.43,0.14,0.65C300.62,203.03,300.47,203.11,300.32,203.11z"/>
				</g>
				<g>
					<path class="st39" d="M307.47,200.05c-0.09,0-0.18-0.02-0.25-0.08l-8.49-5.49c-0.22-0.14-0.28-0.43-0.14-0.65
						c0.14-0.22,0.43-0.28,0.65-0.14l8.49,5.49c0.22,0.14,0.28,0.43,0.14,0.65C307.78,199.97,307.63,200.05,307.47,200.05z"/>
				</g>
				<g>
					<path class="st39" d="M314.63,196.99c-0.09,0-0.18-0.02-0.25-0.08l-8.49-5.49c-0.22-0.14-0.28-0.43-0.14-0.65
						c0.14-0.22,0.43-0.28,0.65-0.14l8.49,5.49c0.22,0.14,0.28,0.43,0.14,0.65C314.93,196.91,314.78,196.99,314.63,196.99z"/>
				</g>
				<g>
					<path class="st39" d="M321.79,193.93c-0.09,0-0.18-0.02-0.25-0.08l-8.49-5.49c-0.22-0.14-0.28-0.43-0.14-0.65
						c0.14-0.22,0.43-0.28,0.65-0.14l8.49,5.49c0.22,0.14,0.28,0.43,0.14,0.65C322.09,193.86,321.94,193.93,321.79,193.93z"/>
				</g>
				<g>
					<path class="st39" d="M328.95,190.87c-0.09,0-0.18-0.02-0.25-0.08l-8.49-5.49c-0.22-0.14-0.28-0.43-0.14-0.65
						c0.14-0.22,0.43-0.28,0.65-0.14l8.49,5.49c0.22,0.14,0.28,0.43,0.14,0.65C329.25,190.8,329.1,190.87,328.95,190.87z"/>
				</g>
				<g>
					<path class="st39" d="M336.1,187.81c-0.09,0-0.18-0.02-0.25-0.08l-8.49-5.49c-0.22-0.14-0.28-0.43-0.14-0.65
						c0.14-0.22,0.43-0.28,0.65-0.14l8.49,5.49c0.22,0.14,0.28,0.43,0.14,0.65C336.41,187.74,336.26,187.81,336.1,187.81z"/>
				</g>
				<g>
					<path class="st39" d="M343.26,184.75c-0.09,0-0.18-0.02-0.25-0.08l-8.49-5.49c-0.22-0.14-0.28-0.43-0.14-0.65
						c0.14-0.22,0.43-0.28,0.65-0.14l8.49,5.49c0.22,0.14,0.28,0.43,0.14,0.65C343.57,184.68,343.41,184.75,343.26,184.75z"/>
				</g>
			</g>
		</g>
		<g>
			<g>
				<g>
					<path class="st39" d="M262.73,228.38c-0.09,0-0.18-0.02-0.25-0.08l-8.49-5.49c-0.22-0.14-0.28-0.43-0.14-0.65
						c0.14-0.22,0.43-0.28,0.65-0.14l8.49,5.49c0.22,0.14,0.28,0.43,0.14,0.65C263.03,228.3,262.88,228.38,262.73,228.38z"/>
				</g>
				<g>
					<path class="st39" d="M269.89,225.32c-0.09,0-0.18-0.02-0.25-0.08l-8.49-5.49c-0.22-0.14-0.28-0.43-0.14-0.65
						c0.14-0.22,0.43-0.28,0.65-0.14l8.49,5.49c0.22,0.14,0.28,0.43,0.14,0.65C270.19,225.24,270.04,225.32,269.89,225.32z"/>
				</g>
				<g>
					<path class="st39" d="M277.04,222.26c-0.09,0-0.18-0.02-0.25-0.08l-8.49-5.49c-0.22-0.14-0.28-0.43-0.14-0.65
						c0.14-0.22,0.43-0.28,0.65-0.14l8.49,5.49c0.22,0.14,0.28,0.43,0.14,0.65C277.35,222.18,277.2,222.26,277.04,222.26z"/>
				</g>
				<g>
					<path class="st39" d="M284.2,219.2c-0.09,0-0.18-0.02-0.25-0.08l-8.49-5.49c-0.22-0.14-0.28-0.43-0.14-0.65
						c0.14-0.22,0.43-0.28,0.65-0.14l8.49,5.49c0.22,0.14,0.28,0.43,0.14,0.65C284.5,219.13,284.35,219.2,284.2,219.2z"/>
				</g>
				<g>
					<path class="st39" d="M291.36,216.14c-0.09,0-0.18-0.02-0.25-0.08l-8.49-5.49c-0.22-0.14-0.28-0.43-0.14-0.65
						c0.14-0.22,0.43-0.28,0.65-0.14l8.49,5.49c0.22,0.14,0.28,0.43,0.14,0.65C291.66,216.07,291.51,216.14,291.36,216.14z"/>
				</g>
				<g>
					<path class="st39" d="M298.52,213.08c-0.09,0-0.18-0.02-0.25-0.08l-8.49-5.49c-0.22-0.14-0.28-0.43-0.14-0.65
						c0.14-0.22,0.43-0.28,0.65-0.14l8.49,5.49c0.22,0.14,0.28,0.43,0.14,0.65C298.82,213.01,298.67,213.08,298.52,213.08z"/>
				</g>
				<g>
					<path class="st39" d="M305.67,210.02c-0.09,0-0.18-0.02-0.25-0.08l-8.49-5.49c-0.22-0.14-0.28-0.43-0.14-0.65
						c0.14-0.22,0.43-0.28,0.65-0.14l8.49,5.49c0.22,0.14,0.28,0.43,0.14,0.65C305.98,209.95,305.83,210.02,305.67,210.02z"/>
				</g>
				<g>
					<path class="st39" d="M312.83,206.96c-0.09,0-0.18-0.02-0.25-0.08l-8.49-5.49c-0.22-0.14-0.28-0.43-0.14-0.65
						c0.14-0.22,0.43-0.28,0.65-0.14l8.49,5.49c0.22,0.14,0.28,0.43,0.14,0.65C313.14,206.89,312.98,206.96,312.83,206.96z"/>
				</g>
				<g>
					<path class="st39" d="M319.99,203.9c-0.09,0-0.18-0.02-0.25-0.08l-8.49-5.49c-0.22-0.14-0.28-0.43-0.14-0.65
						c0.14-0.22,0.43-0.28,0.65-0.14l8.49,5.49c0.22,0.14,0.28,0.43,0.14,0.65C320.29,203.83,320.14,203.9,319.99,203.9z"/>
				</g>
				<g>
					<path class="st39" d="M327.15,200.84c-0.09,0-0.18-0.02-0.25-0.08l-8.49-5.49c-0.22-0.14-0.28-0.43-0.14-0.65
						c0.14-0.22,0.43-0.28,0.65-0.14l8.49,5.49c0.22,0.14,0.28,0.43,0.14,0.65C327.45,200.77,327.3,200.84,327.15,200.84z"/>
				</g>
				<g>
					<path class="st39" d="M334.31,197.78c-0.09,0-0.18-0.02-0.25-0.08l-8.49-5.49c-0.22-0.14-0.28-0.43-0.14-0.65
						c0.14-0.22,0.43-0.28,0.65-0.14l8.49,5.49c0.22,0.14,0.28,0.43,0.14,0.65C334.61,197.71,334.46,197.78,334.31,197.78z"/>
				</g>
				<g>
					<path class="st39" d="M341.46,194.72c-0.09,0-0.18-0.02-0.25-0.08l-8.49-5.49c-0.22-0.14-0.28-0.43-0.14-0.65
						c0.14-0.22,0.43-0.28,0.65-0.14l8.49,5.49c0.22,0.14,0.28,0.43,0.14,0.65C341.77,194.65,341.62,194.72,341.46,194.72z"/>
				</g>
				<g>
					<path class="st39" d="M348.62,191.67c-0.09,0-0.18-0.02-0.25-0.08l-8.49-5.49c-0.22-0.14-0.28-0.43-0.14-0.65
						c0.14-0.22,0.43-0.28,0.65-0.14l8.49,5.49c0.22,0.14,0.28,0.43,0.14,0.65C348.92,191.59,348.77,191.67,348.62,191.67z"/>
				</g>
				<g>
					<path class="st39" d="M355.78,188.61c-0.09,0-0.18-0.02-0.25-0.08l-8.49-5.49c-0.22-0.14-0.28-0.43-0.14-0.65
						c0.14-0.22,0.43-0.28,0.65-0.14l8.49,5.49c0.22,0.14,0.28,0.43,0.14,0.65C356.08,188.53,355.93,188.61,355.78,188.61z"/>
				</g>
			</g>
		</g>
		<g>
			<g>
				<g>
					<path class="st39" d="M272.78,232.91c-0.09,0-0.18-0.02-0.25-0.08l-8.49-5.49c-0.22-0.14-0.28-0.43-0.14-0.65
						c0.14-0.22,0.43-0.28,0.65-0.14l8.49,5.49c0.22,0.14,0.28,0.43,0.14,0.65C273.08,232.83,272.93,232.91,272.78,232.91z"/>
				</g>
				<g>
					<path class="st39" d="M279.94,229.85c-0.09,0-0.18-0.02-0.25-0.08l-8.49-5.49c-0.22-0.14-0.28-0.43-0.14-0.65
						c0.14-0.22,0.43-0.28,0.65-0.14l8.49,5.49c0.22,0.14,0.28,0.43,0.14,0.65C280.24,229.77,280.09,229.85,279.94,229.85z"/>
				</g>
				<g>
					<path class="st39" d="M287.09,226.79c-0.09,0-0.18-0.02-0.25-0.08l-8.49-5.49c-0.22-0.14-0.28-0.43-0.14-0.65
						c0.14-0.22,0.43-0.28,0.65-0.14l8.49,5.49c0.22,0.14,0.28,0.43,0.14,0.65C287.4,226.72,287.25,226.79,287.09,226.79z"/>
				</g>
				<g>
					<path class="st39" d="M294.25,223.73c-0.09,0-0.18-0.02-0.25-0.08l-8.49-5.49c-0.22-0.14-0.28-0.43-0.14-0.65
						c0.14-0.22,0.43-0.28,0.65-0.14l8.49,5.49c0.22,0.14,0.28,0.43,0.14,0.65C294.55,223.66,294.4,223.73,294.25,223.73z"/>
				</g>
				<g>
					<path class="st39" d="M301.41,220.67c-0.09,0-0.18-0.02-0.25-0.08l-8.49-5.49c-0.22-0.14-0.28-0.43-0.14-0.65
						c0.14-0.22,0.43-0.28,0.65-0.14l8.49,5.49c0.22,0.14,0.28,0.43,0.14,0.65C301.71,220.6,301.56,220.67,301.41,220.67z"/>
				</g>
				<g>
					<path class="st39" d="M308.57,217.61c-0.09,0-0.18-0.02-0.25-0.08l-8.49-5.49c-0.22-0.14-0.28-0.43-0.14-0.65
						c0.14-0.22,0.43-0.28,0.65-0.14l8.49,5.49c0.22,0.14,0.28,0.43,0.14,0.65C308.87,217.54,308.72,217.61,308.57,217.61z"/>
				</g>
				<g>
					<path class="st39" d="M315.72,214.55c-0.09,0-0.18-0.02-0.25-0.08l-8.49-5.49c-0.22-0.14-0.28-0.43-0.14-0.65
						c0.14-0.22,0.43-0.28,0.65-0.14l8.49,5.49c0.22,0.14,0.28,0.43,0.14,0.65C316.03,214.48,315.88,214.55,315.72,214.55z"/>
				</g>
				<g>
					<path class="st39" d="M322.88,211.49c-0.09,0-0.18-0.02-0.25-0.08l-8.49-5.49c-0.22-0.14-0.28-0.43-0.14-0.65
						c0.14-0.22,0.43-0.28,0.65-0.14l8.49,5.49c0.22,0.14,0.28,0.43,0.14,0.65C323.19,211.42,323.03,211.49,322.88,211.49z"/>
				</g>
				<g>
					<path class="st39" d="M330.04,208.43c-0.09,0-0.18-0.02-0.25-0.08l-8.49-5.49c-0.22-0.14-0.28-0.43-0.14-0.65
						c0.14-0.22,0.43-0.28,0.65-0.14l8.49,5.49c0.22,0.14,0.28,0.43,0.14,0.65C330.34,208.36,330.19,208.43,330.04,208.43z"/>
				</g>
				<g>
					<path class="st39" d="M337.2,205.37c-0.09,0-0.18-0.02-0.25-0.08l-8.49-5.49c-0.22-0.14-0.28-0.43-0.14-0.65
						c0.14-0.22,0.43-0.28,0.65-0.14l8.49,5.49c0.22,0.14,0.28,0.43,0.14,0.65C337.5,205.3,337.35,205.37,337.2,205.37z"/>
				</g>
				<g>
					<path class="st39" d="M344.36,202.31c-0.09,0-0.18-0.02-0.25-0.08l-8.49-5.49c-0.22-0.14-0.28-0.43-0.14-0.65
						c0.14-0.22,0.43-0.28,0.65-0.14l8.49,5.49c0.22,0.14,0.28,0.43,0.14,0.65C344.66,202.24,344.51,202.31,344.36,202.31z"/>
				</g>
				<g>
					<path class="st39" d="M351.51,199.26c-0.09,0-0.18-0.02-0.25-0.08l-8.49-5.49c-0.22-0.14-0.28-0.43-0.14-0.65
						c0.14-0.22,0.43-0.28,0.65-0.14l8.49,5.49c0.22,0.14,0.28,0.43,0.14,0.65C351.82,199.18,351.67,199.26,351.51,199.26z"/>
				</g>
				<g>
					<path class="st39" d="M358.67,196.2c-0.09,0-0.18-0.02-0.25-0.08l-8.49-5.49c-0.22-0.14-0.28-0.43-0.14-0.65
						c0.14-0.22,0.43-0.28,0.65-0.14l8.49,5.49c0.22,0.14,0.28,0.43,0.14,0.65C358.97,196.12,358.82,196.2,358.67,196.2z"/>
				</g>
			</g>
		</g>
		<g>
			<g>
				<g>
					<path class="st39" d="M277.19,240.67c-0.09,0-0.18-0.02-0.25-0.08l-8.49-5.49c-0.22-0.14-0.28-0.43-0.14-0.65
						c0.14-0.22,0.43-0.28,0.65-0.14l8.49,5.49c0.22,0.14,0.28,0.43,0.14,0.65C277.49,240.59,277.34,240.67,277.19,240.67z"/>
				</g>
				<g>
					<path class="st39" d="M284.35,237.61c-0.09,0-0.18-0.02-0.25-0.08l-8.49-5.49c-0.22-0.14-0.28-0.43-0.14-0.65
						c0.14-0.22,0.43-0.28,0.65-0.14l8.49,5.49c0.22,0.14,0.28,0.43,0.14,0.65C284.65,237.53,284.5,237.61,284.35,237.61z"/>
				</g>
				<g>
					<path class="st39" d="M291.51,234.55c-0.09,0-0.18-0.02-0.25-0.08l-8.49-5.49c-0.22-0.14-0.28-0.43-0.14-0.65
						c0.14-0.22,0.43-0.28,0.65-0.14l8.49,5.49c0.22,0.14,0.28,0.43,0.14,0.65C291.81,234.47,291.66,234.55,291.51,234.55z"/>
				</g>
				<g>
					<path class="st39" d="M298.66,231.49c-0.09,0-0.18-0.02-0.25-0.08l-8.49-5.49c-0.22-0.14-0.28-0.43-0.14-0.65
						c0.14-0.22,0.43-0.28,0.65-0.14l8.49,5.49c0.22,0.14,0.28,0.43,0.14,0.65C298.97,231.41,298.82,231.49,298.66,231.49z"/>
				</g>
				<g>
					<path class="st39" d="M305.82,228.43c-0.09,0-0.18-0.02-0.25-0.08l-8.49-5.49c-0.22-0.14-0.28-0.43-0.14-0.65
						c0.14-0.22,0.43-0.28,0.65-0.14l8.49,5.49c0.22,0.14,0.28,0.43,0.14,0.65C306.13,228.35,305.98,228.43,305.82,228.43z"/>
				</g>
				<g>
					<path class="st39" d="M312.98,225.37c-0.09,0-0.18-0.02-0.25-0.08l-8.49-5.49c-0.22-0.14-0.28-0.43-0.14-0.65
						c0.14-0.22,0.43-0.28,0.65-0.14l8.49,5.49c0.22,0.14,0.28,0.43,0.14,0.65C313.28,225.29,313.13,225.37,312.98,225.37z"/>
				</g>
				<g>
					<path class="st39" d="M320.14,222.31c-0.09,0-0.18-0.02-0.25-0.08l-8.49-5.49c-0.22-0.14-0.28-0.43-0.14-0.65
						c0.14-0.22,0.43-0.28,0.65-0.14l8.49,5.49c0.22,0.14,0.28,0.43,0.14,0.65C320.44,222.23,320.29,222.31,320.14,222.31z"/>
				</g>
				<g>
					<path class="st39" d="M327.29,219.25c-0.09,0-0.18-0.02-0.25-0.08l-8.49-5.49c-0.22-0.14-0.28-0.43-0.14-0.65
						c0.14-0.22,0.43-0.28,0.65-0.14l8.49,5.49c0.22,0.14,0.28,0.43,0.14,0.65C327.6,219.18,327.45,219.25,327.29,219.25z"/>
				</g>
				<g>
					<path class="st39" d="M334.45,216.19c-0.09,0-0.18-0.02-0.25-0.08l-8.49-5.49c-0.22-0.14-0.28-0.43-0.14-0.65
						c0.14-0.22,0.43-0.28,0.65-0.14l8.49,5.49c0.22,0.14,0.28,0.43,0.14,0.65C334.76,216.12,334.61,216.19,334.45,216.19z"/>
				</g>
				<g>
					<path class="st39" d="M341.61,213.13c-0.09,0-0.18-0.02-0.25-0.08l-8.49-5.49c-0.22-0.14-0.28-0.43-0.14-0.65
						c0.14-0.22,0.43-0.28,0.65-0.14l8.49,5.49c0.22,0.14,0.28,0.43,0.14,0.65C341.91,213.06,341.76,213.13,341.61,213.13z"/>
				</g>
				<g>
					<path class="st39" d="M348.77,210.07c-0.09,0-0.18-0.02-0.25-0.08l-8.49-5.49c-0.22-0.14-0.28-0.43-0.14-0.65
						c0.14-0.22,0.43-0.28,0.65-0.14l8.49,5.49c0.22,0.14,0.28,0.43,0.14,0.65C349.07,210,348.92,210.07,348.77,210.07z"/>
				</g>
				<g>
					<path class="st39" d="M355.93,207.01c-0.09,0-0.18-0.02-0.25-0.08l-8.49-5.49c-0.22-0.14-0.28-0.43-0.14-0.65
						c0.14-0.22,0.43-0.28,0.65-0.14l8.49,5.49c0.22,0.14,0.28,0.43,0.14,0.65C356.23,206.94,356.08,207.01,355.93,207.01z"/>
				</g>
				<g>
					<path class="st39" d="M363.08,203.95c-0.09,0-0.18-0.02-0.25-0.08l-8.49-5.49c-0.22-0.14-0.28-0.43-0.14-0.65
						c0.14-0.22,0.43-0.28,0.65-0.14l8.49,5.49c0.22,0.14,0.28,0.43,0.14,0.65C363.39,203.88,363.24,203.95,363.08,203.95z"/>
				</g>
				<g>
					<path class="st39" d="M370.24,200.89c-0.09,0-0.18-0.02-0.25-0.08l-8.49-5.49c-0.22-0.14-0.28-0.43-0.14-0.65
						c0.14-0.22,0.43-0.28,0.65-0.14l8.49,5.49c0.22,0.14,0.28,0.43,0.14,0.65C370.55,200.82,370.4,200.89,370.24,200.89z"/>
				</g>
			</g>
		</g>
		<g>
			<g>
				<g>
					<path class="st39" d="M283.44,246.94c-0.09,0-0.18-0.02-0.25-0.08l-8.49-5.49c-0.22-0.14-0.28-0.43-0.14-0.65
						c0.14-0.22,0.43-0.28,0.65-0.14l8.49,5.49c0.22,0.14,0.28,0.43,0.14,0.65C283.74,246.86,283.59,246.94,283.44,246.94z"/>
				</g>
				<g>
					<path class="st39" d="M290.6,243.88c-0.09,0-0.18-0.02-0.25-0.08l-8.49-5.49c-0.22-0.14-0.28-0.43-0.14-0.65
						c0.14-0.22,0.43-0.28,0.65-0.14l8.49,5.49c0.22,0.14,0.28,0.43,0.14,0.65C290.9,243.8,290.75,243.88,290.6,243.88z"/>
				</g>
				<g>
					<path class="st39" d="M297.76,240.82c-0.09,0-0.18-0.02-0.25-0.08l-8.49-5.49c-0.22-0.14-0.28-0.43-0.14-0.65
						c0.14-0.22,0.43-0.28,0.65-0.14l8.49,5.49c0.22,0.14,0.28,0.43,0.14,0.65C298.06,240.74,297.91,240.82,297.76,240.82z"/>
				</g>
				<g>
					<path class="st39" d="M304.91,237.76c-0.09,0-0.18-0.02-0.25-0.08l-8.49-5.49c-0.22-0.14-0.28-0.43-0.14-0.65
						c0.14-0.22,0.43-0.28,0.65-0.14l8.49,5.49c0.22,0.14,0.28,0.43,0.14,0.65C305.22,237.68,305.07,237.76,304.91,237.76z"/>
				</g>
				<g>
					<path class="st39" d="M312.07,234.7c-0.09,0-0.18-0.02-0.25-0.08l-8.49-5.49c-0.22-0.14-0.28-0.43-0.14-0.65
						c0.14-0.22,0.43-0.28,0.65-0.14l8.49,5.49c0.22,0.14,0.28,0.43,0.14,0.65C312.38,234.62,312.23,234.7,312.07,234.7z"/>
				</g>
				<g>
					<path class="st39" d="M347.86,219.4c-0.09,0-0.18-0.02-0.25-0.08l-8.49-5.49c-0.22-0.14-0.28-0.43-0.14-0.65
						c0.14-0.22,0.43-0.28,0.65-0.14l8.49,5.49c0.22,0.14,0.28,0.43,0.14,0.65C348.16,219.33,348.01,219.4,347.86,219.4z"/>
				</g>
				<g>
					<path class="st39" d="M355.02,216.34c-0.09,0-0.18-0.02-0.25-0.08l-8.49-5.49c-0.22-0.14-0.28-0.43-0.14-0.65
						c0.14-0.22,0.43-0.28,0.65-0.14l8.49,5.49c0.22,0.14,0.28,0.43,0.14,0.65C355.32,216.27,355.17,216.34,355.02,216.34z"/>
				</g>
				<g>
					<path class="st39" d="M362.18,213.28c-0.09,0-0.18-0.02-0.25-0.08l-8.49-5.49c-0.22-0.14-0.28-0.43-0.14-0.65
						c0.14-0.22,0.43-0.28,0.65-0.14l8.49,5.49c0.22,0.14,0.28,0.43,0.14,0.65C362.48,213.21,362.33,213.28,362.18,213.28z"/>
				</g>
				<g>
					<path class="st39" d="M369.33,210.22c-0.09,0-0.18-0.02-0.25-0.08l-8.49-5.49c-0.22-0.14-0.28-0.43-0.14-0.65
						c0.14-0.22,0.43-0.28,0.65-0.14l8.49,5.49c0.22,0.14,0.28,0.43,0.14,0.65C369.64,210.15,369.49,210.22,369.33,210.22z"/>
				</g>
				<g>
					<path class="st39" d="M376.49,207.16c-0.09,0-0.18-0.02-0.25-0.08l-8.49-5.49c-0.22-0.14-0.28-0.43-0.14-0.65
						c0.14-0.22,0.43-0.28,0.65-0.14l8.49,5.49c0.22,0.14,0.28,0.43,0.14,0.65C376.8,207.09,376.65,207.16,376.49,207.16z"/>
				</g>
			</g>
		</g>
		<path class="st13" d="M299.32,192.42l-18.38,7.73c-1.32,0.56-3.68,0.1-5.26-1.02l0,0c-1.58-1.12-1.79-2.48-0.47-3.03l18.38-7.73
			c1.32-0.56,3.68-0.1,5.26,1.02l0,0C300.43,190.51,300.64,191.86,299.32,192.42z"/>
	</g>
	<path class="st40" d="M303.31,43.68"/>
	
		<ellipse transform="matrix(0.63 -0.7766 0.7766 0.63 -36.6165 379.6943)" class="st38" cx="380.17" cy="228.28" rx="34.42" ry="3.35"/>
	<g>
		<path class="st38" d="M144.23,235.55L144.23,235.55L144.23,235.55c-1.61-3.58-4.08-6.63-7.12-8.82l-6.54-8.11
			c-0.05-0.06-0.1-0.13-0.16-0.19l-0.01-0.01l0,0c-0.22-0.26-0.44-0.5-0.67-0.75v-13.09c0-2.66-1.33-5.14-3.54-6.61l-5.58-3.71
			c-1.58-1.05-3.48-1.5-5.37-1.27l-64.95,7.94c-3.95,0.48-6.93,3.81-6.98,7.78l-0.46,36.29c-0.02,1.22,0.24,2.42,0.77,3.51
			c1.02,2.1,2.62,4.75,5.11,7.36c3.08,3.23,6.28,5.09,8.39,6.11c1.04,0.52,3.15,1.4,5.95,1.37c2.62-0.03,7.25-0.46,9.79-4.84
			c0.01-0.01,0.02-0.03,0.02-0.04c1.22-2.13,3.27-3.66,5.7-4.06c5.05-0.83,10.11-1.66,15.16-2.48c3.04,2.87,6.8,5.01,11,6.08
			l10.48,6.43l0,0c3.05,1.92,6.6,3.03,10.4,3.03c11.4,0,20.64-9.96,20.64-22.24C146.27,241.75,145.54,238.47,144.23,235.55z"/>
		<path class="st41" d="M51.04,206.53l-0.46,36.29c-0.02,1.22,0.24,2.42,0.77,3.51c1.02,2.1,2.62,4.75,5.11,7.36
			c3.08,3.23,6.28,5.09,8.39,6.11c1.04,0.52,3.15,1.4,5.95,1.37c2.62-0.03,7.25-0.46,9.79-4.84c0.01-0.01,0.02-0.03,0.02-0.04
			c1.22-2.13,3.27-3.66,5.7-4.06c14.83-2.43,29.66-4.86,44.48-7.29c3.84-0.63,6.66-3.95,6.66-7.84V202.4c0-2.66-1.33-5.14-3.54-6.61
			l-5.58-3.71c-1.58-1.05-3.48-1.5-5.37-1.27l-64.95,7.94C54.07,199.23,51.09,202.55,51.04,206.53z"/>
		<path class="st42" d="M133.18,236.23c-14.83,2.43-29.66,4.86-44.48,7.29c-2.43,0.4-4.48,1.92-5.7,4.06
			c-0.01,0.01-0.02,0.03-0.02,0.04c-2.53,4.39-7.17,4.81-9.79,4.84c-2.8,0.04-4.91-0.85-5.95-1.37c-2.12-1.02-5.31-2.88-8.39-6.11
			c-2.49-2.61-4.09-5.26-5.11-7.36c-0.53-1.09-0.78-2.3-0.77-3.51l0.42-33.13c-1.43,1.42-2.33,3.38-2.35,5.53l-0.46,36.29
			c-0.02,1.22,0.24,2.42,0.77,3.51c1.02,2.1,2.62,4.75,5.11,7.36c3.08,3.23,6.28,5.09,8.39,6.11c1.04,0.52,3.15,1.4,5.95,1.37
			c2.62-0.03,7.25-0.46,9.79-4.84c0.01-0.01,0.02-0.03,0.02-0.04c1.22-2.13,3.27-3.66,5.7-4.06c14.83-2.43,29.66-4.86,44.48-7.29
			c3.84-0.63,6.66-3.95,6.66-7.84v-3.01C136.31,235.18,134.84,235.96,133.18,236.23z"/>
		<path class="st43" d="M82.98,192.72c0.5-1.38,1.73-4.12,4.52-6.35c1.44-1.15,2.87-1.81,3.95-2.2c0.03-0.71,0.21-2.84,1.84-4.72
			c0.98-1.13,2.09-1.7,2.76-1.98l12.28-1.95c1.36-0.22,2.67,0.6,3.08,1.91l0,0c0.3,0.97,0.17,1.8,0.08,2.19
			c1.63-0.17,4.14-0.23,7.07,0.51c2.6,0.65,4.6,1.7,5.91,2.53c0.81,1.82,1.61,3.9,2.31,6.24c0.46,1.54,0.81,3,1.08,4.37
			c0.24,0.82,0.48,1.92,0.55,3.22c0.07,1.37-0.09,2.54-0.27,3.41c-6.88,1.14-13.77,2.27-20.65,3.41l-15.07-1.73l-33.56,5.36
			c-1.24-0.56-3.12-1.59-4.92-3.43c-0.01-0.01-0.03-0.03-0.04-0.04c-1.64-1.69-0.79-4.53,1.48-5.14
			C63.82,196.07,80.16,192.56,82.98,192.72z"/>
		<path class="st42" d="M99.17,184.53c6.61,1.02,11.46-0.7,11.46-0.7c-4.91,0.17-17.73-1.94-15.91-4c1.8-2.04,14.5-4.21,14.72-4.25
			c-0.36-0.09-0.73-0.12-1.12-0.06l-12.28,1.95c-0.67,0.28-1.77,0.85-2.76,1.98c-1.63,1.87-1.81,4-1.84,4.72
			c-1.08,0.39-2.51,1.06-3.95,2.2c-2.8,2.22-4.02,4.97-4.52,6.35c-2.81-0.16-19.16,3.35-27.62,5.6c-1.25,0.33-2.07,1.34-2.27,2.47
			c12.31,0.45,50.28-5.47,45.85-5.46c-4.88,0.01-9.19-5.83-5.19-7.32c4-1.48,12.08,3.88,10.75,1.81
			C103.16,187.76,92.57,183.51,99.17,184.53z"/>
		<path class="st42" d="M151.94,233.38L151.94,233.38L151.94,233.38c-1.61-3.58-4.08-6.63-7.12-8.82l-6.54-8.11
			c-0.05-0.06-0.1-0.13-0.16-0.19l-0.01-0.01l0,0c-4.6-5.46-11.54-8.94-19.31-8.94c-13.84,0-25.06,11.04-25.06,24.66
			c0,6.16,2.3,11.79,6.1,16.11l0,0l0.01,0.01c3.27,3.71,7.64,6.46,12.61,7.74l10.48,6.43l0,0c3.05,1.92,6.6,3.03,10.4,3.03
			c11.4,0,20.64-9.96,20.64-22.24C153.98,239.58,153.25,236.3,151.94,233.38z"/>
		<path class="st44" d="M139.85,218.39l-1.19-1.47c-3.94-2.54-8.64-4.01-13.69-4.01c-13.84,0-25.06,11.04-25.06,24.66
			c0,5.66,1.95,10.87,5.2,15.03c1.54,0.99,3.2,1.82,4.95,2.46c-2.64-3.9-4.18-8.58-4.18-13.62c0-13.62,11.22-24.66,25.06-24.66
			C134.09,216.78,137.08,217.36,139.85,218.39z"/>
		<path class="st45" d="M138.17,258.97c-3.79,0-7.34-1.11-10.4-3.03l0,0l-10.48-6.43c-4.98-1.28-9.35-4.02-12.61-7.74l-0.01-0.01
			l0,0c-3.8-4.32-6.1-9.95-6.1-16.11c0-4.15,1.04-8.05,2.88-11.48c-4.75,4.49-7.71,10.79-7.71,17.78c0,6.16,2.3,11.79,6.1,16.11l0,0
			l0.01,0.01c3.27,3.71,7.64,6.46,12.61,7.74l10.48,6.43l0,0c3.05,1.92,6.6,3.03,10.4,3.03c7.78,0,14.55-4.64,18.07-11.49
			C147.83,257.02,143.21,258.97,138.17,258.97z"/>
		<ellipse class="st46" cx="132.41" cy="243.04" rx="19.71" ry="21.23"/>
		<ellipse class="st47" cx="133.34" cy="243.04" rx="13.9" ry="14.98"/>
		<ellipse class="st47" cx="133.34" cy="243.04" rx="13.21" ry="14.23"/>
		<path class="st3" d="M141.83,233.55c0,1.37-1.11,2.47-2.47,2.47c-1.37,0-2.47-1.11-2.47-2.47s1.11-2.47,2.47-2.47
			C140.72,231.08,141.83,232.19,141.83,233.55z"/>
		<path class="st3" d="M138.71,237.99c0,0.68-0.55,1.24-1.24,1.24c-0.68,0-1.24-0.55-1.24-1.24c0-0.68,0.55-1.24,1.24-1.24
			C138.16,236.75,138.71,237.31,138.71,237.99z"/>
		<path class="st46" d="M135,240.2c0,3.07-2.37,5.56-5.29,5.56s-5.29-2.49-5.29-5.56s2.37-5.56,5.29-5.56S135,237.13,135,240.2z"/>
		<path class="st45" d="M130.45,239.52c0,1.02-0.79,1.85-1.76,1.85c-0.97,0-1.76-0.83-1.76-1.85c0-1.02,0.79-1.85,1.76-1.85
			C129.66,237.68,130.45,238.5,130.45,239.52z"/>
		<path class="st46" d="M95.62,241.56c-0.09,0-0.17-0.04-0.22-0.13c-8.4-14.71,4.97-35.85,5.11-36.06c0.08-0.12,0.23-0.15,0.34-0.08
			c0.12,0.07,0.15,0.23,0.08,0.34c-0.13,0.21-13.34,21.09-5.1,35.54c0.07,0.12,0.03,0.27-0.09,0.34
			C95.7,241.55,95.66,241.56,95.62,241.56z"/>
		<path class="st46" d="M133.34,212.12c-0.12,0-0.22-0.08-0.24-0.2c-1.19-5.53-6.3-9.43-6.35-9.46c-0.11-0.08-0.13-0.24-0.05-0.35
			c0.08-0.11,0.24-0.13,0.35-0.05c0.05,0.04,5.31,4.04,6.53,9.76c0.03,0.14-0.06,0.27-0.19,0.3
			C133.38,212.12,133.36,212.12,133.34,212.12z"/>
		<path class="st44" d="M128.39,196.5c-0.02-0.42-0.06-0.8-0.11-1.18c-0.47-1.03-0.97-1.59-1.37-2c-0.74-0.74-10.89-0.54-16.28,1.53
			c-5.39,2.06-3.15,8.46-3.15,8.46c6.88-1.14,13.77-2.27,20.65-3.41C128.3,199.04,128.46,197.87,128.39,196.5z"/>
		<path class="st46" d="M113.26,188.87c-2.35,0-4.25-0.66-4.29-0.67c-0.13-0.05-0.2-0.19-0.15-0.32c0.05-0.13,0.18-0.2,0.32-0.15
			c0.07,0.02,6.6,2.28,10.13-1.77c0.09-0.1,0.25-0.11,0.35-0.02c0.1,0.09,0.12,0.25,0.02,0.35
			C117.86,188.33,115.39,188.87,113.26,188.87z"/>
		<path class="st46" d="M107.54,184.27c-5.21,0-10.83-1.34-11.19-1.43c-0.13-0.03-0.22-0.17-0.18-0.3c0.03-0.13,0.17-0.21,0.3-0.18
			c0.14,0.03,13.5,3.21,18.03-0.12c0.91-0.67,1.38-1.53,1.46-2.63c0.01-0.14,0.11-0.24,0.27-0.23c0.14,0.01,0.24,0.13,0.23,0.27
			c-0.08,1.24-0.64,2.25-1.66,3C113.12,183.87,110.39,184.27,107.54,184.27z"/>
		<path class="st46" d="M100.08,195.58c-2.7,0-5.23-0.03-6.51-0.11c-3.54-0.24-9.16-2.22-9.39-2.3c-0.13-0.05-0.2-0.19-0.15-0.32
			c0.05-0.13,0.18-0.2,0.32-0.15c0.06,0.02,5.78,2.04,9.26,2.27c3.13,0.21,13.76,0.07,16.04,0.03c-3.83-6.11-16.19-10.2-16.31-10.24
			c-0.13-0.04-0.2-0.18-0.16-0.32c0.04-0.13,0.18-0.2,0.31-0.16c0.54,0.17,13.17,4.35,16.81,10.83c0.04,0.08,0.04,0.17,0,0.25
			c-0.04,0.08-0.12,0.12-0.21,0.13C110,195.5,104.78,195.58,100.08,195.58z"/>
		<path class="st26" d="M88.22,194.47L88.22,194.47l0.01-3.8l-18.17,1.72l0.04,2.91c-0.05,0.23-0.05,0.46,0.01,0.68l0,0.01l0,0
			c0.09,0.34,0.31,0.65,0.67,0.84c1.18,0.64,3.31,1.26,7.18,1.26C85.11,198.1,88.43,196.51,88.22,194.47z"/>
		<g>
			<g>
				<g>
					<path class="st48" d="M70.83,190.91c-0.99,0.51-1.02,1.93-0.04,2.47c1.18,0.64,3.31,1.26,7.18,1.26
						c7.79,0,11.05-1.89,10.12-4.19C87.26,188.39,75.81,188.34,70.83,190.91z"/>
				</g>
			</g>
		</g>
		<path class="st42" d="M58.84,206.93c0,0,7.56-4.68,16.42-6.04c8.86-1.36,17.92,1.35,16.17,3.88c-1.74,2.52-6.88,2.71-5.77,3.82
			c1.11,1.11,4.51,4.86-0.29,7.65c-4.8,2.78-10.28,3.35-13.99-2.25C67.67,208.39,62.57,206.25,58.84,206.93z"/>
		<path class="st44" d="M85.14,209.76c0,2.86-3.14,5.18-7.02,5.18c-3.88,0-7.02-2.32-7.02-5.18c0-2.86,3.14-5.18,7.02-5.18
			C81.99,204.58,85.14,206.9,85.14,209.76z"/>
		<path class="st49" d="M88.29,204.59c0,0.97-0.79,1.76-1.76,1.76c-0.97,0-1.76-0.79-1.76-1.76c0-0.97,0.79-1.76,1.76-1.76
			C87.5,202.82,88.29,203.61,88.29,204.59z"/>
		<path class="st46" d="M81.4,211.78c0,0.97-0.89,1.76-1.99,1.76s-1.99-0.79-1.99-1.76c0-0.97,0.89-1.76,1.99-1.76
			S81.4,210.81,81.4,211.78z"/>
		<path class="st46" d="M78.73,208.25c0,0.97-0.89,1.76-1.99,1.76s-1.99-0.79-1.99-1.76c0-0.97,0.89-1.76,1.99-1.76
			S78.73,207.28,78.73,208.25z"/>
		<path class="st46" d="M81.84,253.2c-0.01,0-0.02,0-0.04,0c-0.14-0.02-0.23-0.15-0.21-0.28c1.32-9.1,1.68-17.39-0.6-30.57
			c-0.02-0.14,0.07-0.27,0.2-0.29c0.14-0.03,0.27,0.07,0.29,0.2c2.3,13.25,1.94,21.58,0.61,30.72
			C82.07,253.11,81.96,253.2,81.84,253.2z"/>
	</g>
	<g>
		<g>
			<path class="st50" d="M398.2,128.62c0,0,6.71-10.54,17.51-8.58c10.8,1.96,7.56,32.74-17.51,33.97v-7.09c0,0,9.76,3.47,16.1-6.3
				c8.26-12.74,0.87-30.2-15.52-4.33L398.2,128.62z"/>
			<ellipse class="st38" cx="359.85" cy="165.74" rx="34.42" ry="3.35"/>
			<path class="st50" d="M374.01,118.51h-27.26l2.67,36.3c0.53,7.25,6.57,12.86,13.84,12.86h10.75h10.75
				c7.27,0,13.31-5.61,13.84-12.86l2.67-36.3H374.01z"/>
			<path class="st51" d="M401.27,118.51l-0.39,5.41l-0.08,1.13c-2.06,1.83-13.3,3.22-26.86,3.22c-13.26,0-24.29-1.34-26.7-3.11
				l-0.1-1.36l-0.38-5.3H401.27z"/>
			<path class="st38" d="M387.51,118.51l-2.67,36.3c-0.53,7.25-6.57,12.86-13.84,12.86h3.01h10.75c7.27,0,13.31-5.61,13.84-12.86
				l2.67-36.3H387.51z"/>
			<path class="st50" d="M401.13,118.51c0,2.12-12.17,3.83-27.19,3.83s-27.19-1.72-27.19-3.83c0-2.12,12.17-3.83,27.19-3.83
				S401.13,116.39,401.13,118.51z"/>
			<path class="st52" d="M373.94,122.34c9.84,0,18.46-0.74,23.23-1.84c-4.62-1.19-13.57-1.99-23.85-1.99
				c-9.84,0-18.46,0.74-23.23,1.84C354.7,121.54,363.65,122.34,373.94,122.34z"/>
		</g>
		<path class="st53" d="M364.91,118.11c-1.22-0.02-2.38-0.21-3.55-0.47c-1.17-0.25-2.31-0.62-3.45-1.08
			c-2.25-0.91-4.44-2.23-6.29-4.11c-0.93-0.93-1.76-2.01-2.44-3.21c-0.67-1.21-1.16-2.53-1.47-3.89c-0.6-2.73-0.34-5.59,0.39-8.01
			c0.6-2.48,1.74-4.8,3.01-6.97c1.31-2.15,2.89-4.04,4.5-5.81c3.23-3.49,6.77-6.3,9.24-9.51c1.26-1.59,2.19-3.27,2.71-5.09
			l0.22-0.68c0.07-0.23,0.11-0.49,0.16-0.74c0.09-0.5,0.24-1,0.28-1.49c0.05-0.49,0.13-0.99,0.17-1.48l0.02-1.44
			c-0.07-1.9-0.61-3.61-1.66-4.93c-1.03-1.34-2.68-2.26-4.56-2.79c-0.47-0.13-0.97-0.21-1.46-0.32c-0.51-0.05-1.01-0.13-1.52-0.17
			c-0.5-0.01-1.07-0.08-1.53-0.04l-0.7,0.04c-0.24,0-0.47,0.03-0.69,0.09c-1.79,0.33-3.5,1.32-4.47,2.95l-0.36,0.61l-0.26,0.66
			c-0.11,0.22-0.17,0.45-0.22,0.68l-0.17,0.71c-0.08,0.96-0.13,1.98,0.17,2.94c0.48,1.96,1.76,3.77,3.49,5.11
			c0.21,0.16,0.24,0.45,0.09,0.66c-0.14,0.19-0.4,0.24-0.6,0.13l0,0c-2.06-1.11-3.88-2.94-4.78-5.3c-0.51-1.16-0.65-2.45-0.67-3.73
			c0.1-1.28,0.32-2.6,0.96-3.77c1.11-2.42,3.47-4.21,6.03-4.94c0.64-0.25,1.3-0.26,1.96-0.38c0.66-0.09,1.23-0.07,1.86-0.1
			c0.61-0.01,1.24,0.04,1.86,0.06c0.62,0.08,1.25,0.13,1.88,0.26c0.63,0.15,1.26,0.25,1.88,0.48l0.94,0.32l0.92,0.43
			c0.62,0.26,1.18,0.69,1.77,1.06c0.54,0.44,1.1,0.88,1.56,1.42c1.92,2.11,2.89,4.9,3.12,7.5c0.04,0.65,0.06,1.29,0.08,1.94
			c-0.01,0.64-0.06,1.26-0.1,1.9c-0.03,0.64-0.16,1.23-0.24,1.85c-0.05,0.31-0.08,0.61-0.15,0.93l-0.25,0.95
			c-0.29,1.29-0.83,2.49-1.36,3.68l-0.94,1.68c-0.32,0.56-0.7,1.04-1.05,1.57c-1.46,2.02-3.1,3.8-4.7,5.44
			c-1.59,1.65-3.19,3.19-4.63,4.77c-1.41,1.59-2.72,3.2-3.74,4.93c-0.97,1.74-1.85,3.52-2.28,5.46c-1.09,3.77-0.69,7.17,1.54,10.31
			c2.2,3.13,5.84,5.74,9.72,7.99l0.02,0.01c0.23,0.13,0.31,0.43,0.17,0.66C365.24,118.03,365.08,118.11,364.91,118.11z"/>
		<path class="st53" d="M375.76,109.8c0.57-0.87,0.95-1.96,1.07-3.01c0.15-1.06,0.07-2.12-0.13-3.17c-0.25-1.04-0.59-2.06-1.04-3.05
			c-0.21-0.5-0.51-0.97-0.76-1.46l-0.86-1.57c-2.27-4.24-4.34-8.75-4.91-13.94c-0.05-0.65-0.12-1.3-0.07-1.98
			c0.02-0.34,0.02-0.67,0.05-1.01l0.17-1.02c0.07-0.68,0.38-1.36,0.58-2.02c0.14-0.33,0.32-0.64,0.49-0.96
			c0.17-0.32,0.33-0.64,0.57-0.91l0.67-0.85c0.23-0.27,0.52-0.48,0.79-0.72c0.53-0.49,1.12-0.84,1.72-1.18
			c1.22-0.63,2.66-1.2,4.29-0.95c1.63,0.21,3.04,1.36,3.71,2.65c0.71,1.3,0.91,2.69,0.88,4.01c-0.14,2.64-1.2,5.04-2.69,6.99
			c-0.16,0.21-0.45,0.24-0.66,0.09c-0.18-0.14-0.23-0.39-0.13-0.59c1.05-2.06,1.61-4.32,1.47-6.44c-0.12-1.04-0.41-2.04-0.92-2.8
			c-0.52-0.76-1.23-1.15-1.99-1.19c-1.55-0.1-3.54,1.34-4.54,2.81c-1.08,1.53-1.18,3.64-0.98,5.74c0.23,2.13,0.91,4.31,1.69,6.44
			c0.78,2.15,1.74,4.27,2.69,6.41l0.74,1.61c0.23,0.6,0.5,1.18,0.69,1.8c0.42,1.22,0.69,2.51,0.77,3.82
			c0.13,2.62-0.66,5.42-2.74,7.14c-0.2,0.16-0.49,0.14-0.66-0.06c-0.13-0.16-0.14-0.39-0.03-0.55L375.76,109.8z"/>
		<path class="st53" d="M385.02,110.4c2.43-3.03,4.14-6.37,5.33-9.71c1.17-3.37,1.7-6.85,1.82-10.37l0.05-1.32l-0.06-1.33
			l-0.04-1.33c-0.01-0.44-0.08-0.87-0.11-1.3c-0.19-1.73-0.55-3.45-1.05-5.16c-0.97-3.43-2.54-6.78-4.27-10.22
			c-0.87-1.72-1.78-3.46-2.65-5.3c-0.88-1.83-1.72-3.77-2.31-5.94c-0.6-2.13-0.89-4.66-0.29-7.12c0.26-1.23,0.8-2.37,1.4-3.42
			c0.66-1.02,1.34-1.91,2.22-2.75c0.87-0.83,1.91-1.61,3.21-2.09c1.28-0.49,2.84-0.58,4.18-0.15c1.34,0.42,2.4,1.24,3.22,2.14
			c0.82,0.9,1.4,1.91,1.84,2.95c1.72,4.14,0.96,9.03-1.84,12.11c-0.17,0.19-0.47,0.21-0.67,0.03c-0.17-0.15-0.2-0.39-0.09-0.58
			c1.85-3.3,1.57-7.32-0.16-10.21c-0.83-1.44-2.17-2.51-3.29-2.67c-0.56-0.09-1.05,0.02-1.57,0.29c-0.51,0.27-1.03,0.74-1.51,1.32
			c-0.48,0.57-0.92,1.32-1.24,1.98c-0.29,0.69-0.56,1.36-0.62,2.07c-0.09,0.7-0.09,1.41,0.03,2.16c0.1,0.74,0.31,1.52,0.59,2.3
			c1.13,3.17,3.23,6.45,5.14,9.91c1.95,3.46,3.83,7.19,5.1,11.27c0.62,2.04,1.08,4.16,1.34,6.32c0.14,1.09,0.19,2.16,0.19,3.22
			l0.03,1.6c-0.03,0.54-0.06,1.07-0.11,1.61c-0.33,4.28-1.58,8.58-3.87,12.24c-2.29,3.64-5.47,6.71-9.42,8.26
			c-0.24,0.1-0.52-0.02-0.62-0.27c-0.06-0.16-0.03-0.34,0.07-0.47L385.02,110.4z"/>
	</g>
	<g>
		<path class="st54" d="M407.33,200.81l-0.41-0.34c-1.29-1.04-3.17-0.85-4.21,0.44l-1.52,1.87l5.07,4.11l1.52-1.87
			C408.81,203.74,408.61,201.86,407.33,200.81z"/>
		<path class="st12" d="M371.39,249.62c-3.53,3.56-5.7,4.04-7.86,4.72c0.23-2.25,0.25-4.48,3-8.66c11.59-14.29,22.41-29.21,34-43.51
			c1.47-0.86,3.45-0.57,4.87,0.55c1.39,1.16,2.07,3.04,1.54,4.65C395.35,221.66,382.98,235.32,371.39,249.62z"/>
		<path class="st39" d="M402.51,202.85c-11.59,14.29-22.41,29.21-34,43.51c-2.2,3.34-2.66,5.43-2.87,7.29
			c-0.74,0.28-1.43,0.48-2.11,0.7c0.23-2.25,0.25-4.48,3-8.66c11.59-14.29,22.41-29.21,34-43.51c1.3-0.76,3.01-0.62,4.37,0.2
			C404.07,202.29,403.23,202.43,402.51,202.85z"/>
		<path class="st3" d="M388.9,227.59c2.21-3.61,5.34-8.1,9.66-12.8c0.39-0.43,3.21-3.49,3.35-3.37
			C402.05,211.54,399.56,214.8,388.9,227.59z"/>
		<path class="st3" d="M402.46,210.38c0.43-1.03,1.18-2.34,2.49-3.42c0.17-0.14,0.86-0.71,0.94-0.63
			C406.01,206.46,404.72,207.95,402.46,210.38z"/>
		<path class="st13" d="M381.65,232.11l-0.1-0.08c-0.31-0.26-0.78-0.21-1.03,0.11l-9.65,11.9c-0.26,0.31-0.21,0.78,0.11,1.03
			l0.1,0.08c0.31,0.26,0.78,0.21,1.03-0.11l9.65-11.9C382.01,232.83,381.97,232.36,381.65,232.11z"/>
	</g>
</g>
</svg>
