<?xml version="1.0" encoding="UTF-8"?><svg xmlns="http://www.w3.org/2000/svg" viewBox="0 0 251.94 174.39"><defs><style>.cls-1,.cls-2{fill:#14b900;}.cls-3{fill:#aaa;}.cls-3,.cls-4,.cls-5,.cls-6,.cls-7,.cls-8,.cls-9,.cls-2,.cls-10,.cls-11,.cls-12,.cls-13,.cls-14,.cls-15,.cls-16,.cls-17{stroke:#000;stroke-miterlimit:10;}.cls-3,.cls-4,.cls-7,.cls-8,.cls-2,.cls-14,.cls-15,.cls-17{stroke-width:.5px;}.cls-5,.cls-10,.cls-17{fill:none;}.cls-6{stroke-width:.4px;}.cls-7{fill:#f7931e;}.cls-8,.cls-18{fill:#008da2;}.cls-9{fill:#eaeaea;}.cls-10{stroke-width:3px;}.cls-11{fill:#a50000;}.cls-12{fill:#ffa300;}.cls-13{fill:#ffce00;}.cls-14{fill:#ffebab;}.cls-15{fill:#750000;}.cls-16{fill:#fbb03b;}</style></defs><g id="Book"><path class="cls-16" d="m130.9,129.21c-23.72.22-47.44.44-71.17.65,18.17-22.88,36.34-45.76,54.51-68.63,21.94-1.52,43.88-3.04,65.82-4.56-16.39,24.18-32.77,48.36-49.16,72.54Z"/><path class="cls-16" d="m125.79,115.72l-65.33.22c17.89-23.69,35.77-47.37,53.66-71.06,21.56-1.74,43.12-3.48,64.68-5.22-17.67,25.35-35.34,50.71-53,76.06Z"/><path class="cls-9" d="m61.89,116.38c.03.38.49,2.83.49,2.83l-.49,1.63.49,1.85-.49,2.45s-.73.79-.6.92c.14.14.54.38.54.38l-1.37,1.74c1.55.03,3.09.06,4.64.09,3.35-.1,8.88-.27,15.73-.44,0,0,13.14-.32,47.78-.8l47.71-69.68s1.16-5.08.73-4.35-.73-1.45-.73-1.45c.29-1.6.82-2.47.82-2.47,0,0,.75-1.38,0-1.6l-.75-.22s1.22-.87,1.08-1.96l-.14-1.09.15-1.67c-17.24,24.39-34.47,48.77-51.71,73.16-21.3.22-42.6.44-63.9.65Z"/><polyline class="cls-5" points="62.38 119.2 100.55 119.2 114.91 119.2"/><path class="cls-5" d="m116.54,121.71c-5.66.22-11.31.44-16.97.65-12.4.11-24.8.22-37.2.33"/><path class="cls-5" d="m176.4,47.28c-17.8,25.91-26.17,37.84-30.49,43.87-1.2,1.68-5.71,7.96-11.6,16.53-2.35,3.42-4.24,6.21-5.4,7.94"/><path class="cls-5" d="m125.79,115.72v2.45s.65,1.25.87,1.41-.57,1.25-.44,1.52,0,.6.47.82.75.68.94,1.14,0,1.14,0,1.85.16,1.17.54,1.31l.38.14"/><polyline class="cls-5" points="177.05 53 144.93 98.76 130.03 120.51"/><path class="cls-5" d="m61.29,126.06c6.23-.3,12.53-.56,18.92-.76,11.6-.37,22.95-.54,34.04-.54"/><path class="cls-10" d="m109.07,58.65c-3.55-2.58-7.45-3.12-9.61-1.45-.57.44-1.67,1.53-1.81,3.19-.2,2.35,1.68,3.95,1.89,4.11"/><path class="cls-10" d="m102.74,66.91c-3.55-2.58-7.45-3.12-9.61-1.45-.57.44-1.67,1.53-1.81,3.19-.2,2.35,1.68,3.95,1.89,4.11"/><path class="cls-10" d="m96.99,74.72c-3.55-2.58-7.45-3.12-9.61-1.45-.57.44-1.67,1.53-1.81,3.19-.2,2.35,1.68,3.95,1.89,4.11"/><path class="cls-10" d="m90.55,82.98c-3.55-2.58-7.45-3.12-9.61-1.45-.57.44-1.67,1.53-1.81,3.19-.2,2.35,1.68,3.95,1.89,4.11"/><path class="cls-10" d="m84.59,91.24c-3.55-2.58-7.45-3.12-9.61-1.45-.57.44-1.67,1.53-1.81,3.19-.2,2.35,1.68,3.95,1.89,4.11"/><path class="cls-10" d="m79.12,98.12c-3.55-2.58-7.45-3.12-9.61-1.45-.57.44-1.67,1.53-1.81,3.19-.2,2.35,1.68,3.95,1.89,4.11"/><path class="cls-10" d="m73.4,105.01c-3.55-2.58-7.45-3.12-9.61-1.45-.57.44-1.67,1.53-1.81,3.19-.2,2.35,1.68,3.95,1.89,4.11"/><path class="cls-10" d="m114.73,50.81c-3.55-2.58-7.45-3.12-9.61-1.45-.57.44-1.67,1.53-1.81,3.19-.2,2.35,1.68,3.95,1.89,4.11"/><path d="m121.84,50.88c-.62-1.64-2.72-1.43-3.97-.73-1.14.64-3.21,2.28-2.43,3.79.7,1.36,2.45,1.16,3.65,1.7.17.07.4.18.41.38.02.3-.36.66-.56.85-.48.46-1.09.78-1.72.97-1.53.48-3.43.3-4.73-.7-.32-.25-.75-.31-1.06,0-.26.26-.32.81,0,1.06,2.39,1.85,6.04,1.89,8.38-.09.55-.47,1.05-1.1,1.16-1.82.12-.78-.3-1.46-.96-1.85-.6-.35-1.3-.47-1.97-.62-.29-.07-.59-.14-.86-.26-.11-.05-.26-.12-.35-.22s-.08-.06-.04-.17c.13-.37.51-.71.79-.96.32-.3.67-.55,1.04-.76.32-.18.68-.33,1.05-.34.17,0,.34,0,.5.07.05.02.09.04.14.07.07.03.13.17.08.04.14.38.51.64.92.52.36-.1.67-.54.52-.92h0Z"/><path d="m123.44,51.44c-1.39,2.94-2.6,5.96-3.64,9.04-.12.35.11.75.43.88.38.15.7,0,.94-.31,1.18-1.54,2.35-3.1,3.57-4.62,1.03-1.28,2.16-2.5,3.66-3.24.86-.43.11-1.72-.76-1.3-1.6.79-2.85,2.1-3.96,3.47-1.3,1.61-2.54,3.27-3.81,4.92l1.37.58c.99-2.96,2.16-5.86,3.49-8.68.17-.37.1-.81-.27-1.03-.33-.19-.85-.1-1.03.27h0Z"/><path d="m123.62,57.86c.15.29.3.58.43.87.07.15.13.29.2.44-.06-.14.05.11.06.14.03.07.06.15.09.22.23.6.42,1.21.58,1.84.1.38.54.65.92.52s.63-.51.52-.92c-.34-1.34-.85-2.64-1.5-3.87-.18-.35-.7-.48-1.03-.27-.35.23-.47.65-.27,1.03h0Z"/><path d="m132.51,50.34c-1.81,3.03-3.34,6.21-4.58,9.51-.21.56.41,1.04.92.92,2.06-.49,4.12-.99,6.18-1.48.94-.22.54-1.67-.4-1.45-2.06.49-4.12.99-6.18,1.48l.92.92c1.2-3.18,2.69-6.24,4.43-9.15.5-.83-.8-1.59-1.3-.76h0Z"/><path d="m131.71,56.03l4.94-1.41c.39-.11.63-.53.52-.92s-.53-.64-.92-.52l-4.94,1.41c-.39.11-.63.53-.52.92s.53.64.92.52h0Z"/><path d="m133.61,51.87c1.66-.55,3.35-1,5.06-1.34.4-.08.63-.55.52-.92-.11-.41-.52-.6-.92-.52-1.71.35-3.4.8-5.06,1.34-.38.13-.64.52-.52.92.1.38.54.65.92.52h0Z"/><path d="m138.47,52.02c2.03.01,4.07-.07,6.09-.25.4-.04.75-.32.75-.75,0-.38-.34-.79-.75-.75-2.03.18-4.06.26-6.09.25-.97,0-.97,1.49,0,1.5h0Z"/><path d="m140.23,51.47c-1.11,1-1.46,2.54-1.89,3.9-.51,1.64-1.03,3.27-1.54,4.91-.29.92,1.16,1.32,1.45.4.48-1.53.96-3.06,1.44-4.59.38-1.2.63-2.68,1.61-3.56.72-.65-.34-1.7-1.06-1.06h0Z"/><path d="m151.39,51.19c-1.2-.87-2.96-.65-4.17.08-1.34.8-2.36,2.19-3.15,3.5-.42.69-.76,1.42-1.05,2.17s-.66,1.7.22,2.24c1.29.79,3.13.68,4.52.29,1.75-.49,3.19-1.6,4.59-2.71.32-.25.26-.8,0-1.06-.31-.31-.74-.25-1.06,0-1.1.87-2.26,1.78-3.61,2.23-.63.21-1.28.33-1.95.33-.32,0-.63-.03-.94-.09-.24-.05-.65-.12-.82-.31l.19.33s.14-.4.18-.51c.07-.19.14-.38.22-.57.17-.41.37-.81.59-1.2.45-.8.97-1.55,1.58-2.23.92-1.04,2.55-2.17,3.91-1.18.33.24.84.06,1.03-.27.22-.38.06-.79-.27-1.03h0Z"/><path d="m154.43,50.01c-2.09,3.17-2.76,7.04-4.86,10.2-.54.81.76,1.56,1.3.76,2.1-3.16,2.77-7.03,4.86-10.2.53-.81-.77-1.56-1.3-.76h0Z"/><path d="m151.89,57.71l6.38-.58c.4-.04.75-.32.75-.75,0-.38-.34-.79-.75-.75l-6.38.58c-.4.04-.75.32-.75.75,0,.38.34.79.75.75h0Z"/><path d="m160.53,51.11c-1.78,3.52-3.42,7.2-5.81,10.36-.25.33-.05.84.27,1.03.38.23.78.05,1.03-.27,2.39-3.16,4.03-6.84,5.81-10.36.43-.86-.86-1.62-1.3-.76h0Z"/><path d="m117.04,94.14l-1.85,5.47c-.13.38.15.82.52.92.41.11.79-.14.92-.52l1.85-5.47c.13-.38-.15-.82-.52-.92-.41-.11-.79.14-.92.52h0Z"/><path d="m121.99,94c-.38,1.8-1.04,3.47-1.99,5.04-.21.35-.08.82.27,1.03s.82.08,1.03-.27c1.01-1.66,1.74-3.5,2.14-5.4.08-.4-.12-.81-.52-.92-.37-.1-.84.13-.92.52h0Z"/><path d="m113.15,103.24c.59,1.71,2.24,2.68,3.99,2.81,1.98.14,3.84-.93,5.37-2.06.33-.24.49-.65.27-1.03-.19-.32-.7-.51-1.03-.27-1.24.91-2.68,1.86-4.27,1.87-1.15,0-2.49-.56-2.89-1.72-.31-.91-1.76-.52-1.45.4h0Z"/><path d="m127.94,91.69c-2.72-3.28-7.21-4.1-11.02-2.35-4.13,1.9-6.49,6-7.9,10.14-.64,1.87-1.38,4.08-.57,6.01s3.11,2.74,5.05,3.06c2.26.37,4.81.4,7.08.06s3.93-1.81,5.36-3.55c3.02-3.68,5.99-8.91,3-13.51-.52-.81-1.82-.06-1.3.76,2.21,3.41.44,7.43-1.72,10.36-1.11,1.51-2.4,3.28-4.16,4.07s-3.86.58-5.66.53-4.3-.2-5.71-1.56-.68-3.49-.18-5.04c1.11-3.51,2.82-7.1,5.98-9.2,3.49-2.31,7.95-2.03,10.7,1.28.62.74,1.67-.32,1.06-1.06h0Z"/></g><g id="stationery"><path class="cls-7" d="m131.82,135.22s22.85-21.17,23.17-21.26c1.56-.42,2.63.56,2.63.56,1.89,1.28,1.83,4.27,1.79,5.14l-21.88,21.78-7.94,1.23c.34-1.13.68-2.26,1.02-3.38.41-1.35.81-2.71,1.22-4.06Z"/><path class="cls-17" d="m130.66,139.61c.27.11.83.37,1.31.96.43.53.58,1.07.64,1.35"/><path class="cls-7" d="m131.92,135.5c.91.41,2.49,1.26,3.86,2.93.92,1.12,1.44,2.22,1.74,3.02"/><path class="cls-6" d="m140.92,134.21c-.08.2-.3.53-.66.86-.84.77-1.96.81-2.85-.17s-.79-2.15.13-2.99c.37-.34.68-.47.83-.51l.19.4c-.21.06-.47.2-.72.42-.7.64-.76,1.51-.05,2.29.67.73,1.51.82,2.24.16.24-.21.43-.48.52-.7l.36.23Z"/><path class="cls-6" d="m138.81,130.91c.16-.22.42-.49.68-.74.41-.38.75-.54,1.09-.54.27,0,.54.12.75.35.36.4.35.88.13,1.28h.01c.3-.12.63-.03.99.22.48.33.81.55.98.61l-.4.36c-.13-.04-.43-.24-.85-.53-.46-.33-.76-.34-1.13-.04l-.36.33,1.18,1.3-.39.35-2.68-2.95Zm1.62,1.01l.39-.36c.41-.38.47-.84.16-1.18-.35-.39-.78-.3-1.2.07-.19.17-.3.31-.35.38l.99,1.09Z"/><path class="cls-6" d="m143.53,130.29l.54,1.22-.4.36-1.7-3.91.47-.42,3.74,2.06-.41.38-1.17-.65-1.06.96Zm.71-1.19l-1.07-.59c-.24-.14-.45-.27-.65-.4h0c.12.23.23.45.34.69l.49,1.13.9-.82Z"/><path class="cls-6" d="m146.94,128.92l-1.15-1.27-2.51-.86.44-.4,1.17.44c.32.12.58.22.86.35h0c-.09-.28-.17-.57-.26-.9l-.32-1.22.44-.4.56,2.63,1.16,1.27-.39.35Z"/><path class="cls-6" d="m149.68,123.63c.94,1.03.81,2.14.04,2.84s-1.9.61-2.72-.3c-.86-.95-.84-2.11-.04-2.83s1.91-.6,2.72.29Zm-2.28,2.16c.58.64,1.45.9,2.06.34s.45-1.44-.17-2.11c-.54-.59-1.42-.93-2.06-.35s-.42,1.46.17,2.12Z"/><path class="cls-6" d="m151.57,124.7l-2.72-2.99.42-.38,2.33.64c.54.15,1,.31,1.42.48h0c-.4-.38-.74-.74-1.16-1.2l-1.14-1.25.36-.33,2.72,2.99-.39.36-2.33-.65c-.51-.14-1.02-.3-1.47-.49v.02c.36.36.69.71,1.14,1.21l1.16,1.28-.36.33Z"/><path d="m153.1,116.62c.52.34.86.6,1.31.99.23.21.45.42.66.66s.29.35.48.63c.26.39.48.81.67,1.24.04.1.03.07,0-.01.02.04.04.09.05.13.03.07.06.15.09.22.09.22.17.44.24.67.13.38.52.64.92.52.38-.1.65-.54.52-.92-.31-.93-.69-1.86-1.24-2.67-.76-1.13-1.81-2-2.94-2.75-.34-.22-.83-.07-1.03.27-.21.37-.07.8.27,1.03h0Z"/><path class="cls-8" d="m195.58,64.25s-14.42-27.61-14.42-27.94c0-1.61,1.23-2.39,1.23-2.39,1.73-1.48,4.6-.64,5.43-.37l15.26,26.84-.9,7.98c-1-.62-2-1.25-3-1.87-1.2-.75-2.4-1.5-3.6-2.25Z"/><path class="cls-8" d="m199.51,66.52c.17-.23.57-.7,1.27-1.01.63-.27,1.19-.28,1.47-.26"/><path class="cls-8" d="m195.87,64.23c.63-.77,1.87-2.07,3.84-2.96,1.32-.59,2.52-.81,3.37-.88"/><path class="cls-6" d="m196.99,55.2c.17.13.43.43.66.86.52,1.02.27,2.11-.91,2.71s-2.28.2-2.85-.92c-.23-.45-.28-.78-.28-.94l.44-.08c0,.22.07.5.22.8.43.84,1.26,1.13,2.2.65.88-.45,1.19-1.25.74-2.12-.14-.28-.35-.54-.54-.68l.32-.28Z"/><path class="cls-6" d="m193.26,56.37c-.17-.21-.37-.53-.53-.85-.25-.5-.33-.86-.24-1.19.07-.26.26-.49.54-.63.48-.24.94-.1,1.27.21h.02c-.05-.33.13-.63.46-.91.44-.37.75-.64.85-.78l.24.48c-.07.11-.34.35-.74.68-.44.36-.53.65-.33,1.08l.22.44,1.56-.8.24.46-3.55,1.81Zm1.4-1.3l-.24-.47c-.25-.5-.69-.67-1.1-.46-.46.24-.5.68-.25,1.17.11.22.22.37.28.44l1.31-.67Z"/><path class="cls-6" d="m193.9,51.65l1.32-.2.24.48-4.22.61-.29-.56,2.97-3.07.25.5-.94.96.65,1.28Zm-.97-1l-.86.88c-.19.2-.38.36-.56.52h0c.24-.04.49-.1.74-.14l1.22-.18-.55-1.08Z"/><path class="cls-6" d="m193.47,48.01l-1.53.78-1.49,2.2-.27-.53.74-1.01c.2-.28.37-.5.56-.74h0c-.29,0-.58,0-.93,0h-1.26s-.27-.54-.27-.54l2.68.15,1.53-.78.24.47Z"/><path class="cls-6" d="m189.1,43.97c1.24-.63,2.28-.21,2.75.7s.09,2-1,2.55c-1.14.58-2.25.25-2.74-.71s-.07-2,1-2.55Zm1.48,2.76c.77-.39,1.25-1.16.87-1.89s-1.27-.81-2.09-.39c-.72.36-1.27,1.12-.88,1.89s1.3.79,2.09.39Z"/><path class="cls-6" d="m190.63,42.42l-3.6,1.84-.26-.51,1.23-2.08c.29-.48.56-.88.84-1.24h-.01c-.46.28-.89.51-1.45.8l-1.51.77-.22-.44,3.6-1.84.24.47-1.24,2.07c-.27.45-.56.91-.86,1.29h.01c.44-.24.87-.48,1.47-.78l1.54-.78.22.44Z"/><path class="cls-18" d="m182.7,38.29c.59-.53,1.12-.9,1.5-1.15,1.53-1,3.04-1.12,3.73-1.2.24-.03.44-.04.58-.05"/><path d="m183.23,38.82c.82-.72,1.74-1.39,2.79-1.74.46-.15.93-.25,1.41-.33.12-.02-.12.01,0,0,.05,0,.1-.01.15-.02.08,0,.16-.02.24-.03.23-.02.46-.05.69-.06.4-.02.75-.33.75-.75,0-.39-.34-.77-.75-.75-1,.06-2.02.19-2.97.52-1.27.44-2.36,1.21-3.37,2.1-.3.27-.27.79,0,1.06.3.3.76.27,1.06,0h0Z"/><path class="cls-8" d="m107.29,70.39s-20.52,23.12-22.71,26.38c0,0-1.64,8.83-1.43,8.82.21,0,8.37-1.06,8.37-1.06,7.29-9.23,14.58-18.47,21.87-27.7.07-.09,1.8-2.31.82-4.82-.12-.31-.7-1.71-2.17-2.41-1.52-.73-3.38-.41-4.75.8Z"/><path class="cls-15" d="m104.8,73.36s1.57-.53,3.34.14c.99.38,2.02,1.21,2.66,2.15.09.13.16.24.2.31.62,1.03.8,2,.86,2.54.69-.85,1.37-1.71,2.06-2.56.14-.25,1.04-1.98.29-3.94-.18-.46-.67-1.51-1.76-2.18-1.56-.96-3.21-.46-3.79-.28-2.61.79-3.67,3.36-3.85,3.82Z"/><path class="cls-3" d="m111.97,78.37c-.12-.65-.41-1.7-1.17-2.72-.21-.27-1.68-2.18-4.14-2.4-.93-.08-1.68.1-2.14.26l-1.66,1.89c.44.05,1.08.15,1.81.35.95.26,2.48.71,3.86,1.98.58.54.92,1.02,1.02,1.18.44.66.68,1.27.81,1.7.54-.75,1.08-1.5,1.62-2.24Z"/><path class="cls-14" d="m91.78,104.4c-.35-.94-.73-1.67-1.02-2.15-1.65-2.82-3.82-4.16-4.67-4.68-.65-.39-1.19-.64-1.56-.78l-1.39,8.8,8.64-1.19Z"/><line class="cls-8" x1="86.72" y1="98.27" x2="105.13" y2="75.75"/><line class="cls-8" x1="88.96" y1="99.83" x2="107.53" y2="76.98"/><line class="cls-8" x1="90.93" y1="102.47" x2="109.55" y2="78.91"/><path class="cls-17" d="m104.07,74.24c.43.05,1.06.15,1.79.36.94.27,2.46.72,3.82,2,.58.54.91,1.02,1.02,1.18.44.66.67,1.27.81,1.7"/><path class="cls-4" d="m85.89,105.26c.07-.38.02-.66-.03-.82-.27-1.03-1.36-1.45-1.52-1.52-.28-.11-.51-.15-.66-.16-.18.94-.36,1.89-.54,2.83l2.75-.34Z"/><path class="cls-2" d="m125.49,140.68s28.56-12.43,28.89-12.41c1.61.12,2.29,1.4,2.3,1.4,1.36,1.83.32,4.63-.01,5.44l-27.85,13.32-7.9-1.46c.69-.95,1.39-1.91,2.08-2.86.83-1.14,1.66-2.29,2.49-3.43Z"/><path class="cls-2" d="m122.94,144.43c.22.19.66.62.92,1.33.23.64.19,1.2.16,1.49"/><path class="cls-2" d="m125.49,140.97c.72.68,1.93,2.01,2.68,4.04.5,1.36.63,2.57.64,3.42"/><path class="cls-6" d="m134.41,142.72c-.14.16-.46.4-.91.59-1.05.44-2.12.12-2.64-1.1s-.04-2.29,1.12-2.78c.46-.2.8-.22.95-.21l.05.44c-.22-.01-.51.03-.82.16-.87.37-1.22,1.17-.8,2.15.39.91,1.16,1.27,2.06.89.29-.12.57-.31.72-.49l.26.34Z"/><path class="cls-6" d="m133.51,138.92c.22-.15.56-.33.89-.47.51-.22.88-.26,1.21-.15.26.09.47.3.59.58.21.49.04.95-.3,1.25v.02c.34-.02.62.17.87.52.34.47.58.79.72.9l-.5.21c-.11-.08-.32-.36-.63-.78-.33-.47-.61-.58-1.05-.41l-.45.19.68,1.61-.48.2-1.56-3.67Zm1.2,1.49l.49-.21c.51-.22.72-.64.54-1.06-.2-.48-.64-.54-1.15-.33-.23.1-.39.19-.46.25l.58,1.36Z"/><path class="cls-6" d="m138.17,139.89l.11,1.33-.5.21-.31-4.26.58-.25,2.85,3.18-.51.22-.89-1-1.32.56Zm1.06-.89l-.82-.92c-.19-.21-.34-.41-.48-.6h-.01c.04.25.07.5.1.76l.09,1.23,1.12-.47Z"/><path class="cls-6" d="m141.84,139.72l-.67-1.58-2.08-1.64.55-.23.96.81c.26.22.47.4.7.61h.01c0-.29.03-.59.05-.93l.1-1.25.55-.23-.34,2.67.67,1.58-.49.21Z"/><path class="cls-6" d="m146.18,135.64c.54,1.28.05,2.29-.9,2.69s-2-.05-2.47-1.18c-.5-1.18-.09-2.27.9-2.69s2,.07,2.47,1.17Zm-2.86,1.28c.34.8,1.07,1.33,1.83,1s.9-1.21.54-2.05c-.31-.74-1.03-1.35-1.83-1.01s-.88,1.24-.54,2.06Z"/><path class="cls-6" d="m147.61,137.27l-1.58-3.72.52-.22,1.99,1.38c.46.32.84.62,1.18.93h0c-.25-.49-.46-.94-.7-1.52l-.66-1.56.45-.19,1.58,3.72-.49.21-1.98-1.39c-.43-.3-.86-.62-1.22-.95h-.01c.23.47.43.91.69,1.53l.67,1.59-.45.19Z"/><path class="cls-1" d="m152.29,129.66c.48.63.82,1.18,1.04,1.57.89,1.6.9,3.11.93,3.81,0,.24,0,.44,0,.58"/><path d="m151.65,130.04c.7.93,1.34,1.92,1.63,3.06.06.24.11.49.15.74,0,.03.02.18.01.08,0,.05.01.1.02.15.01.11.02.21.03.32.03.41.04.82.04,1.23-.01.97,1.49.97,1.5,0s-.05-1.98-.3-2.92c-.33-1.26-1-2.39-1.78-3.42-.24-.32-.65-.49-1.03-.27-.32.19-.52.7-.27,1.03h0Z"/><circle class="cls-11" cx="181.51" cy="101.72" r="2.56"/><polygon class="cls-13" points="192.82 88.56 187.85 90.21 183.94 86.73 184.99 81.6 189.96 79.94 193.88 83.42 192.82 88.56"/><circle class="cls-12" cx="193.91" cy="102.57" r="3.41"/><circle class="cls-13" cx="85.07" cy="36.66" r="5.44"/><circle class="cls-11" cx="99.74" cy="31.08" r="2.94"/><polygon class="cls-12" points="77.11 52.87 75.23 57.08 77.93 60.81 82.51 60.33 84.39 56.13 81.69 52.4 77.11 52.87"/><polygon class="cls-11" points="52.19 139.3 47.22 140.95 43.3 137.47 44.36 132.34 49.33 130.69 53.25 134.17 52.19 139.3"/><circle class="cls-12" cx="55.82" cy="146.18" r="2.56"/></g></svg>