<?xml version="1.0" encoding="UTF-8"?><svg xmlns="http://www.w3.org/2000/svg" viewBox="0 0 233.55 164.95"><defs><style>.cls-1{fill:#6d3211;}.cls-1,.cls-2,.cls-3,.cls-4,.cls-5{stroke:#000;stroke-miterlimit:10;}.cls-2{fill:#ccc;}.cls-3{fill:#42210b;}.cls-6{fill:#a59989;}.cls-4{fill:#1b1464;}.cls-5{fill:#ffedcf;}</style></defs><g id="table"><path class="cls-1" d="m201.81,148.56c-66.91.29-133.82.58-200.73.87,15.19-18.13,30.38-36.27,45.56-54.4,62.02-.72,124.04-1.44,186.06-2.16-10.3,18.56-20.59,37.12-30.89,55.69Z"/><path class="cls-3" d="m1.07,149.43v15.01c66.91-.46,133.82-.92,200.73-1.38v-14.5l-200.73.87Z"/><path class="cls-3" d="m201.81,163.06c10.19-17.89,20.38-35.78,30.57-53.68.11-5.5.22-11.01.32-16.51l-30.89,55.69v14.5Z"/></g><g id="person"><path class="cls-5" d="m122.82,41.27c-.3.74-.99,2.73-.3,5,.76,2.49,2.7,3.77,3.81,4.46,1.25.78,3.14,1.64,7.03,1.98,4.7.41,6.8-.42,8.41-.29,7.3.59,10.21,15.89,12.18,25.02.72,3.31,1.07,4.97,1.16,6.45.38,6.57-3.65,12.1-22.33,32.19-1.76,1.9-3.22,3.45-4.21,4.5-.23.71-.63,1.68-1.38,2.65-2.93,3.77-9.65,5.5-14.03,2.39-2.15-1.53-5.1-5.19-3.59-8.7,1.25-2.91,5.11-4.64,9.03-3.48l2.28-1.96,21.75-25.99c-2.6-7.49-5.2-14.98-7.79-22.48.93,3.62,1.86,7.24,2.79,10.87,1.32,6.86.53,11.41-.51,14.37-.41,1.16-2.05,5.5-1.89,5.56.05.02.24-.28.24-.28,0,0-.05.08-.24.28l-40.68.05c.92-1.38,2.12-3.51,2.83-6.31,1.09-4.28.06-6.96.11-10.88.04-2.87.44-13.05.44-13.05-.78,3.58-1.43,7.65-1.76,12.14-.18,2.45-.25,4.78-.23,6.97-1.54,1.88-2.89,3.22-3.66,3.95,0,0-10.94,9.44-29.69,13.92-1.92.46-3.32.7-5.66,1.52-5.97,2.1-7.27,4.22-9.35,3.59-2.92-.88-5.11-6.48-3.26-10.01,1.69-3.23,6.24-3.69,9.46-4.02,1.91-.2,2.93-.03,4.24,0,8.29.19,15.61-5.3,23.93-11.53,1.86-1.39,3.26-2.72,3.26-2.72,0,0-1.85-12.75,2.03-20.08,1.34-2.53,4.45-6.19,7.76-6.34.65-.03,2.18.03,4.93-.13,1.38-.08,2.09-.12,2.97-.27,2.37-.4,4.12-.7,5-1.89,1.07-1.44.67-3.89-.65-6.14"/><circle class="cls-5" cx="113.36" cy="21.98" r="21.48"/><path class="cls-6" d="m108.19,43.44c.49.76.6,1.66.67,2.54.04.46.09.93,0,1.39-.08.42-.25.82-.46,1.18-.25.42-.55.81-.88,1.17-.09.1.06.24.14.14.59-.66,1.14-1.41,1.36-2.29.12-.48.09-.95.06-1.43s-.08-.93-.17-1.38c-.1-.5-.27-.99-.55-1.43-.07-.11-.24,0-.17.1h0Z"/><path class="cls-6" d="m121.9,42.13c-.71.88-1.45,1.7-2.32,2.43-.8.68-1.68,1.27-2.58,1.81s-1.87,1.01-2.83,1.45c-1.03.47-2.07.91-3.13,1.28-1.25.43-2.54.75-3.87.77-.13,0-.13.2,0,.2,2.34-.03,4.57-.95,6.68-1.88,1.96-.86,3.88-1.87,5.56-3.21.46-.37.9-.76,1.32-1.18.47-.48.9-.99,1.32-1.51.08-.1-.06-.24-.14-.14h0Z"/><path class="cls-6" d="m108.35,43.48c1.77.55,3.64.71,5.49.62s3.75-.42,5.58-.83c.9-.2,1.82-.46,2.58-1.01.1-.07,0-.25-.1-.17-.67.48-1.46.74-2.26.93-.88.21-1.77.38-2.66.53-1.83.31-3.68.47-5.53.32-1.03-.08-2.05-.27-3.04-.58-.12-.04-.18.15-.05.19h0Z"/><path class="cls-6" d="m107.36,50.05l.43-.29s.07-.09.04-.14c-.03-.04-.09-.07-.14-.04l-.43.29s-.07.09-.04.14c.03.04.09.07.14.04h0Z"/><path class="cls-6" d="m107.63,49.92c.16-.03.31-.1.47-.14.17-.04.34-.08.51-.11.33-.06.67-.11.99-.22.12-.04.07-.23-.05-.19-.32.11-.66.16-.99.22-.16.03-.33.06-.49.1s-.32.11-.48.14c-.13.03-.07.22.05.19h0Z"/><path class="cls-6" d="m107.74,49.88c.43.04.86-.03,1.28-.13s.82-.2,1.23-.33c.81-.25,1.6-.57,2.37-.94.12-.06.01-.23-.1-.17-.75.37-1.52.67-2.32.92-.39.12-.79.23-1.18.32-.42.1-.84.17-1.27.13-.13-.01-.13.19,0,.2h0Z"/><path class="cls-6" d="m109,49.76c.11-.08.22-.14.34-.2.03-.01.06-.03.1-.04-.02,0-.09.04,0,0,.07-.03.14-.05.22-.08.25-.09.51-.16.76-.26.58-.23,1.11-.55,1.65-.85,1.08-.59,2.18-1.13,3.29-1.66.63-.3,1.27-.59,1.9-.88.24-.11.32-.47.18-.68-.16-.25-.43-.3-.68-.18-1.12.52-2.25,1.03-3.36,1.58-.55.27-1.09.55-1.63.84s-1.03.6-1.58.85c-.08.04.11-.04-.03.01-.04.01-.08.03-.12.04-.07.02-.13.05-.2.07-.15.05-.3.09-.44.14-.32.11-.64.23-.91.43-.21.15-.33.44-.18.68.14.21.45.34.68.18h0Z"/><path class="cls-6" d="m109.13,49.11c1.04-.37,2.05-.82,3.02-1.36.48-.27.95-.58,1.43-.85s.97-.52,1.47-.74c.07-.03.14-.06.22-.09.09-.04.03-.01.01,0,.04-.02.09-.04.13-.05.14-.06.29-.12.44-.18.29-.12.58-.23.88-.34.24-.09.44-.34.35-.62-.08-.24-.35-.45-.62-.35-1.05.4-2.1.81-3.09,1.35-.49.27-.96.58-1.44.86s-.94.52-1.43.75c-.14.07-.28.13-.42.19-.07.03-.14.06-.21.09-.09.04-.03.01,0,0-.04.02-.09.04-.13.05-.28.12-.57.23-.86.33-.25.09-.44.35-.35.62.08.24.35.44.62.35h0Z"/><path class="cls-6" d="m115.54,44.27c-1.71.8-3.38,1.67-5.04,2.56-.47.25-.94.51-1.41.76-.23.12-.32.46-.18.68.15.23.44.31.68.18,1.66-.9,3.32-1.79,5.01-2.63.48-.24.96-.47,1.45-.7.24-.11.32-.47.18-.68-.16-.24-.43-.3-.68-.18h0Z"/><path class="cls-6" d="m109.49,47.92c.3,0,.56-.12.81-.28.21-.14.42-.28.63-.41.42-.26.85-.51,1.29-.76.88-.49,1.77-.94,2.67-1.4.23-.12.32-.47.18-.68-.15-.24-.43-.31-.68-.18-.87.44-1.74.88-2.59,1.35-.42.23-.84.47-1.25.73-.2.12-.4.25-.6.38-.1.07-.2.14-.3.19-.03.01-.05.03-.08.04.05-.02.05-.02,0,0-.03,0-.05.02-.08.02.06,0,.07-.01,0,0-.26,0-.51.23-.5.5s.22.5.5.5h0Z"/><path class="cls-6" d="m113.39,44.27c-1.31.74-2.63,1.45-3.97,2.13-.23.12-.32.47-.18.68.15.24.43.31.68.18,1.34-.68,2.66-1.39,3.97-2.13.23-.13.32-.46.18-.68s-.44-.32-.68-.18h0Z"/><path class="cls-6" d="m109.7,46.8c.27-.07.51-.22.75-.36s.5-.3.75-.45c.49-.3.98-.6,1.47-.89.22-.14.33-.45.18-.68s-.44-.32-.68-.18c-.48.29-.95.58-1.43.87-.23.14-.47.29-.7.43-.11.06-.21.13-.32.19-.06.03-.12.06-.17.09-.06.03.07-.02,0,0-.03,0-.07.02-.1.03-.25.07-.43.36-.35.62s.34.42.62.35h0Z"/><path class="cls-6" d="m109.64,46.09c.34-.09.65-.28.94-.48s.61-.41.91-.62c.22-.15.33-.45.18-.68-.14-.21-.45-.34-.68-.18-.3.2-.59.4-.89.6-.13.09-.25.17-.38.25-.03.02-.07.04-.1.06-.03.02-.08.03-.11.05.07-.03.09-.04.04-.02-.02,0-.04.01-.06.02-.04.01-.08.02-.11.03-.25.07-.43.36-.35.62s.34.42.62.35h0Z"/><path class="cls-6" d="m109.69,45.4c.36-.15.68-.37.97-.62.09-.08.15-.24.15-.35s-.05-.27-.15-.35-.22-.15-.35-.15l-.13.02c-.08.02-.16.07-.22.13-.04.04-.09.07-.13.11l.1-.08c-.23.18-.48.32-.74.44-.06.03-.11.07-.14.13-.04.05-.07.1-.09.17-.03.12-.02.28.05.39s.17.2.3.23l.13.02c.09,0,.17-.02.25-.07h0Z"/><path class="cls-6" d="m109.65,44.83l.19-.11c.06-.03.11-.07.14-.13.04-.05.07-.1.09-.17.02-.07.02-.13,0-.2,0-.07-.02-.13-.06-.19l-.08-.1c-.06-.06-.14-.1-.22-.13l-.13-.02c-.09,0-.17.02-.25.07l-.19.11c-.06.03-.11.07-.14.13-.04.05-.07.1-.09.17-.02.07-.02.13,0,.2,0,.07.02.13.06.19l.08.1c.06.06.14.1.22.13l.13.02c.09,0,.17-.02.25-.07h0Z"/><path class="cls-6" d="m110.56,49.23c.91-.26,1.81-.54,2.62-1.05.39-.25.76-.53,1.14-.79s.8-.53,1.22-.76c.23-.13.03-.46-.2-.35-.66.34-1.32.68-1.98,1.02-.32.16-.64.32-.95.49-.14.08-.27.16-.4.25-.12.08-.23.16-.38.16-.26,0-.26.39,0,.4.33.01.58-.23.85-.39.32-.19.66-.35,1-.52.69-.35,1.38-.71,2.07-1.06l-.2-.35c-.41.22-.8.47-1.18.73s-.75.54-1.14.79c-.79.51-1.66.78-2.56,1.04-.25.07-.14.46.11.39h0Z"/><path class="cls-6" d="m108.61,43.87c.16.26.24.56.29.86.06.34.09.68.12,1.02s.06.69.08,1.03c.02.3.04.62-.09.9-.11.23.23.43.35.2.15-.31.17-.65.15-.99-.02-.38-.05-.76-.09-1.14s-.07-.74-.13-1.11c-.06-.34-.15-.68-.33-.97-.14-.22-.48-.02-.35.2h0Z"/><path class="cls-6" d="m109.24,47.85c.12-.37.15-.76.19-1.14.01-.1-.1-.2-.2-.2-.12,0-.19.09-.2.2,0,.09-.02.18-.03.27,0,.05-.01.09-.02.14,0,.02,0,.04,0,.06,0,.01,0,.03,0,.04,0-.02,0-.02,0,0-.03.18-.06.35-.12.53-.03.1.04.22.14.25.11.03.21-.03.25-.14h0Z"/><path class="cls-6" d="m108.99,47.81c-.06.13-.19.21-.29.32-.12.15-.18.32-.26.49s-.18.33-.28.48-.2.29-.33.41c-.08.07-.07.21,0,.28.08.08.2.07.28,0,.28-.26.48-.62.66-.95.08-.15.12-.33.23-.46s.25-.23.33-.38c.05-.1.03-.22-.07-.27-.09-.05-.23-.03-.27.07h0Z"/><path class="cls-6" d="m108.43,43.79c.53.28,1.13.35,1.72.46.64.11,1.27.21,1.92.26s1.26.04,1.89,0,1.27-.09,1.9-.15c.71-.06,1.42-.15,2.11-.31.25-.06.14-.44-.11-.39-1.2.27-2.42.33-3.64.42-.61.05-1.22.08-1.83.05s-1.23-.12-1.84-.22c-.33-.06-.66-.11-.99-.18s-.63-.14-.92-.29c-.23-.12-.43.23-.2.35h0Z"/><path class="cls-6" d="m120.31,43.14c-.6.55-1.27,1.02-1.98,1.44-.35.21-.71.4-1.07.59-.18.09-.37.19-.56.28s-.36.19-.56.19c-.26,0-.26.4,0,.4.23,0,.44-.09.65-.19.19-.09.37-.18.56-.27.39-.2.77-.4,1.15-.62.74-.44,1.45-.94,2.1-1.52.19-.17-.09-.46-.28-.28h0Z"/><path class="cls-6" d="m115.42,46.08c.41-.21.82-.42,1.24-.62s.82-.4,1.25-.52c.21-.06.41-.12.6-.22.21-.11.42-.23.62-.35.4-.24.79-.48,1.18-.74.21-.14.01-.49-.2-.35-.39.26-.78.5-1.18.74-.2.12-.41.25-.62.35-.19.09-.39.14-.59.2-.44.13-.85.34-1.26.53s-.83.41-1.24.62c-.23.12-.03.46.2.35h0Z"/><path class="cls-6" d="m120.08,43.1c-.56.4-1.13.79-1.74,1.1s-1.23.55-1.85.79l.19.33c.46-.37,1.02-.58,1.56-.79.6-.24,1.13-.6,1.67-.94.22-.14.02-.48-.2-.35-.28.18-.57.36-.85.54s-.55.3-.85.42c-.57.22-1.13.46-1.61.84-.15.12.01.41.19.33.64-.25,1.29-.5,1.91-.81s1.21-.71,1.78-1.12c.21-.15,0-.49-.2-.35h0Z"/><path class="cls-6" d="m119.89,43.04c-.18.06-.34.16-.51.25s-.36.18-.54.26c-.37.17-.75.32-1.12.49-.7.34-1.37.85-2.17.92-.25.02-.26.42,0,.4.83-.07,1.52-.54,2.24-.91.36-.19.74-.34,1.11-.5.18-.08.36-.16.54-.25s.35-.22.54-.28c.24-.08.14-.46-.11-.39h0Z"/><path class="cls-6" d="m114.49,44.85c.57-.21,1.19-.16,1.78-.28.62-.12,1.22-.34,1.81-.55.24-.09.14-.47-.11-.39-.59.22-1.19.43-1.81.55-.59.11-1.21.06-1.78.28-.24.09-.14.48.11.39h0Z"/><path class="cls-6" d="m115.98,44.9c.41-.13.82-.29,1.22-.46s.74-.38,1.13-.53c.78-.31,1.62-.44,2.42-.67.25-.07.14-.46-.11-.39-.8.23-1.64.36-2.42.67-.39.16-.76.36-1.14.53s-.8.33-1.21.46c-.24.08-.14.46.11.39h0Z"/><path class="cls-6" d="m121.15,42.6c-.28.14-.54.31-.78.5-.04.03-.06.1-.06.14,0,.05.02.11.06.14s.09.06.14.06c.06,0,.1-.02.14-.06,0,0,.06-.05.01-.01.01-.01.03-.02.04-.03.03-.02.06-.04.09-.06.06-.04.12-.08.18-.12.12-.08.25-.15.38-.21.09-.05.13-.19.07-.27-.06-.1-.17-.12-.27-.07h0Z"/><path class="cls-6" d="m121.41,42.85c.26,0,.26-.4,0-.4s-.26.4,0,.4h0Z"/><path class="cls-6" d="m120.93,42.78c-.35.33-.71.67-1.09.98s-.83.57-1.26.83c-.8.49-1.53,1.08-2.3,1.61-.44.3-.89.58-1.37.81l.24.31c.29-.25.58-.5.86-.75.17-.15-.05-.44-.24-.31-.94.64-1.97,1.14-3.04,1.5-.24.08-.14.47.11.39,1.11-.37,2.17-.89,3.14-1.54l-.24-.31c-.29.25-.58.5-.86.75-.18.16.05.41.24.31.86-.41,1.62-.98,2.38-1.54.38-.28.77-.56,1.17-.81.43-.27.88-.52,1.28-.83.45-.34.86-.73,1.27-1.12.19-.18-.1-.46-.28-.28h0Z"/><path class="cls-6" d="m112.44,48.59c.37-.29.85-.35,1.27-.52.11-.04.19-.11.29-.17s.2-.09.31-.14c.23-.1.45-.23.67-.35s.02-.48-.2-.35-.43.25-.66.35c-.11.05-.23.09-.33.15-.1.06-.18.13-.29.16-.46.15-.94.28-1.33.58-.09.07-.07.21,0,.28.08.08.2.07.28,0h0Z"/><path class="cls-6" d="m115,47.04c-.4.25-.83.41-1.28.55s-.9.26-1.31.46c-.23.11-.03.46.2.35.41-.21.86-.32,1.3-.45s.89-.31,1.29-.56c.22-.14.02-.48-.2-.35h0Z"/><path class="cls-6" d="m112.46,48.62c.42-.17.83-.35,1.24-.55.09-.05.13-.19.07-.27-.06-.1-.17-.12-.27-.07-.38.19-.76.35-1.14.51-.1.04-.18.14-.14.25.03.09.14.18.25.14h0Z"/><path class="cls-6" d="m115.09,47.45c.38-.1.71-.33,1.03-.55s.65-.46.96-.71c.6-.49,1.18-1.01,1.83-1.44.21-.14.01-.49-.2-.35-.64.42-1.21.93-1.8,1.41-.3.25-.61.48-.93.7s-.63.45-.99.55c-.25.07-.14.45.11.39h0Z"/><path class="cls-6" d="m120.21,43.41c-.16.13-.32.26-.42.45-.03.05-.03.1-.02.15.01.05.05.1.09.12.05.02.1.04.15.02.05-.02.09-.05.12-.09.02-.04.05-.08.07-.11l-.03.04c.09-.11.2-.2.31-.29.04-.03.06-.1.06-.14,0-.05-.02-.11-.06-.14s-.09-.06-.14-.06h-.05s-.06.03-.09.06h0Z"/><path class="cls-6" d="m120.25,43.44c-.33.33-.66.67-1,.98-.31.28-.64.52-.99.75-.72.45-1.48.83-2.18,1.31-.21.14-.01.49.2.35.71-.48,1.49-.86,2.22-1.33.37-.23.72-.49,1.04-.79.35-.32.67-.65,1-.98.18-.18-.1-.47-.28-.28h0Z"/><path class="cls-6" d="m116.53,46.71c.33-.15.63-.36.88-.62.07-.08.08-.21,0-.28s-.2-.08-.28,0c-.06.06-.12.12-.18.17-.03.03-.07.06-.1.08-.02.02.03-.02,0,0,0,0-.02.01-.03.02-.02.01-.03.03-.05.04-.14.1-.29.18-.44.25-.1.04-.13.19-.07.27.06.1.17.12.27.07h0Z"/><path class="cls-6" d="m111.73,44.51c.43-.05.86-.06,1.29-.03s.84.03,1.26-.02c.85-.11,1.7-.22,2.55-.35.48-.08.97-.16,1.45-.26.25-.05.15-.44-.11-.39-.83.17-1.67.3-2.51.42s-1.66.27-2.49.21c-.48-.03-.95-.03-1.43.02-.11.01-.2.08-.2.2,0,.1.09.21.2.2h0Z"/><path class="cls-6" d="m134.05,63.22c.1,1.76.12,3.53.08,5.3s-.16,3.55-.35,5.32-.45,3.52-.78,5.27-.73,3.48-1.2,5.19-1.04,3.46-1.61,5.17c-.07.22-.14.43-.22.65-.04.12.15.17.19.05.57-1.73,1.15-3.45,1.65-5.2s.91-3.44,1.25-5.18.62-3.5.83-5.26.34-3.54.41-5.31.06-3.55-.03-5.33c-.01-.22-.02-.45-.03-.67,0-.13-.21-.13-.2,0h0Z"/><path class="cls-6" d="m130,90.01c-.37,1.09-.79,2.16-1.24,3.22-.05.12.12.22.17.1.46-1.07.89-2.16,1.26-3.27.04-.12-.15-.17-.19-.05h0Z"/><path class="cls-6" d="m128.83,93.43c.96-.18,1.92-.12,2.9-.07s1.96.1,2.94.16c.13,0,.13-.19,0-.2-1-.05-1.99-.11-2.99-.16-.49-.03-.98-.06-1.48-.06s-.95.05-1.42.14c-.13.02-.07.22.05.19h0Z"/><path class="cls-6" d="m134.66,93.53c.37-.24.52-.65.63-1.05.14-.52.28-1.03.46-1.53.38-1.06.83-2.09,1.16-3.17.66-2.14.89-4.38.91-6.61.01-1.26-.04-2.52-.11-3.78,0-.13-.21-.13-.2,0,.13,2.19.19,4.39-.04,6.57-.12,1.1-.31,2.19-.6,3.25s-.71,2.07-1.1,3.09c-.22.57-.42,1.15-.58,1.74-.12.46-.2,1.04-.63,1.31-.11.07,0,.24.1.17h0Z"/><path class="cls-6" d="m134.26,63.16v-.34c-.05.02-.12.03-.18.05.44.85.63,1.8.85,2.71.24.99.47,1.98.7,2.97.46,1.98.89,3.97,1.31,5.96.11.55.23,1.1.34,1.65s.22,1.13.24,1.71c0,.13.2.13.2,0-.04-1-.29-2-.49-2.97s-.43-2.02-.65-3.03c-.44-2.01-.9-4.02-1.38-6.02-.25-1.04-.45-2.12-.95-3.08-.05-.09-.18-.04-.19.05v.34c-.01.13.19.13.19,0h0Z"/><path class="cls-6" d="m136.25,71.2c.39,1.74.73,3.49,1.02,5.25.02.13.21.07.19-.05-.29-1.76-.63-3.51-1.02-5.25-.03-.13-.22-.07-.19.05h0Z"/><path class="cls-6" d="m136.24,71.23c.5,1.59.87,3.23,1.1,4.88.07.47.12.95.16,1.43.01.13.21.13.2,0-.15-1.68-.44-3.35-.87-4.98-.12-.46-.26-.92-.4-1.38-.04-.12-.23-.07-.19.05h0Z"/><path class="cls-6" d="m134.96,76.3c.05,1.11.13,2.22.13,3.34,0,.28-.01.56-.04.83-.01.13-.03.26-.04.39-.01.1,0,.03,0,.01,0,.03,0,.06-.01.1-.01.08-.02.16-.04.24-.09.53-.2,1.06-.3,1.59-.43,2.14-.93,4.26-1.53,6.35-.34,1.17-.7,2.33-1.09,3.49-.13.38.27.69.62.62.06-.01.12-.03.18-.04.03,0,.06-.01.09-.01-.05,0-.04,0,0,0,.13-.01.26-.02.39-.02.06,0,.12,0,.18,0,.03,0,.06,0,.09,0,0,0,.1.01.05,0s.04,0,.05,0c.03,0,.06.01.09.02.07.01.13.03.2.05.17.05.33.1.5.06.24-.05.43-.28.43-.53.01-.53-.74-.78-1.01-.3-.13.23-.06.56.18.68s.55.06.68-.18v-.02c-.09.08-.19.15-.29.23h.01c-.09,0-.18,0-.27,0l-.25-.18-.07-.25v.02c.02-.08.05-.17.07-.25v.02c.05-.06.11-.12.17-.18.26,0,.34,0,.24-.03-.02,0-.04-.01-.06-.02-.03,0-.06-.02-.09-.03-.08-.02-.16-.04-.25-.06-.19-.04-.38-.06-.57-.07-.35-.02-.7.02-1.05.1l.62.62c.7-2.06,1.32-4.15,1.84-6.27.26-1.06.5-2.13.72-3.21s.48-2.21.53-3.34c.03-.63-.01-1.26-.04-1.88l-.08-1.9c-.01-.26-.22-.51-.5-.5-.26.01-.51.22-.5.5h0Z"/><path class="cls-6" d="m132.63,93.24c.06.03.12.06.18.07s.13.02.19.03c.02,0,.04,0,.07,0,.07,0,.13-.01.2-.03.07-.02.12-.05.17-.09.05-.04.1-.08.13-.14.04-.06.06-.12.06-.19.01-.07.01-.13,0-.2l-.05-.12c-.04-.08-.1-.13-.18-.18l-.12-.05c-.09-.02-.18-.02-.27,0-.01,0-.02,0-.03,0l.13-.02s-.07,0-.1,0l.13.02s-.07-.01-.1-.03l.12.05s-.01,0-.02,0c-.06-.04-.12-.06-.19-.06-.07-.01-.13-.01-.2,0-.07.02-.12.05-.17.09-.05.04-.1.08-.13.14l-.05.12c-.02.09-.02.18,0,.27l.05.12c.04.08.1.13.18.18h0Z"/><path class="cls-6" d="m133.32,93.39c.16.02.31.02.47.02.07,0,.13-.01.19-.04.06-.02.12-.05.16-.1.05-.05.08-.1.1-.16.03-.06.05-.12.04-.19l-.02-.13c-.02-.08-.07-.16-.13-.22l-.1-.08c-.08-.05-.16-.07-.25-.07-.16,0-.31,0-.47-.02-.07,0-.13.01-.19.04-.06.02-.12.05-.16.1-.05.05-.08.1-.1.16-.03.06-.05.12-.04.19l.02.13c.02.08.07.16.13.22l.1.08c.08.05.16.07.25.07h0Z"/><path class="cls-6" d="m134.26,93.19l.02.02s.1.08.16.1c.06.03.12.05.19.04.07,0,.13-.01.19-.04.06-.02.12-.05.16-.1l.08-.1c.05-.08.07-.16.07-.25l-.02-.13c-.02-.08-.07-.16-.13-.22l-.02-.02s-.1-.08-.16-.1c-.06-.03-.12-.05-.19-.04-.07,0-.13.01-.19.04-.06.02-.12.05-.16.1l-.08.1c-.05.08-.07.16-.07.25l.02.13c.02.08.07.16.13.22h0Z"/><path class="cls-6" d="m135.05,92.78c.81-2.51,1.27-5.13,1.39-7.77.03-.74.04-1.47.01-2.21,0-.26-.22-.51-.5-.5-.29.01-.47.22-.5.5s-.06.55-.1.83c0,.02,0,.05,0,.07-.01.08,0-.07,0,.01,0,.06-.02.13-.03.19-.02.14-.04.28-.06.41-.08.53-.17,1.07-.27,1.6-.19,1.06-.42,2.12-.64,3.18-.12.54-.23,1.08-.35,1.62-.06.27-.11.53-.17.8,0,.04-.02.08-.03.13,0,0-.02.06-.02.06,0,0,.06-.11,0-.03-.02.03-.05.06.02-.03-.03.03-.05.03.03-.02.04-.02.09-.03.13-.03.03,0,.15.05.11.03-.05-.03.04.04.05.05l.02.02s-.02-.04,0,0c.04.08,0-.06,0,.01,0,.06,0-.03,0-.04,0-.06,0,.01,0,.02,0-.03.01-.06.02-.09.02-.07.05-.15.07-.22.08-.24.17-.48.25-.72.17-.48.33-.96.4-1.46.05-.33.08-.66.1-.99,0-.07.01-.15.02-.22,0-.03,0-.06.01-.1,0-.04.02-.11,0-.03.02-.15.05-.3.08-.45.12-.59.29-1.16.47-1.73.08-.25-.09-.56-.35-.62-.27-.06-.53.08-.62.35-.17.55-.34,1.1-.46,1.66-.12.59-.17,1.19-.22,1.79,0,.08.01-.07,0,.01,0,.03,0,.06-.01.09-.01.07-.02.14-.04.2-.03.14-.06.27-.1.4-.07.27-.16.53-.25.79s-.19.52-.28.79c-.11.33-.17.68,0,1s.55.52.91.42c.32-.09.51-.38.6-.69.08-.27.12-.55.18-.82.06-.29.12-.58.19-.87.24-1.14.49-2.28.71-3.42.25-1.32.47-2.64.61-3.97h-1c.04,1.3,0,2.6-.14,3.9-.01.14-.03.28-.05.43,0,.08-.02.16-.03.24,0,.05-.01.09-.02.14-.01.11,0-.07,0,.06-.04.31-.09.63-.14.94-.11.64-.24,1.28-.39,1.91-.17.71-.37,1.41-.59,2.11-.08.25.09.56.35.62.27.06.53-.08.62-.35h0Z"/><path class="cls-6" d="m135.84,90.42c.33-.93.59-1.89.76-2.87.05-.26-.07-.55-.35-.62-.24-.06-.57.07-.62.35-.18.98-.43,1.93-.76,2.87-.09.25.1.56.35.62.28.06.52-.09.62-.35h0Z"/><path class="cls-6" d="m136.38,88.77c.36-.35.43-.84.49-1.32.06-.51.1-1.03.14-1.55.08-1.02.12-2.05.14-3.08,0-.26-.23-.51-.5-.5s-.5.22-.5.5c-.01.98-.06,1.95-.13,2.93-.04.48-.08.97-.13,1.45-.01.11-.02.22-.03.33,0,.02,0,.05,0,.07,0-.07.01-.08,0-.02,0,.05-.02.1-.03.15,0,.04-.02.07-.03.11,0,.02-.01.05-.02.07-.02.05-.02.05,0-.02,0,.04-.05.09-.07.13-.03.04-.03.04.01-.02-.02.02-.03.04-.05.05-.19.18-.2.53,0,.71s.51.19.71,0h0Z"/><path class="cls-6" d="m135.61,76.12c.04,1.86.05,3.72.04,5.58,0,.53,0,1.06-.02,1.59,0,.49.7.69.93.25.45-.85.43-1.89.42-2.83s-.09-1.92-.18-2.87c-.05-.55-.1-1.1-.15-1.65-.02-.26-.22-.51-.5-.5-.25.01-.52.22-.5.5.15,1.87.41,3.74.3,5.62,0,.12-.02.24-.03.35,0,.02,0,.04,0,.07-.01.14.01-.06,0,.02,0,.06-.02.12-.03.17-.02.12-.05.23-.09.34,0,.02-.01.04-.02.06,0,0-.05.12-.02.06.02-.05,0,.01,0,.02-.02.04-.04.08-.06.12l.93.25c.03-1.86.03-3.72,0-5.58,0-.53-.02-1.06-.03-1.59,0-.26-.23-.51-.5-.5s-.51.22-.5.5h0Z"/><path class="cls-6" d="m135.84,75.76c.04.74.07,1.48.13,2.21.03.4.09.8.15,1.21.03.18.05.36.08.54,0,.03,0,.07.01.1,0,0,.02.17,0,.06.01.09.02.19.04.28.17,1.41.19,2.85.04,4.26-.01.1-.02.2-.03.31,0,.04,0,.08-.01.12,0,.06,0,.06,0,0,0,.03,0,.06-.01.09-.03.19-.06.37-.09.56-.07.4-.16.81-.26,1.21-.06.25.08.55.35.62s.55-.08.62-.35c.36-1.42.54-2.89.55-4.36,0-.71-.03-1.42-.1-2.13-.04-.4-.09-.79-.15-1.18-.03-.18-.05-.36-.08-.54,0-.05-.01-.1-.02-.15.01.08,0,0,0-.01-.01-.11-.03-.23-.04-.34-.09-.83-.11-1.67-.16-2.5-.01-.26-.22-.51-.5-.5-.26.01-.52.22-.5.5h0Z"/><path class="cls-6" d="m136.81,87.12c.07-.25.11-.51.13-.77,0-.07-.01-.13-.04-.19-.02-.06-.05-.12-.1-.16-.05-.05-.1-.08-.16-.1-.06-.03-.12-.05-.19-.04-.13,0-.26.05-.35.15l-.08.1c-.05.08-.07.16-.07.25,0,.07-.01.14-.02.21l.02-.13c-.02.14-.05.29-.09.43-.02.07-.02.13,0,.2,0,.07.02.13.06.19.03.06.07.11.13.14.05.04.1.07.17.09.13.03.27.02.39-.05s.19-.17.23-.3h0Z"/><path class="cls-6" d="m136.17,87.4s.1-.01.14-.02c0,0,0,0,.01,0,.05-.01.1-.04.14-.06,0,0,.02,0,.02-.01.04-.03.08-.06.11-.09,0,0,0,0,0,0,.01-.01.03-.03.04-.04.04-.05.08-.1.11-.15.06-.08.12-.17.18-.25.04-.06.06-.12.06-.19.01-.07.01-.13,0-.2-.02-.07-.05-.12-.09-.17-.04-.05-.08-.1-.14-.13l-.12-.05c-.09-.02-.18-.02-.27,0l-.12.05c-.08.04-.13.1-.18.18-.07.1-.14.2-.21.3l.08-.1s-.03.04-.06.06l.1-.08s-.02.01-.03.02l.12-.05s-.02,0-.03,0l.13-.02h0c-.07,0-.13.01-.19.04-.06.02-.12.05-.16.1-.05.05-.08.1-.1.16-.03.06-.05.12-.04.19l.02.13c.02.08.07.16.13.22l.1.08c.08.05.16.07.25.07h0Z"/><path class="cls-6" d="m136.88,87.08c.36-.65.46-1.38.55-2.11s.15-1.49.15-2.25c0-1.51-.02-3.03-.11-4.54-.05-.88-.14-1.76-.26-2.64-.03-.25-.33-.39-.55-.36-.24.03-.44.24-.43.49,0,.28.01.57.1.83.04.14.11.28.18.42.03.05.06.1.08.15.02.03.03.06.05.1-.03-.07-.01-.02,0,.02,0,.03.01.06.02.09.02.08,0-.07,0,0,0,.06,0,.13,0,.19,0,.14,0,.27.01.41,0,.27.02.53.02.8,0,.52,0,1.04-.02,1.56-.01.26-.03.52-.06.77-.01.12-.03.24-.04.36.01-.1,0-.02,0,0,0,.04-.01.07-.02.11-.01.07-.02.13-.03.2-.1.58-.25,1.15-.47,1.7-.1.24.1.56.35.62.29.07.51-.09.62-.35.39-1.01.57-2.09.64-3.16.03-.53.04-1.05.03-1.58s0-1.07-.05-1.61c-.01-.19-.04-.37-.12-.55-.06-.14-.13-.27-.2-.4-.01-.03-.03-.05-.04-.08.05.09,0-.03-.01-.04-.02-.07-.04-.14-.05-.21,0,.02,0,.1,0,0,0-.04,0-.07,0-.11,0-.08,0-.16,0-.24l-.98.13c.02.16-.01-.1,0,.06,0,.05.01.1.02.15.01.08.02.16.03.24.02.2.04.39.06.59.03.36.06.72.09,1.08.05.74.08,1.48.09,2.22.04,1.46.09,2.93-.07,4.39-.02.2-.04.4-.07.6,0,.04-.01.09-.02.13.01-.09,0,0,0,.04-.01.09-.03.17-.04.26-.03.19-.08.37-.14.55-.03.08-.06.17-.09.25.04-.11-.01.03-.02.04-.03.05-.05.1-.08.16-.13.23-.06.56.18.68s.55.07.68-.18h0Z"/><path class="cls-6" d="m136.71,81.15c.01.16.02.31.01.47,0,.08,0,.16-.01.23,0,.03,0,.07-.01.1,0,.1.02-.11,0,.02-.05.31-.13.6-.24.89-.04.11,0,.29.05.39s.18.2.3.23c.13.03.27.02.39-.05s.18-.17.23-.3c.25-.62.35-1.31.29-1.98-.02-.26-.21-.51-.5-.5-.25.01-.52.22-.5.5h0Z"/><path class="cls-6" d="m134.74,71.28c.02.09.04.19.05.28,0,.05.02.09.02.14,0,.02,0,.05.01.07.01.09-.01-.12,0,.03.02.2.04.4.05.6.02.41.03.82.01,1.22-.02.83-.1,1.65-.16,2.47-.03.48-.07.95-.1,1.43-.01.15.08.3.2.39.13.1.27.12.44.09.28-.05.48-.34.47-.61s-.22-.51-.5-.5c-.26.01-.51.22-.5.5l.27-.36.63.48c.06-.85.12-1.71.18-2.56s.11-1.65.07-2.47c-.03-.5-.09-1-.19-1.49-.05-.26-.37-.43-.62-.35-.27.09-.41.34-.35.62h0Z"/><path class="cls-6" d="m134.97,71.09c.11,1.94.16,3.89.13,5.83,0,.25.19.46.43.49.26.03.46-.12.55-.36.3-.79.24-1.67.22-2.49s-.05-1.72-.18-2.57c-.07-.47-.17-.93-.31-1.39-.08-.25-.35-.43-.62-.35s-.42.34-.35.62c.24.89.45,1.79.62,2.7.08.45.16.89.23,1.34.02.11.03.22.05.34,0,.06.02.13.03.19.02.12,0-.05,0,.06.03.24.06.48.09.72.03.26.21.51.5.5s.47-.22.5-.5c.23-1.9-.37-3.76-.8-5.59-.12-.52-.24-1.05-.31-1.58-.04-.26-.38-.43-.62-.35-.28.09-.39.34-.35.62.13.92.37,1.83.6,2.73.11.45.22.9.31,1.35.05.22.09.45.12.68,0,.05.02.11.02.16.01.1,0,.02,0,0,0,.03,0,.06.01.09.01.12.03.24.04.36.04.51.04,1.03-.02,1.54h1c-.21-1.9-.56-3.78-1.05-5.62l-.96.27c.12.39.21.78.28,1.18.02.09.03.18.04.28,0,0,.01.08,0,.03s0,.02,0,.03c0,.06.01.12.02.19.02.2.04.4.05.61.05.8.07,1.6.06,2.4,0,.11,0,.23-.01.34,0,.05,0,.1-.01.16,0,.03-.02.16,0,.07-.03.22-.08.44-.16.65l.98.13c.03-1.94-.02-3.89-.13-5.83-.02-.26-.22-.51-.5-.5-.26.01-.52.22-.5.5h0Z"/><path class="cls-6" d="m134.85,70.33c.51,1.54,1.17,3.03,1.47,4.63.02.11.04.22.06.33,0,.03.03.19.01.09,0,.05.01.1.02.16.03.23.04.47.05.7,0,.26.23.51.5.5s.51-.22.5-.5c-.04-1.68-.61-3.27-1.17-4.84-.16-.44-.32-.89-.47-1.34-.08-.25-.35-.44-.62-.35-.25.08-.44.35-.35.62h0Z"/><path class="cls-6" d="m134.35,76.52c.07,2.17,0,4.35-.24,6.51-.02.13-.03.26-.05.4,0,.07-.02.13-.03.2-.01.09.02-.12,0,.02,0,.04-.01.07-.02.11-.04.27-.08.54-.12.81-.09.54-.19,1.07-.31,1.6-.23,1.04-.51,2.08-.86,3.09-.1.29-.2.58-.32.87-.05.14-.11.27-.16.41-.03.07-.06.14-.08.2-.05.13.02-.06,0,.02-.01.03-.03.07-.04.1-.24.57-.51,1.12-.8,1.67-.21.39.13.83.56.73.19-.04.38-.08.56-.13.26-.06.43-.37.35-.62-.09-.27-.34-.41-.62-.35-.19.04-.38.08-.56.13l.56.73c1.03-1.96,1.78-4.06,2.28-6.21s.76-4.36.86-6.57c.06-1.24.06-2.48.02-3.72,0-.26-.22-.51-.5-.5s-.51.22-.5.5h0Z"/><path class="cls-6" d="m134.27,76.37c-.15,1.14-.27,2.28-.39,3.42-.06.56-.12,1.13-.18,1.69-.03.29-.07.57-.1.85-.02.13-.03.26-.05.39,0,.07-.02.15-.03.22,0,.03,0,.07-.01.1,0,.02-.02.15-.01.1,0-.06,0,.04,0,.06,0,.03,0,.06-.01.1-.01.07-.02.15-.03.22-.02.15-.04.29-.06.44-.04.27-.08.54-.13.81-.09.52-.19,1.04-.3,1.56-.22,1.03-.49,2.04-.83,3.04-.09.28-.19.55-.3.83-.05.14-.11.28-.17.42-.01.03-.02.06-.03.08.03-.08,0,.02-.02.05-.03.06-.05.12-.08.19-.24.54-.51,1.08-.8,1.59-.13.23-.06.56.18.68s.55.06.68-.18c1.06-1.88,1.77-3.94,2.24-6.03.51-2.22.77-4.5,1.01-6.76.14-1.29.27-2.58.44-3.86.03-.26-.25-.51-.5-.5-.3.01-.46.22-.5.5h0Z"/><path class="cls-6" d="m130.64,93.1c.35-.39.61-.85.74-1.36.03-.13.02-.27-.05-.39-.06-.1-.18-.2-.3-.23-.13-.03-.27-.02-.39.05s-.2.17-.23.3-.07.25-.12.36l.05-.12c-.09.22-.21.42-.36.61l.08-.1c-.04.06-.09.11-.14.16-.09.1-.15.22-.15.35,0,.12.05.27.15.35s.22.15.35.15.26-.05.35-.15h0Z"/><path class="cls-6" d="m130.57,93.21c.18.03.34.03.5-.07.12-.08.22-.2.29-.33.1-.23.17-.48.25-.72.14-.44.28-.88.41-1.32.27-.88.52-1.77.76-2.66.49-1.8.95-3.6,1.41-5.41.26-1.01.53-2.02.8-3.03.07-.25-.09-.56-.35-.62s-.54.08-.62.35c-.47,1.72-.91,3.45-1.36,5.17s-.9,3.45-1.4,5.16c-.14.47-.28.95-.43,1.42-.07.24-.15.48-.23.72-.04.12-.08.25-.12.37,0,.02-.02.05-.02.07,0,.02-.01.03-.02.05-.01.03-.01.03,0,0,.04-.04,0-.01-.01.02-.01.02-.01.02,0,0,.07-.11.2-.15.37-.11-.14-.02-.26-.02-.39.05-.1.06-.2.18-.23.3-.05.24.07.57.35.62h0Z"/><path class="cls-6" d="m130.3,92.98c.86-1.15,1.3-2.56,1.77-3.89s.99-2.78,1.55-4.14c.04-.1.08-.21.13-.31.02-.04.04-.09.06-.13-.03.08.02-.04.02-.06.08-.19.16-.38.25-.57.17-.39.36-.78.54-1.16.12-.23.07-.55-.18-.68-.23-.12-.56-.07-.68.18-.67,1.36-1.24,2.77-1.77,4.19s-.96,2.74-1.49,4.09c-.04.1-.08.19-.12.29-.06.14.04-.09-.02.04-.02.04-.04.08-.05.12-.08.17-.16.35-.25.52-.18.35-.39.69-.63,1.01-.16.21-.04.57.18.68.26.14.52.04.68-.18h0Z"/><path class="cls-6" d="m134.5,70.5c-.05,2.13-.2,4.27-.46,6.39-.03.25-.06.51-.1.76-.01.1,0,.03,0,.01,0,.03,0,.06-.01.1,0,.06-.02.13-.03.19-.02.14-.04.29-.06.43-.08.52-.16,1.05-.25,1.57-.18,1.04-.38,2.08-.61,3.12-.26,1.18-.55,2.34-.88,3.5-.07.25.09.56.35.62s.54-.08.62-.35c.58-2.06,1.06-4.15,1.43-6.27s.65-4.3.82-6.46c.09-1.2.15-2.4.18-3.61,0-.26-.23-.51-.5-.5s-.49.22-.5.5h0Z"/><path class="cls-6" d="m130.39,92.14c.2-.33.38-.67.49-1.05.1-.34.2-.68.33-1.01.25-.67.54-1.32.79-1.99.09-.25-.1-.56-.35-.62-.28-.06-.52.09-.62.35-.24.65-.53,1.29-.77,1.94-.12.32-.23.65-.32.98-.02.08-.05.17-.08.25,0,.02-.06.15-.02.06-.01.04-.03.07-.05.11-.08.16-.17.31-.26.47-.14.22-.06.56.18.68s.54.06.68-.18h0Z"/><path class="cls-6" d="m131.9,88.01c.91-2.14,1.71-4.33,2.38-6.55.19-.63.36-1.26.53-1.89.07-.25-.08-.55-.35-.62s-.54.08-.62.35c-.58,2.2-1.29,4.37-2.11,6.49-.12.3-.23.59-.35.89-.06.15-.12.3-.18.44-.02.04-.03.07-.05.11,0,.01-.05.12-.03.07.03-.06-.03.08-.03.07-.02.04-.04.09-.06.13-.06.13-.09.24-.05.39.03.12.12.24.23.3.21.11.57.08.68-.18h0Z"/><path class="cls-6" d="m133.75,77.79c-.33.55-.46,1.17-.57,1.79-.11.66-.23,1.31-.38,1.96-.3,1.33-.67,2.64-1.06,3.95-.22.73-.45,1.47-.68,2.2-.08.25.09.56.35.62.27.06.53-.08.62-.35.81-2.57,1.61-5.15,2.07-7.8.06-.33.11-.65.18-.97.04-.17.09-.33.15-.49,0-.03.02-.05.03-.08-.04.11.03-.06.04-.08.04-.08.08-.15.12-.23.13-.22.06-.56-.18-.68s-.54-.06-.68.18h0Z"/><path class="cls-6" d="m129.49,92.13l-.15.32c-.04.06-.06.12-.06.19-.01.07-.01.13,0,.2.03.12.12.24.23.3.12.06.26.09.39.05.12-.04.24-.11.3-.23.13-.26.23-.53.27-.81.02-.07.02-.13,0-.2,0-.07-.02-.13-.06-.19l-.08-.1s-.1-.08-.16-.1c-.04-.02-.08-.03-.13-.03-.07-.01-.13-.01-.2,0-.13.04-.23.12-.3.23-.13.2-.2.44-.29.66l.05-.12c-.02.06-.05.11-.08.16-.06.11-.09.26-.05.39.03.12.12.24.23.3.12.06.26.09.39.05s.23-.11.3-.23c.11-.2.17-.42.26-.62l-.05.12c.03-.07.06-.14.11-.2l-.91-.39c-.03.19-.09.38-.16.56l.05-.12s-.04.09-.06.13l.86.5.15-.32c.04-.06.06-.12.06-.19.01-.07.01-.13,0-.2-.03-.12-.12-.24-.23-.3-.12-.06-.26-.09-.39-.05-.12.04-.24.11-.3.23h0Z"/><path class="cls-6" d="m134.11,73.98c-.21,1.6-.39,3.2-.59,4.8-.03.26.25.51.5.5.3-.01.47-.22.5-.5.19-1.6.38-3.2.59-4.8.03-.26-.25-.51-.5-.5-.3.01-.46.22-.5.5h0Z"/><path class="cls-6" d="m134.58,69.11c.14.66.26,1.32.35,1.99.02.11.14.24.23.3.11.06.27.09.39.05s.24-.11.3-.23c.07-.13.07-.24.05-.39-.09-.67-.21-1.33-.35-1.99-.06-.26-.37-.43-.62-.35-.27.09-.41.34-.35.62h0Z"/><path class="cls-6" d="m134.9,69.23c.06.25.11.5.15.76.01.06.02.13.03.19,0,.03,0,.06.01.1,0,.04,0,.06,0,.01.02.14.03.27.04.41.05.52.06,1.05.03,1.57-.01.26.24.51.5.5.28-.01.49-.22.5-.5.05-1.11-.06-2.22-.31-3.3-.06-.25-.36-.43-.62-.35-.27.09-.41.34-.35.62h0Z"/><path class="cls-6" d="m135.13,70.63s.02.04.03.06c-.01-.02-.04-.09-.01-.03.02.04.03.08.05.12.03.09.06.17.08.26.05.17.08.34.11.52l-.02-.13c.03.24.04.49.02.73-.02.26.24.51.5.5.28-.01.48-.22.5-.5.04-.7-.1-1.39-.39-2.03-.05-.11-.19-.2-.3-.23-.12-.03-.28-.02-.39.05s-.2.17-.23.3c-.03.14,0,.26.05.39h0Z"/><path class="cls-6" d="m135.13,73.99c.26-1.71.34-3.43.43-5.16.01-.26-.24-.51-.5-.5-.28.01-.49.22-.5.5-.04.83-.08,1.66-.14,2.49-.03.41-.06.81-.11,1.22-.02.21-.05.42-.07.63,0,.05-.01.1-.02.15,0,0-.02.16,0,.06-.02.11-.03.23-.05.34-.04.26.06.55.35.62.24.05.57-.07.62-.35h0Z"/><path class="cls-6" d="m134.33,67.81c.02.13.05.27.06.41l-.02-.13c.05.41.08.82.08,1.23,0,.26.23.51.5.5s.5-.22.5-.5c0-.59-.05-1.18-.16-1.77-.02-.12-.13-.24-.23-.3-.11-.06-.27-.09-.39-.05s-.24.11-.3.23c-.07.12-.08.25-.05.39h0Z"/><path class="cls-6" d="m131.35,89.1c.87-1.77,1.33-3.69,1.95-5.55.17-.52.36-1.04.57-1.55.1-.24-.11-.56-.35-.62-.29-.07-.51.09-.62.35-.74,1.77-1.16,3.65-1.82,5.45-.05.13-.09.25-.14.38-.02.06-.04.11-.07.17-.01.03-.02.06-.03.08,0,0-.06.14-.02.05-.11.25-.22.5-.34.74s-.07.55.18.68c.23.12.56.07.68-.18h0Z"/><path class="cls-6" d="m129.29,92.72c-.11.06-.22.13-.31.22l.31.24c.07-.13.13-.26.17-.4h-.39c.03.07.05.14.08.21.02.06.04.11.09.16s.1.07.16.07c.04,0,.09,0,.13-.03.04-.03.08-.07.09-.12.01-.05,0-.11-.02-.15s-.07-.08-.12-.09-.11-.01-.15.02c0,0,0,0,0,0l.05-.02s0,0,0,0h.05s0,0,0,0h.05s0,0-.01,0l.05.02s0,0,0,0l.04.03s0,0-.01-.01l.03.04s-.01-.02-.02-.03l.02.05c-.03-.08-.06-.16-.09-.24l-.02-.05s-.03-.04-.05-.06c-.03-.03-.08-.04-.12-.04-.04,0-.07.01-.1.03-.04.02-.08.07-.09.12-.02.06-.04.11-.06.17l.02-.05c-.03.06-.06.13-.09.19-.02.04-.04.11-.02.15.01.04.04.08.07.1.08.06.19.05.26-.02.03-.03.05-.05.08-.07l-.04.03c.06-.04.12-.08.18-.11.04-.02.08-.07.09-.12.01-.05,0-.11-.02-.15s-.07-.08-.12-.09h-.05s-.07,0-.1.02h0Z"/><path class="cls-6" d="m134.49,66.12c-.02.27-.03.55-.09.82-.06.29-.14.55-.1.84.03.2.34.18.39,0,.16-.68.25-1.37.27-2.07l-.39.05c.12.73.25,1.46.37,2.19.04.23.39.17.39-.05.01-.63-.05-1.25-.18-1.87-.02-.11-.15-.17-.25-.14-.11.03-.16.14-.14.25.08.53.18,1.06.3,1.59.06.26.12.52.19.77.06.23.18.5.14.75-.01.11.03.21.14.25.09.03.23-.03.25-.14.04-.28-.03-.53-.1-.8-.07-.28-.14-.56-.21-.84-.13-.56-.23-1.12-.32-1.68l-.39.11c.12.58.17,1.17.16,1.76l.39-.05c-.12-.73-.25-1.46-.37-2.19-.04-.23-.39-.16-.39.05-.02.66-.11,1.32-.26,1.96h.39c-.03-.25.09-.52.13-.77.05-.26.06-.52.08-.79s-.38-.26-.4,0h0Z"/><path class="cls-6" d="m134.03,63.32c.24.91.42,1.83.53,2.75.01.11.08.2.2.2.1,0,.21-.09.2-.2-.12-.96-.3-1.92-.55-2.86-.07-.25-.45-.14-.39.11h0Z"/><path class="cls-6" d="m134.53,65.25c.06.18.11.36.15.55.02.09.04.18.06.28,0,.02,0,.04.01.06.01.06,0-.03,0,.03,0,.02,0,.04,0,.06,0,.01,0,.03,0,.04,0,.02,0,.03,0,0-.02.1.03.22.14.25.1.02.23-.03.25-.14.04-.22-.02-.44-.07-.66-.05-.2-.1-.4-.16-.59-.03-.1-.14-.17-.25-.14s-.17.14-.14.25h0Z"/><path class="cls-6" d="m134.12,64.35c-.03.26.02.52.07.77s.05.52.06.77c.02.53.03,1.05.03,1.58,0,.26.4.26.4,0,0-.53-.01-1.05-.03-1.58,0-.25-.02-.51-.06-.76s-.1-.52-.07-.79c.01-.11-.1-.2-.2-.2-.12,0-.19.09-.2.2h0Z"/><path class="cls-6" d="m134.22,67.93c.08.88.12,1.77.06,2.66l.39-.05c-.08-.53-.08-1.07,0-1.61.01-.11-.1-.2-.2-.2-.12,0-.19.09-.2.2-.07.57-.06,1.14.02,1.71.01.1.13.16.22.14.1-.02.17-.09.17-.2.06-.89.02-1.78-.06-2.66,0-.11-.09-.2-.2-.2-.1,0-.21.09-.2.2h0Z"/><path class="cls-6" d="m134.14,70.25c.03.98.04,1.95.02,2.93h.4c0-.49-.02-.98-.03-1.47,0-.26-.39-.26-.4,0-.02.81-.03,1.61-.05,2.42h.4c-.01-.54-.02-1.08-.03-1.62,0-.26-.39-.26-.4,0-.03.75-.06,1.5-.08,2.25,0,.26.39.26.4,0,.02-.46.04-.92.06-1.38.01-.26-.38-.25-.4,0-.07.75-.15,1.5-.22,2.24h.4c0-.4.02-.79.02-1.19,0-.26-.39-.26-.4,0-.03.58-.1,1.16-.2,1.73-.02.11.03.22.14.25.1.03.23-.03.25-.14.11-.61.18-1.22.21-1.84h-.4c0,.4-.02.79-.02,1.19,0,.26.38.25.4,0,.07-.75.15-1.5.22-2.24h-.4c-.02.46-.04.92-.06,1.38h.4c.03-.75.06-1.5.08-2.25h-.4c.01.54.02,1.08.03,1.62,0,.26.39.26.4,0,.02-.81.03-1.61.05-2.42h-.4c0,.49.02.98.03,1.47,0,.26.4.26.4,0,.01-.98,0-1.95-.02-2.93,0-.26-.41-.26-.4,0h0Z"/><path class="cls-6" d="m133.66,76.14c-.08,1.02-.28,2.03-.57,3.01l.39.11c.14-.82.28-1.65.41-2.47.02-.11-.03-.22-.14-.25-.1-.03-.23.03-.25.14-.14.82-.28,1.65-.41,2.47-.04.25.31.36.39.11.3-1.02.5-2.06.58-3.12.02-.26-.38-.26-.4,0h0Z"/><path class="cls-6" d="m133.2,79.13c-.07.2-.15.41-.2.61-.03.1-.03.2-.04.3,0,.03,0,.05,0,.08,0,.05,0-.02,0,.02,0,.02-.01.05-.02.07,0,.02,0,.02,0,0,0,.01-.01.02-.02.03-.05.09-.02.22.07.27s.22.02.27-.07c.06-.1.08-.21.1-.33,0-.05,0-.1.01-.15,0,0,0-.06,0-.02,0-.03,0-.05.02-.08.05-.21.14-.43.21-.63.04-.1-.04-.22-.14-.25-.11-.03-.21.03-.25.14h0Z"/></g><g id="books"><path class="cls-4" d="m96.35,94.93c-4,5.16-7.99,10.32-11.99,15.48,5.02-.47,10.63-.74,16.72-.64,5.71.1,10.97.51,15.72,1.09,3.16-3.04,6.48-6.11,9.95-9.19,1.68-1.49,3.34-2.94,5-4.35-2.12-.7-4.74-1.45-7.77-2.09-1.97-.41-5.61-1.08-10.1-1.37-4.19-.27-10.24-.26-17.53,1.06Z"/><path class="cls-4" d="m71.13,93.36c-4.21,5.48-8.41,10.96-12.62,16.44,3.97-.46,8.58-.73,13.7-.57,4.5.14,8.58.6,12.15,1.18,5.44-8.97,9.69-16.22,9.35-16.43,0,0-.01,0-.02,0-.67.05-5.57-1.86-12.48-1.89-2.52-.01-5.98.22-10.08,1.28Z"/><path class="cls-3" d="m165.99,94.98c-1.22.44-23.72,20.84-23.72,20.84h33.03l21.5-20.84h-30.81Z"/><path class="cls-2" d="m76.12,89.22c-4.83,3.13-9.94,7.17-14.79,12.4-.88.94-1.71,1.89-2.5,2.83,2.27-.56,4.74-1.05,7.4-1.41,7.27-.99,13.73-.69,18.92,0l12.73-13.49c-2.5-.79-5.95-1.6-10.11-1.74-4.87-.17-8.89.64-11.64,1.41Z"/><path class="cls-2" d="m115.17,103.36c1.98-3.03,4.67-6.51,8.3-9.93,1.62-1.53,3.22-2.85,4.75-3.99-3.09-.88-6.86-1.66-11.2-1.96-7.97-.55-14.61.76-19.14,2.07-4,4.43-8.01,8.86-12.01,13.29,3.49-.91,8.18-1.77,13.75-1.77,6.46,0,11.79,1.16,15.55,2.28Z"/><path class="cls-2" d="m58.34,105.39c.72,1.01,1.44,2.02,2.16,3.04,2.38-.46,5-.82,7.84-1.03,6.57-.47,12.33.08,16.96.92-.05-1.76-.1-3.53-.14-5.29l-3.48-.38c-1.8-.17-3.72-.28-5.74-.33-3.38-.07-6.5.07-9.33.34-1.87.13-4.28.58-6.77,1.86-.54.28-1.04.57-1.5.87Z"/><path class="cls-2" d="m115.17,103.36c.09,1.76.18,3.52.27,5.28-3.5-.57-7.38-1.02-11.59-1.23-6.85-.34-12.98.04-18.19.7-.04-1.69-.09-3.38-.13-5.08l3.49-.92c.88-.1,2.14-.24,3.66-.39,3.03-.29,4.55-.43,6.17-.46,3.1-.05,5.51.23,7.02.41,1,.12,1.72.24,2.85.44,2.71.45,4.91.91,6.44,1.25Z"/><path class="cls-2" d="m115.99,108.63c4.2-3.86,8.4-7.73,12.59-11.59-.13-.68-.28-1.65-.35-2.82-.19-3.16.37-4.52,0-4.79-.61-.43-3.52,2.19-12.72,13.92.16,1.76.32,3.52.47,5.27Z"/><path class="cls-3" d="m165.35,85.6c-1.2.44-23.27,20.45-23.27,20.45h32.41l21.1-20.45h-30.24Z"/><polygon class="cls-2" points="142.07 106.05 142.16 108.3 142.44 115.62 174.49 115.62 174.49 106.05 142.07 106.05"/><polyline class="cls-2" points="174.49 115.62 195.59 95.83 195.59 85.6 174.49 106.05"/><path d="m142.62,108.36c2.76,0,5.51.03,8.27.11s5.53.2,8.29.37c1.55.09,3.1.2,4.65.32.13.01.13-.19,0-.2-2.75-.22-5.5-.39-8.25-.52s-5.53-.21-8.29-.26c-1.55-.02-3.11-.03-4.66-.03-.13,0-.13.2,0,.2h0Z"/><path d="m149.88,112.91c3.21-.46,6.47-.51,9.71-.64s6.52-.26,9.78-.39c1.83-.07,3.66-.15,5.49-.22.13,0,.13-.21,0-.2-3.28.13-6.56.26-9.83.4s-6.51.24-9.76.4c-1.82.09-3.64.21-5.44.47-.13.02-.07.21.05.19h0Z"/><path d="m162.84,114.07c2.88-.35,5.79-.1,8.69-.22.8-.03,1.61-.1,2.41-.21.13-.02.07-.21-.05-.19-2.85.4-5.74.16-8.61.25-.81.02-1.63.08-2.43.18-.13.02-.13.22,0,.2h0Z"/><path d="m163.46,110.42c2.66-.03,5.32-.2,7.97-.45.74-.07,1.48-.14,2.22-.22.13-.01.13-.21,0-.2-2.65.26-5.29.51-7.95.61-.75.03-1.49.05-2.24.06-.13,0-.13.2,0,.2h0Z"/><path d="m174.3,109.34c1.54-1.53,3.1-3.04,4.66-4.54.78-.75,1.56-1.5,2.34-2.24s1.53-1.48,2.33-2.19c.88-.78,1.81-1.49,2.79-2.15.11-.07,0-.24-.1-.17-.86.57-1.68,1.19-2.46,1.86s-1.57,1.43-2.34,2.16c-1.58,1.51-3.15,3.02-4.72,4.55-.88.86-1.76,1.72-2.63,2.58-.09.09.05.23.14.14h0Z"/><path d="m195.46,90.2c-.55.6-1.1,1.2-1.65,1.79-.51.56-1.02,1.12-1.43,1.75-.22.33-.41.68-.62,1.02s-.41.63-.63.94c-.46.64-.95,1.26-1.44,1.88-.55.69-1.12,1.37-1.7,2.03-.08.1.06.24.14.14,1.03-1.18,2.02-2.39,2.95-3.65.23-.31.46-.63.68-.96s.39-.65.59-.98c.4-.67.89-1.25,1.41-1.83.61-.67,1.22-1.33,1.84-2,.09-.09-.05-.24-.14-.14h0Z"/><path d="m174.72,111.44c.67-.68,1.48-1.2,2.27-1.72s1.55-1.09,2.28-1.7c1.47-1.22,2.82-2.59,4.12-4,.74-.8,1.46-1.61,2.17-2.43.08-.1-.06-.24-.14-.14-1.27,1.44-2.54,2.87-3.9,4.23s-2.8,2.62-4.39,3.7c-.88.6-1.8,1.15-2.55,1.91-.09.09.05.23.14.14h0Z"/><path d="m174.55,113.66c1.12-.69,2.22-1.43,3.28-2.21.1-.08,0-.25-.1-.17-1.06.78-2.15,1.52-3.28,2.21-.11.07,0,.24.1.17h0Z"/><path d="m143.14,110.66c2.87-.47,5.78-.62,8.68-.47.81.04,1.62.11,2.43.2.13.01.13-.19,0-.2-2.89-.32-5.82-.34-8.72-.04-.82.08-1.63.19-2.45.32-.13.02-.07.21.05.19h0Z"/><path d="m142.93,114.09c1.77-.4,3.58-.62,5.39-.66.51-.01,1.02,0,1.53,0,.13,0,.13-.2,0-.2-1.82-.06-3.65.06-5.45.36-.51.09-1.02.19-1.53.3-.13.03-.07.22.05.19h0Z"/><path d="m167.93,108.61c1.1-.15,2.19-.37,3.27-.63.12-.03.07-.22-.05-.19-1.08.27-2.17.48-3.27.63-.13.02-.07.21.05.19h0Z"/><path d="m195.49,88.55c-.54.21-.99.57-1.44.93s-.92.77-1.36,1.17c-.88.79-1.71,1.64-2.5,2.52-.45.5-.88,1.02-1.3,1.55-.08.1.06.24.14.14,1.45-1.83,3.09-3.52,4.89-5.01.5-.42,1.01-.86,1.62-1.11.12-.05.07-.24-.05-.19h0Z"/><path d="m191.71,97.29c1.02-1.17,2.12-2.27,3.31-3.28.1-.08-.04-.22-.14-.14-1.18,1.01-2.29,2.1-3.31,3.28-.08.1.06.24.14.14h0Z"/><path class="cls-3" d="m165.38,85.49c-1.22.44-23.72,20.84-23.72,20.84h33.03l21.5-20.84h-30.81Z"/><path class="cls-3" d="m164.74,76.12c-1.2.44-23.27,20.45-23.27,20.45h32.41l21.1-20.45h-30.24Z"/><polygon class="cls-2" points="141.46 96.57 141.55 98.82 141.83 106.14 173.87 106.14 173.87 96.57 141.46 96.57"/><polyline class="cls-2" points="173.87 106.14 194.97 86.34 194.97 76.12 173.87 96.57"/><path d="m142.01,98.88c2.76,0,5.51.03,8.27.11s5.53.2,8.29.37c1.55.09,3.1.2,4.65.32.13.01.13-.19,0-.2-2.75-.22-5.5-.39-8.25-.52s-5.53-.21-8.29-.26c-1.55-.02-3.11-.03-4.66-.03-.13,0-.13.2,0,.2h0Z"/><path d="m149.27,103.43c3.21-.46,6.47-.51,9.71-.64s6.52-.26,9.78-.39c1.83-.07,3.66-.15,5.49-.22.13,0,.13-.21,0-.2-3.28.13-6.56.26-9.83.4s-6.51.24-9.76.4c-1.82.09-3.64.21-5.44.47-.13.02-.07.21.05.19h0Z"/><path d="m162.23,104.59c2.88-.35,5.79-.1,8.69-.22.8-.03,1.61-.1,2.41-.21.13-.02.07-.21-.05-.19-2.85.4-5.74.16-8.61.25-.81.02-1.63.08-2.43.18-.13.02-.13.22,0,.2h0Z"/><path d="m162.85,100.93c2.66-.03,5.32-.2,7.97-.45.74-.07,1.48-.14,2.22-.22.13-.01.13-.21,0-.2-2.65.26-5.29.51-7.95.61-.75.03-1.49.05-2.24.06-.13,0-.13.2,0,.2h0Z"/><path d="m173.68,99.86c1.54-1.53,3.1-3.04,4.66-4.54.78-.75,1.56-1.5,2.34-2.24s1.53-1.48,2.33-2.19c.88-.78,1.81-1.49,2.79-2.15.11-.07,0-.24-.1-.17-.86.57-1.68,1.19-2.46,1.86s-1.57,1.43-2.34,2.16c-1.58,1.51-3.15,3.02-4.72,4.55-.88.86-1.76,1.72-2.63,2.58-.09.09.05.23.14.14h0Z"/><path d="m194.85,80.71c-.55.6-1.1,1.2-1.65,1.79-.51.56-1.02,1.12-1.43,1.75-.22.33-.41.68-.62,1.02s-.41.63-.63.94c-.46.64-.95,1.26-1.44,1.88-.55.69-1.12,1.37-1.7,2.03-.08.1.06.24.14.14,1.03-1.18,2.02-2.39,2.95-3.65.23-.31.46-.63.68-.96s.39-.65.59-.98c.4-.67.89-1.25,1.41-1.83.61-.67,1.22-1.33,1.84-2,.09-.09-.05-.24-.14-.14h0Z"/><path d="m174.11,101.96c.67-.68,1.48-1.2,2.27-1.72s1.55-1.09,2.28-1.7c1.47-1.22,2.82-2.59,4.12-4,.74-.8,1.46-1.61,2.17-2.43.08-.1-.06-.24-.14-.14-1.27,1.44-2.54,2.87-3.9,4.23s-2.8,2.62-4.39,3.7c-.88.6-1.8,1.15-2.55,1.91-.09.09.05.23.14.14h0Z"/><path d="m173.94,104.18c1.12-.69,2.22-1.43,3.28-2.21.1-.08,0-.25-.1-.17-1.06.78-2.15,1.52-3.28,2.21-.11.07,0,.24.1.17h0Z"/><path d="m142.53,101.18c2.87-.47,5.78-.62,8.68-.47.81.04,1.62.11,2.43.2.13.01.13-.19,0-.2-2.89-.32-5.82-.34-8.72-.04-.82.08-1.63.19-2.45.32-.13.02-.07.21.05.19h0Z"/><path d="m142.32,104.6c1.77-.4,3.58-.62,5.39-.66.51-.01,1.02,0,1.53,0,.13,0,.13-.2,0-.2-1.82-.06-3.65.06-5.45.36-.51.09-1.02.19-1.53.3-.13.03-.07.22.05.19h0Z"/><path d="m167.32,99.12c1.1-.15,2.19-.37,3.27-.63.12-.03.07-.22-.05-.19-1.08.27-2.17.48-3.27.63-.13.02-.07.21.05.19h0Z"/><path d="m194.88,79.07c-.54.21-.99.57-1.44.93s-.92.77-1.36,1.17c-.88.79-1.71,1.64-2.5,2.52-.45.5-.88,1.02-1.3,1.55-.08.1.06.24.14.14,1.45-1.83,3.09-3.52,4.89-5.01.5-.42,1.01-.86,1.62-1.11.12-.05.07-.24-.05-.19h0Z"/><path d="m191.1,87.8c1.02-1.17,2.12-2.27,3.31-3.28.1-.08-.04-.22-.14-.14-1.18,1.01-2.29,2.1-3.31,3.28-.08.1.06.24.14.14h0Z"/><path class="cls-3" d="m165.48,75.87c-1.22.44-23.72,20.84-23.72,20.84h33.03l21.5-20.84h-30.81Z"/><path class="cls-4" d="m164.84,66.49c-1.2.44-23.27,20.45-23.27,20.45h32.41l21.1-20.45h-30.24Z"/><polygon class="cls-2" points="141.56 86.94 141.65 89.2 141.93 96.51 173.97 96.51 173.97 86.94 141.56 86.94"/><polyline class="cls-2" points="173.97 96.51 195.07 76.72 195.07 66.49 173.97 86.94"/><path d="m142.11,89.26c2.76,0,5.51.03,8.27.11s5.53.2,8.29.37c1.55.09,3.1.2,4.65.32.13.01.13-.19,0-.2-2.75-.22-5.5-.39-8.25-.52s-5.53-.21-8.29-.26c-1.55-.02-3.11-.03-4.66-.03-.13,0-.13.2,0,.2h0Z"/><path d="m149.37,93.8c3.21-.46,6.47-.51,9.71-.64s6.52-.26,9.78-.39c1.83-.07,3.66-.15,5.49-.22.13,0,.13-.21,0-.2-3.28.13-6.56.26-9.83.4s-6.51.24-9.76.4c-1.82.09-3.64.21-5.44.47-.13.02-.07.21.05.19h0Z"/><path d="m162.33,94.96c2.88-.35,5.79-.1,8.69-.22.8-.03,1.61-.1,2.41-.21.13-.02.07-.21-.05-.19-2.85.4-5.74.16-8.61.25-.81.02-1.63.08-2.43.18-.13.02-.13.22,0,.2h0Z"/><path d="m162.95,91.31c2.66-.03,5.32-.2,7.97-.45.74-.07,1.48-.14,2.22-.22.13-.01.13-.21,0-.2-2.65.26-5.29.51-7.95.61-.75.03-1.49.05-2.24.06-.13,0-.13.2,0,.2h0Z"/><path d="m173.78,90.23c1.54-1.53,3.1-3.04,4.66-4.54.78-.75,1.56-1.5,2.34-2.24s1.53-1.48,2.33-2.19c.88-.78,1.81-1.49,2.79-2.15.11-.07,0-.24-.1-.17-.86.57-1.68,1.19-2.46,1.86s-1.57,1.43-2.34,2.16c-1.58,1.51-3.15,3.02-4.72,4.55-.88.86-1.76,1.72-2.63,2.58-.09.09.05.23.14.14h0Z"/><path d="m194.95,71.09c-.55.6-1.1,1.2-1.65,1.79-.51.56-1.02,1.12-1.43,1.75-.22.33-.41.68-.62,1.02s-.41.63-.63.94c-.46.64-.95,1.26-1.44,1.88-.55.69-1.12,1.37-1.7,2.03-.08.1.06.24.14.14,1.03-1.18,2.02-2.39,2.95-3.65.23-.31.46-.63.68-.96s.39-.65.59-.98c.4-.67.89-1.25,1.41-1.83.61-.67,1.22-1.33,1.84-2,.09-.09-.05-.24-.14-.14h0Z"/><path d="m174.21,92.33c.67-.68,1.48-1.2,2.27-1.72s1.55-1.09,2.28-1.7c1.47-1.22,2.82-2.59,4.12-4,.74-.8,1.46-1.61,2.17-2.43.08-.1-.06-.24-.14-.14-1.27,1.44-2.54,2.87-3.9,4.23s-2.8,2.62-4.39,3.7c-.88.6-1.8,1.15-2.55,1.91-.09.09.05.23.14.14h0Z"/><path d="m174.04,94.55c1.12-.69,2.22-1.43,3.28-2.21.1-.08,0-.25-.1-.17-1.06.78-2.15,1.52-3.28,2.21-.11.07,0,.24.1.17h0Z"/><path d="m142.63,91.55c2.87-.47,5.78-.62,8.68-.47.81.04,1.62.11,2.43.2.13.01.13-.19,0-.2-2.89-.32-5.82-.34-8.72-.04-.82.08-1.63.19-2.45.32-.13.02-.07.21.05.19h0Z"/><path d="m142.42,94.98c1.77-.4,3.58-.62,5.39-.66.51-.01,1.02,0,1.53,0,.13,0,.13-.2,0-.2-1.82-.06-3.65.06-5.45.36-.51.09-1.02.19-1.53.3-.13.03-.07.22.05.19h0Z"/><path d="m167.42,89.5c1.1-.15,2.19-.37,3.27-.63.12-.03.07-.22-.05-.19-1.08.27-2.17.48-3.27.63-.13.02-.07.21.05.19h0Z"/><path d="m194.98,69.45c-.54.21-.99.57-1.44.93s-.92.77-1.36,1.17c-.88.79-1.71,1.64-2.5,2.52-.45.5-.88,1.02-1.3,1.55-.08.1.06.24.14.14,1.45-1.83,3.09-3.52,4.89-5.01.5-.42,1.01-.86,1.62-1.11.12-.05.07-.24-.05-.19h0Z"/><path d="m191.2,78.18c1.02-1.17,2.12-2.27,3.31-3.28.1-.08-.04-.22-.14-.14-1.18,1.01-2.29,2.1-3.31,3.28-.08.1.06.24.14.14h0Z"/><path d="m59.5,106.17c1.5-.65,3.06-1.18,4.64-1.59s3.22-.68,4.86-.83,3.43-.16,5.14-.08,3.45.27,5.16.5,3.4.51,5.09.8c.22.04.43.07.65.11.13.02.18-.17.05-.19-1.72-.29-3.44-.58-5.16-.82s-3.43-.44-5.16-.55-3.48-.13-5.22,0-3.3.36-4.91.74-3.17.88-4.7,1.51c-.18.08-.37.15-.55.23-.12.05-.02.22.1.17h0Z"/><path d="m85.81,104.95c.87-.09,1.72-.32,2.55-.57s1.72-.51,2.6-.69c1.79-.35,3.62-.53,5.44-.6s3.61-.04,5.41.1,3.64.37,5.44.67,3.56.68,5.32,1.12c.22.05.44.11.66.17.12.03.18-.16.05-.19-1.76-.45-3.54-.84-5.33-1.17s-3.58-.57-5.38-.73-3.64-.23-5.46-.18-3.61.2-5.39.49c-.9.15-1.79.35-2.67.61s-1.69.53-2.56.69c-.23.04-.45.08-.68.1-.13.01-.13.21,0,.2h0Z"/><path d="m86.21,106.07c1.99-.55,4.04-.91,6.1-1.06.58-.04,1.17-.07,1.75-.08.13,0,.13-.2,0-.2-2.08.03-4.15.27-6.18.72-.58.13-1.16.27-1.73.43-.12.03-.07.23.05.19h0Z"/><path d="m97.32,104.82c2.34-.12,4.68-.18,7.02-.06s4.65.4,6.92.96c1.26.31,2.5.7,3.71,1.19.12.05.17-.15.05-.19-2.16-.87-4.43-1.44-6.73-1.78s-4.65-.46-6.99-.45c-1.33,0-2.65.05-3.97.12-.13,0-.13.21,0,.2h0Z"/><path d="m84.8,106.22c-.66.13-1.31-.13-1.9-.41s-1.21-.59-1.89-.71c-.75-.13-1.52-.14-2.28-.18s-1.58-.09-2.38-.14c-.91-.05-1.82-.11-2.72-.16-.13,0-.13.19,0,.2,1.62.1,3.24.19,4.85.29.78.05,1.57.05,2.34.17.37.05.72.15,1.07.29.31.13.61.28.91.42.64.3,1.33.57,2.05.43.13-.02.07-.22-.05-.19h0Z"/><path d="m60.29,107.19c2.58-.28,5.14-.64,7.7-1.09.73-.13,1.46-.26,2.18-.41.13-.02.07-.22-.05-.19-2.54.5-5.1.91-7.67,1.24-.72.09-1.44.18-2.16.25-.13.01-.13.21,0,.2h0Z"/><path d="m86.63,107.02c3.06-.59,6.15-.96,9.26-1.1s6.21-.05,9.3.26c1.75.18,3.5.43,5.23.75.13.02.18-.17.05-.19-3.08-.57-6.2-.92-9.32-1.04s-6.28,0-9.4.34c-1.74.19-3.46.45-5.18.79-.13.02-.07.22.05.19h0Z"/><path d="m84.61,106.82c-1.32-.49-2.65-.98-4.05-1.19-1.3-.2-2.63-.18-3.92.06-.74.14-1.47.34-2.17.62-.12.05-.07.24.05.19,1.23-.48,2.53-.75,3.85-.8s2.68.16,3.97.54c.75.22,1.48.49,2.22.76.12.04.17-.15.05-.19h0Z"/><path d="m90.68,100.08c.47.06.85-.23,1.2-.51.17-.14.35-.28.56-.38.26-.12.5-.09.77.03.28.13.56.23.87.25s.63-.02.94-.08c.65-.13,1.28-.38,1.94-.46.72-.08,1.45.15,2.17.02.35-.07.68-.21.99-.36.15-.07.3-.15.44-.22.18-.09.38-.2.59-.16.16.03.28.14.41.22s.26.15.41.21c.28.11.59.16.89.18.64.03,1.28-.08,1.92-.14.38-.03.75-.04,1.12,0,.43.04.86.1,1.29.08.8-.04,1.54-.38,2.26-.73l-.14-.04c.15.34.46.57.77.77.34.22.68.45,1.05.61.65.28,1.45.33,2.01-.17.1-.09-.05-.23-.14-.14-.52.47-1.3.36-1.89.08-.33-.15-.63-.35-.93-.55-.28-.18-.56-.39-.7-.7-.02-.05-.09-.06-.14-.04-.65.31-1.33.64-2.06.69s-1.45-.13-2.18-.09c-.63.03-1.26.15-1.89.17-.31,0-.62,0-.93-.09-.15-.04-.29-.09-.43-.16s-.27-.17-.4-.25c-.29-.18-.59-.13-.88.01-.32.15-.63.33-.96.45-.35.14-.71.21-1.09.2s-.73-.07-1.1-.08c-.67-.02-1.31.18-1.95.35-.6.16-1.25.31-1.86.11-.31-.1-.59-.31-.93-.27-.24.03-.46.14-.65.28-.38.27-.8.76-1.31.69-.13-.02-.18.18-.05.19h0Z"/><path d="m94.49,97.62c.97-1.14,2.66-.76,3.96-.7.74.03,1.44-.06,2.13-.35.64-.27,1.23-.67,1.76-1.12.13-.11.25-.26.39-.34.16-.09.34.15.46.24.26.2.55.37.86.5.64.28,1.33.42,2.01.57.77.16,1.57.3,2.34.09.71-.19,1.35-.63,2.09-.72s1.54.13,2.24.44c.34.15.68.35,1.05.41s.76-.01,1.12-.12c.19-.06.37-.12.55-.19.12-.04.07-.24-.05-.19-.37.14-.76.29-1.16.32s-.77-.09-1.15-.27c-.68-.33-1.4-.59-2.16-.61-.38,0-.75.05-1.11.17s-.68.28-1.02.41c-.36.14-.73.24-1.13.26-.42.02-.83-.04-1.24-.12-.7-.14-1.42-.29-2.09-.54-.32-.12-.64-.28-.92-.48-.23-.16-.48-.53-.8-.35-.14.08-.26.22-.39.33-.14.12-.28.24-.43.35-.28.21-.58.41-.89.57-.66.35-1.36.54-2.11.55-1.36,0-2.93-.46-4.12.43-.12.09-.24.2-.34.32-.08.1.06.24.14.14h0Z"/><path d="m97.41,94.75c.66-.36,1.33-.71,2-1.05.34-.17.68-.33,1.02-.48.32-.14.65-.27,1-.32.73-.11,1.44.19,2.13.37s1.42.32,2.14.41,1.46.14,2.19.15c.34,0,.73-.06,1.05.05.15.05.29.16.43.23s.31.13.47.16c.68.11,1.4-.05,2.07-.16.36-.06.73-.12,1.1-.14s.74-.01,1.11.01c1.72.12,3.44.28,5.16.41.13.01.13-.19,0-.2-1.54-.12-3.08-.25-4.63-.37-.75-.06-1.49-.09-2.24,0s-1.43.27-2.16.27c-.18,0-.36-.01-.53-.06s-.32-.14-.48-.23c-.3-.17-.59-.19-.93-.19-.73.01-1.47-.02-2.2-.09s-1.5-.21-2.23-.38c-.68-.16-1.37-.45-2.08-.47-.79-.02-1.53.38-2.22.71-.77.37-1.53.78-2.29,1.19-.11.06-.01.23.1.17h0Z"/><path d="m106.63,92.81c.62-.36,1.3-.58,2.01-.66s1.47-.07,2.2-.09,1.49-.01,2.23.02c.38.02.76.04,1.14.08s.73.09,1.1.11c.69.04,1.36-.09,2.03-.26s1.37-.4,2.07-.38c.36,0,.72.12,1.07.2s.7.15,1.06.21c.69.11,1.38.18,2.08.2,1.59.05,3.18-.12,4.72-.52.12-.03.07-.23-.05-.19-1.39.36-2.82.53-4.25.52-.73,0-1.45-.06-2.17-.16-.36-.05-.71-.11-1.06-.19s-.68-.17-1.02-.23c-.69-.11-1.39.07-2.05.24s-1.36.37-2.07.38c-.36,0-.71-.04-1.07-.08-.37-.04-.75-.08-1.13-.1-.75-.05-1.5-.05-2.25-.04-.83,0-1.67,0-2.5.08-.77.08-1.51.3-2.19.69-.11.06-.01.24.1.17h0Z"/><path d="m64.48,100.93c.64-.22,1.27-.45,1.91-.66s1.23-.41,1.87-.52,1.28-.12,1.92-.05,1.26.21,1.88.34,1.21.22,1.83.24,1.26-.05,1.88-.16,1.27-.26,1.91-.38,1.32-.22,1.99-.27c1.49-.12,2.99-.07,4.49-.02.13,0,.13-.2,0-.2-1.33-.04-2.67-.09-4,0-.67.04-1.33.11-1.99.22s-1.28.26-1.91.38-1.29.23-1.94.25-1.28-.06-1.91-.18c-1.23-.23-2.47-.56-3.73-.41-.72.08-1.41.28-2.09.51-.72.24-1.44.5-2.16.75-.12.04-.07.24.05.19h0Z"/><path d="m69.1,97.21c1.15-.45,2.35-.82,3.6-.89s2.49.13,3.72.3,2.44.29,3.67.14,2.46-.48,3.71-.57c1.41-.1,2.82.05,4.18.43.12.03.18-.16.05-.19-1.21-.34-2.46-.5-3.71-.46s-2.47.32-3.71.52c-.63.1-1.27.16-1.91.15s-1.25-.08-1.88-.16c-1.24-.16-2.47-.38-3.72-.37-1.4.02-2.75.41-4.05.91-.12.05-.07.24.05.19h0Z"/><path d="m73.31,93.49c1.9-.62,3.9-.11,5.82.11.97.11,1.95.16,2.91-.02.54-.1,1.06-.28,1.59-.43s1.05-.25,1.58-.31c1.22-.13,2.45-.03,3.63.29.12.03.18-.16.05-.19-1.05-.29-2.14-.41-3.22-.34-.54.03-1.07.11-1.6.23s-1.06.3-1.59.44c-1.98.52-3.98-.01-5.96-.21-1.09-.11-2.21-.11-3.27.24-.12.04-.07.23.05.19h0Z"/><path d="m83.95,91.99c2.23-.28,4.47-.52,6.72-.46,1.12.03,2.22.17,3.33.31.56.07,1.12.11,1.68.12s1.13-.02,1.69-.04c1.27-.05,2.53-.1,3.8-.15.13,0,.13-.21,0-.2-1.13.05-2.25.09-3.38.14s-2.26.1-3.38-.02-2.21-.29-3.33-.34-2.25-.02-3.37.06c-1.26.09-2.52.23-3.77.39-.13.02-.13.22,0,.2h0Z"/><path d="m116.08,105.57c.91-1.19,2.02-2.21,3.16-3.19,1.22-1.05,2.46-2.1,3.69-3.14.71-.6,1.42-1.21,2.12-1.81.1-.08-.04-.22-.14-.14-1.26,1.08-2.53,2.15-3.79,3.23-1.19,1.01-2.41,2-3.53,3.09-.6.58-1.17,1.2-1.68,1.86-.08.1.1.2.17.1h0Z"/><path d="m121.83,97.77c.79-.53,1.35-1.31,1.92-2.06.29-.38.59-.76.93-1.1.4-.4.86-.72,1.31-1.05.55-.39,1.1-.79,1.64-1.18.1-.07,0-.25-.1-.17-.49.35-.98.7-1.47,1.06-.45.32-.91.64-1.32,1.01-.72.65-1.24,1.48-1.85,2.22-.34.42-.72.81-1.17,1.11-.11.07,0,.24.1.17h0Z"/><path d="m115.83,104.14c1.17-.96,2.06-2.2,3.1-3.29.3-.31.61-.61.94-.89.1-.08-.04-.22-.14-.14-1.16.97-2.05,2.21-3.1,3.29-.3.31-.61.61-.94.88-.1.08.04.22.14.14h0Z"/><path d="m128.11,96.16c-1.32,1.13-2.7,2.17-4.1,3.18-.4.29-.8.58-1.2.87-.1.07,0,.25.1.17,1.42-1.02,2.84-2.04,4.21-3.14.39-.31.77-.62,1.14-.95.1-.08-.04-.22-.14-.14h0Z"/><path d="m126.22,96.06c.05-.18.18-.31.31-.43.14-.14.29-.28.44-.42.3-.27.61-.52.94-.76.1-.07,0-.25-.1-.17-.35.25-.69.52-1,.81-.16.14-.31.29-.46.44-.14.14-.26.29-.32.48-.04.12.16.18.19.05h0Z"/><path d="m116.21,106.96c.49-.61,1.09-1.12,1.76-1.51.11-.06.01-.24-.1-.17-.69.4-1.31.92-1.8,1.54-.08.1.06.24.14.14h0Z"/><path class="cls-3" d="m164.9,66.5c-1.22.44-23.72,20.84-23.72,20.84h33.03l21.5-20.84h-30.81Z"/><path class="cls-3" d="m164.26,57.13c-1.2.44-23.27,20.45-23.27,20.45h32.41l21.1-20.45h-30.24Z"/><polygon class="cls-2" points="140.98 77.58 141.07 79.83 141.35 87.15 173.39 87.15 173.39 77.58 140.98 77.58"/><polyline class="cls-2" points="173.39 87.15 194.49 67.35 194.49 57.13 173.39 77.58"/><path d="m141.53,79.89c2.76,0,5.51.03,8.27.11s5.53.2,8.29.37c1.55.09,3.1.2,4.65.32.13.01.13-.19,0-.2-2.75-.22-5.5-.39-8.25-.52s-5.53-.21-8.29-.26c-1.55-.02-3.11-.03-4.66-.03-.13,0-.13.2,0,.2h0Z"/><path d="m148.79,84.44c3.21-.46,6.47-.51,9.71-.64s6.52-.26,9.78-.39c1.83-.07,3.66-.15,5.49-.22.13,0,.13-.21,0-.2-3.28.13-6.56.26-9.83.4s-6.51.24-9.76.4c-1.82.09-3.64.21-5.44.47-.13.02-.07.21.05.19h0Z"/><path d="m161.75,85.6c2.88-.35,5.79-.1,8.69-.22.8-.03,1.61-.1,2.41-.21.13-.02.07-.21-.05-.19-2.85.4-5.74.16-8.61.25-.81.02-1.63.08-2.43.18-.13.02-.13.22,0,.2h0Z"/><path d="m162.37,81.94c2.66-.03,5.32-.2,7.97-.45.74-.07,1.48-.14,2.22-.22.13-.01.13-.21,0-.2-2.65.26-5.29.51-7.95.61-.75.03-1.49.05-2.24.06-.13,0-.13.2,0,.2h0Z"/><path d="m173.2,80.87c1.54-1.53,3.1-3.04,4.66-4.54.78-.75,1.56-1.5,2.34-2.24s1.53-1.48,2.33-2.19c.88-.78,1.81-1.49,2.79-2.15.11-.07,0-.24-.1-.17-.86.57-1.68,1.19-2.46,1.86s-1.57,1.43-2.34,2.16c-1.58,1.51-3.15,3.02-4.72,4.55-.88.86-1.76,1.72-2.63,2.58-.09.09.05.23.14.14h0Z"/><path d="m194.37,61.72c-.55.6-1.1,1.2-1.65,1.79-.51.56-1.02,1.12-1.43,1.75-.22.33-.41.68-.62,1.02s-.41.63-.63.94c-.46.64-.95,1.26-1.44,1.88-.55.69-1.12,1.37-1.7,2.03-.08.1.06.24.14.14,1.03-1.18,2.02-2.39,2.95-3.65.23-.31.46-.63.68-.96s.39-.65.59-.98c.4-.67.89-1.25,1.41-1.83.61-.67,1.22-1.33,1.84-2,.09-.09-.05-.24-.14-.14h0Z"/><path d="m173.63,82.97c.67-.68,1.48-1.2,2.27-1.72s1.55-1.09,2.28-1.7c1.47-1.22,2.82-2.59,4.12-4,.74-.8,1.46-1.61,2.17-2.43.08-.1-.06-.24-.14-.14-1.27,1.44-2.54,2.87-3.9,4.23s-2.8,2.62-4.39,3.7c-.88.6-1.8,1.15-2.55,1.91-.09.09.05.23.14.14h0Z"/><path d="m173.46,85.19c1.12-.69,2.22-1.43,3.28-2.21.1-.08,0-.25-.1-.17-1.06.78-2.15,1.52-3.28,2.21-.11.07,0,.24.1.17h0Z"/><path d="m142.05,82.19c2.87-.47,5.78-.62,8.68-.47.81.04,1.62.11,2.43.2.13.01.13-.19,0-.2-2.89-.32-5.82-.34-8.72-.04-.82.08-1.63.19-2.45.32-.13.02-.07.21.05.19h0Z"/><path d="m141.84,85.61c1.77-.4,3.58-.62,5.39-.66.51-.01,1.02,0,1.53,0,.13,0,.13-.2,0-.2-1.82-.06-3.65.06-5.45.36-.51.09-1.02.19-1.53.3-.13.03-.07.22.05.19h0Z"/><path d="m166.84,80.13c1.1-.15,2.19-.37,3.27-.63.12-.03.07-.22-.05-.19-1.08.27-2.17.48-3.27.63-.13.02-.07.21.05.19h0Z"/><path d="m194.4,60.08c-.54.21-.99.57-1.44.93s-.92.77-1.36,1.17c-.88.79-1.71,1.64-2.5,2.52-.45.5-.88,1.02-1.3,1.55-.08.1.06.24.14.14,1.45-1.83,3.09-3.52,4.89-5.01.5-.42,1.01-.86,1.62-1.11.12-.05.07-.24-.05-.19h0Z"/><path d="m190.62,68.81c1.02-1.17,2.12-2.27,3.31-3.28.1-.08-.04-.22-.14-.14-1.18,1.01-2.29,2.1-3.31,3.28-.08.1.06.24.14.14h0Z"/><path class="cls-3" d="m164.29,57.02c-1.22.44-23.72,20.84-23.72,20.84h33.03l21.5-20.84h-30.81Z"/><path class="cls-3" d="m163.65,47.65c-1.2.44-23.27,20.45-23.27,20.45h32.41l21.1-20.45h-30.24Z"/><polygon class="cls-2" points="140.37 68.09 140.46 70.35 140.73 77.66 172.78 77.66 172.78 68.09 140.37 68.09"/><polyline class="cls-2" points="172.78 77.66 193.88 57.87 193.88 47.65 172.78 68.09"/><path d="m140.91,70.41c2.76,0,5.51.03,8.27.11s5.53.2,8.29.37c1.55.09,3.1.2,4.65.32.13.01.13-.19,0-.2-2.75-.22-5.5-.39-8.25-.52s-5.53-.21-8.29-.26c-1.55-.02-3.11-.03-4.66-.03-.13,0-.13.2,0,.2h0Z"/><path d="m148.18,74.95c3.21-.46,6.47-.51,9.71-.64s6.52-.26,9.78-.39c1.83-.07,3.66-.15,5.49-.22.13,0,.13-.21,0-.2-3.28.13-6.56.26-9.83.4s-6.51.24-9.76.4c-1.82.09-3.64.21-5.44.47-.13.02-.07.21.05.19h0Z"/><path d="m161.14,76.11c2.88-.35,5.79-.1,8.69-.22.8-.03,1.61-.1,2.41-.21.13-.02.07-.21-.05-.19-2.85.4-5.74.16-8.61.25-.81.02-1.63.08-2.43.18-.13.02-.13.22,0,.2h0Z"/><path d="m161.76,72.46c2.66-.03,5.32-.2,7.97-.45.74-.07,1.48-.14,2.22-.22.13-.01.13-.21,0-.2-2.65.26-5.29.51-7.95.61-.75.03-1.49.05-2.24.06-.13,0-.13.2,0,.2h0Z"/><path d="m172.59,71.38c1.54-1.53,3.1-3.04,4.66-4.54.78-.75,1.56-1.5,2.34-2.24s1.53-1.48,2.33-2.19c.88-.78,1.81-1.49,2.79-2.15.11-.07,0-.24-.1-.17-.86.57-1.68,1.19-2.46,1.86s-1.57,1.43-2.34,2.16c-1.58,1.51-3.15,3.02-4.72,4.55-.88.86-1.76,1.72-2.63,2.58-.09.09.05.23.14.14h0Z"/><path d="m193.76,52.24c-.55.6-1.1,1.2-1.65,1.79-.51.56-1.02,1.12-1.43,1.75-.22.33-.41.68-.62,1.02s-.41.63-.63.94c-.46.64-.95,1.26-1.44,1.88-.55.69-1.12,1.37-1.7,2.03-.08.1.06.24.14.14,1.03-1.18,2.02-2.39,2.95-3.65.23-.31.46-.63.68-.96s.39-.65.59-.98c.4-.67.89-1.25,1.41-1.83.61-.67,1.22-1.33,1.84-2,.09-.09-.05-.24-.14-.14h0Z"/><path d="m173.01,73.48c.67-.68,1.48-1.2,2.27-1.72s1.55-1.09,2.28-1.7c1.47-1.22,2.82-2.59,4.12-4,.74-.8,1.46-1.61,2.17-2.43.08-.1-.06-.24-.14-.14-1.27,1.44-2.54,2.87-3.9,4.23s-2.8,2.62-4.39,3.7c-.88.6-1.8,1.15-2.55,1.91-.09.09.05.23.14.14h0Z"/><path d="m172.85,75.71c1.12-.69,2.22-1.43,3.28-2.21.1-.08,0-.25-.1-.17-1.06.78-2.15,1.52-3.28,2.21-.11.07,0,.24.1.17h0Z"/><path d="m141.44,72.7c2.87-.47,5.78-.62,8.68-.47.81.04,1.62.11,2.43.2.13.01.13-.19,0-.2-2.89-.32-5.82-.34-8.72-.04-.82.08-1.63.19-2.45.32-.13.02-.07.21.05.19h0Z"/><path d="m141.23,76.13c1.77-.4,3.58-.62,5.39-.66.51-.01,1.02,0,1.53,0,.13,0,.13-.2,0-.2-1.82-.06-3.65.06-5.45.36-.51.09-1.02.19-1.53.3-.13.03-.07.22.05.19h0Z"/><path d="m166.23,70.65c1.1-.15,2.19-.37,3.27-.63.12-.03.07-.22-.05-.19-1.08.27-2.17.48-3.27.63-.13.02-.07.21.05.19h0Z"/><path d="m193.79,50.6c-.54.21-.99.57-1.44.93s-.92.77-1.36,1.17c-.88.79-1.71,1.64-2.5,2.52-.45.5-.88,1.02-1.3,1.55-.08.1.06.24.14.14,1.45-1.83,3.09-3.52,4.89-5.01.5-.42,1.01-.86,1.62-1.11.12-.05.07-.24-.05-.19h0Z"/><path d="m190.01,59.33c1.02-1.17,2.12-2.27,3.31-3.28.1-.08-.04-.22-.14-.14-1.18,1.01-2.29,2.1-3.31,3.28-.08.1.06.24.14.14h0Z"/><path class="cls-3" d="m164.39,47.39c-1.22.44-23.72,20.84-23.72,20.84h33.03l21.5-20.84h-30.81Z"/><path class="cls-4" d="m163.75,38.02c-1.2.44-23.27,20.45-23.27,20.45h32.41l21.1-20.45h-30.24Z"/><polygon class="cls-2" points="140.47 58.47 140.56 60.72 140.83 68.04 172.88 68.04 172.88 58.47 140.47 58.47"/><polyline class="cls-2" points="172.88 68.04 193.98 48.24 193.98 38.02 172.88 58.47"/><path d="m141.01,60.78c2.76,0,5.51.03,8.27.11s5.53.2,8.29.37c1.55.09,3.1.2,4.65.32.13.01.13-.19,0-.2-2.75-.22-5.5-.39-8.25-.52s-5.53-.21-8.29-.26c-1.55-.02-3.11-.03-4.66-.03-.13,0-.13.2,0,.2h0Z"/><path d="m148.28,65.33c3.21-.46,6.47-.51,9.71-.64s6.52-.26,9.78-.39c1.83-.07,3.66-.15,5.49-.22.13,0,.13-.21,0-.2-3.28.13-6.56.26-9.83.4s-6.51.24-9.76.4c-1.82.09-3.64.21-5.44.47-.13.02-.07.21.05.19h0Z"/><path d="m161.23,66.49c2.88-.35,5.79-.1,8.69-.22.8-.03,1.61-.1,2.41-.21.13-.02.07-.21-.05-.19-2.85.4-5.74.16-8.61.25-.81.02-1.63.08-2.43.18-.13.02-.13.22,0,.2h0Z"/><path d="m161.86,62.83c2.66-.03,5.32-.2,7.97-.45.74-.07,1.48-.14,2.22-.22.13-.01.13-.21,0-.2-2.65.26-5.29.51-7.95.61-.75.03-1.49.05-2.24.06-.13,0-.13.2,0,.2h0Z"/><path d="m172.69,61.76c1.54-1.53,3.1-3.04,4.66-4.54.78-.75,1.56-1.5,2.34-2.24s1.53-1.48,2.33-2.19c.88-.78,1.81-1.49,2.79-2.15.11-.07,0-.24-.1-.17-.86.57-1.68,1.19-2.46,1.86s-1.57,1.43-2.34,2.16c-1.58,1.51-3.15,3.02-4.72,4.55-.88.86-1.76,1.72-2.63,2.58-.09.09.05.23.14.14h0Z"/><path d="m193.85,42.61c-.55.6-1.1,1.2-1.65,1.79-.51.56-1.02,1.12-1.43,1.75-.22.33-.41.68-.62,1.02s-.41.63-.63.94c-.46.64-.95,1.26-1.44,1.88-.55.69-1.12,1.37-1.7,2.03-.08.1.06.24.14.14,1.03-1.18,2.02-2.39,2.95-3.65.23-.31.46-.63.68-.96s.39-.65.59-.98c.4-.67.89-1.25,1.41-1.83.61-.67,1.22-1.33,1.84-2,.09-.09-.05-.24-.14-.14h0Z"/><path d="m173.11,63.86c.67-.68,1.48-1.2,2.27-1.72s1.55-1.09,2.28-1.7c1.47-1.22,2.82-2.59,4.12-4,.74-.8,1.46-1.61,2.17-2.43.08-.1-.06-.24-.14-.14-1.27,1.44-2.54,2.87-3.9,4.23s-2.8,2.62-4.39,3.7c-.88.6-1.8,1.15-2.55,1.91-.09.09.05.23.14.14h0Z"/><path d="m172.95,66.08c1.12-.69,2.22-1.43,3.28-2.21.1-.08,0-.25-.1-.17-1.06.78-2.15,1.52-3.28,2.21-.11.07,0,.24.1.17h0Z"/><path d="m141.54,63.08c2.87-.47,5.78-.62,8.68-.47.81.04,1.62.11,2.43.2.13.01.13-.19,0-.2-2.89-.32-5.82-.34-8.72-.04-.82.08-1.63.19-2.45.32-.13.02-.07.21.05.19h0Z"/><path d="m141.33,66.5c1.77-.4,3.58-.62,5.39-.66.51-.01,1.02,0,1.53,0,.13,0,.13-.2,0-.2-1.82-.06-3.65.06-5.45.36-.51.09-1.02.19-1.53.3-.13.03-.07.22.05.19h0Z"/><path d="m166.33,61.03c1.1-.15,2.19-.37,3.27-.63.12-.03.07-.22-.05-.19-1.08.27-2.17.48-3.27.63-.13.02-.07.21.05.19h0Z"/><path d="m193.89,40.97c-.54.21-.99.57-1.44.93s-.92.77-1.36,1.17c-.88.79-1.71,1.64-2.5,2.52-.45.5-.88,1.02-1.3,1.55-.08.1.06.24.14.14,1.45-1.83,3.09-3.52,4.89-5.01.5-.42,1.01-.86,1.62-1.11.12-.05.07-.24-.05-.19h0Z"/><path d="m190.11,49.7c1.02-1.17,2.12-2.27,3.31-3.28.1-.08-.04-.22-.14-.14-1.18,1.01-2.29,2.1-3.31,3.28-.08.1.06.24.14.14h0Z"/><path class="cls-3" d="m53.77,125.6c-1.22.44-23.72,20.84-23.72,20.84h33.03l21.5-20.84h-30.81Z"/><path class="cls-3" d="m53.13,116.22c-1.2.44-23.27,20.45-23.27,20.45h32.41l21.1-20.45h-30.24Z"/><polygon class="cls-2" points="29.85 136.67 29.94 138.93 30.22 146.24 62.26 146.24 62.26 136.67 29.85 136.67"/><polyline class="cls-2" points="62.26 146.24 83.36 126.45 83.36 116.22 62.26 136.67"/><path d="m30.4,138.99c2.76,0,5.51.03,8.27.11s5.53.2,8.29.37c1.55.09,3.1.2,4.65.32.13.01.13-.19,0-.2-2.75-.22-5.5-.39-8.25-.52s-5.53-.21-8.29-.26c-1.55-.02-3.11-.03-4.66-.03-.13,0-.13.2,0,.2h0Z"/><path d="m37.66,143.53c3.21-.46,6.47-.51,9.71-.64s6.52-.26,9.78-.39c1.83-.07,3.66-.15,5.49-.22.13,0,.13-.21,0-.2-3.28.13-6.56.26-9.83.4s-6.51.24-9.76.4c-1.82.09-3.64.21-5.44.47-.13.02-.07.21.05.19h0Z"/><path d="m50.62,144.69c2.88-.35,5.79-.1,8.69-.22.8-.03,1.61-.1,2.41-.21.13-.02.07-.21-.05-.19-2.85.4-5.74.16-8.61.25-.81.02-1.63.08-2.43.18-.13.02-.13.22,0,.2h0Z"/><path d="m51.24,141.04c2.66-.03,5.32-.2,7.97-.45.74-.07,1.48-.14,2.22-.22.13-.01.13-.21,0-.2-2.65.26-5.29.51-7.95.61-.75.03-1.49.05-2.24.06-.13,0-.13.2,0,.2h0Z"/><path d="m62.07,139.96c1.54-1.53,3.1-3.04,4.66-4.54.78-.75,1.56-1.5,2.34-2.24s1.53-1.48,2.33-2.19c.88-.78,1.81-1.49,2.79-2.15.11-.07,0-.24-.1-.17-.86.57-1.68,1.19-2.46,1.86s-1.57,1.43-2.34,2.16c-1.58,1.51-3.15,3.02-4.72,4.55-.88.86-1.76,1.72-2.63,2.58-.09.09.05.23.14.14h0Z"/><path d="m83.24,120.82c-.55.6-1.1,1.2-1.65,1.79-.51.56-1.02,1.12-1.43,1.75-.22.33-.41.68-.62,1.02s-.41.63-.63.94c-.46.64-.95,1.26-1.44,1.88-.55.69-1.12,1.37-1.7,2.03-.08.1.06.24.14.14,1.03-1.18,2.02-2.39,2.95-3.65.23-.31.46-.63.68-.96s.39-.65.59-.98c.4-.67.89-1.25,1.41-1.83.61-.67,1.22-1.33,1.84-2,.09-.09-.05-.24-.14-.14h0Z"/><path d="m62.5,142.06c.67-.68,1.48-1.2,2.27-1.72s1.55-1.09,2.28-1.7c1.47-1.22,2.82-2.59,4.12-4,.74-.8,1.46-1.61,2.17-2.43.08-.1-.06-.24-.14-.14-1.27,1.44-2.54,2.87-3.9,4.23s-2.8,2.62-4.39,3.7c-.88.6-1.8,1.15-2.55,1.91-.09.09.05.23.14.14h0Z"/><path d="m62.33,144.28c1.12-.69,2.22-1.43,3.28-2.21.1-.08,0-.25-.1-.17-1.06.78-2.15,1.52-3.28,2.21-.11.07,0,.24.1.17h0Z"/><path d="m30.92,141.28c2.87-.47,5.78-.62,8.68-.47.81.04,1.62.11,2.43.2.13.01.13-.19,0-.2-2.89-.32-5.82-.34-8.72-.04-.82.08-1.63.19-2.45.32-.13.02-.07.21.05.19h0Z"/><path d="m30.71,144.71c1.77-.4,3.58-.62,5.39-.66.51-.01,1.02,0,1.53,0,.13,0,.13-.2,0-.2-1.82-.06-3.65.06-5.45.36-.51.09-1.02.19-1.53.3-.13.03-.07.22.05.19h0Z"/><path d="m55.71,139.23c1.1-.15,2.19-.37,3.27-.63.12-.03.07-.22-.05-.19-1.08.27-2.17.48-3.27.63-.13.02-.07.21.05.19h0Z"/><path d="m83.27,119.18c-.54.21-.99.57-1.44.93s-.92.77-1.36,1.17c-.88.79-1.71,1.64-2.5,2.52-.45.5-.88,1.02-1.3,1.55-.08.1.06.24.14.14,1.45-1.83,3.09-3.52,4.89-5.01.5-.42,1.01-.86,1.62-1.11.12-.05.07-.24-.05-.19h0Z"/><path d="m79.49,127.91c1.02-1.17,2.12-2.27,3.31-3.28.1-.08-.04-.22-.14-.14-1.18,1.01-2.29,2.1-3.31,3.28-.08.1.06.24.14.14h0Z"/><path class="cls-3" d="m53.16,116.11c-1.22.44-23.72,20.84-23.72,20.84h33.03l21.5-20.84h-30.81Z"/><path class="cls-3" d="m52.52,106.74c-1.2.44-23.27,20.45-23.27,20.45h32.41l21.1-20.45h-30.24Z"/><polygon class="cls-2" points="29.24 127.19 29.33 129.44 29.6 136.76 61.65 136.76 61.65 127.19 29.24 127.19"/><polyline class="cls-2" points="61.65 136.76 82.75 116.97 82.75 106.74 61.65 127.19"/><path d="m29.79,129.5c2.76,0,5.51.03,8.27.11s5.53.2,8.29.37c1.55.09,3.1.2,4.65.32.13.01.13-.19,0-.2-2.75-.22-5.5-.39-8.25-.52s-5.53-.21-8.29-.26c-1.55-.02-3.11-.03-4.66-.03-.13,0-.13.2,0,.2h0Z"/><path d="m37.05,134.05c3.21-.46,6.47-.51,9.71-.64s6.52-.26,9.78-.39c1.83-.07,3.66-.15,5.49-.22.13,0,.13-.21,0-.2-3.28.13-6.56.26-9.83.4s-6.51.24-9.76.4c-1.82.09-3.64.21-5.44.47-.13.02-.07.21.05.19h0Z"/><path d="m50.01,135.21c2.88-.35,5.79-.1,8.69-.22.8-.03,1.61-.1,2.41-.21.13-.02.07-.21-.05-.19-2.85.4-5.74.16-8.61.25-.81.02-1.63.08-2.43.18-.13.02-.13.22,0,.2h0Z"/><path d="m50.63,131.56c2.66-.03,5.32-.2,7.97-.45.74-.07,1.48-.14,2.22-.22.13-.01.13-.21,0-.2-2.65.26-5.29.51-7.95.61-.75.03-1.49.05-2.24.06-.13,0-.13.2,0,.2h0Z"/><path d="m61.46,130.48c1.54-1.53,3.1-3.04,4.66-4.54.78-.75,1.56-1.5,2.34-2.24s1.53-1.48,2.33-2.19c.88-.78,1.81-1.49,2.79-2.15.11-.07,0-.24-.1-.17-.86.57-1.68,1.19-2.46,1.86s-1.57,1.43-2.34,2.16c-1.58,1.51-3.15,3.02-4.72,4.55-.88.86-1.76,1.72-2.63,2.58-.09.09.05.23.14.14h0Z"/><path d="m82.63,111.34c-.55.6-1.1,1.2-1.65,1.79-.51.56-1.02,1.12-1.43,1.75-.22.33-.41.68-.62,1.02s-.41.63-.63.94c-.46.64-.95,1.26-1.44,1.88-.55.69-1.12,1.37-1.7,2.03-.08.1.06.24.14.14,1.03-1.18,2.02-2.39,2.95-3.65.23-.31.46-.63.68-.96s.39-.65.59-.98c.4-.67.89-1.25,1.41-1.83.61-.67,1.22-1.33,1.84-2,.09-.09-.05-.24-.14-.14h0Z"/><path d="m61.88,132.58c.67-.68,1.48-1.2,2.27-1.72s1.55-1.09,2.28-1.7c1.47-1.22,2.82-2.59,4.12-4,.74-.8,1.46-1.61,2.17-2.43.08-.1-.06-.24-.14-.14-1.27,1.44-2.54,2.87-3.9,4.23s-2.8,2.62-4.39,3.7c-.88.6-1.8,1.15-2.55,1.91-.09.09.05.23.14.14h0Z"/><path d="m61.72,134.8c1.12-.69,2.22-1.43,3.28-2.21.1-.08,0-.25-.1-.17-1.06.78-2.15,1.52-3.28,2.21-.11.07,0,.24.1.17h0Z"/><path d="m30.31,131.8c2.87-.47,5.78-.62,8.68-.47.81.04,1.62.11,2.43.2.13.01.13-.19,0-.2-2.89-.32-5.82-.34-8.72-.04-.82.08-1.63.19-2.45.32-.13.02-.07.21.05.19h0Z"/><path d="m30.1,135.23c1.77-.4,3.58-.62,5.39-.66.51-.01,1.02,0,1.53,0,.13,0,.13-.2,0-.2-1.82-.06-3.65.06-5.45.36-.51.09-1.02.19-1.53.3-.13.03-.07.22.05.19h0Z"/><path d="m55.1,129.75c1.1-.15,2.19-.37,3.27-.63.12-.03.07-.22-.05-.19-1.08.27-2.17.48-3.27.63-.13.02-.07.21.05.19h0Z"/><path d="m82.66,109.69c-.54.21-.99.57-1.44.93s-.92.77-1.36,1.17c-.88.79-1.71,1.64-2.5,2.52-.45.5-.88,1.02-1.3,1.55-.08.1.06.24.14.14,1.45-1.83,3.09-3.52,4.89-5.01.5-.42,1.01-.86,1.62-1.11.12-.05.07-.24-.05-.19h0Z"/><path d="m78.88,118.43c1.02-1.17,2.12-2.27,3.31-3.28.1-.08-.04-.22-.14-.14-1.18,1.01-2.29,2.1-3.31,3.28-.08.1.06.24.14.14h0Z"/><path class="cls-3" d="m53.26,106.49c-1.22.44-23.72,20.84-23.72,20.84h33.03l21.5-20.84h-30.81Z"/><path class="cls-4" d="m52.62,97.12c-1.2.44-23.27,20.45-23.27,20.45h32.41l21.1-20.45h-30.24Z"/><polygon class="cls-2" points="29.34 117.56 29.43 119.82 29.7 127.13 61.75 127.13 61.75 117.56 29.34 117.56"/><polyline class="cls-2" points="61.75 127.13 82.85 107.34 82.85 97.12 61.75 117.56"/><path d="m29.88,119.88c2.76,0,5.51.03,8.27.11s5.53.2,8.29.37c1.55.09,3.1.2,4.65.32.13.01.13-.19,0-.2-2.75-.22-5.5-.39-8.25-.52s-5.53-.21-8.29-.26c-1.55-.02-3.11-.03-4.66-.03-.13,0-.13.2,0,.2h0Z"/><path d="m37.15,124.42c3.21-.46,6.47-.51,9.71-.64s6.52-.26,9.78-.39c1.83-.07,3.66-.15,5.49-.22.13,0,.13-.21,0-.2-3.28.13-6.56.26-9.83.4s-6.51.24-9.76.4c-1.82.09-3.64.21-5.44.47-.13.02-.07.21.05.19h0Z"/><path d="m50.11,125.58c2.88-.35,5.79-.1,8.69-.22.8-.03,1.61-.1,2.41-.21.13-.02.07-.21-.05-.19-2.85.4-5.74.16-8.61.25-.81.02-1.63.08-2.43.18-.13.02-.13.22,0,.2h0Z"/><path d="m50.73,121.93c2.66-.03,5.32-.2,7.97-.45.74-.07,1.48-.14,2.22-.22.13-.01.13-.21,0-.2-2.65.26-5.29.51-7.95.61-.75.03-1.49.05-2.24.06-.13,0-.13.2,0,.2h0Z"/><path d="m61.56,120.85c1.54-1.53,3.1-3.04,4.66-4.54.78-.75,1.56-1.5,2.34-2.24s1.53-1.48,2.33-2.19c.88-.78,1.81-1.49,2.79-2.15.11-.07,0-.24-.1-.17-.86.57-1.68,1.19-2.46,1.86s-1.57,1.43-2.34,2.16c-1.58,1.51-3.15,3.02-4.72,4.55-.88.86-1.76,1.72-2.63,2.58-.09.09.05.23.14.14h0Z"/><path d="m82.73,101.71c-.55.6-1.1,1.2-1.65,1.79-.51.56-1.02,1.12-1.43,1.75-.22.33-.41.68-.62,1.02s-.41.63-.63.94c-.46.64-.95,1.26-1.44,1.88-.55.69-1.12,1.37-1.7,2.03-.08.1.06.24.14.14,1.03-1.18,2.02-2.39,2.95-3.65.23-.31.46-.63.68-.96s.39-.65.59-.98c.4-.67.89-1.25,1.41-1.83.61-.67,1.22-1.33,1.84-2,.09-.09-.05-.24-.14-.14h0Z"/><path d="m61.98,122.95c.67-.68,1.48-1.2,2.27-1.72s1.55-1.09,2.28-1.7c1.47-1.22,2.82-2.59,4.12-4,.74-.8,1.46-1.61,2.17-2.43.08-.1-.06-.24-.14-.14-1.27,1.44-2.54,2.87-3.9,4.23s-2.8,2.62-4.39,3.7c-.88.6-1.8,1.15-2.55,1.91-.09.09.05.23.14.14h0Z"/><path d="m61.82,125.18c1.12-.69,2.22-1.43,3.28-2.21.1-.08,0-.25-.1-.17-1.06.78-2.15,1.52-3.28,2.21-.11.07,0,.24.1.17h0Z"/><path d="m30.41,122.17c2.87-.47,5.78-.62,8.68-.47.81.04,1.62.11,2.43.2.13.01.13-.19,0-.2-2.89-.32-5.82-.34-8.72-.04-.82.08-1.63.19-2.45.32-.13.02-.07.21.05.19h0Z"/><path d="m30.2,125.6c1.77-.4,3.58-.62,5.39-.66.51-.01,1.02,0,1.53,0,.13,0,.13-.2,0-.2-1.82-.06-3.65.06-5.45.36-.51.09-1.02.19-1.53.3-.13.03-.07.22.05.19h0Z"/><path d="m55.2,120.12c1.1-.15,2.19-.37,3.27-.63.12-.03.07-.22-.05-.19-1.08.27-2.17.48-3.27.63-.13.02-.07.21.05.19h0Z"/><path d="m82.76,100.07c-.54.21-.99.57-1.44.93s-.92.77-1.36,1.17c-.88.79-1.71,1.64-2.5,2.52-.45.5-.88,1.02-1.3,1.55-.08.1.06.24.14.14,1.45-1.83,3.09-3.52,4.89-5.01.5-.42,1.01-.86,1.62-1.11.12-.05.07-.24-.05-.19h0Z"/><path d="m78.98,108.8c1.02-1.17,2.12-2.27,3.31-3.28.1-.08-.04-.22-.14-.14-1.18,1.01-2.29,2.1-3.31,3.28-.08.1.06.24.14.14h0Z"/><path class="cls-3" d="m182.9,117.34c-1.22.44-23.72,20.84-23.72,20.84h33.03l21.5-20.84h-30.81Z"/><path class="cls-3" d="m182.25,107.97c-1.2.44-23.27,20.45-23.27,20.45h32.41l21.1-20.45h-30.24Z"/><polygon class="cls-2" points="158.98 128.41 159.06 130.67 159.34 137.99 191.39 137.99 191.39 128.41 158.98 128.41"/><polyline class="cls-2" points="191.39 137.99 212.49 118.19 212.49 107.97 191.39 128.41"/><path d="m159.52,130.73c2.76,0,5.51.03,8.27.11s5.53.2,8.29.37c1.55.09,3.1.2,4.65.32.13.01.13-.19,0-.2-2.75-.22-5.5-.39-8.25-.52s-5.53-.21-8.29-.26c-1.55-.02-3.11-.03-4.66-.03-.13,0-.13.2,0,.2h0Z"/><path d="m166.78,135.27c3.21-.46,6.47-.51,9.71-.64s6.52-.26,9.78-.39c1.83-.07,3.66-.15,5.49-.22.13,0,.13-.21,0-.2-3.28.13-6.56.26-9.83.4s-6.51.24-9.76.4c-1.82.09-3.64.21-5.44.47-.13.02-.07.21.05.19h0Z"/><path d="m179.74,136.44c2.88-.35,5.79-.1,8.69-.22.8-.03,1.61-.1,2.41-.21.13-.02.07-.21-.05-.19-2.85.4-5.74.16-8.61.25-.81.02-1.63.08-2.43.18-.13.02-.13.22,0,.2h0Z"/><path d="m180.37,132.78c2.66-.03,5.32-.2,7.97-.45.74-.07,1.48-.14,2.22-.22.13-.01.13-.21,0-.2-2.65.26-5.29.51-7.95.61-.75.03-1.49.05-2.24.06-.13,0-.13.2,0,.2h0Z"/><path d="m191.2,131.71c1.54-1.53,3.1-3.04,4.66-4.54.78-.75,1.56-1.5,2.34-2.24s1.53-1.48,2.33-2.19c.88-.78,1.81-1.49,2.79-2.15.11-.07,0-.24-.1-.17-.86.57-1.68,1.19-2.46,1.86s-1.57,1.43-2.34,2.16c-1.58,1.51-3.15,3.02-4.72,4.55-.88.86-1.76,1.72-2.63,2.58-.09.09.05.23.14.14h0Z"/><path d="m212.36,112.56c-.55.6-1.1,1.2-1.65,1.79-.51.56-1.02,1.12-1.43,1.75-.22.33-.41.68-.62,1.02s-.41.63-.63.94c-.46.64-.95,1.26-1.44,1.88-.55.69-1.12,1.37-1.7,2.03-.08.1.06.24.14.14,1.03-1.18,2.02-2.39,2.95-3.65.23-.31.46-.63.68-.96s.39-.65.59-.98c.4-.67.89-1.25,1.41-1.83.61-.67,1.22-1.33,1.84-2,.09-.09-.05-.24-.14-.14h0Z"/><path d="m191.62,133.81c.67-.68,1.48-1.2,2.27-1.72s1.55-1.09,2.28-1.7c1.47-1.22,2.82-2.59,4.12-4,.74-.8,1.46-1.61,2.17-2.43.08-.1-.06-.24-.14-.14-1.27,1.44-2.54,2.87-3.9,4.23s-2.8,2.62-4.39,3.7c-.88.6-1.8,1.15-2.55,1.91-.09.09.05.23.14.14h0Z"/><path d="m191.45,136.03c1.12-.69,2.22-1.43,3.28-2.21.1-.08,0-.25-.1-.17-1.06.78-2.15,1.52-3.28,2.21-.11.07,0,.24.1.17h0Z"/><path d="m160.05,133.02c2.87-.47,5.78-.62,8.68-.47.81.04,1.62.11,2.43.2.13.01.13-.19,0-.2-2.89-.32-5.82-.34-8.72-.04-.82.08-1.63.19-2.45.32-.13.02-.07.21.05.19h0Z"/><path d="m159.83,136.45c1.77-.4,3.58-.62,5.39-.66.51-.01,1.02,0,1.53,0,.13,0,.13-.2,0-.2-1.82-.06-3.65.06-5.45.36-.51.09-1.02.19-1.53.3-.13.03-.07.22.05.19h0Z"/><path d="m184.84,130.97c1.1-.15,2.19-.37,3.27-.63.12-.03.07-.22-.05-.19-1.08.27-2.17.48-3.27.63-.13.02-.07.21.05.19h0Z"/><path d="m212.39,110.92c-.54.21-.99.57-1.44.93s-.92.77-1.36,1.17c-.88.79-1.71,1.64-2.5,2.52-.45.5-.88,1.02-1.3,1.55-.08.1.06.24.14.14,1.45-1.83,3.09-3.52,4.89-5.01.5-.42,1.01-.86,1.62-1.11.12-.05.07-.24-.05-.19h0Z"/><path d="m208.61,119.65c1.02-1.17,2.12-2.27,3.31-3.28.1-.08-.04-.22-.14-.14-1.18,1.01-2.29,2.1-3.31,3.28-.08.1.06.24.14.14h0Z"/><path class="cls-3" d="m182.29,107.86c-1.22.44-23.72,20.84-23.72,20.84h33.03l21.5-20.84h-30.81Z"/><path class="cls-3" d="m181.64,98.48c-1.2.44-23.27,20.45-23.27,20.45h32.41l21.1-20.45h-30.24Z"/><polygon class="cls-2" points="158.37 118.93 158.45 121.19 158.73 128.5 190.78 128.5 190.78 118.93 158.37 118.93"/><polyline class="cls-2" points="190.78 128.5 211.88 108.71 211.88 98.48 190.78 118.93"/><path d="m158.91,121.25c2.76,0,5.51.03,8.27.11s5.53.2,8.29.37c1.55.09,3.1.2,4.65.32.13.01.13-.19,0-.2-2.75-.22-5.5-.39-8.25-.52s-5.53-.21-8.29-.26c-1.55-.02-3.11-.03-4.66-.03-.13,0-.13.2,0,.2h0Z"/><path d="m166.17,125.79c3.21-.46,6.47-.51,9.71-.64s6.52-.26,9.78-.39c1.83-.07,3.66-.15,5.49-.22.13,0,.13-.21,0-.2-3.28.13-6.56.26-9.83.4s-6.51.24-9.76.4c-1.82.09-3.64.21-5.44.47-.13.02-.07.21.05.19h0Z"/><path d="m179.13,126.95c2.88-.35,5.79-.1,8.69-.22.8-.03,1.61-.1,2.41-.21.13-.02.07-.21-.05-.19-2.85.4-5.74.16-8.61.25-.81.02-1.63.08-2.43.18-.13.02-.13.22,0,.2h0Z"/><path d="m179.75,123.3c2.66-.03,5.32-.2,7.97-.45.74-.07,1.48-.14,2.22-.22.13-.01.13-.21,0-.2-2.65.26-5.29.51-7.95.61-.75.03-1.49.05-2.24.06-.13,0-.13.2,0,.2h0Z"/><path d="m190.59,122.22c1.54-1.53,3.1-3.04,4.66-4.54.78-.75,1.56-1.5,2.34-2.24s1.53-1.48,2.33-2.19c.88-.78,1.81-1.49,2.79-2.15.11-.07,0-.24-.1-.17-.86.57-1.68,1.19-2.46,1.86s-1.57,1.43-2.34,2.16c-1.58,1.51-3.15,3.02-4.72,4.55-.88.86-1.76,1.72-2.63,2.58-.09.09.05.23.14.14h0Z"/><path d="m211.75,103.08c-.55.6-1.1,1.2-1.65,1.79-.51.56-1.02,1.12-1.43,1.75-.22.33-.41.68-.62,1.02s-.41.63-.63.94c-.46.64-.95,1.26-1.44,1.88-.55.69-1.12,1.37-1.7,2.03-.08.1.06.24.14.14,1.03-1.18,2.02-2.39,2.95-3.65.23-.31.46-.63.68-.96s.39-.65.59-.98c.4-.67.89-1.25,1.41-1.83.61-.67,1.22-1.33,1.84-2,.09-.09-.05-.24-.14-.14h0Z"/><path d="m191.01,124.32c.67-.68,1.48-1.2,2.27-1.72s1.55-1.09,2.28-1.7c1.47-1.22,2.82-2.59,4.12-4,.74-.8,1.46-1.61,2.17-2.43.08-.1-.06-.24-.14-.14-1.27,1.44-2.54,2.87-3.9,4.23s-2.8,2.62-4.39,3.7c-.88.6-1.8,1.15-2.55,1.91-.09.09.05.23.14.14h0Z"/><path d="m190.84,126.54c1.12-.69,2.22-1.43,3.28-2.21.1-.08,0-.25-.1-.17-1.06.78-2.15,1.52-3.28,2.21-.11.07,0,.24.1.17h0Z"/><path d="m159.43,123.54c2.87-.47,5.78-.62,8.68-.47.81.04,1.62.11,2.43.2.13.01.13-.19,0-.2-2.89-.32-5.82-.34-8.72-.04-.82.08-1.63.19-2.45.32-.13.02-.07.21.05.19h0Z"/><path d="m159.22,126.97c1.77-.4,3.58-.62,5.39-.66.51-.01,1.02,0,1.53,0,.13,0,.13-.2,0-.2-1.82-.06-3.65.06-5.45.36-.51.09-1.02.19-1.53.3-.13.03-.07.22.05.19h0Z"/><path d="m184.22,121.49c1.1-.15,2.19-.37,3.27-.63.12-.03.07-.22-.05-.19-1.08.27-2.17.48-3.27.63-.13.02-.07.21.05.19h0Z"/><path d="m211.78,101.44c-.54.21-.99.57-1.44.93s-.92.77-1.36,1.17c-.88.79-1.71,1.64-2.5,2.52-.45.5-.88,1.02-1.3,1.55-.08.1.06.24.14.14,1.45-1.83,3.09-3.52,4.89-5.01.5-.42,1.01-.86,1.62-1.11.12-.05.07-.24-.05-.19h0Z"/><path d="m208,110.17c1.02-1.17,2.12-2.27,3.31-3.28.1-.08-.04-.22-.14-.14-1.18,1.01-2.29,2.1-3.31,3.28-.08.1.06.24.14.14h0Z"/><path class="cls-3" d="m182.39,98.23c-1.22.44-23.72,20.84-23.72,20.84h33.03l21.5-20.84h-30.81Z"/><path class="cls-4" d="m181.74,88.86c-1.2.44-23.27,20.45-23.27,20.45h32.41l21.1-20.45h-30.24Z"/><polygon class="cls-2" points="158.46 109.31 158.55 111.56 158.83 118.88 190.88 118.88 190.88 109.31 158.46 109.31"/><polyline class="cls-2" points="190.88 118.88 211.98 99.08 211.98 88.86 190.88 109.31"/><path d="m159.01,111.62c2.76,0,5.51.03,8.27.11s5.53.2,8.29.37c1.55.09,3.1.2,4.65.32.13.01.13-.19,0-.2-2.75-.22-5.5-.39-8.25-.52s-5.53-.21-8.29-.26c-1.55-.02-3.11-.03-4.66-.03-.13,0-.13.2,0,.2h0Z"/><path d="m166.27,116.17c3.21-.46,6.47-.51,9.71-.64s6.52-.26,9.78-.39c1.83-.07,3.66-.15,5.49-.22.13,0,.13-.21,0-.2-3.28.13-6.56.26-9.83.4s-6.51.24-9.76.4c-1.82.09-3.64.21-5.44.47-.13.02-.07.21.05.19h0Z"/><path d="m179.23,117.33c2.88-.35,5.79-.1,8.69-.22.8-.03,1.61-.1,2.41-.21.13-.02.07-.21-.05-.19-2.85.4-5.74.16-8.61.25-.81.02-1.63.08-2.43.18-.13.02-.13.22,0,.2h0Z"/><path d="m179.85,113.67c2.66-.03,5.32-.2,7.97-.45.74-.07,1.48-.14,2.22-.22.13-.01.13-.21,0-.2-2.65.26-5.29.51-7.95.61-.75.03-1.49.05-2.24.06-.13,0-.13.2,0,.2h0Z"/><path d="m190.69,112.6c1.54-1.53,3.1-3.04,4.66-4.54.78-.75,1.56-1.5,2.34-2.24s1.53-1.48,2.33-2.19c.88-.78,1.81-1.49,2.79-2.15.11-.07,0-.24-.1-.17-.86.57-1.68,1.19-2.46,1.86s-1.57,1.43-2.34,2.16c-1.58,1.51-3.15,3.02-4.72,4.55-.88.86-1.76,1.72-2.63,2.58-.09.09.05.23.14.14h0Z"/><path d="m211.85,93.45c-.55.6-1.1,1.2-1.65,1.79-.51.56-1.02,1.12-1.43,1.75-.22.33-.41.68-.62,1.02s-.41.63-.63.94c-.46.64-.95,1.26-1.44,1.88-.55.69-1.12,1.37-1.7,2.03-.08.1.06.24.14.14,1.03-1.18,2.02-2.39,2.95-3.65.23-.31.46-.63.68-.96s.39-.65.59-.98c.4-.67.89-1.25,1.41-1.83.61-.67,1.22-1.33,1.84-2,.09-.09-.05-.24-.14-.14h0Z"/><path d="m191.11,114.7c.67-.68,1.48-1.2,2.27-1.72s1.55-1.09,2.28-1.7c1.47-1.22,2.82-2.59,4.12-4,.74-.8,1.46-1.61,2.17-2.43.08-.1-.06-.24-.14-.14-1.27,1.44-2.54,2.87-3.9,4.23s-2.8,2.62-4.39,3.7c-.88.6-1.8,1.15-2.55,1.91-.09.09.05.23.14.14h0Z"/><path d="m190.94,116.92c1.12-.69,2.22-1.43,3.28-2.21.1-.08,0-.25-.1-.17-1.06.78-2.15,1.52-3.28,2.21-.11.07,0,.24.1.17h0Z"/><path d="m159.53,113.92c2.87-.47,5.78-.62,8.68-.47.81.04,1.62.11,2.43.2.13.01.13-.19,0-.2-2.89-.32-5.82-.34-8.72-.04-.82.08-1.63.19-2.45.32-.13.02-.07.21.05.19h0Z"/><path d="m159.32,117.34c1.77-.4,3.58-.62,5.39-.66.51-.01,1.02,0,1.53,0,.13,0,.13-.2,0-.2-1.82-.06-3.65.06-5.45.36-.51.09-1.02.19-1.53.3-.13.03-.07.22.05.19h0Z"/><path d="m184.32,111.86c1.1-.15,2.19-.37,3.27-.63.12-.03.07-.22-.05-.19-1.08.27-2.17.48-3.27.63-.13.02-.07.21.05.19h0Z"/><path d="m211.88,91.81c-.54.21-.99.57-1.44.93s-.92.77-1.36,1.17c-.88.79-1.71,1.64-2.5,2.52-.45.5-.88,1.02-1.3,1.55-.08.1.06.24.14.14,1.45-1.83,3.09-3.52,4.89-5.01.5-.42,1.01-.86,1.62-1.11.12-.05.07-.24-.05-.19h0Z"/><path d="m208.1,100.54c1.02-1.17,2.12-2.27,3.31-3.28.1-.08-.04-.22-.14-.14-1.18,1.01-2.29,2.1-3.31,3.28-.08.1.06.24.14.14h0Z"/><path class="cls-3" d="m181.81,88.87c-1.22.44-23.72,20.84-23.72,20.84h33.03l21.5-20.84h-30.81Z"/><path class="cls-3" d="m181.16,79.49c-1.2.44-23.27,20.45-23.27,20.45h32.41l21.1-20.45h-30.24Z"/><polygon class="cls-2" points="157.89 99.94 157.97 102.2 158.25 109.51 190.3 109.51 190.3 99.94 157.89 99.94"/><polyline class="cls-2" points="190.3 109.51 211.4 89.72 211.4 79.49 190.3 99.94"/><path d="m158.43,102.25c2.76,0,5.51.03,8.27.11s5.53.2,8.29.37c1.55.09,3.1.2,4.65.32.13.01.13-.19,0-.2-2.75-.22-5.5-.39-8.25-.52s-5.53-.21-8.29-.26c-1.55-.02-3.11-.03-4.66-.03-.13,0-.13.2,0,.2h0Z"/><path d="m165.69,106.8c3.21-.46,6.47-.51,9.71-.64s6.52-.26,9.78-.39c1.83-.07,3.66-.15,5.49-.22.13,0,.13-.21,0-.2-3.28.13-6.56.26-9.83.4s-6.51.24-9.76.4c-1.82.09-3.64.21-5.44.47-.13.02-.07.21.05.19h0Z"/><path d="m178.65,107.96c2.88-.35,5.79-.1,8.69-.22.8-.03,1.61-.1,2.41-.21.13-.02.07-.21-.05-.19-2.85.4-5.74.16-8.61.25-.81.02-1.63.08-2.43.18-.13.02-.13.22,0,.2h0Z"/><path d="m179.27,104.31c2.66-.03,5.32-.2,7.97-.45.74-.07,1.48-.14,2.22-.22.13-.01.13-.21,0-.2-2.65.26-5.29.51-7.95.61-.75.03-1.49.05-2.24.06-.13,0-.13.2,0,.2h0Z"/><path d="m190.11,103.23c1.54-1.53,3.1-3.04,4.66-4.54.78-.75,1.56-1.5,2.34-2.24s1.53-1.48,2.33-2.19c.88-.78,1.81-1.49,2.79-2.15.11-.07,0-.24-.1-.17-.86.57-1.68,1.19-2.46,1.86s-1.57,1.43-2.34,2.16c-1.58,1.51-3.15,3.02-4.72,4.55-.88.86-1.76,1.72-2.63,2.58-.09.09.05.23.14.14h0Z"/><path d="m211.27,84.09c-.55.6-1.1,1.2-1.65,1.79-.51.56-1.02,1.12-1.43,1.75-.22.33-.41.68-.62,1.02s-.41.63-.63.94c-.46.64-.95,1.26-1.44,1.88-.55.69-1.12,1.37-1.7,2.03-.08.1.06.24.14.14,1.03-1.18,2.02-2.39,2.95-3.65.23-.31.46-.63.68-.96s.39-.65.59-.98c.4-.67.89-1.25,1.41-1.83.61-.67,1.22-1.33,1.84-2,.09-.09-.05-.24-.14-.14h0Z"/><path d="m190.53,105.33c.67-.68,1.48-1.2,2.27-1.72s1.55-1.09,2.28-1.7c1.47-1.22,2.82-2.59,4.12-4,.74-.8,1.46-1.61,2.17-2.43.08-.1-.06-.24-.14-.14-1.27,1.44-2.54,2.87-3.9,4.23s-2.8,2.62-4.39,3.7c-.88.6-1.8,1.15-2.55,1.91-.09.09.05.23.14.14h0Z"/><path d="m190.36,107.55c1.12-.69,2.22-1.43,3.28-2.21.1-.08,0-.25-.1-.17-1.06.78-2.15,1.52-3.28,2.21-.11.07,0,.24.1.17h0Z"/><path d="m158.95,104.55c2.87-.47,5.78-.62,8.68-.47.81.04,1.62.11,2.43.2.13.01.13-.19,0-.2-2.89-.32-5.82-.34-8.72-.04-.82.08-1.63.19-2.45.32-.13.02-.07.21.05.19h0Z"/><path d="m158.74,107.98c1.77-.4,3.58-.62,5.39-.66.51-.01,1.02,0,1.53,0,.13,0,.13-.2,0-.2-1.82-.06-3.65.06-5.45.36-.51.09-1.02.19-1.53.3-.13.03-.07.22.05.19h0Z"/><path d="m183.74,102.5c1.1-.15,2.19-.37,3.27-.63.12-.03.07-.22-.05-.19-1.08.27-2.17.48-3.27.63-.13.02-.07.21.05.19h0Z"/><path d="m211.3,82.45c-.54.21-.99.57-1.44.93s-.92.77-1.36,1.17c-.88.79-1.71,1.64-2.5,2.52-.45.5-.88,1.02-1.3,1.55-.08.1.06.24.14.14,1.45-1.83,3.09-3.52,4.89-5.01.5-.42,1.01-.86,1.62-1.11.12-.05.07-.24-.05-.19h0Z"/><path d="m207.52,91.18c1.02-1.17,2.12-2.27,3.31-3.28.1-.08-.04-.22-.14-.14-1.18,1.01-2.29,2.1-3.31,3.28-.08.1.06.24.14.14h0Z"/><path class="cls-3" d="m181.19,79.38c-1.22.44-23.72,20.84-23.72,20.84h33.03l21.5-20.84h-30.81Z"/><path class="cls-3" d="m180.55,70.01c-1.2.44-23.27,20.45-23.27,20.45h32.41l21.1-20.45h-30.24Z"/><polygon class="cls-2" points="157.27 90.46 157.36 92.71 157.64 100.03 189.68 100.03 189.68 90.46 157.27 90.46"/><polyline class="cls-2" points="189.68 100.03 210.78 80.23 210.78 70.01 189.68 90.46"/><path d="m157.82,92.77c2.76,0,5.51.03,8.27.11s5.53.2,8.29.37c1.55.09,3.1.2,4.65.32.13.01.13-.19,0-.2-2.75-.22-5.5-.39-8.25-.52s-5.53-.21-8.29-.26c-1.55-.02-3.11-.03-4.66-.03-.13,0-.13.2,0,.2h0Z"/><path d="m165.08,97.32c3.21-.46,6.47-.51,9.71-.64s6.52-.26,9.78-.39c1.83-.07,3.66-.15,5.49-.22.13,0,.13-.21,0-.2-3.28.13-6.56.26-9.83.4s-6.51.24-9.76.4c-1.82.09-3.64.21-5.44.47-.13.02-.07.21.05.19h0Z"/><path d="m178.04,98.48c2.88-.35,5.79-.1,8.69-.22.8-.03,1.61-.1,2.41-.21.13-.02.07-.21-.05-.19-2.85.4-5.74.16-8.61.25-.81.02-1.63.08-2.43.18-.13.02-.13.22,0,.2h0Z"/><path d="m178.66,94.82c2.66-.03,5.32-.2,7.97-.45.74-.07,1.48-.14,2.22-.22.13-.01.13-.21,0-.2-2.65.26-5.29.51-7.95.61-.75.03-1.49.05-2.24.06-.13,0-.13.2,0,.2h0Z"/><path d="m189.49,93.75c1.54-1.53,3.1-3.04,4.66-4.54.78-.75,1.56-1.5,2.34-2.24s1.53-1.48,2.33-2.19c.88-.78,1.81-1.49,2.79-2.15.11-.07,0-.24-.1-.17-.86.57-1.68,1.19-2.46,1.86s-1.57,1.43-2.34,2.16c-1.58,1.51-3.15,3.02-4.72,4.55-.88.86-1.76,1.72-2.63,2.58-.09.09.05.23.14.14h0Z"/><path d="m210.66,74.6c-.55.6-1.1,1.2-1.65,1.79-.51.56-1.02,1.12-1.43,1.75-.22.33-.41.68-.62,1.02s-.41.63-.63.94c-.46.64-.95,1.26-1.44,1.88-.55.69-1.12,1.37-1.7,2.03-.08.1.06.24.14.14,1.03-1.18,2.02-2.39,2.95-3.65.23-.31.46-.63.68-.96s.39-.65.59-.98c.4-.67.89-1.25,1.41-1.83.61-.67,1.22-1.33,1.84-2,.09-.09-.05-.24-.14-.14h0Z"/><path d="m189.92,95.85c.67-.68,1.48-1.2,2.27-1.72s1.55-1.09,2.28-1.7c1.47-1.22,2.82-2.59,4.12-4,.74-.8,1.46-1.61,2.17-2.43.08-.1-.06-.24-.14-.14-1.27,1.44-2.54,2.87-3.9,4.23s-2.8,2.62-4.39,3.7c-.88.6-1.8,1.15-2.55,1.91-.09.09.05.23.14.14h0Z"/><path d="m189.75,98.07c1.12-.69,2.22-1.43,3.28-2.21.1-.08,0-.25-.1-.17-1.06.78-2.15,1.52-3.28,2.21-.11.07,0,.24.1.17h0Z"/><path d="m158.34,95.07c2.87-.47,5.78-.62,8.68-.47.81.04,1.62.11,2.43.2.13.01.13-.19,0-.2-2.89-.32-5.82-.34-8.72-.04-.82.08-1.63.19-2.45.32-.13.02-.07.21.05.19h0Z"/><path d="m158.13,98.49c1.77-.4,3.58-.62,5.39-.66.51-.01,1.02,0,1.53,0,.13,0,.13-.2,0-.2-1.82-.06-3.65.06-5.45.36-.51.09-1.02.19-1.53.3-.13.03-.07.22.05.19h0Z"/><path d="m183.13,93.02c1.1-.15,2.19-.37,3.27-.63.12-.03.07-.22-.05-.19-1.08.27-2.17.48-3.27.63-.13.02-.07.21.05.19h0Z"/><path d="m210.69,72.96c-.54.21-.99.57-1.44.93s-.92.77-1.36,1.17c-.88.79-1.71,1.64-2.5,2.52-.45.5-.88,1.02-1.3,1.55-.08.1.06.24.14.14,1.45-1.83,3.09-3.52,4.89-5.01.5-.42,1.01-.86,1.62-1.11.12-.05.07-.24-.05-.19h0Z"/><path d="m206.91,81.69c1.02-1.17,2.12-2.27,3.31-3.28.1-.08-.04-.22-.14-.14-1.18,1.01-2.29,2.1-3.31,3.28-.08.1.06.24.14.14h0Z"/><path class="cls-3" d="m181.29,69.76c-1.22.44-23.72,20.84-23.72,20.84h33.03l21.5-20.84h-30.81Z"/><path class="cls-4" d="m180.65,60.38c-1.2.44-23.27,20.45-23.27,20.45h32.41l21.1-20.45h-30.24Z"/><polygon class="cls-2" points="157.37 80.83 157.46 83.09 157.74 90.4 189.78 90.4 189.78 80.83 157.37 80.83"/><polyline class="cls-2" points="189.78 90.4 210.88 70.61 210.88 60.38 189.78 80.83"/><path d="m157.92,83.15c2.76,0,5.51.03,8.27.11s5.53.2,8.29.37c1.55.09,3.1.2,4.65.32.13.01.13-.19,0-.2-2.75-.22-5.5-.39-8.25-.52s-5.53-.21-8.29-.26c-1.55-.02-3.11-.03-4.66-.03-.13,0-.13.2,0,.2h0Z"/><path d="m165.18,87.69c3.21-.46,6.47-.51,9.71-.64s6.52-.26,9.78-.39c1.83-.07,3.66-.15,5.49-.22.13,0,.13-.21,0-.2-3.28.13-6.56.26-9.83.4s-6.51.24-9.76.4c-1.82.09-3.64.21-5.44.47-.13.02-.07.21.05.19h0Z"/><path d="m178.14,88.85c2.88-.35,5.79-.1,8.69-.22.8-.03,1.61-.1,2.41-.21.13-.02.07-.21-.05-.19-2.85.4-5.74.16-8.61.25-.81.02-1.63.08-2.43.18-.13.02-.13.22,0,.2h0Z"/><path d="m178.76,85.2c2.66-.03,5.32-.2,7.97-.45.74-.07,1.48-.14,2.22-.22.13-.01.13-.21,0-.2-2.65.26-5.29.51-7.95.61-.75.03-1.49.05-2.24.06-.13,0-.13.2,0,.2h0Z"/><path d="m189.59,84.12c1.54-1.53,3.1-3.04,4.66-4.54.78-.75,1.56-1.5,2.34-2.24s1.53-1.48,2.33-2.19c.88-.78,1.81-1.49,2.79-2.15.11-.07,0-.24-.1-.17-.86.57-1.68,1.19-2.46,1.86s-1.57,1.43-2.34,2.16c-1.58,1.51-3.15,3.02-4.72,4.55-.88.86-1.76,1.72-2.63,2.58-.09.09.05.23.14.14h0Z"/><path d="m210.76,64.98c-.55.6-1.1,1.2-1.65,1.79-.51.56-1.02,1.12-1.43,1.75-.22.33-.41.68-.62,1.02s-.41.63-.63.94c-.46.64-.95,1.26-1.44,1.88-.55.69-1.12,1.37-1.7,2.03-.08.1.06.24.14.14,1.03-1.18,2.02-2.39,2.95-3.65.23-.31.46-.63.68-.96s.39-.65.59-.98c.4-.67.89-1.25,1.41-1.83.61-.67,1.22-1.33,1.84-2,.09-.09-.05-.24-.14-.14h0Z"/><path d="m190.02,86.22c.67-.68,1.48-1.2,2.27-1.72s1.55-1.09,2.28-1.7c1.47-1.22,2.82-2.59,4.12-4,.74-.8,1.46-1.61,2.17-2.43.08-.1-.06-.24-.14-.14-1.27,1.44-2.54,2.87-3.9,4.23s-2.8,2.62-4.39,3.7c-.88.6-1.8,1.15-2.55,1.91-.09.09.05.23.14.14h0Z"/><path d="m189.85,88.44c1.12-.69,2.22-1.43,3.28-2.21.1-.08,0-.25-.1-.17-1.06.78-2.15,1.52-3.28,2.21-.11.07,0,.24.1.17h0Z"/><path d="m158.44,85.44c2.87-.47,5.78-.62,8.68-.47.81.04,1.62.11,2.43.2.13.01.13-.19,0-.2-2.89-.32-5.82-.34-8.72-.04-.82.08-1.63.19-2.45.32-.13.02-.07.21.05.19h0Z"/><path d="m158.23,88.87c1.77-.4,3.58-.62,5.39-.66.51-.01,1.02,0,1.53,0,.13,0,.13-.2,0-.2-1.82-.06-3.65.06-5.45.36-.51.09-1.02.19-1.53.3-.13.03-.07.22.05.19h0Z"/><path d="m183.23,83.39c1.1-.15,2.19-.37,3.27-.63.12-.03.07-.22-.05-.19-1.08.27-2.17.48-3.27.63-.13.02-.07.21.05.19h0Z"/><path d="m210.79,63.34c-.54.21-.99.57-1.44.93s-.92.77-1.36,1.17c-.88.79-1.71,1.64-2.5,2.52-.45.5-.88,1.02-1.3,1.55-.08.1.06.24.14.14,1.45-1.83,3.09-3.52,4.89-5.01.5-.42,1.01-.86,1.62-1.11.12-.05.07-.24-.05-.19h0Z"/><path d="m207.01,72.07c1.02-1.17,2.12-2.27,3.31-3.28.1-.08-.04-.22-.14-.14-1.18,1.01-2.29,2.1-3.31,3.28-.08.1.06.24.14.14h0Z"/><path class="cls-3" d="m119.49,124.32c-1.22.44-23.72,20.84-23.72,20.84h33.03l21.5-20.84h-30.81Z"/><path class="cls-3" d="m118.85,114.95c-1.2.44-23.27,20.45-23.27,20.45h32.41l21.1-20.45h-30.24Z"/><polygon class="cls-2" points="95.57 135.4 95.66 137.65 95.94 144.97 127.98 144.97 127.98 135.4 95.57 135.4"/><polyline class="cls-2" points="127.98 144.97 149.08 125.17 149.08 114.95 127.98 135.4"/><path d="m127.79,138.69c1.54-1.53,3.1-3.04,4.66-4.54.78-.75,1.56-1.5,2.34-2.24s1.53-1.48,2.33-2.19c.88-.78,1.81-1.49,2.79-2.15.11-.07,0-.24-.1-.17-.86.57-1.68,1.19-2.46,1.86s-1.57,1.43-2.34,2.16c-1.58,1.51-3.15,3.02-4.72,4.55-.88.86-1.76,1.72-2.63,2.58-.09.09.05.23.14.14h0Z"/><path d="m148.96,119.54c-.55.6-1.1,1.2-1.65,1.79-.51.56-1.02,1.12-1.43,1.75-.22.33-.41.68-.62,1.02s-.41.63-.63.94c-.46.64-.95,1.26-1.44,1.88-.55.69-1.12,1.37-1.7,2.03-.08.1.06.24.14.14,1.03-1.18,2.02-2.39,2.95-3.65.23-.31.46-.63.68-.96s.39-.65.59-.98c.4-.67.89-1.25,1.41-1.83.61-.67,1.22-1.33,1.84-2,.09-.09-.05-.24-.14-.14h0Z"/><path d="m128.22,140.79c.67-.68,1.48-1.2,2.27-1.72s1.55-1.09,2.28-1.7c1.47-1.22,2.82-2.59,4.12-4,.74-.8,1.46-1.61,2.17-2.43.08-.1-.06-.24-.14-.14-1.27,1.44-2.54,2.87-3.9,4.23s-2.8,2.62-4.39,3.7c-.88.6-1.8,1.15-2.55,1.91-.09.09.05.23.14.14h0Z"/><path d="m148.99,117.9c-.54.21-.99.57-1.44.93s-.92.77-1.36,1.17c-.88.79-1.71,1.64-2.5,2.52-.45.5-.88,1.02-1.3,1.55-.08.1.06.24.14.14,1.45-1.83,3.09-3.52,4.89-5.01.5-.42,1.01-.86,1.62-1.11.12-.05.07-.24-.05-.19h0Z"/><path class="cls-3" d="m118.88,114.84c-1.22.44-23.72,20.84-23.72,20.84h33.03l21.5-20.84h-30.81Z"/><path class="cls-3" d="m118.24,105.47c-1.2.44-23.27,20.45-23.27,20.45h32.41l21.1-20.45h-30.24Z"/><polygon class="cls-2" points="94.96 125.91 95.05 128.17 95.32 135.48 127.37 135.48 127.37 125.91 94.96 125.91"/><polyline class="cls-2" points="127.37 135.48 148.47 115.69 148.47 105.47 127.37 125.91"/><path d="m95.5,128.23c2.76,0,5.51.03,8.27.11s5.53.2,8.29.37c1.55.09,3.1.2,4.65.32.13.01.13-.19,0-.2-2.75-.22-5.5-.39-8.25-.52s-5.53-.21-8.29-.26c-1.55-.02-3.11-.03-4.66-.03-.13,0-.13.2,0,.2h0Z"/><path d="m102.77,132.77c3.21-.46,6.47-.51,9.71-.64s6.52-.26,9.78-.39c1.83-.07,3.66-.15,5.49-.22.13,0,.13-.21,0-.2-3.28.13-6.56.26-9.83.4s-6.51.24-9.76.4c-1.82.09-3.64.21-5.44.47-.13.02-.07.21.05.19h0Z"/><path d="m115.72,133.93c2.88-.35,5.79-.1,8.69-.22.8-.03,1.61-.1,2.41-.21.13-.02.07-.21-.05-.19-2.85.4-5.74.16-8.61.25-.81.02-1.63.08-2.43.18-.13.02-.13.22,0,.2h0Z"/><path d="m116.35,130.28c2.66-.03,5.32-.2,7.97-.45.74-.07,1.48-.14,2.22-.22.13-.01.13-.21,0-.2-2.65.26-5.29.51-7.95.61-.75.03-1.49.05-2.24.06-.13,0-.13.2,0,.2h0Z"/><path d="m127.18,129.2c1.54-1.53,3.1-3.04,4.66-4.54.78-.75,1.56-1.5,2.34-2.24s1.53-1.48,2.33-2.19c.88-.78,1.81-1.49,2.79-2.15.11-.07,0-.24-.1-.17-.86.57-1.68,1.19-2.46,1.86s-1.57,1.43-2.34,2.16c-1.58,1.51-3.15,3.02-4.72,4.55-.88.86-1.76,1.72-2.63,2.58-.09.09.05.23.14.14h0Z"/><path d="m148.34,110.06c-.55.6-1.1,1.2-1.65,1.79-.51.56-1.02,1.12-1.43,1.75-.22.33-.41.68-.62,1.02s-.41.63-.63.94c-.46.64-.95,1.26-1.44,1.88-.55.69-1.12,1.37-1.7,2.03-.08.1.06.24.14.14,1.03-1.18,2.02-2.39,2.95-3.65.23-.31.46-.63.68-.96s.39-.65.59-.98c.4-.67.89-1.25,1.41-1.83.61-.67,1.22-1.33,1.84-2,.09-.09-.05-.24-.14-.14h0Z"/><path d="m127.6,131.3c.67-.68,1.48-1.2,2.27-1.72s1.55-1.09,2.28-1.7c1.47-1.22,2.82-2.59,4.12-4,.74-.8,1.46-1.61,2.17-2.43.08-.1-.06-.24-.14-.14-1.27,1.44-2.54,2.87-3.9,4.23s-2.8,2.62-4.39,3.7c-.88.6-1.8,1.15-2.55,1.91-.09.09.05.23.14.14h0Z"/><path d="m127.44,133.53c1.12-.69,2.22-1.43,3.28-2.21.1-.08,0-.25-.1-.17-1.06.78-2.15,1.52-3.28,2.21-.11.07,0,.24.1.17h0Z"/><path d="m96.03,130.52c2.87-.47,5.78-.62,8.68-.47.81.04,1.62.11,2.43.2.13.01.13-.19,0-.2-2.89-.32-5.82-.34-8.72-.04-.82.08-1.63.19-2.45.32-.13.02-.07.21.05.19h0Z"/><path d="m95.82,133.95c1.77-.4,3.58-.62,5.39-.66.51-.01,1.02,0,1.53,0,.13,0,.13-.2,0-.2-1.82-.06-3.65.06-5.45.36-.51.09-1.02.19-1.53.3-.13.03-.07.22.05.19h0Z"/><path d="m120.82,128.47c1.1-.15,2.19-.37,3.27-.63.12-.03.07-.22-.05-.19-1.08.27-2.17.48-3.27.63-.13.02-.07.21.05.19h0Z"/><path d="m148.38,108.42c-.54.21-.99.57-1.44.93s-.92.77-1.36,1.17c-.88.79-1.71,1.64-2.5,2.52-.45.5-.88,1.02-1.3,1.55-.08.1.06.24.14.14,1.45-1.83,3.09-3.52,4.89-5.01.5-.42,1.01-.86,1.62-1.11.12-.05.07-.24-.05-.19h0Z"/><path class="cls-3" d="m118.98,105.21c-1.22.44-23.72,20.84-23.72,20.84h33.03l21.5-20.84h-30.81Z"/><path class="cls-4" d="m118.34,95.84c-1.2.44-23.27,20.45-23.27,20.45h32.41l21.1-20.45h-30.24Z"/><polygon class="cls-2" points="95.06 116.29 95.15 118.54 95.42 125.86 127.47 125.86 127.47 116.29 95.06 116.29"/><polyline class="cls-2" points="127.47 125.86 148.57 106.06 148.57 95.84 127.47 116.29"/><path d="m95.6,118.6c2.76,0,5.51.03,8.27.11s5.53.2,8.29.37c1.55.09,3.1.2,4.65.32.13.01.13-.19,0-.2-2.75-.22-5.5-.39-8.25-.52s-5.53-.21-8.29-.26c-1.55-.02-3.11-.03-4.66-.03-.13,0-.13.2,0,.2h0Z"/><path d="m102.87,123.15c3.21-.46,6.47-.51,9.71-.64s6.52-.26,9.78-.39c1.83-.07,3.66-.15,5.49-.22.13,0,.13-.21,0-.2-3.28.13-6.56.26-9.83.4s-6.51.24-9.76.4c-1.82.09-3.64.21-5.44.47-.13.02-.07.21.05.19h0Z"/><path d="m115.82,124.31c2.88-.35,5.79-.1,8.69-.22.8-.03,1.61-.1,2.41-.21.13-.02.07-.21-.05-.19-2.85.4-5.74.16-8.61.25-.81.02-1.63.08-2.43.18-.13.02-.13.22,0,.2h0Z"/><path d="m116.45,120.65c2.66-.03,5.32-.2,7.97-.45.74-.07,1.48-.14,2.22-.22.13-.01.13-.21,0-.2-2.65.26-5.29.51-7.95.61-.75.03-1.49.05-2.24.06-.13,0-.13.2,0,.2h0Z"/><path d="m127.28,119.58c1.54-1.53,3.1-3.04,4.66-4.54.78-.75,1.56-1.5,2.34-2.24s1.53-1.48,2.33-2.19c.88-.78,1.81-1.49,2.79-2.15.11-.07,0-.24-.1-.17-.86.57-1.68,1.19-2.46,1.86s-1.57,1.43-2.34,2.16c-1.58,1.51-3.15,3.02-4.72,4.55-.88.86-1.76,1.72-2.63,2.58-.09.09.05.23.14.14h0Z"/><path d="m127.7,121.68c.67-.68,1.48-1.2,2.27-1.72s1.55-1.09,2.28-1.7c1.47-1.22,2.82-2.59,4.12-4,.74-.8,1.46-1.61,2.17-2.43.08-.1-.06-.24-.14-.14-1.27,1.44-2.54,2.87-3.9,4.23s-2.8,2.62-4.39,3.7c-.88.6-1.8,1.15-2.55,1.91-.09.09.05.23.14.14h0Z"/><path d="m127.54,123.9c1.12-.69,2.22-1.43,3.28-2.21.1-.08,0-.25-.1-.17-1.06.78-2.15,1.52-3.28,2.21-.11.07,0,.24.1.17h0Z"/><path d="m96.13,120.9c2.87-.47,5.78-.62,8.68-.47.81.04,1.62.11,2.43.2.13.01.13-.19,0-.2-2.89-.32-5.82-.34-8.72-.04-.82.08-1.63.19-2.45.32-.13.02-.07.21.05.19h0Z"/><path d="m95.92,124.32c1.77-.4,3.58-.62,5.39-.66.51-.01,1.02,0,1.53,0,.13,0,.13-.2,0-.2-1.82-.06-3.65.06-5.45.36-.51.09-1.02.19-1.53.3-.13.03-.07.22.05.19h0Z"/><path d="m120.92,118.84c1.1-.15,2.19-.37,3.27-.63.12-.03.07-.22-.05-.19-1.08.27-2.17.48-3.27.63-.13.02-.07.21.05.19h0Z"/></g></svg>