<?xml version="1.0" encoding="utf-8"?>
<!-- Generator: Adobe Illustrator 27.5.0, SVG Export Plug-In . SVG Version: 6.00 Build 0)  -->
<svg version="1.1" xmlns="http://www.w3.org/2000/svg" xmlns:xlink="http://www.w3.org/1999/xlink" x="0px" y="0px"
	 viewBox="0 0 500 500" style="enable-background:new 0 0 500 500;" xml:space="preserve">
<style type="text/css">
	.st0{display:none;}
	.st1{display:inline;fill:#132FA9;}
	.st2{fill:#F5D7E3;}
	.st3{opacity:0.6;fill:#F4A5AE;}
	.st4{fill:#77405D;}
	.st5{fill:#F4A5AE;}
	.st6{fill:#A8577E;}
	.st7{fill:#C675A4;}
	.st8{fill:#313131;}
	.st9{fill:#043565;}
	.st10{fill:#172738;}
	.st11{fill:#02243F;}
	.st12{opacity:0.2;fill:#FFFFFF;}
	.st13{opacity:0.1;fill:#FFFFFF;}
	.st14{fill:#FFA821;}
	.st15{fill:#FF638D;}
	.st16{fill:#D38A4F;}
	.st17{fill:#FFB10A;}
	.st18{fill:#20364F;}
	.st19{fill:#334B66;}
</style>
<g id="BACKGROUND" class="st0">
	<rect class="st1" width="500" height="500"/>
</g>
<g id="OBJECTS">
	<path class="st2" d="M312.48,156.24c-29.4-31.78-76.41-28.79-95.24-27.59c-61.26,3.9-145.29,41.93-155.01,100.74
		c-5.75,34.8,17.57,58.44,1.93,98.23c-9.66,24.57-25.32,32.76-21.59,43.05c6.15,17.02,49.19-4.67,92.16,18.39
		c37.91,20.35,32.49,52.31,66.71,66.04c9.64,3.87,23.12,6.57,96.4-17.97c65.65-21.99,98.78-33.37,113.75-52.25
		c25.41-32.06,41.26-88.71,21.21-121.22c-20.16-32.69-61.87-17.09-94.86-61.45C322.46,181.42,327.68,172.68,312.48,156.24z"/>
	<path class="st3" d="M180.22,166.69c26.8-28.97,69.66-26.24,86.83-25.15c55.85,3.55,132.46,38.23,141.32,91.84
		c5.24,31.73-16.02,53.28-1.76,89.55c8.81,22.4,23.08,29.86,19.69,39.25c-5.61,15.52-44.84-4.26-84.02,16.77
		c-34.56,18.55-29.62,47.69-60.82,60.21c-8.79,3.53-21.08,5.99-87.88-16.39c-59.85-20.05-90.06-30.42-103.7-47.63
		c-23.17-29.23-37.62-80.87-19.33-110.51c18.38-29.8,56.4-15.58,86.48-56.02C171.13,189.64,166.37,181.67,180.22,166.69z"/>
	<g>
		<g>
			<path class="st4" d="M363.7,333.95l-30.7-7.22c-39.62-9.33-95.22-9.42-123.93-0.21l-36.66,11.45c-0.58-0.24-1.22-0.45-1.89-0.61
				c-3.48-0.82-7.98-0.59-10.56,0.24c-4.02,1.29-43.49,14.27-56.03,18.29c-12.54,4.02-11.28,9.6-4.22,13.67
				c7.06,4.07,28.78,11.37,62.1,19.21c33.33,7.85,62.89,12.62,78.62,13.91c15.73,1.29,35.98,0.78,48.52-3.25
				c12.54-4.02,52-17,56.03-18.29c1.75-0.56,2.37-1.32,1.5-2.01l37.03-11.57C412.21,358.36,403.32,343.28,363.7,333.95z
				 M380.94,366.97l-36.39,11.36c-0.12-0.03-0.23-0.06-0.35-0.09c-1.96-0.46-5.06-0.78-9.51-0.81
				c-12.37-0.07-47.99-2.42-95.86-13.69c-47.86-11.26-61.8-20.57-63.96-23.93c-0.22-0.35-0.52-0.65-0.87-0.93l37.64-11.76
				c27.68-8.88,81.3-8.79,119.51,0.2l30.7,7.23C400.05,343.54,408.62,358.09,380.94,366.97z"/>
			<g>
				<path class="st4" d="M370.69,219.85l-29.37-12.34c-36.56-15.36-87.87-24.39-114.36-20.12l-55.49,8.94l-13.53,55.79l55.49-8.94
					c26.49-4.27,77.79,4.76,114.35,20.12l29.38,12.34c23.59,9.91,35.38,20.08,33.65,27.19c4.51-18.6,9.02-37.19,13.53-55.79
					C406.07,239.94,394.29,229.77,370.69,219.85z"/>
				<g>
					<path class="st5" d="M259.41,211.1l-5.19,11.29l-5.19-12.41l2.69,0.29l2.6,6.66l2.44-6.12L259.41,211.1z"/>
					<path class="st5" d="M263.59,211.72v11.33l-2.23-0.31v-11.33L263.59,211.72z"/>
					<path class="st5" d="M272.59,224.49l-2.38-4l-1.49-0.25v3.6l-2.22-0.38v-11.33l3.42,0.58c1.4,0.24,2.49,0.76,3.26,1.57
						c0.77,0.81,1.16,1.81,1.16,2.99c0,0.7-0.15,1.33-0.44,1.89c-0.29,0.56-0.74,0.97-1.34,1.21l2.62,4.55L272.59,224.49z
						 M268.73,218.08l1.58,0.27c0.6,0.1,1.04,0,1.32-0.31c0.28-0.31,0.41-0.67,0.41-1.08c0-0.41-0.12-0.82-0.35-1.24
						c-0.24-0.41-0.69-0.68-1.36-0.79l-1.59-0.27V218.08z"/>
					<path class="st5" d="M283.56,215.29v2.15l-2.73-0.55v9.17l-2.21-0.44v-9.17l-2.62-0.53v-2.15L283.56,215.29z"/>
					<path class="st5" d="M287.97,224.46c0.21,0.38,0.49,0.71,0.85,1s0.73,0.48,1.13,0.58c0.43,0.1,0.83,0.09,1.19-0.03
						c0.36-0.12,0.65-0.32,0.85-0.6c0.21-0.28,0.31-0.6,0.31-0.96v-7.14l2.16,0.51V225c0,0.81-0.2,1.49-0.6,2.05
						c-0.4,0.56-0.95,0.94-1.64,1.14c-0.69,0.2-1.45,0.2-2.28,0.01c-0.83-0.19-1.58-0.55-2.27-1.08c-0.69-0.53-1.23-1.16-1.63-1.91
						c-0.4-0.74-0.6-1.52-0.6-2.33v-7.19l2.19,0.52v7.14C287.65,223.71,287.76,224.08,287.97,224.46z"/>
					<path class="st5" d="M302.28,229.02l-3.66-1l-0.9,1.97l-2.14-0.58l4.98-10.42l0.12,0.03l4.98,13.13l-2.52-0.69L302.28,229.02z
						 M301.56,226.95l-1.06-3.04l-1.11,2.45L301.56,226.95z"/>
					<path class="st5" d="M309.37,221.98v9.17l5.13,1.59v2.15l-7.29-2.26v-11.33L309.37,221.98z"/>
					<path class="st5" d="M327.29,239.44l-2.25-4.44l-1.41-0.53v3.6l-2.11-0.79v-11.33l3.24,1.21c1.33,0.5,2.36,1.22,3.09,2.18
						c0.73,0.96,1.1,2.02,1.1,3.2c0,0.7-0.14,1.3-0.41,1.81c-0.28,0.51-0.7,0.83-1.27,0.96l2.49,5.04L327.29,239.44z M323.62,232.32
						l1.5,0.56c0.57,0.21,0.99,0.19,1.25-0.06c0.26-0.26,0.39-0.59,0.39-1c0-0.41-0.11-0.84-0.33-1.3
						c-0.22-0.46-0.65-0.81-1.29-1.05l-1.51-0.57V232.32z"/>
					<path class="st5" d="M338.64,232.79v2.15l-5.11-2.15v2.42l4.52,1.9v2.15l-4.52-1.9v2.45l5.31,2.23v2.15l-7.38-3.1v-11.33
						L338.64,232.79z"/>
					<path class="st5" d="M346.18,245.07l-3.49-1.47l-0.86,1.85l-2.05-0.86l4.75-9.78l0.11,0.05l4.75,13.77l-2.4-1.01L346.18,245.07
						z M345.5,242.9l-1.02-3.18l-1.06,2.31L345.5,242.9z"/>
					<path class="st5" d="M353.01,238.83V248l4.95,2.08v2.15l-7.03-2.95v-11.33L353.01,238.83z"/>
					<path class="st5" d="M362.2,242.69v11.33l-2.08-0.87v-11.33L362.2,242.69z"/>
					<path class="st5" d="M371.19,246.67v2.15l-2.53-1.15v9.17l-2.05-0.93v-9.17l-2.43-1.1v-2.15L371.19,246.67z"/>
					<path class="st5" d="M381.51,252.13l-3.76,5.76v3.52l-1.98-1.07v-3.52l-3.7-9.8l2.44,1.32l2.3,6.48l2.25-4.01L381.51,252.13z"
						/>
				</g>
				<path class="st6" d="M391.42,256.49l-55.49,8.94l-13.53,55.79l55.49-8.94c9.74-1.57,14.96-4.67,15.94-8.72l13.53-55.79
					C406.38,251.82,401.16,254.92,391.42,256.49z"/>
				<path class="st7" d="M372.47,219.57c37.92,15.93,46.42,32.5,18.95,36.92l-55.49,8.94l-2.45-1.03l55.48-8.94
					c26.49-4.27,18.29-20.24-18.28-35.61l-29.37-12.34c-36.56-15.36-87.87-24.39-114.36-20.12l-55.49,8.94l-2.46-1.03l55.48-8.94
					c27.47-4.43,80.67,4.94,118.59,20.87L372.47,219.57z"/>
			</g>
			<g>
				<g>
					<polygon class="st8" points="171.48,196.33 157.95,252.12 155.49,251.09 169.02,195.3 					"/>
				</g>
				<g>
					<polygon class="st8" points="335.93,265.43 322.4,321.22 319.95,320.19 333.48,264.4 					"/>
				</g>
				<path class="st9" d="M323.77,325.07L323.77,325.07c4.78-19.7,9.56-39.4,14.34-59.11c-0.1,0.43-0.73,0.76-1.8,0.93
					c-3.85,0.62-23.38,3.77-35.37,5.7c-12,1.93-31.37-0.93-46.42-4.84c-15.05-3.91-43.33-13.61-75.23-27.02
					c-31.89-13.4-52.67-24.31-59.43-29.56c-3.53-2.74-5.54-5.62-4.96-8.03l-20.3,83.69c-0.58,2.41,1.43,5.29,4.95,8.03
					c6.76,5.25,27.54,16.16,59.43,29.56c31.9,13.4,60.18,23.1,75.23,27.02c15.05,3.92,34.42,6.78,46.42,4.84
					c3.54-0.57,7.75-1.25,12.01-1.93C310.36,351.83,321.28,335.34,323.77,325.07z"/>
				<path class="st10" d="M312.91,314.71c4.58-19.19-0.61-30.82-9.12-29.49c-2.18,0.34-4.26,0.69-6.16,0.99
					c-12,1.93-31.37-0.93-46.42-4.84c-15.05-3.91-43.33-13.61-75.23-27.02c-31.89-13.4-52.67-24.31-59.42-29.56
					c-3.53-2.74-5.54-5.62-4.96-8.03c0,0-0.45,0.3-0.74,1.56c-3.29,13.44-9.64,39.78-13.13,54.06c-0.34,1.13-0.06,1.74-0.06,1.74
					c-0.58,2.41,1.43,5.29,4.95,8.03c6.76,5.25,27.54,16.16,59.43,29.56c31.9,13.4,60.18,23.1,75.23,27.02
					c15.05,3.91,34.42,6.77,46.42,4.84c2.69-0.43,5.76-0.93,8.94-1.44C304.08,339.8,308.85,331.76,312.91,314.71z"/>
				<g>
					<path class="st2" d="M122.73,253.62c-3.31,3.22-4.12,4.04-7.21,7.29c-0.81-5.23-1.01-6.6-1.68-12.12c0,0-0.01,0-0.01-0.01
						l-3.46,14.26c0.47,0.27,0.95,0.55,1.45,0.83l1.49-6.13c0.33,2.22,0.79,5.17,1.15,7.37c0.01,0,0.01,0.01,0.02,0.01
						c1.34-1.45,3.13-3.36,4.49-4.77l-1.58,6.54c0.62,0.33,1.26,0.66,1.91,1l3.46-14.26C122.75,253.63,122.74,253.62,122.73,253.62z
						"/>
					<path class="st2" d="M124.43,270.32c2.46,1.25,5.12,2.56,7.97,3.93l0.63-2.61c-2.05-0.98-4-1.94-5.85-2.86l0.72-2.96
						c1.58,0.79,3.22,1.6,4.95,2.43l0.63-2.61c-1.72-0.83-3.37-1.64-4.95-2.43l0.71-2.93c1.78,0.89,3.65,1.81,5.62,2.75l0.63-2.61
						c-2.76-1.33-5.34-2.6-7.73-3.82L124.43,270.32z"/>
					<path class="st2" d="M147.92,266.48c-3.15-1.44-6.13-2.83-8.94-4.17l-0.63,2.61c0.97,0.46,1.97,0.93,2.99,1.41l-2.69,11.1
						c0.86,0.4,1.72,0.81,2.61,1.22l2.69-11.1c1.09,0.51,2.21,1.02,3.35,1.54L147.92,266.48z"/>
					<path class="st2" d="M157.82,269.96c-4.37,4.84-5.71,6.34-10,11.3c0.91,0.41,1.83,0.83,2.76,1.25l1.83-2.15
						c1.62,0.72,3.27,1.46,4.97,2.2l0.54,3.2c1.18,0.52,2.38,1.04,3.6,1.56c-1.59-7.45-2.07-9.76-3.55-17.31
						C157.92,270.01,157.87,269.99,157.82,269.96z M153.99,278.55l2.31-2.66l0.65,3.97C155.94,279.42,154.95,278.98,153.99,278.55z"
						/>
					<path class="st2" d="M184.05,280.87c-2.7,2.99-6.31,6.98-9.01,9.97c-2.07-9.75-2.15-10.13-3.14-15
						c-2.11-0.88-4.18-1.76-6.22-2.63c2.66,11.98,3.51,15.72,6.5,28.15c11.22-10.89,11.22-10.89,18.32-17.88
						C188.36,282.62,186.21,281.75,184.05,280.87z"/>
					<path class="st2" d="M189.62,300.11c3.87,1.58,7.67,3.09,11.39,4.55l0.63-2.61c-2.67-1.04-5.38-2.12-8.14-3.23l0.72-2.96
						c2.34,0.94,4.66,1.86,6.94,2.76l0.63-2.61c-2.28-0.9-4.6-1.82-6.94-2.76l0.71-2.93c2.65,1.07,5.26,2.1,7.83,3.11l0.63-2.61
						c-3.62-1.42-7.32-2.89-11.08-4.43L189.62,300.11z"/>
					<path class="st2" d="M218.73,296.8c-0.99-0.68-2.01-1.07-2.45-1.23c-1.55-0.57-3.12-1.15-4.71-1.74l-3.17,13.74
						c1.03,0.39,2.05,0.77,3.07,1.14l1.01-4.37c0.68,0.25,1.36,0.5,2.03,0.75c0.66,1.66,1.54,3.87,2.19,5.54
						c1.15,0.42,2.29,0.83,3.42,1.23c-0.69-1.87-1.61-4.36-2.31-6.23C221.6,304.99,222.78,299.61,218.73,296.8z M216.98,302.62
						c-0.65,0.28-1.42,0.01-1.74-0.11c-0.71-0.26-1.43-0.53-2.16-0.79l0.96-4.14c0.73,0.27,1.46,0.54,2.18,0.8
						C219.18,299.52,218.1,302.14,216.98,302.62z"/>
					<path class="st2" d="M231.49,304.19c0.27-0.18,1.75-0.95,4.84,1.73c0.41-0.55,0.95-1.29,1.36-1.84c-0.7-0.69-2-1.97-4.49-2.56
						c-5.02-1-6.14,3.24-4.53,5.67c0.32,0.48,0.65,0.98,2.73,2.42c0.53,0.37,1.53,1.06,1.84,1.82c0.35,0.86-0.06,2.18-2.13,1.74
						c-1.08-0.23-2.5-1.11-3.53-2.2c-0.48,0.54-1.13,1.25-1.62,1.79c4,4.1,10.24,4.47,10.33-0.64c0.05-2.4-1.8-3.63-2.79-4.29
						C230.26,305.68,230.85,304.62,231.49,304.19z"/>
					<path class="st2" d="M252.43,309.54l0.4-2.65c-4.45-1.05-5.02-1.19-8.8-2.13l-2.09,13.94c3.17,0.79,6.19,1.52,9.04,2.19
						l0.4-2.65c-2.05-0.48-4.19-0.99-6.41-1.54l0.45-3.01c1.89,0.46,3.72,0.91,5.49,1.32l0.4-2.65c-1.77-0.42-3.6-0.86-5.49-1.32
						l0.45-2.98C248.39,308.59,250.45,309.08,252.43,309.54z"/>
				</g>
				<path class="st11" d="M335.57,263.86c3.33,1.4,3.2,2.64,0.74,3.03c-3.85,0.62-23.38,3.77-35.37,5.7
					c-12,1.93-31.37-0.93-46.42-4.84c-15.05-3.91-43.33-13.61-75.23-27.02c-31.89-13.4-52.67-24.31-59.43-29.56
					c-6.76-5.25-7.96-11.04,4.04-12.97c12-1.93,31.52-5.08,35.37-5.7c2.46-0.4,6.78,0.12,10.1,1.52c1.87,0.79,3.43,1.85,4.17,3.19
					c2.07,3.71,15.41,15.35,61.2,34.59c45.8,19.24,79.88,27.54,91.72,29.67C330.73,262.24,333.7,263.07,335.57,263.86z"/>
				<path d="M336.31,266.89c-3.85,0.62-23.38,3.77-35.37,5.7c-12,1.93-31.37-0.93-46.42-4.84c-15.05-3.91-43.33-13.61-75.23-27.02
					c-31.89-13.4-52.67-24.31-59.43-29.56c-3.53-2.74-5.54-5.62-4.96-8.03l-0.54,2.23c0.41,2.46,2.53,5.16,5.5,7.47
					c6.76,5.25,27.54,16.16,59.43,29.56c31.9,13.4,60.18,23.1,75.23,27.02c15.05,3.91,34.43,6.77,46.42,4.84
					c12-1.93,31.52-5.08,35.37-5.7c0.36-0.06,0.8-0.25,1.29-0.51c0.17-0.69,0.34-1.39,0.5-2.08
					C338,266.4,337.37,266.72,336.31,266.89z"/>
				<path class="st12" d="M123.66,213.8c5.97,3.79,16.15,9.19,30.04,15.65c1.8,28.16,5.14,62.09,11.24,97.45
					c-1.97-0.81-3.95-1.64-5.95-2.48c-9.61-4.04-18.2-7.85-25.72-11.35C127.65,275.73,124.94,241.07,123.66,213.8z M198.98,340.08
					c6.92,2.5,13.3,4.69,18.99,6.53c-6.08-34.09-9.58-67.02-11.57-95c-5.81-2.21-11.87-4.6-18.13-7.15
					C190.03,272.13,193.22,305.32,198.98,340.08z"/>
				<path class="st13" d="M274.17,271.74c-6.54-0.96-13.13-2.31-19.08-3.84c4.47,20.31,13.93,54.02,32.26,87.3
					c1.73-0.28,3.5-0.56,5.29-0.85c4.46-0.63,8.5-2.16,12.07-4.25C288.51,321.57,279.19,291.94,274.17,271.74z"/>
			</g>
		</g>
		<path class="st14" d="M184.18,362.27l-5.37-5.37l5.37-5.37c1.33-1.33,1.33-3.49,0-4.81c-1.33-1.33-3.49-1.33-4.82,0l-5.37,5.37
			l-5.37-5.37c-1.33-1.33-3.49-1.33-4.82,0c-1.33,1.33-1.33,3.49,0,4.81l5.37,5.37l-5.37,5.37c-1.33,1.33-1.33,3.49,0,4.82
			c1.33,1.33,3.49,1.33,4.82,0l5.37-5.37l5.37,5.37c1.33,1.33,3.49,1.33,4.82,0C185.51,365.76,185.51,363.6,184.18,362.27z"/>
		<path class="st15" d="M254.16,169.01l0-9.28l9.28,0c2.3,0,4.17-1.86,4.16-4.16c0-2.3-1.86-4.17-4.17-4.17l-9.28,0v-9.28
			c0-2.3-1.86-4.17-4.17-4.16c-2.3,0-4.17,1.86-4.16,4.16l0,9.28l-9.28,0c-2.3,0-4.17,1.86-4.16,4.16c0,2.3,1.86,4.17,4.16,4.16
			l9.28,0v9.28c0,2.3,1.86,4.17,4.17,4.16C252.3,173.17,254.17,171.31,254.16,169.01z"/>
		<path class="st16" d="M131.63,332.1c-1.01-1.56-3.09-2.01-4.65-1l-10.05,6.51l-10.05-6.51c-1.11-0.72-2.55-0.72-3.66,0
			l-10.04,6.51l-10.04-6.51c-1.11-0.72-2.55-0.72-3.66,0l-10.04,6.51l-10.03-6.51c-1.11-0.72-2.55-0.72-3.66,0l-10.04,6.51
			l-10.04-6.51c-1.56-1.01-3.64-0.57-4.66,0.99c-1.01,1.56-0.56,3.64,1,4.65l11.87,7.69c1.11,0.72,2.55,0.72,3.66,0l10.04-6.51
			l10.03,6.5c1.11,0.72,2.55,0.72,3.66,0l10.04-6.51l10.04,6.51c1.11,0.72,2.55,0.72,3.66,0l10.04-6.51l10.05,6.51
			c0.56,0.36,1.19,0.54,1.83,0.54c0.64,0,1.27-0.18,1.83-0.54l11.87-7.69C132.2,335.75,132.64,333.66,131.63,332.1z"/>
		<path class="st15" d="M473.21,208.38c-1.01-1.56-3.09-2.01-4.65-1l-10.04,6.51l-10.05-6.51c-1.11-0.72-2.55-0.72-3.66,0
			l-10.04,6.51l-10.04-6.51c-1.11-0.72-2.55-0.72-3.66,0l-10.04,6.51L401,207.38c-1.11-0.72-2.55-0.72-3.66,0l-10.04,6.51
			l-10.04-6.51c-1.56-1.01-3.64-0.57-4.66,0.99c-1.01,1.56-0.56,3.64,1,4.65l11.87,7.69c1.11,0.72,2.55,0.72,3.66,0l10.04-6.51
			l10.03,6.5c1.11,0.72,2.55,0.72,3.66,0l10.04-6.51l10.04,6.51c1.11,0.72,2.55,0.72,3.66,0l10.04-6.51l10.05,6.51
			c0.56,0.36,1.19,0.54,1.83,0.54c0.64,0,1.27-0.18,1.83-0.54l11.87-7.69C473.78,212.02,474.22,209.94,473.21,208.38z"/>
		<g>
			<g>
				<path class="st17" d="M302.08,334.97c0-0.96,0.79-1.75,1.75-1.75c0.96,0,1.75,0.79,1.75,1.75c0,0.97-0.79,1.75-1.75,1.75
					C302.87,336.73,302.08,335.94,302.08,334.97z"/>
			</g>
			<g>
				<path class="st17" d="M302.08,350.77c0-0.96,0.79-1.75,1.75-1.75c0.96,0,1.75,0.79,1.75,1.75c0,0.96-0.79,1.75-1.75,1.75
					C302.87,352.52,302.08,351.73,302.08,350.77z"/>
			</g>
			<g>
				<path class="st17" d="M302.08,366.56c0-0.96,0.79-1.75,1.75-1.75c0.96,0,1.75,0.79,1.75,1.75c0,0.96-0.79,1.75-1.75,1.75
					C302.87,368.31,302.08,367.52,302.08,366.56z"/>
			</g>
			<g>
				<path class="st17" d="M302.08,382.35c0-0.96,0.79-1.75,1.75-1.75c0.96,0,1.75,0.79,1.75,1.75c0,0.97-0.79,1.75-1.75,1.75
					C302.87,384.1,302.08,383.32,302.08,382.35z"/>
			</g>
			<g>
				<path class="st17" d="M286.52,334.97c0-0.96,0.79-1.75,1.75-1.75c0.96,0,1.75,0.79,1.75,1.75c0,0.97-0.79,1.75-1.75,1.75
					C287.31,336.73,286.52,335.94,286.52,334.97z"/>
			</g>
			<g>
				<path class="st17" d="M286.52,350.77c0-0.96,0.79-1.75,1.75-1.75c0.96,0,1.75,0.79,1.75,1.75c0,0.96-0.79,1.75-1.75,1.75
					C287.31,352.52,286.52,351.73,286.52,350.77z"/>
			</g>
			<g>
				<path class="st17" d="M286.52,366.56c0-0.96,0.79-1.75,1.75-1.75c0.96,0,1.75,0.79,1.75,1.75c0,0.96-0.79,1.75-1.75,1.75
					C287.31,368.31,286.52,367.52,286.52,366.56z"/>
			</g>
			<g>
				<circle class="st17" cx="288.28" cy="382.35" r="1.75"/>
			</g>
			<g>
				<path class="st17" d="M270.97,334.97c0-0.96,0.79-1.75,1.75-1.75c0.96,0,1.75,0.79,1.75,1.75c0,0.97-0.79,1.75-1.75,1.75
					C271.76,336.73,270.97,335.94,270.97,334.97z"/>
			</g>
			<g>
				<path class="st17" d="M270.97,350.77c0-0.96,0.79-1.75,1.75-1.75c0.96,0,1.75,0.79,1.75,1.75c0,0.96-0.79,1.75-1.75,1.75
					C271.76,352.52,270.97,351.73,270.97,350.77z"/>
			</g>
			<g>
				<path class="st17" d="M270.97,366.56c0-0.96,0.79-1.75,1.75-1.75c0.96,0,1.75,0.79,1.75,1.75c0,0.96-0.79,1.75-1.75,1.75
					C271.76,368.31,270.97,367.52,270.97,366.56z"/>
			</g>
			<g>
				<path class="st17" d="M270.97,382.35c0-0.96,0.79-1.75,1.75-1.75c0.96,0,1.75,0.79,1.75,1.75c0,0.97-0.79,1.75-1.75,1.75
					C271.76,384.1,270.97,383.32,270.97,382.35z"/>
			</g>
		</g>
		<path class="st17" d="M105.79,216.84c1.8-0.05,2.47-1.33,1.49-2.85l-2.6-3.99l1.33-4.57c0.51-1.73-0.5-2.77-2.25-2.29l-4.59,1.24
			l-3.93-2.68c-1.49-1.02-2.79-0.37-2.88,1.43l-0.24,4.75l-3.77,2.91c-1.42,1.1-1.21,2.53,0.47,3.18l1.38,0.53
			c0,0,3.07,1.17,3.07,1.17l1.61,4.48c0.61,1.7,2.03,1.94,3.17,0.54l2.99-3.71L105.79,216.84z"/>
		<g>
			<path class="st17" d="M429,342.8c2.78-1.28,2.98-3.72,0.44-5.43l-6.68-4.5l-0.93-8.01c-0.35-3.04-2.61-3.98-5.02-2.1l-6.35,4.97
				l-7.9-1.58c-3-0.6-4.6,1.26-3.55,4.13l2.76,7.57l-3.95,7.03c-1.49,2.66-0.22,4.75,2.83,4.64l2.5-0.09c0,0,5.56-0.2,5.56-0.2
				l5.46,5.93c2.07,2.25,4.45,1.68,5.29-1.25l2.22-7.76L429,342.8z"/>
			<g>
				<path class="st18" d="M411.64,336.05c-0.44,1.04-1.49,1.6-2.36,1.24c-0.87-0.36-1.22-1.5-0.78-2.55
					c0.44-1.04,1.49-1.6,2.36-1.24C411.73,333.87,412.08,335,411.64,336.05z"/>
				<path class="st18" d="M419.15,339.19c-0.44,1.04-1.49,1.6-2.36,1.23c-0.87-0.36-1.22-1.5-0.78-2.55
					c0.44-1.05,1.49-1.6,2.36-1.24C419.23,337,419.58,338.14,419.15,339.19z"/>
			</g>
			<g>
				<path class="st18" d="M410.81,344.17c-1.09-0.45-2-1.32-2.49-2.5c-0.17-0.43,0.03-0.91,0.46-1.09c0.43-0.17,0.91,0.03,1.09,0.46
					c0.62,1.5,2.34,2.21,3.83,1.6c0.42-0.17,0.91,0.03,1.09,0.46c0.18,0.42-0.03,0.91-0.46,1.09
					C413.16,344.67,411.9,344.63,410.81,344.17z"/>
			</g>
		</g>
		<path class="st4" d="M166.77,155.56c0,2.9-2.35,5.25-5.25,5.25c-2.9,0-5.25-2.35-5.25-5.25c0-2.9,2.35-5.25,5.25-5.25
			C164.43,150.31,166.77,152.66,166.77,155.56z"/>
		<path class="st11" d="M321.52,140.21c-6.26,0-11.34,5.08-11.34,11.34c0,6.26,5.07,11.34,11.34,11.34
			c6.26,0,11.34-5.08,11.34-11.34C332.85,145.29,327.78,140.21,321.52,140.21z M321.52,157.06c-3.04,0-5.5-2.46-5.5-5.5
			c0-3.04,2.46-5.5,5.5-5.5c3.04,0,5.5,2.46,5.5,5.5C327.02,154.59,324.56,157.06,321.52,157.06z"/>
		<path class="st16" d="M473.99,193.88c-1.01-1.56-3.09-2.01-4.65-1l-10.05,6.51l-10.05-6.51c-1.11-0.72-2.55-0.72-3.66,0
			l-10.04,6.51l-10.04-6.51c-1.11-0.72-2.55-0.72-3.66,0l-10.04,6.51l-10.03-6.51c-1.11-0.72-2.55-0.72-3.66,0l-10.04,6.51
			l-10.04-6.51c-1.56-1.01-3.64-0.57-4.66,0.99c-1.01,1.56-0.56,3.64,1,4.65l11.87,7.69c1.11,0.72,2.55,0.72,3.66,0l10.04-6.51
			l10.03,6.5c1.11,0.72,2.55,0.72,3.66,0l10.04-6.51l10.04,6.51c1.11,0.72,2.55,0.72,3.66,0l10.04-6.51l10.05,6.51
			c0.56,0.36,1.19,0.54,1.83,0.54c0.64,0,1.27-0.18,1.83-0.54l11.87-7.69C474.55,197.52,475,195.44,473.99,193.88z"/>
		<path class="st15" d="M131.63,318.12c-1.01-1.56-3.09-2.01-4.65-1l-10.04,6.51l-10.05-6.51c-1.11-0.72-2.55-0.72-3.66,0
			l-10.04,6.51l-10.04-6.51c-1.11-0.72-2.55-0.72-3.66,0l-10.04,6.51l-10.03-6.51c-1.11-0.72-2.55-0.72-3.66,0l-10.04,6.51
			l-10.04-6.51c-1.56-1.01-3.64-0.57-4.66,0.99c-1.01,1.56-0.56,3.64,1,4.65l11.87,7.69c1.11,0.72,2.55,0.72,3.66,0l10.04-6.51
			l10.03,6.5c1.11,0.72,2.55,0.72,3.66,0l10.04-6.51l10.04,6.51c1.11,0.72,2.55,0.72,3.66,0l10.04-6.51l10.05,6.51
			c0.56,0.36,1.19,0.54,1.83,0.54c0.64,0,1.27-0.18,1.83-0.54l11.87-7.69C132.2,321.76,132.64,319.67,131.63,318.12z"/>
		<path class="st11" d="M376.79,323.64c-6.26,0-11.34,5.08-11.34,11.34c0,6.26,5.07,11.34,11.34,11.34
			c6.26,0,11.34-5.08,11.34-11.34C388.12,328.71,383.05,323.64,376.79,323.64z M376.79,340.48c-3.04,0-5.5-2.46-5.5-5.5
			c0-3.04,2.46-5.5,5.5-5.5c3.04,0,5.5,2.46,5.5,5.5C382.29,338.02,379.83,340.48,376.79,340.48z"/>
	</g>
	<path class="st19" d="M320.05,330.78c-0.45,2.32-2,4.19-3.47,4.19c-1.47,0-2.29-1.88-1.85-4.19c0.45-2.31,2-4.19,3.47-4.19
		C319.67,326.59,320.5,328.47,320.05,330.78z"/>
	<path class="st19" d="M312.65,339.17c-0.45,2.31-2,4.19-3.47,4.19c-1.47,0-2.29-1.88-1.85-4.19c0.45-2.31,2-4.19,3.47-4.19
		C312.27,334.98,313.1,336.85,312.65,339.17z"/>
</g>
</svg>
