<?xml version="1.0" encoding="UTF-8"?><svg id="glasses" xmlns="http://www.w3.org/2000/svg" viewBox="0 0 250.42 189.88"><defs><style>.cls-1,.cls-2{fill:#fff;}.cls-3,.cls-4,.cls-5,.cls-6,.cls-7,.cls-8,.cls-9,.cls-2,.cls-10,.cls-11{stroke:#000;stroke-miterlimit:10;}.cls-4{fill:#6d4408;}.cls-5{fill:#a50000;}.cls-6{fill:#ffa300;}.cls-7{fill:#ffce00;}.cls-8{fill:#5b5b5b;}.cls-9{fill:#6d6d6d;}.cls-2{stroke-width:3px;}.cls-10{fill:#444;}.cls-11{fill:#515151;}</style></defs><path class="cls-8" d="m191.03,112.74c-2.07,3.56-4.72,5.62-8.87,8.79-2.91,2.22-5.89,4.14-7.73,5.14-9.03,4.91-24.99,6.63-39.62,2.57-10.54-2.93-13.92-7.06-24.71-7.22-3.56-.05-5.63.36-9.43-.21-8.03-1.22-13.91-5.37-17.63-8.69l98.84-35.41c4.39,5.52,8.79,11.05,13.18,16.57-.47,3.66-.94,7.32-1.41,10.98-.29,1.83-.94,4.59-2.62,7.48Z"/><path class="cls-10" d="m72.05,110.83c.62.88,1.24,1.76,1.86,2.64,1.47,1.81,2.94,3.63,4.4,5.44,3.83,1.31,7.13,1.81,9.44,2.01,3.17.28,11.88.94,20.66-3.7,4.91-2.59,4.45-3.98,7.47-4.57,6.31-1.22,9.18,4.67,18.2,7.83,8.56,3,16.42,1.34,20.74.44,4.2-.88,11.66-2.55,18.71-8.81,6.91-6.14,9.67-13.35,10.73-16.86.82-2.72,4.78-15.8-2.32-26.54-1.5-2.27-3.13-3.88-4.33-4.93-35.19,15.68-70.38,31.36-105.57,47.04Z"/><path class="cls-9" d="m175.33,88.51c1.24.17,13.24,2.02,16.9,11.04,2.82,6.96-1.21,13.52-2.16,14.97,2.21-1.96,6.3-6.17,8.14-12.74,1.25-4.45.98-8.23.84-9.87-.31-3.87-1.31-6.72-2.18-9.14-1.01-2.81-2.22-6.21-4.35-8.99-4.67-6.11-12.44-7.55-15.82-7.96l-1.39,22.68Z"/><path class="cls-11" d="m177.61,63.79c-1.34-2.13-6.02-8.42-39.7-8.99-11.98-.2-25.78.36-42.32,3.27-21.95,3.87-26.04,7.89-27.49,9.48-7.74,8.42-11.67,24.56-4.4,35.79,8.56,13.23,27.78,12.05,38,6.37,5.19-2.88,4.42-4.9,8.8-6.62,12.41-4.87,20.22,10.66,36.84,10.05,15.07-.55,25.07-13.91,26.18-15.44,2.11-2.9,7.42-10.44,7.18-21.08-.06-2.57-.18-8.21-3.09-12.83Z"/><ellipse class="cls-1" cx="168.17" cy="67.05" rx="2.57" ry="3.26"/><ellipse class="cls-1" cx="168.29" cy="81.64" rx="2.7" ry="7.96"/><path class="cls-4" d="m55.26,115.11c.25.55.69,1.7.58,3.19-.13,1.77-.94,3-1.31,3.48-2.12.25-5.2.39-8.77-.29-10.42-1.98-20.89-10.12-19.72-15.59.74-3.45,6.05-5.52,8.99-6.67,3.01-1.17,5.69-1.5,7.47-1.6l-.44-4.64,13.41,5.73-12.04,8.77-.65-4.92c-1,0-2.4.09-3.99.51-1.1.29-6.16,1.62-6.38,4.06-.16,1.72,2.14,3.25,4.57,4.86.58.38,2.37,1.54,5.08,2.47,3.78,1.3,6.94,1.34,8.27,1.31,2.04-.05,3.74-.36,4.93-.65Z"/><path class="cls-4" d="m207.25,96.99c-.25-.55-.69-1.7-.58-3.19.13-1.77.94-3,1.31-3.48,2.12-.25,5.2-.39,8.77.29,10.42,1.98,20.89,10.12,19.72,15.59-.74,3.45-6.05,5.52-8.99,6.67-3.01,1.17-5.69,1.5-7.47,1.6l.44,4.64-13.41-5.73,12.04-8.77.65,4.92c1,0,2.4-.09,3.99-.51,1.1-.29,6.16-1.62,6.38-4.06.16-1.72-2.14-3.25-4.57-4.86-.58-.38-2.37-1.54-5.08-2.47-3.78-1.3-6.94-1.34-8.27-1.31-2.04.05-3.74.36-4.93.65Z"/><circle class="cls-7" cx="205.9" cy="59.11" r="5.44"/><circle class="cls-5" cx="191.05" cy="54.05" r="2.94"/><polygon class="cls-6" points="214.43 75.03 216.46 79.16 213.89 82.99 209.3 82.68 207.27 78.54 209.84 74.72 214.43 75.03"/><ellipse class="cls-5" cx="72.25" cy="146.15" rx="2.56" ry="2.65" transform="translate(-86.89 110.73) rotate(-51.15)"/><polygon class="cls-7" points="68.75 128.8 66.96 133.74 61.7 134.54 58.23 130.39 60.02 125.45 65.28 124.65 68.75 128.8"/><ellipse class="cls-6" cx="80.71" cy="137.04" rx="3.41" ry="3.53" transform="translate(-76.64 113.93) rotate(-51.15)"/><polygon class="cls-7" points="93.28 51.44 89.39 52.71 86.31 50.01 87.13 46.05 91.02 44.79 94.09 47.48 93.28 51.44"/><polygon class="cls-5" points="182.39 135.15 185.59 139.29 190.79 138.58 192.77 133.74 189.56 129.59 184.37 130.3 182.39 135.15"/><circle class="cls-6" cx="175.54" cy="138.84" r="2.56"/><path class="cls-3" d="m104.81,151.75c.63.4,2.08,1.03,3.6,1.03,2.83,0,3.7-1.8,3.68-3.15-.02-2.28-2.08-3.25-4.2-3.25h-1.23v-1.65h1.23c1.6,0,3.63-.83,3.63-2.75,0-1.3-.83-2.45-2.85-2.45-1.3,0-2.55.58-3.25,1.08l-.58-1.6c.85-.63,2.5-1.25,4.25-1.25,3.2,0,4.65,1.9,4.65,3.88,0,1.68-1,3.1-3,3.83v.05c2,.4,3.63,1.9,3.63,4.18,0,2.6-2.03,4.88-5.93,4.88-1.83,0-3.43-.58-4.23-1.1l.6-1.7Z"/><path class="cls-3" d="m126.41,139.56c-.45-.02-1.03,0-1.65.1-3.45.58-5.28,3.1-5.66,5.78h.08c.78-1.03,2.13-1.88,3.93-1.88,2.88,0,4.91,2.08,4.91,5.26,0,2.98-2.03,5.73-5.41,5.73s-5.75-2.7-5.75-6.93c0-3.2,1.15-5.73,2.75-7.33,1.35-1.33,3.15-2.15,5.21-2.4.65-.1,1.2-.12,1.6-.12v1.8Zm-.63,9.38c0-2.33-1.33-3.73-3.35-3.73-1.33,0-2.55.83-3.15,2-.15.25-.25.58-.25.98.05,2.68,1.28,4.65,3.58,4.65,1.9,0,3.18-1.58,3.18-3.9Z"/><path class="cls-3" d="m140.78,145.97c0,5.53-2.05,8.58-5.66,8.58-3.18,0-5.33-2.98-5.38-8.36,0-5.46,2.35-8.46,5.66-8.46s5.38,3.05,5.38,8.23Zm-8.83.25c0,4.23,1.3,6.63,3.3,6.63,2.25,0,3.33-2.63,3.33-6.78s-1.03-6.63-3.3-6.63c-1.93,0-3.33,2.35-3.33,6.78Z"/><circle class="cls-2" cx="150.54" cy="141.43" r="3.47"/></svg>