<?xml version="1.0" encoding="UTF-8"?><svg xmlns="http://www.w3.org/2000/svg" viewBox="0 0 186.57 171.46"><defs><style>.cls-1{fill:#534e8f;}.cls-1,.cls-2,.cls-3,.cls-4,.cls-5,.cls-6,.cls-7{stroke:#000;stroke-miterlimit:10;}.cls-2{fill:#e0d8cb;}.cls-3{fill:#ffe8b9;}.cls-4{fill:#00086f;}.cls-8{fill:#948f8f;}.cls-5{fill:#1d0d0d;}.cls-9{fill:#b7a68d;}.cls-6{fill:#e4c300;}.cls-7{fill:#938aff;}</style></defs><g id="suitcase_staircase"><path class="cls-7" d="m9.37,97.52S.66,112.74.53,114.34l31.32,13.63c3.38-5.37,10.15-16.1,10.15-16.1-8.36-3.68-16.72-7.36-25.08-11.04-2.52-1.11-5.03-2.21-7.55-3.32Z"/><path class="cls-5" d="m34.38,108.52c1.94-3.93,1.87-8.27-.35-11.15-1.35-1.75-3.17-2.53-3.73-2.76-3.33-1.31-6.32-.15-7.18.18-4.11,1.59-5.82,5.21-6.19,6.04l2.25.99c.21-.63.92-2.47,2.85-3.8,2.21-1.52,4.49-1.33,5.11-1.27.64.06,3.47.34,5.15,2.65,1.61,2.21,1.56,5.45-.14,8.13l2.23.98Z"/><path class="cls-4" d="m42,111.87c-1.75,2.77-3.5,5.54-5.24,8.32-10.72-4.83-21.45-9.65-32.17-14.48,1.6-2.73,3.19-5.46,4.79-8.19l32.63,14.36Z"/><rect class="cls-6" x="16.41" y="112.73" width="5.36" height="3.59" transform="translate(49.88 2.58) rotate(24.84)"/><polygon class="cls-2" points="186.07 79.46 144.09 78.59 144.09 104.48 100.37 104.48 100.37 128.84 60.13 128.84 60.13 152.11 24.89 152.11 23.87 170.96 186.07 170.96 186.07 79.46"/><path class="cls-1" d="m31.78,127.97c3.41-5.37,6.82-10.73,10.22-16.1.32,1.32.65,2.65.97,3.97-1.96,3.39-4.08,6.87-6.4,10.42-1.43,2.19-2.86,4.31-4.29,6.34L.53,119.27v-4.93l31.25,13.63c.17,1.55.34,3.09.51,4.64"/></g><g id="Layer_4"><path class="cls-8" d="m27.76,169.76c21.67-8.02,42.92-17.16,63.69-27.27,20.66-10.06,40.84-21.08,60.51-32.95,11.07-6.68,21.97-13.64,32.71-20.84,1.59-1.07.09-3.67-1.51-2.59-18.99,12.75-38.51,24.7-58.53,35.77s-40.76,21.36-61.84,30.56c-11.8,5.15-23.75,9.97-35.83,14.44-1.79.66-1.02,3.57.8,2.89h0Z"/><path class="cls-8" d="m26.11,154.95c-.39,3.12-.79,6.24-1.2,9.36-.1.78.76,1.53,1.5,1.5.9-.04,1.39-.66,1.5-1.5.41-3.12.81-6.24,1.2-9.36.1-.78-.76-1.53-1.5-1.5-.9.04-1.4.66-1.5,1.5h0Z"/><path class="cls-8" d="m27.28,156.61c10.15.38,20.3.46,30.46.24,1.93-.04,1.93-3.04,0-3-10.15.22-20.31.14-30.46-.24-1.93-.07-1.93,2.93,0,3h0Z"/><path class="cls-8" d="m27.14,168.59c4.12-1.58,7.69-4.32,11.74-6.08s8.37-2.96,12.73-3.66c1.9-.3,1.09-3.2-.8-2.89-4.36.7-8.6,1.91-12.67,3.63-1.99.84-3.94,1.78-5.82,2.85s-3.85,2.44-5.98,3.25c-1.78.68-1.01,3.59.8,2.89h0Z"/><path class="cls-8" d="m49.1,154.23c-7.63,2.33-15.04,5.34-22.14,8.97-1.72.88-.2,3.47,1.51,2.59,6.88-3.52,14.04-6.41,21.43-8.67,1.84-.56,1.06-3.46-.8-2.89h0Z"/><path class="cls-8" d="m28.48,163.96c4.34-1.95,8.68-3.9,13.01-5.85.74-.33.92-1.41.54-2.05-.44-.76-1.31-.87-2.05-.54-4.34,1.95-8.68,3.9-13.01,5.85-.74.33-.92,1.41-.54,2.05.44.76,1.31.87,2.05.54h0Z"/><path class="cls-8" d="m35.28,154.96c-.13.13-.27.26-.41.38s-.04.04.04-.03c-.07.06-.15.11-.22.16-.27.19-.56.36-.85.52s-.63.34-.96.46c.18-.06.16-.07,0,0-.07.03-.14.06-.21.08-.18.07-.35.14-.53.21-1.41.54-2.86,1.04-4.11,1.9-.65.44-1,1.34-.54,2.05.41.64,1.36,1.01,2.05.54.29-.2.6-.39.92-.55.17-.09.34-.17.51-.25.14-.06.32-.19.47-.21-.27.03-.11.05,0,0,.09-.04.18-.07.26-.11.18-.07.36-.14.53-.21.34-.13.68-.26,1.01-.39,1.52-.59,2.99-1.26,4.16-2.43.56-.55.6-1.57,0-2.12s-1.53-.59-2.12,0h0Z"/><path class="cls-8" d="m28.45,159.47l3.58-1.13c.37-.12.7-.35.9-.69s.27-.8.15-1.16-.34-.71-.69-.9-.77-.27-1.16-.15l-3.58,1.13c-.37.12-.7.35-.9.69s-.27.8-.15,1.16.34.71.69.9.77.27,1.16.15h0Z"/><path class="cls-8" d="m62.08,133.86c-.52,5.85-.83,11.72-.91,17.6-.03,1.93,2.97,1.93,3,0,.08-5.88.38-11.75.91-17.6.17-1.92-2.83-1.91-3,0h0Z"/><path class="cls-8" d="m63.39,133.69c13.42.58,26.86.18,40.22-1.19,1.9-.19,1.92-3.2,0-3-13.36,1.37-26.8,1.77-40.22,1.19-1.93-.08-1.93,2.92,0,3h0Z"/><path class="cls-8" d="m105.02,130.3c-13.46,6.27-26.92,12.54-40.38,18.81l2.26,1.3c.13-5.12.42-10.23.89-15.33h-3c.34,3.02.67,6.03,1.01,9.05l2.95-.4c-.38-2.63-.45-5.29-.29-7.94.1-1.66-2.66-2.08-2.95-.4-.65,3.79-.64,7.56.02,11.35.27,1.57,2.46,1.27,2.89,0,1.42-4.11,1.89-8.49,1.35-12.81-.19-1.54-2.52-2.19-2.95-.4-1.06,4.49-.93,9.14.43,13.55.36,1.16,1.63,1.36,2.51.66,1.51-1.2,2.54-2.8,3.11-4.63.38-1.23-1.11-2.39-2.2-1.69-.58.37-1.15.73-1.73,1.1-1.63,1.03-.12,3.63,1.51,2.59.58-.37,1.15-.73,1.73-1.1l-2.2-1.69c-.42,1.37-1.22,2.42-2.34,3.31l2.51.66c-1.2-3.91-1.37-7.98-.43-11.96l-2.95-.4c.51,4.09.1,8.12-1.24,12.01h2.89c-.56-3.22-.57-6.53-.02-9.76l-2.95-.4c-.18,2.93-.02,5.83.4,8.74.24,1.66,3.13,1.28,2.95-.4-.34-3.02-.67-6.03-1.01-9.05-.21-1.91-2.82-1.95-3,0-.46,5.1-.76,10.21-.89,15.33-.03,1.22,1.28,1.75,2.26,1.3,13.46-6.27,26.92-12.54,40.38-18.81,1.75-.81.23-3.4-1.51-2.59h0Z"/><path class="cls-8" d="m66.89,151.27c9.31-7.73,20.12-13.59,31.66-17.21,1.84-.58,1.05-3.47-.8-2.89-12.07,3.78-23.26,9.9-32.99,17.98-1.49,1.23.65,3.35,2.12,2.12h0Z"/><path class="cls-8" d="m96.55,132.04c-2.15.79-3.91,2.12-5.76,3.43-1.95,1.38-3.98,2.65-6.07,3.81-4.14,2.29-8.51,4.09-13.05,5.42-1.85.54-1.06,3.44.8,2.89,4.5-1.32,8.87-3.09,13.01-5.31,2.04-1.09,4.03-2.3,5.94-3.61s3.74-2.94,5.94-3.74c1.8-.66,1.02-3.56-.8-2.89h0Z"/><path class="cls-8" d="m68.79,144.81c3.59-.7,6.76-2.69,9.91-4.45,3.37-1.88,6.75-3.76,10.12-5.64,1.69-.94.18-3.53-1.51-2.59-3.26,1.82-6.52,3.63-9.78,5.45-3.04,1.69-6.07,3.66-9.53,4.33-1.89.37-1.09,3.26.8,2.89h0Z"/><path class="cls-8" d="m85.59,132.98c-6.46,2.14-12.22,5.73-17.92,9.36l2.2,1.69c.45-1.37,2.49-1.89,3.66-2.41,1.83-.82,3.55-1.85,5.29-2.84,3.51-2,7.5-4.16,11.68-3.4v-2.89c-7.29,1.97-16.57,0-21.96,6.58-.91,1.11-.09,2.92,1.46,2.51,4.35-1.15,8.33-3.21,11.84-6.03,1.02-.82.17-2.61-1.06-2.56-4.05.18-8.08.74-12.03,1.68l.8,2.89c1.89-.46,2.35-3.35.5-4.21-1.74-.8-3.27,1.78-1.51,2.59l.22-1.28c-1.88.46-1.08,3.34.8,2.89,3.69-.88,7.44-1.4,11.23-1.57l-1.06-2.56c-3.09,2.49-6.68,4.25-10.51,5.26l1.46,2.51c4.87-5.96,14.01-4.01,20.64-5.81,1.35-.37,1.51-2.62,0-2.89-5.07-.91-9.69,1.25-13.99,3.71-2.03,1.16-4.06,2.29-6.21,3.24-1.82.8-3.47,1.83-4.13,3.81-.41,1.23,1.12,2.38,2.2,1.69,5.47-3.48,11.01-7.01,17.21-9.06,1.82-.6,1.04-3.5-.8-2.89h0Z"/><path class="cls-8" d="m65.32,135.76c.57-.13,1.14-.25,1.72-.35.27-.05.53-.09.8-.13.1-.01.41-.06.14-.02.16-.02.31-.04.47-.06,1.14-.13,2.29-.2,3.43-.2.78,0,1.54-.69,1.5-1.5s-.66-1.5-1.5-1.5c-2.47.01-4.94.31-7.35.87-.76.18-1.29,1.1-1.05,1.85.26.8,1.03,1.24,1.85,1.05h0Z"/><path class="cls-8" d="m102.98,108.17l.59,24.43c.05,1.93,3.05,1.93,3,0l-.59-24.43c-.05-1.93-3.05-1.93-3,0h0Z"/><path class="cls-8" d="m104.65,108.82c14.25.62,28.52.62,42.77,0,1.92-.08,1.93-3.08,0-3-14.25.62-28.52.62-42.77,0-1.93-.08-1.93,2.92,0,3h0Z"/><path class="cls-8" d="m106.7,131.61c5.43-4.58,12.24-6.98,18.64-9.86,7.19-3.24,14-7.35,20.89-11.15,1.69-.93.18-3.52-1.51-2.59-7.02,3.87-13.96,8.05-21.28,11.32-6.55,2.93-13.3,5.48-18.86,10.16-1.48,1.25.65,3.36,2.12,2.12h0Z"/><path class="cls-8" d="m144.63,107.39c-3,1.64-5.97,3.32-8.67,5.42s-4.79,4.44-7.55,6.18c-1.42.9-2.96,1.46-4.51,2.07-1.7.67-3.35,1.46-4.97,2.29-3.35,1.72-6.68,3.49-10.02,5.23-1.71.89-.2,3.48,1.51,2.59,3.34-1.74,6.67-3.51,10.02-5.23,1.6-.83,3.22-1.59,4.9-2.24,1.58-.6,3.15-1.22,4.58-2.12,2.74-1.72,4.98-4.08,7.48-6.11,2.68-2.17,5.73-3.84,8.75-5.49,1.7-.93.18-3.52-1.51-2.59h0Z"/><path class="cls-8" d="m107.2,128.58c10.69-6.63,22.03-12.15,33.86-16.44,1.8-.65,1.02-3.55-.8-2.89-12.07,4.38-23.66,9.98-34.58,16.74-1.64,1.02-.13,3.61,1.51,2.59h0Z"/><path class="cls-8" d="m140.05,107.64c-5.41,3.26-11.03,6.17-16.84,8.64s-11.7,4.34-17.18,7.34c-1.69.93-.18,3.52,1.51,2.59,5.48-3,11.46-4.9,17.18-7.34,5.81-2.48,11.43-5.38,16.84-8.64,1.65-1,.14-3.59-1.51-2.59h0Z"/><path class="cls-8" d="m107.55,124.87c9.05-6.27,19.14-10.73,29.18-15.13,1.76-.77.24-3.36-1.51-2.59-10.04,4.41-20.13,8.87-29.18,15.13-1.58,1.09-.08,3.69,1.51,2.59h0Z"/><path class="cls-8" d="m136.93,107.55c-6.19,2.88-12.34,5.84-18.46,8.86-1.73.86-.21,3.44,1.51,2.59,6.12-3.02,12.28-5.98,18.46-8.86.73-.34.92-1.4.54-2.05-.44-.75-1.32-.88-2.05-.54h0Z"/><path class="cls-8" d="m106.99,122.83l23.95-11.37c1.74-.83.22-3.42-1.51-2.59l-23.95,11.37c-1.74.83-.22,3.42,1.51,2.59h0Z"/><path class="cls-8" d="m129.2,107.52c-7.97,3.72-15.94,7.44-23.9,11.15-1.75.82-.23,3.4,1.51,2.59,7.97-3.72,15.94-7.44,23.9-11.15,1.75-.82.23-3.4-1.51-2.59h0Z"/><path class="cls-8" d="m106.87,119.31c5.77-3.21,11.71-6.11,17.79-8.69.75-.32.91-1.42.54-2.05-.45-.77-1.3-.86-2.05-.54-6.08,2.58-12.02,5.48-17.79,8.69-1.69.94-.18,3.53,1.51,2.59h0Z"/><path class="cls-8" d="m119.79,107.58c-2.4.78-4.65,1.93-6.89,3.05s-4.49,2.26-6.56,3.74c-.66.47-.97,1.31-.54,2.05.38.65,1.39,1.01,2.05.54,1.99-1.43,4.15-2.53,6.33-3.63s4.17-2.13,6.4-2.86c.77-.25,1.27-1.04,1.05-1.85-.21-.75-1.07-1.3-1.85-1.05h0Z"/><path class="cls-8" d="m105.57,115.54c3.54-1.02,6.95-2.48,10.12-4.35.7-.41.95-1.35.54-2.05s-1.35-.95-2.05-.54c-3.02,1.77-6.05,3.08-9.41,4.04-.78.22-1.26,1.06-1.05,1.85s1.06,1.27,1.85,1.05h0Z"/><path class="cls-8" d="m112.21,107.6c-2.48,1.06-4.9,2.24-7.26,3.54-.69.38-.97,1.38-.54,2.05s1.32.94,2.05.54c2.36-1.3,4.78-2.49,7.26-3.54.72-.31.94-1.43.54-2.05-.49-.75-1.28-.87-2.05-.54h0Z"/><path class="cls-8" d="m105.45,111.73c1.32-.3,2.63-.67,3.92-1.1.37-.13.69-.34.9-.69.19-.32.27-.8.15-1.16-.24-.74-1.05-1.32-1.85-1.05-1.28.44-2.59.8-3.92,1.1-.77.17-1.29,1.1-1.05,1.85.26.8,1.02,1.23,1.85,1.05h0Z"/><path class="cls-8" d="m146.21,82.65c.45,8.07.82,16.13.69,24.22-.03,1.93,2.97,1.93,3,0,.13-8.09-.24-16.15-.69-24.22-.11-1.92-3.11-1.93-3,0h0Z"/><path class="cls-8" d="m183.32,83.25c-11.48,8.33-21.6,19.26-35.53,23.51l1.16,2.74c.89-.68,1.8-1.34,2.77-1.89.3-.17.61-.31.91-.48-.13.07.12-.03.15-.05.31-.26-.15.21-.06-.02s-1.08-2.23-1.06-2.23c.04,0-.27.19-.15.13-.07.03-.47.3-.67.41-.97.56-2.01.99-3.05,1.39l1.16,2.74c6.13-4.33,12.44-8.41,18.9-12.24,3.15-1.87,6.34-3.69,9.55-5.47,2.76-1.53,5.72-2.73,7.13-5.75.42-.9-.05-2.41-1.3-2.26s-3.07.22-4.05,1.2c-.86.87-.62,2.22.42,2.8,1.89,1.07,4.46-.14,5.07-2.11.27-.85-.48-2.02-1.45-1.9-7.83.95-14.36,5.52-21.19,9.08-1.91.99-3.84,1.94-5.77,2.87-1.36.65-2.78,1.26-4.02,2.12-2.23,1.53-3.27,3.7-4.06,6.22-.38,1.19,1.13,2.46,2.2,1.69,9.92-7.01,20.53-12.99,31.67-17.85l-1.51-2.59c-7.16,4.05-14.49,7.91-21.99,11.28-1.91.86-3.84,1.68-5.82,2.34-.71.24-1.44.46-2.18.61-.14.03-.29.06-.44.08-.28.05.24,0-.1,0-.11,0-.23,0-.34.02-.44.04,0-.05-.02.02-.02.14-.62-.44.03.05-.24-.18.16.16.1.09.11.12.23.38.27.63.03.2-.15.24-.03.16-.02.01.3-.36.54-.57.36-.31.75-.56,1.15-.81,2.14-1.35,4.48-2.38,6.79-3.38s4.56-1.95,6.76-3.17c4.49-2.48,8.88-5.14,13.57-7.23l-1.51-2.59c-2.39,1.47-5.06,2.56-7.86,2.89-2.65.3-5.28.69-7.87,1.31-5.47,1.32-10.66,3.62-15.25,6.89-1.14.81-.84,2.83.76,2.8,5.93-.15,11.23-3.81,16.32-6.45l-1.51-2.59c-3.78,2.43-7.57,4.86-11.35,7.28-1.63,1.04-.2,3.48,1.51,2.59,5.66-2.93,11.36-5.79,17.09-8.58l-1.51-2.59c-3.98,2.95-8.31,5.39-12.94,7.17l1.69,2.2c2.44-4.91,8.88-5.65,12.76-9.04,1.29-1.13-.37-3.22-1.82-2.36-3.82,2.3-7.84,4.22-12.05,5.71l1.16,2.74c4.46-2.18,9.01-4.15,13.65-5.91l-1.85-1.85c-.26,1.06-.59,2.09-.99,3.11-.45,1.14.84,2.07,1.85,1.85,1.73-.38,4.65-1.24,4.52-3.53-.04-.72-.79-1.98-1.66-1.99-.66,0,.62.84.4.86,0,0,.12-.53.13-.57.14-.5.33-.98.47-1.49.51-1.86-2.38-2.66-2.89-.8-.36,1.33-1.36,3.22-.04,4.32.2.17.52.37.78.41.07.04.13.08.21.11.07-1.01-.09-1.34-.46-.98-.72.14-1.48.58-2.24.75l1.85,1.85c.4-1.02.73-2.05.99-3.11s-.72-2.27-1.85-1.85c-4.88,1.84-9.68,3.91-14.37,6.21-1.51.74-.45,3.31,1.16,2.74,4.45-1.58,8.72-3.58,12.76-6.02l-1.82-2.36c-2.02,1.77-4.7,2.7-7.05,3.96-2.51,1.34-4.88,3.08-6.18,5.69-.52,1.05.37,2.71,1.69,2.2,4.88-1.88,9.46-4.36,13.66-7.47,1.54-1.14.25-3.45-1.51-2.59-5.73,2.79-11.43,5.66-17.09,8.58l1.51,2.59c3.78-2.43,7.57-4.86,11.35-7.28,1.63-1.04.2-3.48-1.51-2.59-4.56,2.37-9.48,5.91-14.81,6.04l.76,2.8c4.63-3.3,9.8-5.53,15.34-6.77,2.55-.57,5.12-.74,7.68-1.19,2.81-.49,5.54-1.63,7.96-3.12,1.68-1.04.22-3.36-1.51-2.59-4.48,1.99-8.69,4.51-12.97,6.89-2.23,1.24-4.45,2.25-6.79,3.26-2.5,1.08-5.05,2.17-7.36,3.63-1.49.94-3.84,2.58-2.95,4.66,1.31,3.08,7.01.31,8.97-.47,4.97-2,9.78-4.4,14.54-6.86,3.8-1.96,7.58-3.97,11.31-6.07,1.72-.97.21-3.34-1.51-2.59-11.14,4.85-21.75,10.84-31.67,17.85l2.2,1.69c.66-2.09,1.44-3.72,3.38-4.87,3.05-1.8,6.4-3.13,9.53-4.78,6.13-3.23,12.21-7.59,19.25-8.45l-1.45-1.9c-.09.3-.63.1-.79.26.11.02.09,0-.04-.02.13.04.24.12.33.22.03.09.2,1.99-.15,1.88.13.04.52-.16.68-.2.47-.11.95-.18,1.42-.24l-1.3-2.26c-1.3,2.77-4.54,3.82-7.07,5.24-3.13,1.75-6.24,3.54-9.32,5.38-6.18,3.7-12.23,7.62-18.12,11.78-1.28.9-.55,3.39,1.16,2.74,1.36-.52,7.01-2.27,5.58-4.79s-5.57,1.16-6.74,2.05c-1.25.95-.61,3.28,1.16,2.74,14.25-4.35,24.5-15.29,36.24-23.81,1.55-1.12.05-3.73-1.51-2.59h0Z"/><path class="cls-8" d="m147.68,83.61c12.15-.18,24.25,1.8,36.39,1.1,1.92-.11,1.93-3.11,0-3-12.15.69-24.25-1.28-36.39-1.1-1.93.03-1.93,3.03,0,3h0Z"/><path class="cls-8" d="m174.77,81.97c-5.61,2.73-12.07,1.76-18.09,1.84-2.75.04-5.79.39-7.98,2.22-1.05.88-1.56,2.03-1.66,3.39-.06.91.46,2.63-.19,3.37l2.56,1.06c.13-3.07.2-6.13.21-9.2l-1.1,1.45c2.78-.42,5.57-.83,8.35-1.25,1.66-.25,1.28-3.08-.4-2.95-2.36.18-5.71.57-7.43,2.4-.9.95-1.1,2.32-1.42,3.54-.42,1.61-.85,3.22-1.27,4.83-.3,1.15,1.11,2.53,2.2,1.69,3.34-2.54,6.68-5.09,10.02-7.63,1.51-1.15.25-3.49-1.51-2.59-2.83,1.44-5.78,2.53-8.89,3.15l1.16,2.74c1.34-.62,2.74-.87,4.21-.85l-1.45-1.9c-.2.96-.41,1.93-.61,2.89-.23,1.06.69,2.21,1.85,1.85,3.25-1.03,6.18-2.63,8.84-4.76.48-.38.58-1.32.23-1.82-1.36-1.93-3.53-2.24-5.75-2.16l.76,2.8c.84-.48,1.66-.78,2.61-.98l-.8-2.89c-.28.09-.55.18-.83.27-1.83.59-1.05,3.49.8,2.89.28-.09.55-.18.83-.27,1.84-.6,1.09-3.29-.8-2.89-1.18.25-2.28.69-3.32,1.29-1.26.73-.75,2.85.76,2.8.92-.03,2.54-.2,3.16.68l.23-1.82c-2.24,1.79-4.79,3.12-7.52,3.99l1.85,1.85c.2-.96.41-1.93.61-2.89s-.43-1.88-1.45-1.9c-2.02-.03-3.9.41-5.73,1.26-1.62.75-.42,3.06,1.16,2.74,3.36-.68,6.56-1.9,9.61-3.46l-1.51-2.59c-3.34,2.54-6.68,5.09-10.02,7.63l2.2,1.69c.3-1.13.59-2.26.89-3.38.27-1.01.41-2.35.87-3.29.76-1.54,3.96-1.78,5.47-1.89l-.4-2.95c-2.78.42-5.57.83-8.35,1.25-.64.1-1.1.85-1.1,1.45-.01,3.07-.08,6.14-.21,9.2-.05,1.25,1.71,2.04,2.56,1.06s1.13-2.01,1.12-3.26c0-1.14-.41-2.53.57-3.38,2.08-1.79,5.62-1.49,8.14-1.45,5.94.09,11.99.41,17.48-2.26,1.74-.84.22-3.43-1.51-2.59h0Z"/><path class="cls-8" d="m169.06,79.6c-4.37.4-8.77.52-13.14.05-.81-.09-1.5.75-1.5,1.5,0,.88.69,1.41,1.5,1.5,4.37.48,8.77.36,13.14-.05.81-.07,1.5-.64,1.5-1.5,0-.75-.69-1.57-1.5-1.5h0Z"/><path class="cls-8" d="m172.67,80.1c-8.21.39-16.49.78-24.66-.33-.81-.11-1.6.19-1.85,1.05-.2.7.25,1.74,1.05,1.85,8.46,1.14,16.96.84,25.46.44,1.92-.09,1.93-3.09,0-3h0Z"/><path class="cls-8" d="m147.28,83.08c11.55.25,23.09,1.47,34.6-.11.81-.11,1.23-1.14,1.05-1.85-.23-.87-1.05-1.16-1.85-1.05-11.21,1.54-22.55.25-33.8,0-1.93-.04-1.93,2.96,0,3h0Z"/><path class="cls-8" d="m147.71,95.42c.35-4.18.84-8.36.56-12.56-.05-.81-.65-1.5-1.5-1.5-.77,0-1.55.69-1.5,1.5.28,4.2-.21,8.38-.56,12.56-.07.81.74,1.5,1.5,1.5.87,0,1.43-.69,1.5-1.5h0Z"/><path class="cls-8" d="m144.88,84.86c.08,4.83.11,9.67.18,14.5.02,1.93,3.02,1.93,3,0-.06-4.83-.09-9.67-.18-14.5-.03-1.93-3.03-1.93-3,0h0Z"/><path class="cls-8" d="m147.82,97.28c-.65-5.67,2.6-11.06.95-16.73-.54-1.85-3.44-1.06-2.89.8,1.54,5.28-1.67,10.58-1.05,15.93.09.8.62,1.5,1.5,1.5.74,0,1.59-.69,1.5-1.5h0Z"/><path class="cls-8" d="m105.43,107.77c9.18,1.14,18.45,1.41,27.69.92,1.92-.1,1.93-3.1,0-3-9.24.5-18.5.22-27.69-.92-1.91-.24-1.89,2.77,0,3h0Z"/><path class="cls-8" d="m104.21,127.84c1.42-7.11,1.95-14.34,2.42-21.56h-3c-.18,2.96-.36,5.91-.54,8.87l2.56-1.06c-1.69-2.1-1.4-5.17-1.39-7.69,0-1.93-3-1.93-3,0,0,3.49-.03,6.96,2.27,9.81.88,1.1,2.49.11,2.56-1.06.18-2.96.36-5.91.54-8.87.12-1.93-2.87-1.92-3,0-.45,6.95-.94,13.92-2.31,20.76-.38,1.89,2.51,2.69,2.89.8h0Z"/><path class="cls-8" d="m81.13,132.64c7.06.54,14.16.99,21.21.11.81-.1,1.49-.62,1.5-1.5,0-.73-.7-1.6-1.5-1.5-7.05.88-14.15.43-21.21-.11-1.93-.15-1.92,2.85,0,3h0Z"/><path class="cls-8" d="m27.28,155.95c1.93,0,1.93-3,0-3s-1.93,3,0,3h0Z"/><path class="cls-8" d="m27.49,155.83c2.87.27,5.74.15,8.62.11s5.62.27,8.45.31c5.78.08,11.59-.27,17.37-.42,1.93-.05,1.93-3.05,0-3-5.78.16-11.59.5-17.37.42-2.74-.04-5.45-.34-8.2-.31-2.96.04-5.92.17-8.87-.1-1.92-.18-1.91,2.82,0,3h0Z"/><path class="cls-8" d="m64.26,152.8c1.93,0,1.93-3,0-3s-1.93,3,0,3h0Z"/><path class="cls-8" d="m63.88,153.02c1.93,0,1.93-3,0-3s-1.93,3,0,3h0Z"/><path class="cls-8" d="m25.4,154.58c0,2.33.02,4.67.02,7s.02,4.52-.37,6.74c-.14.8.21,1.62,1.05,1.85.72.2,1.71-.25,1.85-1.05.42-2.41.48-4.83.47-7.26s-.02-4.85-.02-7.27c0-1.93-3.01-1.93-3,0h0Z"/><path class="cls-8" d="m61.75,151.92l-.04.04c-.15.14-.25.3-.31.48-.09.18-.14.37-.13.58,0,.21.04.4.13.58.06.19.16.35.31.48l.3.23c.23.14.49.2.76.2l.4-.05c.25-.07.47-.2.66-.39l.04-.04c.15-.14.25-.3.31-.48.09-.18.14-.37.13-.58,0-.21-.04-.4-.13-.58-.06-.19-.16-.35-.31-.48l-.3-.23c-.23-.14-.49-.2-.76-.2l-.4.05c-.25.07-.47.2-.66.39h0Z"/><path class="cls-8" d="m62.59,154.52c1.93,0,1.93-3,0-3s-1.93,3,0,3h0Z"/><path class="cls-8" d="m62.59,154.52c1.93,0,1.93-3,0-3s-1.93,3,0,3h0Z"/><path class="cls-8" d="m62.59,154.19c1.93,0,1.93-3,0-3s-1.93,3,0,3h0Z"/><path class="cls-8" d="m62.59,154.19c1.93,0,1.93-3,0-3s-1.93,3,0,3h0Z"/><path class="cls-8" d="m61.07,152.47l-.04.15c-.06.2-.07.4-.03.6,0,.2.07.39.18.56.09.17.22.32.39.42.14.13.31.22.51.27l.4.05c.27,0,.52-.07.76-.2l.3-.23c.19-.19.31-.41.39-.66l.04-.15c.06-.2.07-.4.03-.6,0-.2-.07-.39-.18-.56-.09-.17-.22-.32-.39-.42-.14-.13-.31-.22-.51-.27l-.4-.05c-.27,0-.52.07-.76.2l-.3.23c-.19.19-.31.41-.39.66h0Z"/><path class="cls-8" d="m62.49,154.56c1.93,0,1.93-3,0-3s-1.93,3,0,3h0Z"/><path class="cls-8" d="m64.22,153.05l.04-.07c.11-.17.17-.36.18-.56.04-.2.04-.4-.03-.6-.05-.2-.14-.37-.27-.51-.11-.16-.25-.29-.42-.39l-.36-.15c-.27-.07-.53-.07-.8,0l-.36.15c-.23.13-.4.31-.54.54l-.04.07c-.11.17-.17.36-.18.56-.04.2-.04.4.03.6.05.2.14.37.27.51.11.16.25.29.42.39l.36.15c.27.07.53.07.8,0l.36-.15c.23-.13.4-.31.54-.54h0Z"/><path class="cls-8" d="m62.66,132.56c3.07.28,6.1.61,9.19.54s6.35-.15,9.52-.22c1.93-.04,1.93-3.05,0-3-3.17.07-6.35.15-9.52.22s-6.12-.26-9.19-.54c-.81-.07-1.5.74-1.5,1.5,0,.87.69,1.43,1.5,1.5h0Z"/><path class="cls-8" d="m108.31,132.29c.22-.26.47-.5.74-.71l-.3.23c.65-.5,1.39-.85,2.12-1.2.32-.15.6-.57.69-.9.1-.36.05-.84-.15-1.16s-.51-.6-.9-.69l-.4-.05c-.27,0-.52.07-.76.2-.53.25-1.07.5-1.57.81-.58.36-1.16.79-1.6,1.32-.15.14-.25.3-.31.48-.09.18-.14.37-.13.58,0,.37.16.81.44,1.06s.66.46,1.06.44c.38-.02.81-.14,1.06-.44h0Z"/><path class="cls-8" d="m101.75,126.99c-.28.97-.42,1.96-.41,2.97.02,1.95,2.85,1.9,3,0,.27-3.32.5-6.64.69-9.97.18-3.09.39-6.25-.58-9.24-.43-1.33-2.56-1.52-2.89,0-.59,2.65-.02,5.2.25,7.84.13,1.29.05,2.58.2,3.86s.49,2.58.86,3.85c.54,1.85,3.43,1.06,2.89-.8-.31-1.06-.64-2.13-.78-3.22-.15-1.22-.05-2.47-.18-3.7-.24-2.32-.87-4.72-.36-7.05h-2.89c.92,2.85.63,5.87.46,8.81-.19,3.2-.41,6.4-.67,9.6h3c0-.76.08-1.44.3-2.17.54-1.86-2.35-2.65-2.89-.8h0Z"/><path class="cls-8" d="m145.67,97.44l-.21,8.84c-.02.78.7,1.54,1.5,1.5s1.48-.66,1.5-1.5l.21-8.84c.02-.78-.7-1.54-1.5-1.5s-1.48.66-1.5,1.5h0Z"/><path class="cls-8" d="m124.96,108.2c3.8.92,7.39,1.51,11.28.8,1.82-.33,3.57-.58,5.42-.59,1.95-.01,3.87,0,5.81-.28.81-.12,1.24-1.13,1.05-1.85-.23-.86-1.05-1.16-1.85-1.05-1.8.26-3.63.15-5.43.17-1.7.02-3.36.23-5.03.54s-3.32.53-5.03.39c-1.83-.15-3.64-.61-5.42-1.04-1.88-.46-2.68,2.44-.8,2.89h0Z"/><path class="cls-8" d="m144.84,96.63c.07,3.08.22,6.15.37,9.22.04.78.66,1.54,1.5,1.5.78-.03,1.54-.66,1.5-1.5-.15-3.07-.3-6.15-.37-9.22-.02-.78-.68-1.54-1.5-1.5s-1.52.66-1.5,1.5h0Z"/><path class="cls-8" d="m145.25,81.13l-.1,3.44c-.02.79.71,1.54,1.5,1.5s1.48-.66,1.5-1.5l.1-3.44c.02-.79-.71-1.54-1.5-1.5s-1.48.66-1.5,1.5h0Z"/><path class="cls-8" d="m149.23,82.69c5.83.33,11.68.66,17.52.5,2.75-.07,5.5-.33,8.25-.3,2.9.03,5.78.36,8.66.7,1.91.22,1.9-2.78,0-3-2.8-.32-5.6-.64-8.42-.69s-5.66.22-8.49.3c-5.84.16-11.69-.17-17.52-.5-1.93-.11-1.92,2.89,0,3h0Z"/><path class="cls-8" d="m183.55,87.87c1.93,0,1.93-3,0-3s-1.93,3,0,3h0Z"/><path class="cls-8" d="m185.11,87.07c.03-.37.02-.74-.01-1.11-.07-.75-.51-1.37-1.3-1.47-.72-.1-1.46.35-1.65,1.07-.2.8-.2,1.62.01,2.41.16.61.8,1.13,1.45,1.1s1.26-.45,1.45-1.1c.3-1.07.29-2.19.23-3.29-.03-.49-.06-.98-.05-1.47,0-.24.02-.48.04-.72.02-.17.02-.14-.01.09.01-.07.02-.14.04-.2.03-.14.06-.27.1-.4.21-.75-.26-1.67-1.05-1.85s-1.62.24-1.85,1.05c-.3,1.07-.29,2.19-.23,3.29.03.49.06.98.05,1.47,0,.24-.02.48-.04.72-.02.17-.02.14.01-.09-.01.07-.02.14-.04.2-.03.14-.06.27-.1.4h2.89c-.02-.06-.1-.25-.07-.32.03.22.03.24.02.07,0-.05,0-.11,0-.16,0-.05-.02-.42,0-.18-.02.13-.02.12,0-.02.01-.07.03-.14.05-.21l-2.95-.4c.04.37.04.74.01,1.11-.06.78.73,1.53,1.5,1.5.86-.04,1.44-.66,1.5-1.5h0Z"/><path class="cls-8" d="m184.62,80.32c.07,2.55-.11,5.09-.03,7.64.02.64,1.02.64,1,0-.08-2.55.11-5.09.03-7.64-.02-.64-1.02-.64-1,0h0Z"/><path class="cls-8" d="m185.17,80.77c.64,0,.64-1,0-1s-.64,1,0,1h0Z"/><path class="cls-8" d="m168.89,80.65c2.77.01,5.54.08,8.31.22,1.31.06,2.63.21,3.94.17.61-.02,1.22-.13,1.84-.1s1.22.18,1.85-.02c.46-.15.49-.82,0-.96-1.1-.32-2.33-.05-3.46-.06-1.33,0-2.66-.08-3.98-.11-2.63-.06-5.21.17-7.82-.22l-.13.98c4.73.16,9.46.25,14.19.28.64,0,.64-1,0-1-4.73-.03-9.46-.13-14.19-.28-.55-.02-.7.9-.13.98,1.22.18,2.44.29,3.67.31,1.31.02,2.62-.08,3.93-.07s2.58.09,3.86.12c.64.01,1.29,0,1.93-.02s1.26-.13,1.87.05v-.96c-.59.19-1.2-.02-1.8-.03s-1.24.11-1.86.11c-1.32,0-2.64-.13-3.96-.19-2.69-.13-5.38-.19-8.07-.2-.64,0-.64,1,0,1h0Z"/><path class="cls-8" d="m145.04,80.15c2.24.1,4.47.21,6.71.3,1.1.05,2.21.09,3.31.12s2.32,0,3.47.17c.63.09.9-.87.27-.96-2.24-.32-4.54-.22-6.8-.32s-4.64-.21-6.96-.31c-.64-.03-.64.97,0,1h0Z"/><path class="cls-8" d="m157.58,80.5c3.4-.04,6.79.57,10.19.32.64-.05.64-1.05,0-1-3.4.25-6.79-.36-10.19-.32-.64,0-.64,1.01,0,1h0Z"/><path class="cls-8" d="m168.71,79.61s-.02.01-.03.01l.12-.05s-.05.02-.08.02l.13-.02s-.05,0-.08,0l.13.02s-.02,0-.03,0c-.07-.02-.13-.02-.2,0-.07,0-.13.02-.19.06-.06.03-.11.07-.14.13-.04.05-.07.1-.09.17l-.02.13c0,.09.02.17.07.25l.08.1c.06.06.14.1.22.13.06.01.12.02.19.02s.13-.01.19-.02c.02,0,.04,0,.06-.01.06-.02.12-.04.17-.07.06-.03.11-.07.14-.13.04-.05.07-.1.09-.17.02-.07.02-.13,0-.2,0-.07-.02-.13-.06-.19l-.08-.1c-.06-.06-.14-.1-.22-.13l-.13-.02c-.09,0-.17.02-.25.07h0Z"/><path class="cls-8" d="m159.62,80.51c3.13-.13,6.27,0,9.41.06.64.01.64-.99,0-1-3.13-.06-6.27-.19-9.41-.06-.64.03-.64,1.03,0,1h0Z"/><path class="cls-8" d="m145.05,79.94c5.05.23,10.11.56,15.17.56.64,0,.64-1,0-1-5.06,0-10.12-.33-15.17-.56-.64-.03-.64.97,0,1h0Z"/><path class="cls-8" d="m151.42,80.25c1.65-.11,3.31-.01,4.96.02s3.35.07,5.03.11c.64.01.64-.99,0-1-1.68-.04-3.35-.07-5.03-.11s-3.31-.13-4.96-.02c-.64.04-.64,1.04,0,1h0Z"/><path class="cls-8" d="m144.78,80.11c0,1.76.04,3.52.13,5.27.03.64,1.03.64,1,0-.09-1.76-.13-3.52-.13-5.27,0-.64-1-.64-1,0h0Z"/><path class="cls-8" d="m144.6,79.99v.78c0,.13.05.26.14.35s.23.15.35.15.26-.05.35-.15.14-.22.15-.35c0-.03,0-.06,0-.09,0-.13-.06-.26-.15-.35s-.23-.15-.35-.15-.26.05-.35.15-.14.22-.15.35c0,.03,0,.06,0,.09h1v-.78c0-.13-.05-.26-.14-.35s-.23-.15-.35-.15-.26.05-.35.15-.14.22-.15.35h0Z"/><path class="cls-8" d="m145.11,80.44c.64,0,.64-1,0-1s-.64,1,0,1h0Z"/><path class="cls-8" d="m145.04,80.31c.64,0,.64-1,0-1s-.64,1,0,1h0Z"/><path class="cls-8" d="m144.66,80.98l-.08.83h1c-.02-.46-.04-.92-.07-1.38,0-.13-.05-.26-.15-.35-.09-.09-.23-.15-.35-.15-.26.01-.51.22-.5.5.02.46.04.92.07,1.38,0,.13.05.26.15.35.09.09.23.15.35.15s.26-.05.35-.15c.09-.1.13-.21.15-.35l.08-.83c.01-.12-.06-.27-.15-.35-.09-.09-.23-.15-.35-.15s-.26.05-.35.15c-.09.1-.13.21-.15.35h0Z"/><path class="cls-8" d="m144.63,81.99c-.04.15-.06.31-.08.47-.01.12,0,.24,0,.36,0,.07.01.13.04.19.02.06.05.12.1.16.05.05.1.08.16.1.06.03.12.05.19.04.13,0,.26-.05.35-.15s.15-.22.15-.35c0-.04,0-.08,0-.11,0-.13-.05-.26-.15-.35-.05-.05-.1-.08-.16-.1-.06-.03-.12-.05-.19-.04-.13,0-.26.05-.35.15s-.15.22-.15.35c0,.04,0,.08,0,.11h1c-.01-.15-.01-.3,0-.45l-.02.13c.01-.08.03-.17.05-.25.03-.13.02-.27-.05-.39-.03-.06-.07-.11-.13-.14-.05-.04-.1-.07-.17-.09-.13-.03-.27-.02-.39.05s-.2.17-.23.3h0Z"/><path class="cls-8" d="m145.03,82.32c.64,0,.64-1,0-1s-.64,1,0,1h0Z"/><path class="cls-8" d="m144.63,83.12v.94h1c-.02-.44-.02-.88-.01-1.32,0-.26-.23-.51-.5-.5s-.49.22-.5.5c0,.44,0,.88.01,1.32,0,.13.05.26.15.35.09.09.23.15.35.15.27-.01.5-.22.5-.5v-.94c0-.26-.23-.51-.5-.5s-.5.22-.5.5h0Z"/><path class="cls-8" d="m144.52,84.47c.01.08.02.16.04.24l-.02-.13c.07.51.1,1.03.08,1.54,0,.26.23.51.5.5s.49-.22.5-.5c.01-.64-.04-1.28-.14-1.92-.02-.12-.13-.24-.23-.3-.11-.06-.27-.09-.39-.05s-.24.11-.3.23c-.07.13-.07.25-.05.39h0Z"/><path class="cls-8" d="m150.51,96.59c.02-.19,0-.38-.03-.58-.01-.08-.02-.16-.04-.24,0-.04-.02-.09-.02-.13v.06s0-.05,0-.07c-.04-.32-.04-.65-.02-.98.02-.26-.24-.51-.5-.5-.28.01-.48.22-.5.5-.02.33-.01.65.02.98.02.19.05.39.08.58.02.11,0-.1,0,.02,0,.04,0,.07,0,.11,0,.09,0,.17,0,.26-.01.12.07.27.15.35.09.09.23.15.35.15s.26-.05.35-.15c.1-.1.13-.21.15-.35h0Z"/><path class="cls-8" d="m145.6,83.69c-.02-.25-.02-.51-.02-.76,0-.13-.06-.26-.15-.35s-.23-.15-.35-.15-.26.05-.35.15-.14.22-.15.35c0,.25,0,.51.02.76,0,.13.05.26.15.35.09.09.23.15.35.15s.26-.05.35-.15.15-.22.15-.35h0Z"/><path class="cls-8" d="m144.58,82.95v1.54c0,.26.23.51.5.5s.5-.22.5-.5v-1.54c0-.26-.23-.51-.5-.5s-.5.22-.5.5h0Z"/><path class="cls-8" d="m144.66,86.33c-.02.3.01.61.09.9.03.12.12.24.23.3s.27.09.39.05.24-.11.3-.23.08-.25.05-.39c-.02-.09-.04-.18-.05-.27l.02.13c-.02-.17-.03-.33-.02-.5,0-.07-.01-.13-.04-.19-.02-.06-.05-.12-.1-.16-.09-.09-.23-.15-.35-.15s-.26.05-.35.15l-.08.1c-.05.08-.07.16-.07.25h0Z"/><path class="cls-8" d="m144.64,86.04v.41c.33-.04.66-.09.99-.13,0,0-.04-.16-.03-.08,0-.04,0-.07,0-.11,0-.1,0-.2.02-.3.02-.2.04-.39.01-.58-.03-.26-.21-.51-.5-.5-.27.01-.5.22-.5.5,0,1.05.02,2.1.09,3.15.02.26.22.51.5.5.26-.01.52-.22.5-.5-.07-1.05-.09-2.1-.09-3.15h-1c.06.45-.1.89.04,1.34.08.24.3.39.55.36s.44-.24.43-.49v-.41c0-.26-.23-.51-.5-.5s-.5.22-.5.5h0Z"/><path class="cls-8" d="m144.62,86.29l-.02.76c0,.27.23.5.5.5.29,0,.48-.23.5-.5.06-.63.06-1.27,0-1.9s-.98-.65-1,0c-.04,1.58.07,3.16.3,4.72.04.27.38.41.62.35.29-.08.39-.35.35-.62-.22-1.47-.31-2.97-.27-4.46h-1c.06.63.05,1.27,0,1.9h1l.02-.76c.01-.64-.99-.64-1,0h0Z"/><path class="cls-8" d="m145.65,86.9l-.03-.04c-.03-.06-.07-.11-.13-.14-.05-.04-.1-.07-.17-.09-.07-.02-.13-.02-.2,0-.07,0-.13.02-.19.06l-.1.08c-.06.06-.1.14-.13.22l-.02.13c0,.09.02.17.07.25l.03.04c.03.06.07.11.13.14.05.04.1.07.17.09.07.02.13.02.2,0,.07,0,.13-.02.19-.06l.1-.08c.06-.06.1-.14.13-.22l.02-.13c0-.09-.02-.17-.07-.25h0Z"/><path class="cls-8" d="m144.54,87.31c.04,1.17.12,2.33.24,3.49.03.27.21.5.5.5.25,0,.53-.23.5-.5-.12-1.16-.2-2.33-.24-3.49-.01-.27-.22-.5-.5-.5-.26,0-.51.23-.5.5h0Z"/><path class="cls-8" d="m144.58,89.34c-.05,2.48-.05,4.97.02,7.45.02.64,1.02.64,1,0-.06-2.48-.07-4.97-.02-7.45.01-.64-.99-.64-1,0h0Z"/><path class="cls-8" d="m144.51,88.85v1.18c0,.13.05.26.14.35s.23.15.35.15c.27-.01.5-.22.5-.5v-1.18c0-.13-.05-.26-.14-.35s-.23-.15-.35-.15c-.27.01-.5.22-.5.5h0Z"/><path class="cls-8" d="m144.59,97.15l.04,4.56h1c-.04-1.36-.07-2.72.08-4.07.03-.27-.25-.5-.5-.5-.3,0-.47.23-.5.5-.12,1-.05,1.99.02,2.99.05.64.99.65,1,0,.02-1.31.04-2.62.06-3.93,0-.64-.99-.64-1,0-.02,1.31-.04,2.62-.06,3.93h1c-.07-1-.14-1.99-.02-2.99h-1c-.15,1.35-.12,2.71-.08,4.07.02.64,1.01.65,1,0l-.04-4.56c0-.64-1.01-.64-1,0h0Z"/><path class="cls-8" d="m144.52,96.63c-.03,1.49.02,2.98.15,4.46.02.27.21.5.5.5.25,0,.52-.23.5-.5-.13-1.48-.19-2.97-.15-4.46.01-.64-.99-.64-1,0h0Z"/><path class="cls-8" d="m144.56,100.12c-.16.47-.11,1.04-.11,1.53s0,.98.02,1.47.03.98.04,1.48c.01.45-.03.97.34,1.31.48.43,1.19-.27.71-.71-.07-.06-.04-.24-.04-.33,0-.21-.01-.42-.02-.64-.01-.44-.02-.88-.03-1.32s-.02-.84-.02-1.26-.06-.88.07-1.27c.21-.61-.76-.87-.96-.27h0Z"/><path class="cls-8" d="m147.11,108.87c-.06,0-.11,0-.16,0l.13.02c-.08-.01-.16-.03-.24-.06l.12.05h0c-.06-.04-.12-.06-.19-.06-.07-.01-.13-.01-.2,0-.07.02-.12.05-.17.09-.05.04-.1.08-.13.14l-.05.12c-.02.09-.02.18,0,.27l.05.12c.04.08.1.13.18.18.11.05.21.09.32.11s.23.04.34.03c.07,0,.13-.01.19-.04.06-.02.12-.05.16-.1.05-.05.08-.1.1-.16.03-.06.05-.12.04-.19l-.02-.13c-.02-.08-.07-.16-.13-.22l-.1-.08c-.08-.05-.16-.07-.25-.07h0Z"/><path class="cls-8" d="m146.73,109.27c.64,0,.64-1,0-1s-.64,1,0,1h0Z"/><path class="cls-8" d="m144.72,104.91c-1.1.21-2.19.25-3.3.22s-2.23.09-3.35.12-2.25-.08-3.38-.09-2.27.02-3.41.1l.13.98c.37-.06.74.08,1.11.12.41.04.8-.03,1.21.08.71.19,1.36.35,2.1.31.64-.03.64-1.03,0-1-.84.04-1.53-.3-2.34-.38-.42-.04-.83,0-1.25-.07-.38-.06-.71-.09-1.09-.03-.55.08-.43,1.02.13.98,1.22-.09,2.43-.11,3.65-.1,1.12.01,2.25.14,3.37.07s2.23-.13,3.37-.11,2.22-.05,3.32-.26c.63-.12.36-1.09-.27-.96h0Z"/><path class="cls-8" d="m143.47,104.9l-3.48.03c-.27,0-.5.23-.5.5s.23.5.5.5l3.48-.03c.27,0,.5-.23.5-.5s-.23-.5-.5-.5h0Z"/><path class="cls-8" d="m143.66,105.91c.17,0,.33,0,.5,0,.07,0,.13-.01.19-.04.06-.02.12-.05.16-.1.05-.05.08-.1.1-.16.03-.06.05-.12.04-.19l-.02-.13c-.02-.08-.07-.16-.13-.22l-.1-.08c-.08-.05-.16-.07-.25-.07-.17,0-.33,0-.5,0-.07,0-.13.01-.19.04-.06.02-.12.05-.16.1-.05.05-.08.1-.1.16-.03.06-.05.12-.04.19l.02.13c.02.08.07.16.13.22.1.09.22.15.35.15h0Z"/><path class="cls-8" d="m121.77,106.52c4.63-.09,9.26-.19,13.89-.31.64-.02.64-1.02,0-1-4.63.12-9.26.22-13.89.31-.64.01-.64,1.01,0,1h0Z"/><path class="cls-8" d="m139.58,104.97c-1.8.11-3.59.17-5.39.17-.9,0-1.8-.02-2.7-.04-.4-.01-.81-.05-1.21-.03-.45.02-.88.15-1.33.17-.64.03-.64,1.03,0,1,.45-.02.88-.15,1.33-.17.4-.02.81.02,1.21.03.9.03,1.8.04,2.7.04,1.8,0,3.6-.06,5.39-.17.64-.04.64-1.04,0-1h0Z"/><path class="cls-8" d="m114.33,106.4c1.24,0,2.48-.05,3.71.02s2.34.18,3.54.1c2.47-.17,4.94.18,7.4-.16.63-.09.36-1.05-.27-.96-2.44.33-4.92-.03-7.37.14-1.2.09-2.35-.08-3.55-.13s-2.31-.01-3.47,0c-.64,0-.64,1,0,1h0Z"/><path class="cls-8" d="m128.9,105.26c-3.58-.12-7.16-.17-10.74-.12s-7.06.21-10.58-.14c-.64-.06-.64.94,0,1,3.52.35,7.05.18,10.58.14s7.16,0,10.74.12c.64.02.64-.98,0-1h0Z"/><path class="cls-8" d="m107.4,105.88c5.36.24,10.72.24,16.08.02.64-.03.64-1.03,0-1-5.36.23-10.72.22-16.08-.02-.64-.03-.64.97,0,1h0Z"/><path class="cls-8" d="m123.94,105.85c2.68.2,5.36.25,8.04.16s5.2-.02,7.79.01c.64,0,.64-.99,0-1-2.6-.03-5.2-.1-7.79-.01s-5.37.05-8.04-.16c-.64-.05-.64.95,0,1h0Z"/><path class="cls-8" d="m126.54,105.91c2.12.02,4.24.04,6.36.07.64,0,.64-.99,0-1-2.12-.02-4.24-.04-6.36-.07-.64,0-.64.99,0,1h0Z"/><path class="cls-8" d="m101.28,105.97c.68-.05,1.37-.04,2.05.02s1.36.15,2.04.11c.27-.02.5-.22.5-.5,0-.26-.23-.52-.5-.5-.68.04-1.36-.05-2.04-.11s-1.37-.07-2.05-.02c-.27.02-.5.22-.5.5,0,.26.23.52.5.5h0Z"/><path class="cls-8" d="m103.43,105.86c.56-.03,1.12-.02,1.68,0,.26.01.51-.24.5-.5-.01-.28-.22-.48-.5-.5-.56-.03-1.12-.04-1.68,0-.26.01-.51.22-.5.5.01.26.22.51.5.5h0Z"/><path class="cls-8" d="m111.25,105.91c1.34-.04,2.68,0,4.02.06s2.65.25,3.94.03c.63-.11.36-1.08-.27-.96s-1.27.07-1.9.03-1.29-.07-1.93-.1c-1.29-.06-2.58-.09-3.87-.06-.64.02-.64,1.02,0,1h0Z"/><path class="cls-8" d="m115.88,105.98c.88-.15,1.79-.05,2.68-.03s1.85.03,2.77,0c.64-.02.64-1.02,0-1-.96.03-1.92.03-2.88,0s-1.89-.09-2.83.07c-.27.05-.42.37-.35.62.08.28.35.4.62.35h0Z"/><path class="cls-8" d="m100.85,106.07c-.03,1.12.04,2.24.2,3.36.04.26.38.42.62.35.29-.09.39-.34.35-.62-.14-.99-.19-2.06-.16-3.09,0-.26-.23-.51-.5-.5s-.49.22-.5.5h0Z"/><path class="cls-8" d="m101.26,106.01c.64,0,.64-1,0-1s-.64,1,0,1h0Z"/><path class="cls-8" d="m101.19,105.77c.64,0,.64-1,0-1s-.64,1,0,1h0Z"/><path class="cls-8" d="m100.91,108.42c.2,3.11.03,6.23.17,9.34s.67,6.18.75,9.29c.02.64,1.02.64,1,0-.08-3.11-.61-6.19-.75-9.29s.03-6.23-.17-9.34c-.04-.64-1.04-.64-1,0h0Z"/><path class="cls-8" d="m102.24,126.52c-.01-2.72.11-5.44.36-8.15.06-.64-.94-.64-1,0-.25,2.71-.37,5.43-.36,8.15,0,.64,1,.64,1,0h0Z"/><path class="cls-8" d="m100.64,108.31c-.14,2.4.22,4.82.25,7.23s-.02,4.86-.05,7.29c0,.64.99.64,1,0,.03-2.43.08-4.86.05-7.29s-.39-4.83-.25-7.23c.04-.64-.96-.64-1,0h0Z"/><path class="cls-8" d="m100.77,122.98l.19,6.85c.02.64,1.02.64,1,0l-.19-6.85c-.02-.64-1.02-.64-1,0h0Z"/><path class="cls-8" d="m100.85,127.22c-.02.85-.03,1.69-.02,2.54,0,.26.23.51.5.5s.5-.22.5-.5c0-.85,0-1.69.02-2.54,0-.26-.23-.51-.5-.5s-.49.22-.5.5h0Z"/><path class="cls-8" d="m100.83,129.45c-1.38-.2-2.73-.03-4.11.05s-2.83-.1-4.26.05-2.74.1-4.12.08c-1.51-.03-3.02-.05-4.53-.08-.64-.01-.64.99,0,1,1.43.02,2.86.05,4.28.07s2.77.09,4.14-.05,2.66,0,4.01-.05c1.44-.05,2.88-.32,4.31-.11.63.09.9-.87.27-.96h0Z"/><path class="cls-8" d="m82.9,130.55c.96-.22,1.94.05,2.91.09s2.03-.04,3.05-.06c2.05-.04,4.13-.14,6.16.11.64.08.63-.92,0-1-2.11-.27-4.28-.16-6.41-.11-1.01.02-2.02.11-3.03.04s-1.95-.26-2.95-.04c-.63.14-.36,1.11.27.96h0Z"/><path class="cls-8" d="m101.02,129.05c-3.17.15-6.35.32-9.53.4s-6.41.02-9.61-.04c-.64-.01-.64.99,0,1,3.2.06,6.41.11,9.61.04s6.35-.25,9.53-.4c.64-.03.64-1.03,0-1h0Z"/><path class="cls-8" d="m61.05,130.4c3.54.06,7.09.09,10.63.1,1.73,0,3.46,0,5.19,0s3.51.05,5.25-.13c.63-.06.64-1.06,0-1-1.7.17-3.42.12-5.13.13s-3.54,0-5.32,0c-3.54-.01-7.09-.05-10.63-.1-.64-.01-.64.99,0,1h0Z"/><path class="cls-8" d="m60.62,130.74c.43,1.57.97,3.15,1.12,4.78s.05,3.21-.02,4.81c-.03.64.97.64,1,0,.08-1.66.19-3.34,0-5s-.7-3.26-1.14-4.86c-.17-.62-1.13-.36-.96.27h0Z"/><path class="cls-8" d="m69.02,137.42h0s-.05-.06-.08-.09c.02.03.04.06.05.09l-.05-.12c.04.11.05.23.07.34.04.21.16.4.33.54s.41.21.62.19c.11-.01.23-.03.33-.07s.22-.09.32-.14.2-.19.23-.3c.03-.12.02-.28-.05-.39s-.17-.2-.3-.23l-.13-.02c-.09,0-.17.02-.25.07-.04.02-.09.04-.13.06l.12-.05c-.08.03-.16.06-.24.07l.13-.02c-.05,0-.1,0-.15,0l.13.02s-.08-.02-.12-.03l.12.05s-.05-.03-.08-.04l.1.08s-.04-.04-.06-.06l.08.1s-.04-.05-.05-.08l.05.12c-.04-.1-.05-.21-.07-.32,0-.05-.02-.1-.04-.15-.05-.14-.1-.23-.2-.34-.08-.09-.24-.15-.35-.15-.12,0-.27.05-.35.15s-.15.22-.15.35l.02.13c.02.08.07.16.13.22h0Z"/><path class="cls-8" d="m60.69,130.44c.24,2.41.41,4.84.42,7.27s-.15,4.75-.25,7.12c-.03.64.97.64,1,0,.1-2.37.26-4.75.25-7.12s-.17-4.86-.42-7.27c-.06-.63-1.06-.64-1,0h0Z"/><path class="cls-8" d="m60.71,144.92c.38,2.61.27,5.25.15,7.88h1c-.06-1.49-.12-2.97-.18-4.46-.03-.66-.08-1.33-.05-1.99.03-.74.15-1.47.15-2.21,0-1.46.05-2.83.31-4.28s.44-2.82.55-4.25c.05-.64-.95-.64-1,0-.11,1.46-.32,2.88-.58,4.32s-.28,2.77-.28,4.2c0,.71-.11,1.4-.15,2.1-.04.66.01,1.32.04,1.97.06,1.53.13,3.05.19,4.58.03.64.97.64,1,0,.12-2.72.21-5.44-.19-8.14-.09-.63-1.06-.36-.96.27h0Z"/><path class="cls-8" d="m60.41,130.27c.09,1,.13,1.98.05,2.98s.08,2.05.13,3.09c.12,2.15.05,4.3-.02,6.45-.02.64.98.64,1,0,.08-2.15.14-4.3.02-6.45-.05-.99-.22-1.99-.14-2.98s.06-2.04-.04-3.09c-.06-.64-1.06-.64-1,0h0Z"/><path class="cls-8" d="m61.03,130.4c.64,0,.64-1,0-1s-.64,1,0,1h0Z"/><path class="cls-8" d="m60.92,130.3l2.33.05c.74.02,1.5.07,2.24,0,.27-.03.5-.21.5-.5,0-.25-.23-.53-.5-.5-.74.08-1.5.02-2.24,0l-2.33-.05c-.64-.01-.64.99,0,1h0Z"/><path class="cls-8" d="m63.45,130.29c1.56.16,3.13.17,4.7.07.27-.02.5-.22.5-.5,0-.26-.23-.52-.5-.5-1.57.11-3.14.09-4.7-.07-.27-.03-.5.25-.5.5,0,.29.23.47.5.5h0Z"/><path class="cls-8" d="m60.42,142.49l.29,5.37.14,2.63c.05.85.17,1.75-.06,2.58-.17.62.79.89.96.27.22-.8.16-1.61.12-2.43l-.16-2.84-.3-5.58c-.03-.64-1.04-.64-1,0h0Z"/><path class="cls-8" d="m61.53,153.18c.33-1.44,0-2.94.32-4.38.06-.26-.08-.54-.35-.62-.25-.07-.56.08-.62.35-.33,1.44,0,2.94-.32,4.38-.06.26.08.54.35.62.25.07.55-.08.62-.35h0Z"/><path class="cls-8" d="m60.42,147.49c.06,1.86.19,3.72.38,5.57.03.27.21.5.5.5.25,0,.53-.23.5-.5-.19-1.85-.32-3.71-.38-5.57-.02-.64-1.02-.64-1,0h0Z"/><path class="cls-8" d="m60.42,151.25c.07.54.17,1.09.1,1.64l.02-.13s-.01.09-.02.13c-.05.26.07.55.35.62.25.06.56-.07.62-.35.13-.64.02-1.27-.06-1.9-.02-.14-.04-.25-.15-.35-.09-.09-.23-.15-.35-.15s-.26.05-.35.15c-.08.09-.16.23-.15.35h0Z"/><path class="cls-8" d="m25.65,153.65c2.43-.06,4.87-.11,7.3-.06s4.92.24,7.38.3c4.89.12,9.76-.34,14.64-.48,2.76-.08,5.52-.06,8.27.22.64.06.64-.94,0-1-4.86-.48-9.74-.17-14.61.08-2.44.12-4.88.23-7.32.21s-4.92-.21-7.38-.29c-2.76-.09-5.51-.04-8.27.03-.64.02-.64,1.02,0,1h0Z"/><path class="cls-8" d="m35.48,153.68c2.69.02,5.37.01,8.06-.01s5.4-.3,8.02.22c.63.13.9-.84.27-.96-2.64-.53-5.36-.28-8.04-.26s-5.54.03-8.31.02c-.64,0-.64,1,0,1h0Z"/><path class="cls-8" d="m25.19,153.58c-.14.48-.13.98.02,1.45.03.1.07.2.09.3.01.04.02.09.03.13-.02-.11,0,.08,0,.1,0,0-.02.16,0,.06,0,.06-.02.13-.04.19-.03.11-.06.22-.09.33-.08.25.09.56.35.62s.53-.08.62-.35c.07-.24.14-.49.16-.74s-.02-.49-.09-.73c-.03-.1-.07-.2-.09-.3-.01-.04-.02-.09-.03-.13,0-.06-.01-.06,0,0,0-.03,0-.06,0-.09,0-.11,0-.22,0-.33,0,.09,0-.02.01-.05.01-.06.03-.12.05-.18.08-.25-.09-.56-.35-.62s-.53.08-.62.35h0Z"/><path class="cls-8" d="m25.36,154.62c-.37,1.49-.37,3.02-.35,4.55s.08,3.1.18,4.65c.04.64,1.04.64,1,0-.09-1.49-.15-2.98-.18-4.48s-.05-3,.31-4.46c.15-.62-.81-.89-.96-.27h0Z"/><path class="cls-8" d="m24.74,159.26c-.12,2.86-.15,5.73-.11,8.59,0,.64,1.01.64,1,0-.04-2.86,0-5.73.11-8.59.03-.64-.97-.64-1,0h0Z"/><path class="cls-8" d="m24.55,166.41c-.04,1.22-.12,2.44-.22,3.66-.02.27.25.5.5.5.29,0,.48-.23.5-.5.1-1.22.18-2.44.22-3.66,0-.27-.24-.5-.5-.5-.28,0-.49.23-.5.5h0Z"/><path class="cls-8" d="m24.85,170.5c.13-.04.26-.07.4-.09l-.13.02c.37-.05.73-.02,1.1.02.12.01.27-.06.35-.15.09-.09.15-.23.15-.35s-.05-.26-.15-.35-.21-.13-.35-.15c-.54-.05-1.1-.09-1.63.09-.12.04-.23.11-.3.23-.06.11-.09.27-.05.39.08.25.35.44.62.35h0Z"/><path class="cls-8" d="m24.66,170.72c.21.05.44.04.65.05.19,0,.37.02.56.03.26.01.51-.24.5-.5-.01-.28-.22-.49-.5-.5-.17,0-.34-.02-.51-.02s-.34,0-.5-.03l.13.02s-.04,0-.06-.01c-.13-.03-.27-.02-.39.05-.1.06-.2.18-.23.3-.03.13-.02.27.05.39.07.11.17.2.3.23h0Z"/></g><g id="person"><path class="cls-3" d="m85.43,48.93c.61,2,1.04,4.71-.29,6.82-2.16,3.43-7.78,3.38-10.01,3.48-5.86.27-14.5,3.19-26.54,15.01l-6.53,6.31-5.66,10.01-1.27,2.1c-.39-.11-.94-.23-1.6-.22-2.69.05-5.35,2.19-6.2,4.93-.2.63-.88,2.84.29,4.64,1.58,2.43,5.44,2.42,7.83,1.6,3.96-1.37,5.22-5.46,5.37-5.95l12.98-16.46,15.44-8.27c-.82,2.12-1.59,4.52-2.21,7.18-1.45,6.25-1.57,11.81-1.27,16.1l-16.1,15.66c-.4.73-1.02,1.86-1.74,3.26-5.03,9.81-4.76,12.64-8.27,15.44-1.67,1.33-3.4,2.03-6.67,3.34-2.53,1.01-3.72,1.22-4.93,1.16-1.87-.09-3.34-.79-4.21-1.31.04,3.4,1.1,4.91,2.03,5.66,2.85,2.28,6.56-.88,12.47,1.38,2.04.78,2.75,1.59,4.13,1.31,2.4-.5,3.78-3.69,4.57-6.31l8.46-16.1,20.91-14.36,11.06-5.44,11.78-2.18,24.8-16.53,32.85-12.18c.74.23,2.09.53,3.7.22,2.53-.5,4.04-2.21,4.57-2.83,2.27-2.66.81-4.14,2.61-11.85.68-2.9,1.38-4.81.54-7.24-.46-1.32-1.19-2.27-1.73-2.87-1.18-1.82-1.82-2.05-2.18-1.96-.78.2-.54,2.06-1.31,5.33,0,0-.66,3.23-2.05,6.17-.79,1.68-2.28,4.17-5.16,6.7-9.89,2.56-19.77,5.12-29.66,7.69l-28.06,16.1c.26-1.78.61-3.68,1.09-5.66,1.2-4.95,2.88-9.17,4.57-12.62l21.1-10.22,13.92-16.31c.41.59,1.11,1.36,2.18,1.74,2.65.95,6.07-1.08,6.96-3.48,1.5-4.02-3.71-10.16-7.61-9.35-2.36.49-3.61,3.38-3.92,4.13l-15.44,15.23-11.31,4.57c-.55-.33-1.45-.76-2.61-.87-2.12-.2-4.42,1.37-5,1.74-.84.53-1.4,1.02-1.81.8-.29-.16-.41-.63-.36-1.67.05-1.07.29-2.68,1.15-4.62"/><circle class="cls-3" cx="91.67" cy="25.12" r="24.62"/><path class="cls-9" d="m86.06,49.75c.49,1.8.19,3.67-.27,5.45-.08.31.4.44.48.13.48-1.86.78-3.83.27-5.71-.08-.31-.57-.18-.48.13h0Z"/><path class="cls-9" d="m86.18,55.42c1.18-.38,2.35-.75,3.52-1.15s2.35-.91,3.51-1.4,2.33-1,3.48-1.5,2.2-1,3.19-1.68c.26-.18.01-.61-.25-.43-.98.67-2.05,1.18-3.14,1.66s-2.28.98-3.42,1.48-2.31,1-3.51,1.4-2.35.77-3.52,1.15c-.3.1-.17.58.13.48h0Z"/><path class="cls-9" d="m86.36,50.04c2.41.47,4.87.65,7.32.5,1.2-.07,2.39-.22,3.57-.43.62-.11,1.23-.25,1.84-.4.42-.11.95-.2,1.14-.64.12-.29-.31-.55-.43-.25-.1.25-.38.29-.61.36-.27.07-.53.14-.8.2-.53.12-1.07.23-1.61.32-1.14.19-2.29.32-3.44.37-2.29.11-4.59-.06-6.84-.5-.31-.06-.45.42-.13.48h0Z"/><path class="cls-9" d="m97.59,49.94c.23-.01.43-.09.65-.16s.43-.1.64-.14c.45-.08.87-.21,1.29-.4l-.3-.39c-.16.13-.28.3-.36.48-.05.12-.04.27.09.34.11.06.29.04.34-.09.07-.15.15-.28.28-.38.09-.08.09-.24.02-.33-.08-.1-.21-.12-.32-.06-.37.17-.76.28-1.17.35-.2.04-.4.07-.6.13-.18.05-.37.15-.56.16-.32.02-.32.52,0,.5h0Z"/><path class="cls-9" d="m96.23,51.2c.92-.58,2.06-.68,2.98-1.26.27-.17.03-.59-.25-.43-.9.51-1.98.54-2.93.93l.19.46c.59-.38,1.29-.51,1.98-.61.13-.02.21-.19.17-.31-.04-.14-.17-.19-.31-.17-.73.1-1.47.25-2.1.66-.23.14-.08.57.19.46.99-.4,2.1-.45,3.05-.98l-.25-.43c-.93.58-2.06.68-2.98,1.26-.27.17-.02.6.25.43h0Z"/><path class="cls-9" d="m86.61,54.92c.63-.5,1.41-.7,2.17-.93.83-.25,1.64-.57,2.45-.89,1.71-.68,3.42-1.36,5.13-2.05l-.19-.46c-1.53.81-3.14,1.48-4.73,2.18-.81.36-1.64.69-2.47.99-.41.15-.83.29-1.25.43-.21.07-.42.13-.63.2-.16.05-.46.2-.61.1l.09.34c.69-1.51.88-3.17.55-4.8l-.37.28c.27.2.59.26.92.29.42.05.85.07,1.27.1.83.04,1.67.05,2.51.04,1.7-.03,3.39-.16,5.08-.29l-.18-.43c-.57.6-1.32.94-2.1,1.19-.86.28-1.74.51-2.62.77-1.81.54-3.6,1.14-5.3,1.95-.25.12-.08.55.19.46.88-.29,1.75-.59,2.63-.88.44-.15.88-.28,1.3-.46s.8-.38,1.22-.52c.82-.27,1.7-.34,2.52-.65.74-.27,1.38-.72,1.9-1.31.2-.22-.05-.5-.3-.39-.74.31-1.3.91-2.04,1.22s-1.55.43-2.34.57-1.59.29-2.35.58c-.81.31-1.6.69-2.45.88l.31.31c.4-1.02.57-2.12.49-3.21-.02-.32-.5-.33-.5,0,0,1.01-.14,2.02-.27,3.02-.04.28.44.34.49.07.12-.64.3-1.28.56-1.88.1-.24.24-.47.24-.73s-.12-.51-.24-.75c-.12-.22-.47-.12-.47.13.02,1.04.03,2.08.03,3.13l.32-.24c-.55-.15,0-.93.15-1.18.26-.45.39-.94.4-1.46,0-.2-.29-.35-.43-.18-.54.68-.5,1.8-.45,2.62.02.25.33.34.47.13.46-.69.69-1.48.68-2.31,0-.28-.41-.34-.49-.07-.23.81-.15,1.68-.47,2.47l.48.13c.18-.95.41-1.88.68-2.8l-.49-.07c.12.95-.16,1.85-.47,2.73-.1.29.3.4.46.19.41-.55.88-.85,1.54-1.01s1.33-.29,1.99-.45,1.34-.34,2.01-.53c.58-.17,1.18-.33,1.7-.66.2-.13.13-.46-.13-.47-1.55-.01-3.09.27-4.63.36-.38.02-.76.03-1.14.02-.27,0-.62-.1-.87.04s-.29.45-.37.69c-.12.37-.24.73-.37,1.1-.08.23.26.43.42.24.65-.75,1.8-.68,2.7-.86.95-.19,1.88-.49,2.77-.87l-.25-.43c-.67.37-1.53.15-2.26.34-.39.1-.76.26-1.16.32-.23.04-.45.03-.68,0-.09-.01-.54-.05-.58-.11-.1-.16-.33-.16-.43,0-.22.34-.39.69-.54,1.07-.1.24.25.41.42.24.29-.28.57-.67.97-.79.43-.13.89-.2,1.34-.26l-.07-.49c-.65.12-1.3.26-1.84.65-.19.14-.14.46.13.47.28,0,.55-.02.83-.06.32-.05.18-.53-.13-.48-.23.04-.46.05-.69.05l.13.47c.51-.37,1.12-.49,1.72-.6.27-.05.21-.53-.07-.49-.52.06-1.07.14-1.58.3-.45.15-.76.57-1.09.89l.42.24c.13-.33.3-.65.49-.95h-.43c.21.34.82.35,1.17.38.5.04.98-.1,1.45-.25s.96-.2,1.47-.22c.45-.01.87-.06,1.27-.28.29-.16.03-.56-.25-.43-.96.41-1.96.71-2.99.89-.91.15-1.93.17-2.58.93l.42.24c.1-.31.21-.62.31-.93.05-.14.08-.31.15-.44.09-.16.2-.12.37-.11.68.04,1.37,0,2.04-.05,1.34-.12,2.68-.33,4.03-.32l-.13-.47c-.56.37-1.24.52-1.87.7-.73.21-1.46.39-2.19.56-.65.15-1.33.24-1.96.46s-1.02.6-1.4,1.11l.46.19c.32-.92.61-1.88.49-2.87-.03-.26-.41-.36-.49-.07-.27.92-.5,1.86-.68,2.8-.06.32.36.43.48.13.32-.79.24-1.66.47-2.47l-.49-.07c.01.74-.2,1.44-.61,2.05l.47.13c-.02-.39-.02-.78.01-1.17.03-.36.06-.81.29-1.1l-.43-.18c0,.39-.09.77-.28,1.12-.15.27-.34.52-.44.83-.14.47.04,1.03.54,1.17.16.04.32-.08.32-.24,0-1.04,0-2.08-.03-3.13l-.47.13c.16.31.21.5.07.82-.1.21-.19.43-.27.65-.18.49-.32.99-.41,1.51l.49.07c.13-1,.26-2.01.27-3.02h-.5c.08,1.06-.08,2.09-.47,3.08-.07.19.14.35.31.31.87-.2,1.67-.59,2.5-.9.78-.29,1.58-.44,2.4-.57s1.59-.28,2.33-.59,1.32-.92,2.07-1.23l-.3-.39c-.53.6-1.18,1.03-1.95,1.27-.81.25-1.67.33-2.46.63-.38.14-.73.33-1.1.48-.41.17-.84.3-1.26.44-.86.29-1.71.58-2.57.86l.19.46c1.77-.84,3.64-1.44,5.52-2,1.57-.46,3.41-.76,4.59-1.99.14-.15.05-.44-.18-.43-1.61.12-3.22.25-4.83.29-.79.02-1.59.02-2.38-.01-.41-.02-.81-.04-1.22-.07-.37-.03-.77-.03-1.08-.26-.19-.14-.41.09-.37.28.3,1.48.13,3.04-.5,4.41-.06.13-.03.26.09.34.31.21.68.05,1-.05.46-.14.91-.29,1.37-.44.9-.31,1.8-.66,2.68-1.04,1.73-.74,3.48-1.48,5.15-2.36.25-.13.07-.56-.19-.46-1.78.71-3.57,1.43-5.35,2.14-.81.32-1.63.62-2.47.87-.77.23-1.51.48-2.14.98-.25.2.1.55.35.35h0Z"/><path class="cls-9" d="m70.33,72.31l1.33-.74-.34-.34c-.85,1.26-1.32,2.72-1.69,4.19-.41,1.62-.76,3.25-1.11,4.87-.71,3.33-1.32,6.69-1.76,10.06-.25,1.91-.44,3.82-.57,5.74-.02.32.48.32.5,0,.45-6.69,1.7-13.29,3.24-19.8.4-1.68.85-3.37,1.82-4.81.14-.22-.13-.46-.34-.34l-1.33.74c-.28.16-.03.59.25.43h0Z"/><path class="cls-9" d="m66.65,94.94c0-3.69,1-7.26,1.62-10.87.05-.31-.43-.45-.48-.13-.63,3.65-1.63,7.27-1.64,11,0,.32.5.32.5,0h0Z"/><path class="cls-9" d="m67.05,83.31c-.87,3.35-.87,6.79-.94,10.23,0,.24.35.35.47.13.07-.13.11-.26.15-.4.07-.31-.41-.45-.48-.13-.02.1-.05.19-.1.28l.47.13c.07-3.39.06-6.78.92-10.09.08-.31-.4-.44-.48-.13h0Z"/><path class="cls-9" d="m67.43,82.66c-.66,2.14-1,4.38-1.03,6.62,0,.29.4.33.49.07.76-2.19.81-4.51,1.12-6.79.16-1.12.4-2.22.78-3.29s.89-2.18,1.17-3.32c.08-.31-.41-.45-.48-.13-.28,1.14-.77,2.22-1.17,3.32s-.63,2.17-.78,3.29c-.32,2.27-.37,4.6-1.12,6.79l.49.07c.02-2.2.36-4.38,1.01-6.49.09-.31-.39-.44-.48-.13h0Z"/><path class="cls-9" d="m68.21,79.86c-.22,1.24-.49,2.47-.81,3.69-.08.31.4.44.48.13.32-1.22.59-2.45.81-3.69.06-.31-.43-.45-.48-.13h0Z"/><path class="cls-9" d="m67.22,84.11c.05-.56.15-1.07.37-1.59.2-.47.34-.94.44-1.44.2-1,.43-1.98.76-2.95.67-1.98,1.58-3.87,2.22-5.86.03-.09-.02-.24-.11-.28-.68-.3-1.08.47-1.24,1.01-.25.81-.38,1.67-.56,2.5-.07.31.41.45.48.13s.59-3.42,1.06-3.21l-.11-.28c-.66,2.02-1.58,3.95-2.26,5.97-.34,1.01-.54,2.02-.76,3.06-.11.52-.31.98-.5,1.47s-.24.97-.29,1.48c-.03.32.47.32.5,0h0Z"/><path class="cls-9" d="m70.31,72.47c-.31.22-.48.51-.63.85-.18.42-.35.85-.51,1.28-.34.91-.62,1.84-.89,2.78-.53,1.84-1.13,3.71-1.3,5.62-.03.32.47.32.5,0,.16-1.79.73-3.54,1.22-5.26.24-.84.49-1.68.78-2.5.14-.41.29-.82.46-1.23.15-.37.28-.87.63-1.11.26-.18.01-.62-.25-.43h0Z"/><path class="cls-9" d="m68.53,110.37c.91-1.16,1.78-2.36,2.78-3.45s2.11-1.86,3.29-2.65c2.42-1.61,5-3.04,7.81-3.86,1.58-.46,3.22-.71,4.87-.69.32,0,.32-.5,0-.5-2.98-.04-5.88.8-8.55,2.08-1.33.64-2.61,1.38-3.85,2.19s-2.43,1.57-3.45,2.58c-1.21,1.2-2.2,2.61-3.25,3.94-.2.25.16.61.35.35h0Z"/><path class="cls-9" d="m68.51,110.43c2.24-1.7,4.46-3.44,6.81-4.98s4.69-2.72,7.18-3.77c1.43-.61,2.88-1.15,4.35-1.65.3-.1.17-.59-.13-.48-2.58.88-5.11,1.9-7.55,3.12s-4.81,2.76-7.04,4.41c-1.3.96-2.59,1.94-3.88,2.92-.25.19,0,.63.25.43h0Z"/><path class="cls-9" d="m86.88,99.42c-2.55.29-4.52,2.16-6.99,2.72l.19.46c1.72-.8,3.26-2.22,5.22-2.41l-.07-.49c-2.81,1.12-5.54,2.4-8.19,3.86l.3.39c1.78-1.47,3.68-2.99,6.02-3.39l-.19-.46c-1.49.69-2.9,1.52-4.23,2.49-.25.19-.03.6.25.43.88-.52,1.72-1.08,2.54-1.68.18-.13.15-.48-.13-.47-1.17.07-2.22.73-3.2,1.31-1.04.62-2.03,1.3-2.98,2.04l.35.35c.79-.64,1.58-1.28,2.39-1.91.71-.55,1.47-1.04,2.37-1.18l-.19-.46c-1.81.98-3.61,1.97-5.42,2.95-.24.13-.08.56.19.46,1.02-.4,1.9-1.03,2.76-1.69.25-.19,0-.63-.25-.43-.8.6-1.59,1.19-2.39,1.79-.74.56-1.48,1.13-2.27,1.62-1.24.76-2.62,1.41-3.41,2.69-.17.28.26.53.43.25.77-1.26,2.19-1.86,3.39-2.61.77-.49,1.48-1.05,2.21-1.59.76-.57,1.52-1.14,2.29-1.72l-.25-.43c-.82.63-1.67,1.26-2.64,1.64l.19.46c1.81-.98,3.61-1.97,5.42-2.95.27-.15.07-.5-.19-.46-.93.14-1.73.65-2.47,1.22-.85.65-1.67,1.33-2.5,2-.25.2.1.55.35.35.89-.69,1.82-1.32,2.78-1.9s1.95-1.24,3.05-1.3l-.13-.47c-.82.6-1.67,1.16-2.54,1.68l.25.43c1.32-.97,2.74-1.8,4.23-2.49.28-.13.07-.5-.19-.46-2.42.42-4.39,2-6.24,3.52-.23.19.06.52.3.39,2.61-1.43,5.3-2.71,8.07-3.81.24-.09.24-.52-.07-.49-2.07.2-3.65,1.63-5.47,2.48-.27.12-.07.52.19.46,2.41-.55,4.36-2.42,6.85-2.7.32-.04.32-.54,0-.5h0Z"/><path class="cls-9" d="m69.43,109.47c1.28-1.1,2.37-2.41,3.8-3.34s2.96-1.55,4.51-2.18c.29-.12.17-.6-.13-.48-1.59.64-3.19,1.29-4.63,2.23s-2.58,2.29-3.9,3.42c-.24.21.11.56.35.35h0Z"/><path class="cls-9" d="m77.24,102.82c-1.23.32-2.18,1.18-3.11,2.01-.5.45-1.01.87-1.56,1.26s-1.15.81-1.61,1.34c-.17.2.06.57.3.39,1.25-.94,2.51-1.86,3.78-2.76.26-.18.01-.62-.25-.43-1.28.9-2.54,1.82-3.78,2.76l.3.39c.45-.52,1-.9,1.56-1.3.52-.37,1.01-.76,1.48-1.18.91-.81,1.82-1.7,3.03-2.01.31-.08.18-.56-.13-.48h0Z"/><path class="cls-9" d="m74.79,104c-1.34.75-2.58,1.68-3.69,2.75-.23.22.12.58.35.35,1.08-1.04,2.28-1.94,3.58-2.67.28-.16.03-.59-.25-.43h0Z"/><path class="cls-9" d="m76.45,104.81c2.57-1.44,5.24-2.69,7.99-3.75.3-.11.17-.6-.13-.48-2.79,1.08-5.5,2.35-8.11,3.8-.28.16-.03.59.25.43h0Z"/><path class="cls-9" d="m83.94,99.93c-.33,0-.64.15-.92.32s-.57.37-.86.55c-.11.07-.16.22-.09.34.07.11.23.16.34.09.27-.17.54-.35.81-.52.23-.15.47-.27.71-.28.13,0,.26-.11.25-.25s-.11-.25-.25-.25h0Z"/><path class="cls-9" d="m77.57,104.3c.7-.52,1.53-.86,2.31-1.24.84-.41,1.67-.81,2.51-1.22.29-.14.04-.57-.25-.43-.84.4-1.67.81-2.51,1.22-.78.38-1.61.72-2.31,1.24-.26.19,0,.62.25.43h0Z"/><path class="cls-9" d="m75.97,103.76c.69-.47,1.54-.59,2.31-.87.13-.05.21-.17.17-.31-.03-.12-.18-.22-.31-.17-.81.29-1.7.42-2.43.92-.11.08-.16.22-.09.34.06.11.23.17.34.09h0Z"/><path class="cls-9" d="m78.17,103.95c1.61-.77,3.22-1.56,4.84-2.31.29-.14.04-.57-.25-.43-1.62.76-3.23,1.54-4.84,2.31-.29.14-.04.57.25.43h0Z"/><path class="cls-9" d="m68.33,82.65c.03-.54.24-1.03.45-1.52.22-.52.44-1.04.68-1.56.46-1.02.94-2.03,1.45-3.03s1.03-1.94,1.57-2.9c.51-.89,1.15-1.77,1.43-2.77.05-.17-.12-.37-.31-.31-.93.33-1.84.71-2.73,1.13l.3.39c.77-.72,1.7-1.22,2.72-1.49l-.24-.42c-1.15,1.14-2.06,2.48-2.97,3.81-.43.64-.84,1.28-1.13,1.99-.31.76-.51,1.56-.71,2.35-.07.28.3.43.46.19.7-1.11,1.35-2.24,1.94-3.41.13-.25-.18-.51-.39-.3-.74.74-1.41,1.53-2.03,2.37l.43.25,2.63-3.97c.15-.23-.21-.52-.39-.3-.38.45-.71.93-.96,1.46-.12.24.19.52.39.3,1.04-1.11,1.8-2.48,2.63-3.75.16-.24-.19-.49-.39-.3-1.18,1.1-2.05,2.48-2.55,4.01-.08.24.25.41.42.24.86-.85,1.42-1.92,1.96-2.99.13-.26-.17-.48-.39-.3-.88.69-1.67,1.48-2.38,2.35-.2.24.12.59.35.35.74-.74,1.41-1.54,2.02-2.38.17-.24-.19-.48-.39-.3-.61.53-1.19,1.09-1.75,1.67l.39.3c.34-.62.73-1.22,1.18-1.77l-.39-.3c-.21.33-.45.62-.74.89l.35.35c.77-.92,1.64-1.74,2.6-2.47.25-.19,0-.63-.25-.43-.99.75-1.9,1.59-2.7,2.54-.21.24.12.58.35.35.31-.3.58-.63.81-.99.15-.24-.21-.53-.39-.3-.47.59-.9,1.21-1.26,1.87-.13.24.19.51.39.3.56-.58,1.14-1.14,1.75-1.67l-.39-.3c-.59.81-1.24,1.57-1.94,2.28l.35.35c.7-.87,1.5-1.65,2.38-2.35l-.39-.3c-.52,1.03-1.05,2.07-1.88,2.89l.42.24c.47-1.45,1.3-2.75,2.42-3.79l-.39-.3c-.8,1.23-1.54,2.57-2.55,3.65l.39.3c.24-.49.53-.95.89-1.36l-.39-.3-2.63,3.97c-.18.27.25.51.43.25.59-.81,1.24-1.57,1.95-2.27l-.39-.3c-.59,1.17-1.24,2.3-1.94,3.41l.46.19c.18-.74.37-1.49.65-2.2s.71-1.38,1.15-2.02c.88-1.3,1.77-2.6,2.89-3.71.18-.18,0-.48-.24-.42-1.1.29-2.11.85-2.94,1.62-.22.2.06.51.3.39.85-.41,1.73-.77,2.62-1.08l-.31-.31c-.29,1.05-1,1.97-1.53,2.9s-1.08,1.96-1.59,2.96-.98,2.01-1.44,3.03c-.42.95-.99,1.97-1.05,3.02-.02.32.48.32.5,0h0Z"/><path class="cls-9" d="m73.56,71.4c.25-.2.48-.42.69-.66.04-.05.07-.11.07-.18,0-.06-.03-.13-.07-.18-.09-.09-.26-.1-.35,0-.21.24-.44.46-.69.66-.05.04-.07.12-.07.18,0,.06.03.13.07.18s.11.08.18.07c.07,0,.12-.03.18-.07h0Z"/><path class="cls-9" d="m69.28,77.88c-.16.51-.37.99-.55,1.49-.18.54-.33,1.08-.46,1.64-.25,1.09-.41,2.2-.57,3.3-.05.31.44.45.48.13.16-1.11.32-2.21.57-3.3.12-.53.27-1.06.44-1.58s.4-1.03.56-1.55c.1-.31-.39-.44-.48-.13h0Z"/><path class="cls-9" d="m71.13,74.05c-.94,1.33-1.49,2.86-2.02,4.39s-1.02,3.15-1.45,4.75c-.06.24.24.43.42.24.53-.55.69-1.39.93-2.09.28-.82.58-1.64.88-2.45.62-1.66,1.27-3.31,1.96-4.95.12-.29-.24-.52-.43-.25-1.14,1.64-1.65,3.67-2.23,5.55-.64,2.04-1.21,4.1-1.61,6.2-.23,1.18-.4,2.36-.5,3.56-.03.32.47.32.5,0,.37-4.15,1.57-8.2,2.91-12.13.35-1.03.75-2.03,1.37-2.93l-.43-.25c-.66,1.56-1.29,3.14-1.89,4.73-.3.79-.59,1.59-.87,2.39-.14.4-.28.8-.41,1.2s-.25.77-.53,1.07l.42.24c.42-1.56.88-3.11,1.41-4.64s1.07-3.05,2.01-4.38c.19-.26-.25-.51-.43-.25h0Z"/></g></svg>